<svg width="20" height="20" viewBox="0 0 20 20" fill="none" xmlns="http://www.w3.org/2000/svg">
<path fill-rule="evenodd" clip-rule="evenodd" d="M7.02296 4.61729C7.07171 3.29424 8.15995 2.23633 9.49492 2.23633H11.3947C12.7296 2.23633 13.8178 3.29424 13.8666 4.61729H14.7798C15.9085 4.61729 16.8712 5.02012 17.5486 5.74775C18.2213 6.47032 18.5662 7.46254 18.5662 8.565V10.6091C18.5709 10.6533 18.5707 10.6973 18.5662 10.7405V13.8174C18.5662 14.9199 18.2213 15.9122 17.5484 16.6348C16.8709 17.3623 15.908 17.7652 14.779 17.7652H6.10822C4.97953 17.7652 4.01698 17.3623 3.33977 16.6346C2.66728 15.912 2.32267 14.9198 2.32267 13.8174V10.7391C2.31827 10.6968 2.31817 10.6537 2.32267 10.6105V8.565C2.32267 7.46189 2.66916 6.46978 3.34217 5.74753C4.01976 5.02039 4.98197 4.61729 6.10822 4.61729H7.02296ZM8.27471 4.61729H12.6148C12.5674 3.98494 12.0391 3.48633 11.3947 3.48633H9.49492C8.85041 3.48633 8.32211 3.98494 8.27471 4.61729ZM3.57267 11.5639V13.8174C3.57267 14.6618 3.83414 15.331 4.25482 15.783C4.67079 16.23 5.28852 16.5152 6.10822 16.5152H14.779C15.5992 16.5152 16.2174 16.2299 16.6337 15.7829C17.0546 15.3308 17.3162 14.6618 17.3162 13.8174V11.564C12.7389 13.1092 8.15055 13.1092 3.57267 11.5639ZM17.3162 10.2406C12.7313 11.8837 8.15829 11.8837 3.57267 10.2405V8.565C3.57267 7.72135 3.83511 7.05211 4.25668 6.59969C4.67369 6.15218 5.29175 5.86729 6.10822 5.86729H14.7798C15.5996 5.86729 16.2175 6.15244 16.6337 6.59949C17.0546 7.05157 17.3162 7.7207 17.3162 8.565V10.2406ZM8.18007 8.96534C8.18007 8.62017 8.45992 8.34034 8.80508 8.34034H12.0848C12.43 8.34034 12.7098 8.62017 12.7098 8.96534C12.7098 9.31059 12.43 9.59034 12.0848 9.59034H8.80508C8.45992 9.59034 8.18007 9.31059 8.18007 8.96534Z" fill="#EBEEEF"/>
</svg>
