<svg width="20" height="20" viewBox="0 0 20 20" fill="none" xmlns="http://www.w3.org/2000/svg">
<path fill-rule="evenodd" clip-rule="evenodd" d="M13.9911 6.60807C13.9911 6.26289 14.271 5.98307 14.6161 5.98307H15.0872C16.0491 5.98307 16.8768 6.32592 17.4609 6.95297C18.0402 7.57501 18.3328 8.42533 18.3328 9.36242V13.7255C18.3328 14.6592 18.0399 15.509 17.4613 16.1315C16.8779 16.7591 16.0505 17.1049 15.0872 17.1049H8.42462C7.46129 17.1049 6.63231 16.7593 6.04712 16.1325C5.46643 15.5104 5.17094 14.6604 5.17094 13.7255V13.3883C5.17094 13.0431 5.45076 12.7632 5.79594 12.7632C6.14112 12.7632 6.42094 13.0431 6.42094 13.3883V13.7255C6.42094 14.3993 6.63141 14.9266 6.96087 15.2795C7.28584 15.6276 7.77122 15.8549 8.42462 15.8549H15.0872C15.74 15.8549 16.2228 15.6278 16.5457 15.2805C16.8735 14.9279 17.0828 14.4005 17.0828 13.7255V9.36242C17.0828 8.68275 16.8731 8.15592 16.5462 7.80496C16.224 7.45902 15.7413 7.23308 15.0872 7.23308H14.6161C14.271 7.23308 13.9911 6.95325 13.9911 6.60807Z" fill="#EBEEEF"/>
<path fill-rule="evenodd" clip-rule="evenodd" d="M2.95825 3.86218C3.54278 3.23513 4.37057 2.89062 5.33141 2.89062H11.9948C12.9576 2.89062 13.7858 3.23487 14.37 3.86248C14.9496 4.48505 15.2428 5.3358 15.2428 6.27244V10.6314C15.2428 11.5681 14.9496 12.4189 14.3699 13.0415C13.7855 13.6691 12.9571 14.0133 11.994 14.0133H5.33141C4.36855 14.0133 3.54042 13.669 2.95614 13.0414C2.37656 12.4188 2.08337 11.5681 2.08337 10.6314V6.27244C2.08337 5.33501 2.37825 4.48436 2.95825 3.86218ZM3.87258 4.71452C3.54405 5.06694 3.33337 5.59471 3.33337 6.27244V10.6314C3.33337 11.31 3.54331 11.8377 3.87105 12.1897C4.19408 12.5367 4.67747 12.7632 5.33141 12.7632H11.994C12.6485 12.7632 13.132 12.5367 13.4551 12.1897C13.7829 11.8376 13.9928 11.31 13.9928 10.6314V6.27244C13.9928 5.59392 13.7829 5.06626 13.4551 4.71421C13.1321 4.36721 12.6487 4.14062 11.9948 4.14062H5.33141C4.68031 4.14062 4.19658 4.36695 3.87258 4.71452Z" fill="#EBEEEF"/>
<path fill-rule="evenodd" clip-rule="evenodd" d="M2.08337 7.02148C2.08337 6.67631 2.3632 6.39648 2.70837 6.39648H14.6178C14.963 6.39648 15.2428 6.67631 15.2428 7.02148C15.2428 7.36666 14.963 7.64648 14.6178 7.64648H2.70837C2.3632 7.64648 2.08337 7.36666 2.08337 7.02148Z" fill="#EBEEEF"/>
</svg>
