<svg width="20" height="20" viewBox="0 0 20 20" fill="none" xmlns="http://www.w3.org/2000/svg">
<path d="M17.5 9.99999V6.68865C17.5 4.23432 15.9708 2.5 13.5141 2.5H6.48513C4.03568 2.5 2.5 4.23432 2.5 6.68865V13.3113C2.5 15.7657 4.02837 17.5 6.48513 17.5H9.99919M10.5891 12.7539H11M6.22233 12.1664L6.90827 12.8523L8.24449 11.5169M6.22233 7.7979L6.90827 8.48384L8.24449 7.14844M10.5891 8.38867H14.1811" stroke="#EBEEEF" stroke-width="1.25" stroke-linecap="round" stroke-linejoin="round"/>
<path d="M16.3021 13.3007V12.4687C16.2925 11.7263 15.6829 11.1311 14.9405 11.1407C14.2125 11.1495 13.6253 11.7351 13.6125 12.4623V13.3007M16.0821 16.779H13.8293C13.2117 16.779 12.7109 16.2782 12.7109 15.6606V14.3966C12.7109 13.779 13.2117 13.2782 13.8293 13.2782H16.0821C16.6989 13.2782 17.2005 13.779 17.2005 14.3966V15.6606C17.2005 16.2782 16.6989 16.779 16.0821 16.779Z" stroke="#EBEEEF" stroke-linecap="round" stroke-linejoin="round"/>
</svg>
