<svg width="20" height="20" viewBox="0 0 20 20" fill="none" xmlns="http://www.w3.org/2000/svg">
<path d="M17.5 9.99999V6.68865C17.5 4.23432 15.9708 2.5 13.5141 2.5H6.48513C4.03568 2.5 2.5 4.23432 2.5 6.68865V13.3113C2.5 15.7657 4.02837 17.5 6.48513 17.5H9.99919M10.5891 12.7539H11M6.22233 12.1664L6.90827 12.8523L8.24449 11.5169M6.22233 7.7979L6.90827 8.48384L8.24449 7.14844M10.5891 8.38867H14.1811" stroke="#EBEEEF" stroke-width="1.25" stroke-linecap="round" stroke-linejoin="round"/>
<path fill-rule="evenodd" clip-rule="evenodd" d="M13.2554 16.0549L12.6691 16.1533C12.2409 16.2251 11.8618 15.8677 11.9086 15.4347L11.9739 14.8306C12.0054 14.5387 12.1272 14.2637 12.3231 14.0451L14.8764 11.258C15.1781 10.9321 15.6877 10.912 16.0136 11.2145L16.5522 11.7129C16.8781 12.0145 16.8982 12.5233 16.5958 12.85L14.0708 15.6056C13.8578 15.8436 13.5707 16.0024 13.2554 16.0549Z" stroke="#EBEEEF" stroke-width="1.1" stroke-linecap="round" stroke-linejoin="round"/>
</svg>
