<svg width="20" height="20" viewBox="0 0 20 20" fill="none" xmlns="http://www.w3.org/2000/svg">
<path fill-rule="evenodd" clip-rule="evenodd" d="M3.32515 3.24781C4.14555 2.36764 5.31389 1.875 6.69345 1.875H13.7224C15.1051 1.875 16.274 2.36737 17.0941 3.24804C17.9094 4.12367 18.3333 5.33241 18.3333 6.68865V13.3113C18.3333 14.6676 17.9094 15.8763 17.0939 16.752C16.2737 17.6327 15.1046 18.125 13.7216 18.125H6.69345C5.31065 18.125 4.14196 17.6326 3.32212 16.7519C2.507 15.8763 2.08331 14.6675 2.08331 13.3113V6.68865C2.08331 5.33172 2.50929 4.12309 3.32515 3.24781ZM4.23952 4.1001C3.67518 4.70555 3.33331 5.59126 3.33331 6.68865V13.3113C3.33331 14.4095 3.67382 15.2951 4.23707 15.9002C4.7956 16.5002 5.61949 16.875 6.69345 16.875H13.7216C14.796 16.875 15.6203 16.5002 16.1791 15.9001C16.7426 15.295 17.0833 14.4094 17.0833 13.3113V6.68865C17.0833 5.59057 16.7426 4.70497 16.1792 4.09987C15.6205 3.49979 14.7963 3.125 13.7224 3.125H6.69345C5.62355 3.125 4.79932 3.49952 4.23952 4.1001Z" fill="#EBEEEF"/>
<path fill-rule="evenodd" clip-rule="evenodd" d="M10.1725 12.7539C10.1725 12.4087 10.4523 12.1289 10.7975 12.1289H14.3894C14.7346 12.1289 15.0144 12.4087 15.0144 12.7539C15.0144 13.0991 14.7346 13.3789 14.3894 13.3789H10.7975C10.4523 13.3789 10.1725 13.0991 10.1725 12.7539Z" fill="#EBEEEF"/>
<path fill-rule="evenodd" clip-rule="evenodd" d="M8.8949 11.0751C9.1389 11.3193 9.13873 11.715 8.89465 11.959L7.5584 13.2944C7.3143 13.5383 6.91867 13.5383 6.67465 13.2942L5.9887 12.6083C5.74462 12.3643 5.74462 11.9685 5.9887 11.7244C6.23278 11.4803 6.6285 11.4803 6.87259 11.7244L7.11672 11.9686L8.011 11.0748C8.25515 10.8308 8.6509 10.831 8.8949 11.0751Z" fill="#EBEEEF"/>
<path fill-rule="evenodd" clip-rule="evenodd" d="M8.8949 6.70663C9.1389 6.95078 9.13873 7.34651 8.89465 7.59052L7.5584 8.92592C7.3143 9.16983 6.91867 9.16983 6.67465 8.92575L5.9887 8.23984C5.74462 7.99576 5.74462 7.60003 5.9887 7.35596C6.23278 7.11188 6.6285 7.11188 6.87259 7.35596L7.11672 7.60009L8.011 6.70636C8.25515 6.46236 8.6509 6.46248 8.8949 6.70663Z" fill="#EBEEEF"/>
<path fill-rule="evenodd" clip-rule="evenodd" d="M10.1725 8.38867C10.1725 8.04349 10.4523 7.76367 10.7975 7.76367H14.3894C14.7346 7.76367 15.0144 8.04349 15.0144 8.38867C15.0144 8.73383 14.7346 9.01367 14.3894 9.01367H10.7975C10.4523 9.01367 10.1725 8.73383 10.1725 8.38867Z" fill="#EBEEEF"/>
</svg>
