<svg width="20" height="20" viewBox="0 0 20 20" fill="none" xmlns="http://www.w3.org/2000/svg">
<path d="M17.5 9.99999V6.68865C17.5 4.23432 15.9708 2.5 13.5141 2.5H6.48513C4.03568 2.5 2.5 4.23432 2.5 6.68865V13.3113C2.5 15.7657 4.02837 17.5 6.48513 17.5H9.99919M10.5891 12.7539H11M6.22233 12.1664L6.90827 12.8523L8.24449 11.5169M6.22233 7.7979L6.90827 8.48384L8.24449 7.14844M10.5891 8.38867H14.1811" stroke="#EBEEEF" stroke-width="1.25" stroke-linecap="round" stroke-linejoin="round"/>
<path fill-rule="evenodd" clip-rule="evenodd" d="M14.9365 17.3974C16.5168 17.3974 17.7979 16.1163 17.7979 14.536C17.7979 12.9557 16.5168 11.6747 14.9365 11.6747C13.3563 11.6747 12.0752 12.9557 12.0752 14.536C12.0752 16.1163 13.3563 17.3974 14.9365 17.3974ZM16.6548 14.1448C16.8338 13.986 16.8502 13.7121 16.6914 13.5331C16.5325 13.3541 16.2586 13.3377 16.0796 13.4966L14.4991 14.899L13.793 14.2743C13.6138 14.1157 13.3399 14.1324 13.1813 14.3117C13.0228 14.4909 13.0395 14.7647 13.2187 14.9233L14.2124 15.8025C14.3765 15.9477 14.6232 15.9476 14.7872 15.8021L16.6548 14.1448Z" fill="#6EE7B7"/>
</svg>
