<svg width="20" height="20" viewBox="0 0 20 20" fill="none" xmlns="http://www.w3.org/2000/svg">
<path fill-rule="evenodd" clip-rule="evenodd" d="M2.68856 7.88574C2.68856 7.54057 2.96837 7.26074 3.31356 7.26074H16.3955C16.7407 7.26074 17.0205 7.54057 17.0205 7.88574C17.0205 8.23092 16.7407 8.51075 16.3955 8.51075H3.31356C2.96837 8.51075 2.68856 8.23092 2.68856 7.88574Z" fill="#EBEEEF"/>
<path fill-rule="evenodd" clip-rule="evenodd" d="M12.795 1.875C13.1401 1.875 13.42 2.15483 13.42 2.5V4.89358C13.42 5.23875 13.1401 5.51858 12.795 5.51858C12.4498 5.51858 12.17 5.23875 12.17 4.89358V2.5C12.17 2.15483 12.4498 1.875 12.795 1.875Z" fill="#EBEEEF"/>
<path fill-rule="evenodd" clip-rule="evenodd" d="M6.91789 1.875C7.26307 1.875 7.54289 2.15483 7.54289 2.5V4.89358C7.54289 5.23875 7.26307 5.51858 6.91789 5.51858C6.57271 5.51858 6.29289 5.23875 6.29289 4.89358V2.5C6.29289 2.15483 6.57271 1.875 6.91789 1.875Z" fill="#EBEEEF"/>
<path fill-rule="evenodd" clip-rule="evenodd" d="M3.81058 4.06382C4.55778 3.35345 5.59673 3.02327 6.77761 3.02327H12.9359C14.1191 3.02327 15.1585 3.35321 15.9045 4.06443C16.655 4.78006 17.0273 5.8043 17.024 7.02613V9.47C17.024 9.81525 16.7441 10.095 16.399 10.095C16.0537 10.095 15.774 9.81525 15.774 9.47V7.02353C15.7768 6.05904 15.4887 5.39512 15.0419 4.96912C14.5902 4.53849 13.8949 4.27327 12.9359 4.27327H6.77761C5.82194 4.27327 5.12573 4.53825 4.67187 4.96974C4.22283 5.39665 3.93225 6.06137 3.93225 7.02538V13.6077C3.93225 14.5917 4.22473 15.2735 4.67623 15.7111C5.13082 16.1518 5.8257 16.4214 6.77761 16.4214H8.56954C8.91471 16.4214 9.19454 16.7013 9.19454 17.0464C9.19454 17.3916 8.91471 17.6714 8.56954 17.6714H6.77761C5.59298 17.6714 4.55268 17.3322 3.80623 16.6087C3.05668 15.8822 2.68225 14.8446 2.68225 13.6077V7.02538C2.68225 5.80259 3.05858 4.77876 3.81058 4.06382Z" fill="#EBEEEF"/>
<path fill-rule="evenodd" clip-rule="evenodd" d="M13.8909 11.6878C12.4589 11.6878 11.2978 12.8494 11.2978 14.2818C11.2978 15.714 12.4588 16.875 13.8909 16.875C15.324 16.875 16.4849 15.7139 16.4849 14.2818C16.4849 12.8496 15.3238 11.6878 13.8909 11.6878ZM10.0478 14.2818C10.0478 12.1595 11.7682 10.4378 13.8909 10.4378C16.0144 10.4378 17.7349 12.1594 17.7349 14.2818C17.7349 16.4044 16.0142 18.125 13.8909 18.125C11.7684 18.125 10.0478 16.4043 10.0478 14.2818Z" fill="#EBEEEF"/>
<path fill-rule="evenodd" clip-rule="evenodd" d="M13.8735 12.5773C14.2186 12.5773 14.4985 12.8572 14.4985 13.2023V14.1556L15.2116 14.5818C15.508 14.7589 15.6046 15.1426 15.4275 15.4389C15.2505 15.7353 14.8667 15.8318 14.5705 15.6548L13.5529 15.0467C13.364 14.9338 13.2485 14.7301 13.2485 14.5102V13.2023C13.2485 12.8572 13.5283 12.5773 13.8735 12.5773Z" fill="#EBEEEF"/>
</svg>
