<svg width="20" height="20" viewBox="0 0 20 20" fill="none" xmlns="http://www.w3.org/2000/svg">
<path d="M14.4023 18.1249C12.4256 18.1249 9.85229 16.5541 6.75476 13.4583C3.64392 10.3474 2.07226 7.76577 2.08392 5.78577C2.07584 5.36532 2.15708 4.94795 2.32228 4.56124C2.48748 4.17452 2.73288 3.82727 3.04226 3.54244C3.05642 3.52494 3.10059 3.48244 3.11642 3.46661C4.25392 2.32661 5.00392 1.87494 5.79226 1.87494C6.68809 1.88661 7.31976 2.55161 8.12059 3.39244C8.31642 3.59911 8.52979 3.82327 8.76729 4.05911C9.17537 4.43015 9.44421 4.92962 9.52929 5.47458C9.61429 6.01955 9.51037 6.5772 9.23479 7.05494C8.89146 7.93244 8.59562 8.68911 10.0581 10.1516C11.5215 11.6141 12.2773 11.3183 13.154 10.9724C13.6315 10.6969 14.1889 10.5929 14.7337 10.6779C15.2785 10.7628 15.7778 11.0314 16.149 11.4391C16.3823 11.6724 16.604 11.8833 16.8081 12.0774C17.654 12.8816 18.3215 13.5174 18.3331 14.4108C18.3423 15.1741 17.8823 15.9499 16.7448 17.0874L16.6673 17.1616C16.3823 17.4709 16.035 17.7162 15.6484 17.8814C15.2617 18.0465 14.8444 18.1279 14.424 18.1199L14.4023 18.1249ZM4.00309 4.34661C4.00309 4.34661 3.96476 4.38744 3.91392 4.43744C3.7238 4.6073 3.57308 4.81665 3.47232 5.05085C3.37156 5.28505 3.32319 5.53843 3.33059 5.79327C3.32392 6.91661 4.06559 9.00411 7.63559 12.5733C11.1873 16.1241 13.2723 16.8749 14.3981 16.8749H14.4131C14.6682 16.8826 14.922 16.8344 15.1565 16.7335C15.391 16.6328 15.6005 16.4819 15.7706 16.2916C15.8144 16.2459 15.8605 16.2024 15.909 16.1616C16.6856 15.3799 17.0848 14.7983 17.0806 14.4299C17.0765 14.0616 16.6015 13.6074 15.9448 12.9824C15.7331 12.7816 15.504 12.5658 15.2623 12.3224C14.6615 11.7216 14.3315 11.8524 13.6081 12.1358C12.5956 12.5333 11.2123 13.0741 9.17229 11.0349C7.13142 8.99494 7.67226 7.60994 8.06809 6.59911C8.35146 5.87411 8.48479 5.54327 7.88059 4.94244C7.63559 4.69827 7.41476 4.46577 7.21392 4.25244C6.59309 3.59994 6.14476 3.12744 5.77559 3.12327C5.40642 3.11911 4.82559 3.51994 3.99642 4.34827L4.00309 4.34661Z" fill="#EBEEEF"/>
</svg>
