<svg width="20" height="20" viewBox="0 0 20 20" fill="none" xmlns="http://www.w3.org/2000/svg">
<path fill-rule="evenodd" clip-rule="evenodd" d="M8.5859 4.07227C8.13719 4.07227 7.7229 4.31682 7.50495 4.71011C7.39131 4.91662 7.26917 5.1306 7.1538 5.31746C7.04515 5.49345 6.9204 5.68211 6.8029 5.81218C6.79895 5.81656 6.79493 5.82087 6.79085 5.82514C6.39577 6.23833 5.85587 6.48158 5.28467 6.50421C5.27643 6.50453 5.26818 6.5047 5.25994 6.5047C4.19715 6.5047 3.33471 7.36537 3.33331 8.4285V13.1307C3.33331 14.6749 4.5852 15.9274 6.12994 15.9274H14.2867C15.8314 15.9274 17.0833 14.6749 17.0833 13.1307V9.35725C17.0833 9.01208 17.3631 8.73225 17.7083 8.73225C18.0535 8.73225 18.3333 9.01208 18.3333 9.35725V13.1307C18.3333 15.3651 16.522 17.1774 14.2867 17.1774H6.12994C3.89466 17.1774 2.08331 15.3651 2.08331 13.1307V8.42808C2.08533 6.67943 3.49982 5.26257 5.24537 5.25473C5.48593 5.24265 5.7125 5.14042 5.88035 4.96857C5.91635 4.92686 5.98794 4.82641 6.09019 4.66079C6.19056 4.49821 6.30177 4.30383 6.41019 4.10679L6.41093 4.10544C6.84821 3.3153 7.68075 2.82227 8.5859 2.82227H11.8461C12.1913 2.82227 12.4711 3.10209 12.4711 3.44727C12.4711 3.79244 12.1913 4.07227 11.8461 4.07227H8.5859Z" fill="#EBEEEF"/>
<path fill-rule="evenodd" clip-rule="evenodd" d="M15.5745 4.46119L12.7346 7.56176C12.6051 7.70757 12.5243 7.89018 12.5029 8.08475L12.43 8.75758C12.4225 8.82725 12.4839 8.886 12.554 8.87442L13.2055 8.76517C13.4176 8.72933 13.6099 8.62325 13.7513 8.46492L13.7566 8.45892L16.5702 5.3884L16.5725 5.38591C16.6741 5.27617 16.6679 5.10499 16.5578 5.00286L15.9573 4.44769C15.8478 4.34626 15.6766 4.35187 15.5745 4.46119ZM16.8061 3.53006C16.1894 2.959 15.2274 2.99647 14.6566 3.61266L11.8098 6.72066L11.8047 6.72632C11.4993 7.06809 11.3101 7.4957 11.2603 7.94852L11.1872 8.62333C11.091 9.51683 11.8742 10.2547 12.7592 10.1074L13.4127 9.99783C13.9013 9.9155 14.3491 9.67067 14.6808 9.30067L17.4908 6.23398C18.0607 5.61725 18.0229 4.65608 17.4071 4.08564L16.8061 3.53006Z" fill="#EBEEEF"/>
<path fill-rule="evenodd" clip-rule="evenodd" d="M9.18915 8.48408C9.41873 8.74183 9.3959 9.13692 9.13806 9.3665C8.7479 9.714 8.49606 10.2352 8.49606 10.8052C8.49606 11.887 9.36756 12.7585 10.4495 12.7585C11.0193 12.7585 11.5406 12.5067 11.8881 12.1165C12.1177 11.8587 12.5127 11.8359 12.7706 12.0654C13.0283 12.295 13.0511 12.6901 12.8216 12.9478C12.2448 13.5955 11.3876 14.0085 10.4495 14.0085C8.67723 14.0085 7.24607 12.5773 7.24607 10.8052C7.24607 9.86692 7.6591 9.00983 8.30675 8.433C8.56448 8.20344 8.95956 8.2263 9.18915 8.48408Z" fill="#EBEEEF"/>
</svg>
