<svg width="20" height="20" viewBox="0 0 20 20" fill="none" xmlns="http://www.w3.org/2000/svg">
<path fill-rule="evenodd" clip-rule="evenodd" d="M10.2084 3.125C6.41112 3.125 3.33337 6.20274 3.33337 10C3.33337 13.7965 6.41117 16.875 10.2084 16.875C14.0056 16.875 17.0834 13.7965 17.0834 10C17.0834 6.20274 14.0056 3.125 10.2084 3.125ZM2.08337 10C2.08337 5.51239 5.72077 1.875 10.2084 1.875C14.696 1.875 18.3334 5.51239 18.3334 10C18.3334 14.4867 14.696 18.125 10.2084 18.125C5.72072 18.125 2.08337 14.4867 2.08337 10Z" fill="#EBEEEF"/>
<path fill-rule="evenodd" clip-rule="evenodd" d="M13.536 7.63423C13.78 7.87831 13.78 8.27403 13.536 8.51808L9.68779 12.3663C9.44379 12.6103 9.04812 12.6103 8.80404 12.3663L6.87916 10.4422C6.63502 10.1982 6.63494 9.8025 6.87897 9.55842C7.123 9.31425 7.51872 9.31417 7.76285 9.55817L9.24579 11.0405L12.652 7.63423C12.8961 7.39015 13.2919 7.39015 13.536 7.63423Z" fill="#EBEEEF"/>
</svg>
