<svg width="20" height="20" viewBox="0 0 20 20" fill="none" xmlns="http://www.w3.org/2000/svg">
<path fill-rule="evenodd" clip-rule="evenodd" d="M6.22468 12.0581C6.46876 11.814 6.86449 11.814 7.10857 12.0581L9.99996 14.9494L12.8914 12.0581C13.1355 11.814 13.5311 11.814 13.7752 12.0581C14.0193 12.3022 14.0193 12.6979 13.7752 12.9419L10.4419 16.2753C10.1978 16.5194 9.80212 16.5194 9.55804 16.2753L6.22468 12.9419C5.98061 12.6979 5.98061 12.3022 6.22468 12.0581Z" fill="#EBEEEF"/>
<path fill-rule="evenodd" clip-rule="evenodd" d="M9.55804 3.72474C9.80212 3.48067 10.1978 3.48067 10.4419 3.72474L13.7752 7.05808C14.0193 7.30215 14.0193 7.69788 13.7752 7.94196C13.5311 8.18603 13.1355 8.18603 12.8914 7.94196L9.99996 5.05057L7.10857 7.94196C6.86449 8.18603 6.46876 8.18603 6.22468 7.94196C5.98061 7.69788 5.98061 7.30215 6.22468 7.05808L9.55804 3.72474Z" fill="#EBEEEF"/>
</svg>
