<svg width="20" height="20" viewBox="0 0 20 20" fill="none" xmlns="http://www.w3.org/2000/svg">
<path fill-rule="evenodd" clip-rule="evenodd" d="M10.2084 3.125C6.41112 3.125 3.33337 6.20274 3.33337 10C3.33337 13.7965 6.41117 16.875 10.2084 16.875C14.0056 16.875 17.0834 13.7965 17.0834 10C17.0834 6.20274 14.0056 3.125 10.2084 3.125ZM2.08337 10C2.08337 5.51239 5.72077 1.875 10.2084 1.875C14.696 1.875 18.3334 5.51239 18.3334 10C18.3334 14.4867 14.696 18.125 10.2084 18.125C5.72072 18.125 2.08337 14.4867 2.08337 10Z" fill="#EBEEEF"/>
<path fill-rule="evenodd" clip-rule="evenodd" d="M9.93496 6.52181C10.2801 6.52181 10.56 6.80163 10.56 7.14681V10.2073L12.9012 11.6065C13.1975 11.7836 13.2942 12.1673 13.1171 12.4637C12.94 12.7599 12.5563 12.8566 12.26 12.6795L9.61429 11.0984C9.42554 10.9856 9.30996 10.7819 9.30996 10.5619V7.14681C9.30996 6.80163 9.58979 6.52181 9.93496 6.52181Z" fill="#EBEEEF"/>
</svg>
