<svg width="20" height="20" viewBox="0 0 20 20" fill="none" xmlns="http://www.w3.org/2000/svg">
<path fill-rule="evenodd" clip-rule="evenodd" d="M6.53931 4.94299C7.28712 3.95454 8.48381 3.16406 10.2083 3.16406C11.9328 3.16406 13.1295 3.95454 13.8773 4.94299C14.4431 5.69083 14.7554 6.55395 14.8667 7.28234C15.7335 7.39111 16.5276 7.7464 17.1413 8.33425C17.8936 9.05491 18.3333 10.0857 18.3333 11.3215C18.3333 12.9754 17.3477 14.3979 15.9354 15.0362C15.6209 15.1783 15.2506 15.0386 15.1085 14.724C14.9663 14.4094 15.1061 14.0392 15.4206 13.8971C16.4018 13.4537 17.0833 12.4665 17.0833 11.3215C17.0833 10.3941 16.7604 9.70025 16.2766 9.23691C15.7883 8.76916 15.0945 8.49683 14.2889 8.4965C13.9438 8.49633 13.6641 8.21656 13.6641 7.87149C13.6641 7.32244 13.4389 6.43529 12.8805 5.69716C12.3413 4.98452 11.4976 4.41406 10.2083 4.41406C8.91906 4.41406 8.07531 4.98452 7.53616 5.69716C6.97773 6.43529 6.7525 7.32244 6.7525 7.87149C6.7525 8.21458 6.47594 8.4935 6.13286 8.4965C5.32487 8.50341 4.6291 8.77683 4.14003 9.2435C3.65628 9.70516 3.33331 10.3949 3.33331 11.3215C3.33331 12.4667 4.01414 13.4537 4.99581 13.897C5.3104 14.0391 5.45026 14.4092 5.3082 14.7238C5.16613 15.0384 4.79594 15.1783 4.48135 15.0362C3.0679 14.3979 2.08331 12.9752 2.08331 11.3215C2.08331 10.0848 2.52413 9.05766 3.27707 8.33916C3.89116 7.75318 4.68488 7.3989 5.54935 7.2859C5.66019 6.55676 5.9726 5.69205 6.53931 4.94299Z" fill="#EBEEEF"/>
<path fill-rule="evenodd" clip-rule="evenodd" d="M9.76598 9.93891C10.0101 9.69483 10.4058 9.69483 10.6499 9.93891L12.9591 12.2481C13.2031 12.4922 13.2031 12.8879 12.9591 13.132C12.715 13.3761 12.3192 13.3761 12.0751 13.132L10.2079 11.2647L8.34065 13.132C8.0966 13.3761 7.70088 13.3761 7.4568 13.132C7.21272 12.8879 7.21272 12.4922 7.4568 12.2481L9.76598 9.93891Z" fill="#EBEEEF"/>
<path fill-rule="evenodd" clip-rule="evenodd" d="M10.2082 9.75583C10.5534 9.75583 10.8333 10.0357 10.8333 10.3808L10.8338 16.2093C10.8339 16.5545 10.5541 16.8343 10.2089 16.8343C9.86373 16.8344 9.5839 16.5546 9.58381 16.2094L9.58331 10.3809C9.58331 10.0357 9.86306 9.75591 10.2082 9.75583Z" fill="#EBEEEF"/>
</svg>
