<svg width="20" height="20" viewBox="0 0 20 20" fill="none" xmlns="http://www.w3.org/2000/svg">
<path fill-rule="evenodd" clip-rule="evenodd" d="M9.13084 11.2923C9.476 11.2923 9.75584 11.5722 9.75584 11.9173C9.75584 12.1243 9.9315 12.4684 10.5698 12.798C11.1761 13.1111 12.0573 13.3233 13.0648 13.3233C14.0724 13.3233 14.9538 13.1111 15.5603 12.798C16.199 12.4683 16.3746 12.1241 16.3746 11.9173C16.3746 11.5722 16.6544 11.2923 16.9996 11.2923C17.3448 11.2923 17.6246 11.5722 17.6246 11.9173C17.6246 12.8318 16.9193 13.5032 16.1338 13.9087C15.3162 14.3307 14.2302 14.5733 13.0648 14.5733C11.8995 14.5733 10.8137 14.3307 9.99625 13.9087C9.21075 13.5031 8.50584 12.8317 8.50584 11.9173C8.50584 11.5722 8.78567 11.2923 9.13084 11.2923Z" fill="#EBEEEF"/>
<path fill-rule="evenodd" clip-rule="evenodd" d="M3.41797 7.45768C3.76315 7.45768 4.04297 7.73751 4.04297 8.08268C4.04297 8.28993 4.21871 8.63408 4.85714 8.96358C5.46368 9.27667 6.34505 9.48875 7.35275 9.48875C7.69793 9.48875 7.97775 9.7685 7.97775 10.1138C7.97775 10.4589 7.69793 10.7388 7.35275 10.7388C6.18753 10.7388 5.1015 10.4963 4.28389 10.0744C3.49816 9.66892 2.79297 8.99758 2.79297 8.08268C2.79297 7.73751 3.07279 7.45768 3.41797 7.45768Z" fill="#EBEEEF"/>
<path fill-rule="evenodd" clip-rule="evenodd" d="M3.41797 3.90625C3.76315 3.90625 4.04297 4.18607 4.04297 4.53125V11.6353C4.04297 11.8426 4.21871 12.1867 4.85714 12.5162C5.46368 12.8292 6.34505 13.0413 7.35275 13.0413C7.69793 13.0413 7.97775 13.3212 7.97775 13.6663C7.97775 14.0116 7.69793 14.2913 7.35275 14.2913C6.18753 14.2913 5.1015 14.049 4.28389 13.6271C3.49816 13.2216 2.79297 12.5503 2.79297 11.6353V4.53125C2.79297 4.18607 3.07279 3.90625 3.41797 3.90625Z" fill="#EBEEEF"/>
<path fill-rule="evenodd" clip-rule="evenodd" d="M4.85721 3.65038C4.2186 3.98005 4.04297 4.32448 4.04297 4.53125C4.04297 4.7385 4.21871 5.08247 4.85714 5.41196C5.46368 5.72498 6.34505 5.93707 7.35275 5.93707C7.69793 5.93707 7.97775 6.2169 7.97775 6.56207C7.97775 6.90725 7.69793 7.18707 7.35275 7.18707C6.18753 7.18707 5.1015 6.94472 4.28389 6.52276C3.49816 6.11726 2.79297 5.44614 2.79297 4.53125C2.79297 3.6167 3.49826 2.94518 4.28382 2.53966C5.10141 2.11759 6.18744 1.875 7.35275 1.875C8.51809 1.875 9.60409 2.11759 10.4217 2.53966C11.2073 2.94518 11.9125 3.61648 11.9125 4.53103C11.9125 4.87622 11.6327 5.15603 11.2875 5.15603C10.9423 5.15603 10.6625 4.87622 10.6625 4.53103C10.6625 4.32427 10.4869 3.98005 9.84834 3.65038C9.24175 3.33726 8.36034 3.125 7.35275 3.125C6.34514 3.125 5.46378 3.33726 4.85721 3.65038Z" fill="#EBEEEF"/>
<path fill-rule="evenodd" clip-rule="evenodd" d="M9.13084 7.74088C9.476 7.74088 9.75584 8.02071 9.75584 8.36592V15.47C9.75584 15.6773 9.93159 16.0215 10.5697 16.3509C11.176 16.6639 12.0572 16.876 13.0648 16.876C14.0725 16.876 14.9539 16.6639 15.5604 16.3509C16.1988 16.0214 16.3746 15.6772 16.3746 15.47V8.36592C16.3746 8.02071 16.6544 7.74088 16.9996 7.74088C17.3448 7.74088 17.6246 8.02071 17.6246 8.36592V15.47C17.6246 16.3848 16.9194 17.0562 16.1337 17.4617C15.3161 17.8837 14.2301 18.126 13.0648 18.126C11.8996 18.126 10.8138 17.8837 9.99634 17.4617C9.21067 17.0561 8.50584 16.3847 8.50584 15.47V8.36592C8.50584 8.02071 8.78567 7.74088 9.13084 7.74088Z" fill="#EBEEEF"/>
<path fill-rule="evenodd" clip-rule="evenodd" d="M10.5698 7.48499C9.9315 7.81458 9.75584 8.15902 9.75584 8.36592C9.75584 8.57283 9.9315 8.91675 10.5698 9.24633C11.1761 9.55942 12.0573 9.77175 13.0648 9.77175C14.0724 9.77175 14.9538 9.55942 15.5603 9.24633C16.199 8.91667 16.3746 8.57267 16.3746 8.36592C16.3746 8.15915 16.199 7.81468 15.5603 7.48502C14.9538 7.1719 14.0724 6.95963 13.0648 6.95963C12.0573 6.95963 11.1761 7.17189 10.5698 7.48499ZM9.99625 6.37432C10.8137 5.95223 11.8995 5.70963 13.0648 5.70963C14.2302 5.70963 15.3162 5.95223 16.1338 6.37429C16.9193 6.77982 17.6246 7.45137 17.6246 8.36592C17.6246 9.2805 16.9193 9.9515 16.1338 10.3571C15.3162 10.7791 14.2302 11.0217 13.0648 11.0217C11.8995 11.0217 10.8137 10.7791 9.99625 10.357C9.21075 9.95142 8.50584 9.28033 8.50584 8.36592C8.50584 7.4515 9.21075 6.77992 9.99625 6.37432Z" fill="#EBEEEF"/>
</svg>
