<svg width="20" height="20" viewBox="0 0 20 20" fill="none" xmlns="http://www.w3.org/2000/svg">
<path fill-rule="evenodd" clip-rule="evenodd" d="M2.08301 6.09487C2.08301 3.89546 3.86597 2.1123 6.06477 2.1123H14.3504C16.5499 2.1123 18.333 3.89536 18.333 6.09487V10.6419C18.333 12.8414 16.5499 14.6245 14.3504 14.6245H6.06477C3.86597 14.6245 2.08301 12.8413 2.08301 10.6419V6.09487ZM6.06477 3.3623C4.55652 3.3623 3.33301 4.58562 3.33301 6.09487V10.6419C3.33301 12.1512 4.55652 13.3745 6.06477 13.3745H14.3504C15.8596 13.3745 17.083 12.151 17.083 10.6419V6.09487C17.083 4.58572 15.8596 3.3623 14.3504 3.3623H6.06477Z" fill="#EBEEEF"/>
<path fill-rule="evenodd" clip-rule="evenodd" d="M5.46191 17.2627C5.46191 16.9175 5.74173 16.6377 6.08691 16.6377H14.3272C14.6723 16.6377 14.9522 16.9175 14.9522 17.2627C14.9522 17.6079 14.6723 17.8877 14.3272 17.8877H6.08691C5.74173 17.8877 5.46191 17.6079 5.46191 17.2627Z" fill="#EBEEEF"/>
<path fill-rule="evenodd" clip-rule="evenodd" d="M8.54459 13.3803C8.88534 13.4357 9.11659 13.7569 9.06117 14.0975L8.53009 17.3619C8.47467 17.7026 8.15351 17.9339 7.81281 17.8784C7.47211 17.8229 7.24087 17.5019 7.29629 17.1611L7.82737 13.8969C7.8828 13.5561 8.20392 13.3249 8.54459 13.3803Z" fill="#EBEEEF"/>
<path fill-rule="evenodd" clip-rule="evenodd" d="M11.8704 13.3803C12.2111 13.3249 12.5322 13.5561 12.5877 13.8969L13.1187 17.1611C13.1742 17.5019 12.9429 17.8229 12.6022 17.8784C12.2615 17.9339 11.9404 17.7026 11.885 17.3619L11.3539 14.0975C11.2985 13.7569 11.5297 13.4357 11.8704 13.3803Z" fill="#EBEEEF"/>
<path fill-rule="evenodd" clip-rule="evenodd" d="M10.1348 10.5107C10.1348 10.1656 10.4146 9.88574 10.7598 9.88574H13.2993C13.6444 9.88574 13.9243 10.1656 13.9243 10.5107C13.9243 10.8559 13.6444 11.1357 13.2993 11.1357H10.7598C10.4146 11.1357 10.1348 10.8559 10.1348 10.5107Z" fill="#EBEEEF"/>
<path fill-rule="evenodd" clip-rule="evenodd" d="M6.67427 5.98091C6.91835 5.73683 7.31408 5.73683 7.55815 5.98091L9.38166 7.80442C9.62574 8.0485 9.62574 8.44424 9.38166 8.68832L7.55815 10.5118C7.31408 10.7559 6.91835 10.7559 6.67427 10.5118C6.43019 10.2677 6.43019 9.87199 6.67427 9.62791L8.05584 8.24637L6.67427 6.86479C6.43019 6.62072 6.43019 6.22498 6.67427 5.98091Z" fill="#EBEEEF"/>
</svg>
