<svg width="20" height="20" viewBox="0 0 20 20" fill="none" xmlns="http://www.w3.org/2000/svg">
<path fill-rule="evenodd" clip-rule="evenodd" d="M2.79608 2.87922C3.39862 2.23193 4.25255 1.875 5.24559 1.875H10.0578C10.9337 1.875 11.7021 2.14991 12.2866 2.66243C12.8692 3.17323 13.23 3.88557 13.3553 4.69427C13.4082 5.03537 13.1745 5.35476 12.8335 5.40764C12.4923 5.46052 12.173 5.22687 12.12 4.88577C12.0335 4.32741 11.796 3.89474 11.4625 3.6023C11.131 3.31158 10.6654 3.125 10.0578 3.125H5.24559C4.56336 3.125 4.05349 3.36302 3.71102 3.73092C3.36397 4.10373 3.14294 4.66019 3.14294 5.37081V9.90308C3.14294 10.5505 3.32719 11.0708 3.62223 11.4381C3.91324 11.8003 4.34025 12.0505 4.9051 12.1205C5.24766 12.163 5.49092 12.4752 5.44844 12.8177C5.40595 13.1602 5.09382 13.4035 4.75127 13.361C3.88112 13.2531 3.15302 12.85 2.64765 12.2208C2.14633 11.5967 1.89294 10.787 1.89294 9.90308V5.37081C1.89294 4.40053 2.19812 3.52157 2.79608 2.87922Z" fill="#EBEEEF"/>
<path fill-rule="evenodd" clip-rule="evenodd" d="M7.495 7.61021C8.0977 6.96377 8.95162 6.60807 9.94445 6.60807H14.755C15.7502 6.60807 16.6045 6.96349 17.207 7.61055C17.8046 8.25256 18.1077 9.13083 18.1077 10.0998V14.6322C18.1077 15.6012 17.8046 16.4794 17.2068 17.1215C16.6043 17.7686 15.7498 18.1239 14.7542 18.1239H9.94445C8.94929 18.1239 8.09494 17.7685 7.49255 17.1214C6.89488 16.4794 6.59184 15.6012 6.59184 14.6322V10.0998C6.59184 9.12991 6.89682 8.25179 7.495 7.61021ZM8.40929 8.46266C8.06264 8.83441 7.84184 9.38958 7.84184 10.0998V14.6322C7.84184 15.3432 8.06175 15.8983 8.40745 16.2697C8.74845 16.636 9.25795 16.8739 9.94445 16.8739H14.7542C15.4412 16.8739 15.951 16.6359 16.292 16.2697C16.6378 15.8983 16.8577 15.3432 16.8577 14.6322V10.0998C16.8577 9.38875 16.6378 8.83366 16.292 8.46225C15.951 8.09599 15.4415 7.85807 14.755 7.85807H9.94445C9.2612 7.85807 8.75137 8.0957 8.40929 8.46266Z" fill="#EBEEEF"/>
</svg>
