<svg width="20" height="20" viewBox="0 0 20 20" fill="none" xmlns="http://www.w3.org/2000/svg">
<path fill-rule="evenodd" clip-rule="evenodd" d="M4.72397 2.80039C4.8412 2.6831 5.00023 2.61719 5.16606 2.61719H15.2498C15.595 2.61719 15.8748 2.89701 15.8748 3.24219H15.2498C15.8748 3.24219 15.8748 3.24219 15.8748 3.24219V3.2452L15.8747 3.25147L15.8746 3.27355C15.8745 3.29245 15.8741 3.3196 15.8735 3.35448C15.8721 3.42422 15.8695 3.52489 15.8645 3.65208C15.8542 3.90631 15.8339 4.26735 15.7933 4.69978C15.7125 5.56168 15.55 6.72115 15.2215 7.88898C14.895 9.04934 14.3915 10.265 13.6014 11.2012C12.9125 12.0172 12.0014 12.6225 10.8304 12.7812V13.82H12.908C13.1799 13.82 13.4205 13.9957 13.5033 14.2545L14.1037 16.1308H14.9951C15.3403 16.1308 15.6201 16.4107 15.6201 16.7558C15.6201 17.101 15.3403 17.3808 14.9951 17.3808H13.6663C13.6536 17.3812 13.641 17.3812 13.6285 17.3808H6.90734C6.89481 17.3812 6.88222 17.3812 6.8696 17.3808H5.5406C5.19543 17.3808 4.9156 17.101 4.9156 16.7558C4.9156 16.4107 5.19543 16.1308 5.5406 16.1308H6.43213L7.03255 14.2545C7.11538 13.9957 7.35602 13.82 7.62782 13.82H9.58037V12.7798C8.41421 12.619 7.5062 12.0148 6.81903 11.2013C6.02843 10.2653 5.52435 9.04967 5.19717 7.88931C4.8679 6.7215 4.70481 5.56205 4.62344 4.70015C4.58262 4.26773 4.56204 3.9067 4.55166 3.65247C4.54647 3.52528 4.54382 3.42461 4.54247 3.35488C4.54179 3.32 4.54144 3.29285 4.54126 3.27395L4.54109 3.25187L4.54106 3.24369C4.54106 3.24369 4.54106 3.24259 5.16606 3.24219L4.54106 3.24259C4.54095 3.07676 4.60675 2.91769 4.72397 2.80039ZM5.81363 3.86719C5.82502 4.06801 5.84216 4.30997 5.86791 4.58267C5.94505 5.39983 6.0983 6.47914 6.40027 7.55009C6.70433 8.6285 7.14642 9.65167 7.77399 10.3947C8.38587 11.1191 9.16571 11.5722 10.2104 11.5722C11.2552 11.5722 12.0348 11.1192 12.6462 10.3948C13.2733 9.65192 13.7148 8.62875 14.0182 7.55041C14.3195 6.4795 14.4721 5.4002 14.5488 4.58305C14.5744 4.31018 14.5914 4.06809 14.6026 3.86719H5.81363ZM10.1823 15.07H8.08403L7.74457 16.1308H12.7913L12.4519 15.07H10.2285C10.2208 15.0703 10.213 15.0704 10.2054 15.0704C10.1976 15.0704 10.19 15.0703 10.1823 15.07Z" fill="#EBEEEF"/>
<path fill-rule="evenodd" clip-rule="evenodd" d="M2.10656 4.6406C2.14204 4.32438 2.40945 4.08529 2.72767 4.08529H5.25346C5.59863 4.08529 5.87846 4.36511 5.87846 4.71029C5.87846 5.05547 5.59863 5.33529 5.25346 5.33529H3.33588C3.34403 5.61344 3.37402 5.97038 3.45435 6.35888C3.63893 7.25149 4.07398 8.24771 5.05386 8.89284C5.34217 9.08259 5.42202 9.47017 5.23222 9.7585C5.04241 10.0468 4.65482 10.1267 4.36652 9.93684C3.00872 9.043 2.45252 7.68691 2.23024 6.612C2.11847 6.07142 2.08726 5.58595 2.08372 5.23525C2.08196 5.05925 2.08714 4.91545 2.093 4.81347C2.09592 4.76243 2.09904 4.72173 2.10155 4.69255C2.10281 4.67796 2.10392 4.66624 2.10478 4.65754L2.10589 4.64675L2.10643 4.6417L2.10656 4.6406C2.10656 4.6406 2.10656 4.6406 2.72767 4.71029L2.10656 4.6406Z" fill="#EBEEEF"/>
<path fill-rule="evenodd" clip-rule="evenodd" d="M14.5378 4.71029C14.5378 4.36511 14.8176 4.08529 15.1628 4.08529H17.6886C18.0068 4.08529 18.2742 4.32438 18.3097 4.6406L17.6886 4.71029C18.3097 4.6406 18.3097 4.6406 18.3097 4.6406L18.31 4.6431L18.3104 4.64675L18.3115 4.65754C18.3124 4.66624 18.3135 4.67796 18.3147 4.69255C18.3172 4.72173 18.3203 4.76243 18.3233 4.81347C18.3291 4.91545 18.3343 5.05925 18.3325 5.23525C18.329 5.58595 18.2978 6.07142 18.186 6.612C17.9637 7.68691 17.4075 9.043 16.0497 9.93684C15.7615 10.1267 15.3739 10.0468 15.184 9.7585C14.9942 9.47017 15.0741 9.08259 15.3624 8.89284C16.3423 8.24771 16.7774 7.25149 16.9619 6.35888C17.0422 5.97038 17.0722 5.61344 17.0804 5.33529H15.1628C14.8176 5.33529 14.5378 5.05547 14.5378 4.71029Z" fill="#EBEEEF"/>
</svg>
