<svg width="20" height="20" viewBox="0 0 20 20" fill="none" xmlns="http://www.w3.org/2000/svg">
<path fill-rule="evenodd" clip-rule="evenodd" d="M3.64258 6.12315C3.64258 4.69756 4.79846 3.54169 6.22404 3.54169C7.64962 3.54169 8.8055 4.69756 8.8055 6.12315C8.8055 7.54872 7.64962 8.7046 6.22404 8.7046C4.79846 8.7046 3.64258 7.54872 3.64258 6.12315ZM6.22404 4.79169C5.48882 4.79169 4.89258 5.38792 4.89258 6.12315C4.89258 6.85836 5.48882 7.4546 6.22404 7.4546C6.95926 7.4546 7.5555 6.85836 7.5555 6.12315C7.5555 5.38792 6.95926 4.79169 6.22404 4.79169ZM6.22404 12.5454C5.48882 12.5454 4.89258 13.1417 4.89258 13.8769C4.89258 14.6121 5.48882 15.2084 6.22404 15.2084C6.95926 15.2084 7.5555 14.6121 7.5555 13.8769C7.5555 13.1417 6.95926 12.5454 6.22404 12.5454ZM3.64258 13.8769C3.64258 12.4514 4.79846 11.2954 6.22404 11.2954C7.64962 11.2954 8.8055 12.4514 8.8055 13.8769C8.8055 15.3024 7.64961 16.4584 6.22404 16.4584C4.79846 16.4584 3.64258 15.3024 3.64258 13.8769Z" fill="#EBEEEF"/>
<path fill-rule="evenodd" clip-rule="evenodd" d="M7.29234 6.91234C7.52702 6.65921 7.92246 6.64425 8.17559 6.87894L16.2984 14.4099C16.5515 14.6446 16.5664 15.04 16.3318 15.2932C16.0971 15.5463 15.7017 15.5613 15.4485 15.3266L7.32573 7.79559C7.0726 7.5609 7.05765 7.16545 7.29234 6.91234Z" fill="#EBEEEF"/>
<path fill-rule="evenodd" clip-rule="evenodd" d="M16.3318 4.7053C16.5664 4.95843 16.5515 5.35387 16.2984 5.58855L8.17559 13.1195C7.92246 13.3542 7.52702 13.3393 7.29234 13.0861C7.05765 12.833 7.0726 12.4376 7.32573 12.2029L15.4485 4.67191C15.7017 4.43723 16.0971 4.45218 16.3318 4.7053Z" fill="#EBEEEF"/>
</svg>
