<svg width="20" height="20" viewBox="0 0 20 20" fill="none" xmlns="http://www.w3.org/2000/svg">
<path fill-rule="evenodd" clip-rule="evenodd" d="M17.4914 11.8921C17.8365 11.8921 18.1164 12.1719 18.1164 12.5171V17.5002C18.1164 17.8455 17.8365 18.1252 17.4914 18.1252C17.1462 18.1252 16.8664 17.8455 16.8664 17.5002V12.5171C16.8664 12.1719 17.1462 11.8921 17.4914 11.8921ZM15.0005 13.5532C15.3457 13.5532 15.6255 13.833 15.6255 14.1782V17.5C15.6255 17.8453 15.3457 18.125 15.0005 18.125C14.6554 18.125 14.3755 17.8453 14.3755 17.5V14.1782C14.3755 13.833 14.6554 13.5532 15.0005 13.5532ZM12.5081 15.2135C12.8533 15.2135 13.1331 15.4933 13.1331 15.8385V17.4998C13.1331 17.845 12.8533 18.1248 12.5081 18.1248C12.163 18.1248 11.8831 17.845 11.8831 17.4998V15.8385C11.8831 15.4933 12.163 15.2135 12.5081 15.2135Z" fill="#EBEEEF"/>
<path fill-rule="evenodd" clip-rule="evenodd" d="M2.92639 4.46207C3.27157 4.46207 3.55139 4.7419 3.55139 5.08707V10.033C3.55185 10.0364 3.55258 10.0413 3.55371 10.0476C3.55856 10.0745 3.57078 10.1269 3.60042 10.1974C3.65802 10.3342 3.78977 10.5591 4.09832 10.8034C4.72459 11.2994 6.12775 11.91 9.19779 11.91C9.54296 11.91 9.82279 12.1898 9.82279 12.535C9.82279 12.8802 9.54296 13.16 9.19779 13.16C5.99641 13.16 4.26387 12.529 3.32231 11.7834C2.84693 11.4069 2.58672 11.0111 2.44833 10.6823C2.37999 10.52 2.34322 10.3784 2.32357 10.2695C2.31375 10.2151 2.30822 10.1688 2.30513 10.1322C2.30358 10.1138 2.30265 10.0978 2.3021 10.0844L2.30154 10.0662L2.30142 10.0585L2.3014 10.0551L2.30139 10.0534C2.30139 10.0534 2.30139 10.0518 2.92639 10.0518H2.30139V5.08707C2.30139 4.7419 2.58122 4.46207 2.92639 4.46207Z" fill="#EBEEEF"/>
<path fill-rule="evenodd" clip-rule="evenodd" d="M15.4695 4.46207C15.8147 4.46207 16.0945 4.7419 16.0945 5.08707V9.22458C16.0945 9.56975 15.8147 9.84958 15.4695 9.84958C15.1244 9.84958 14.8445 9.56975 14.8445 9.22458V5.08707C14.8445 4.7419 15.1244 4.46207 15.4695 4.46207Z" fill="#EBEEEF"/>
<path fill-rule="evenodd" clip-rule="evenodd" d="M2.92639 9.42708C3.27157 9.42708 3.55139 9.70692 3.55139 10.0521V14.9988C3.55185 15.0022 3.55258 15.0071 3.55371 15.0133C3.55855 15.0402 3.57077 15.0926 3.6004 15.1629C3.65797 15.2997 3.7897 15.5245 4.09824 15.7688C4.72453 16.2646 6.12772 16.875 9.19779 16.875C9.54296 16.875 9.82279 17.1548 9.82279 17.5C9.82279 17.8452 9.54296 18.125 9.19779 18.125C5.99644 18.125 4.26394 17.4943 3.32238 16.7488C2.847 16.3725 2.58677 15.9767 2.44836 15.648C2.38001 15.4857 2.34323 15.3442 2.32358 15.2353C2.31376 15.1809 2.30822 15.1347 2.30513 15.0979C2.30358 15.0796 2.30265 15.0637 2.3021 15.0502L2.30154 15.0319L2.30142 15.0243L2.3014 15.0208L2.30139 15.0192C2.30139 15.0192 2.30139 15.0177 2.92639 15.0177H2.30139V10.0518C2.30139 9.70667 2.58122 9.42708 2.92639 9.42708Z" fill="#EBEEEF"/>
<path fill-rule="evenodd" clip-rule="evenodd" d="M3.8499 4.49527C3.61088 4.72323 3.55139 4.90278 3.55139 5.02636C3.55139 5.14995 3.61088 5.32949 3.8499 5.55746C4.09044 5.78687 4.47175 6.02227 4.99449 6.23315C6.03666 6.65356 7.51937 6.92772 9.18904 6.92772C10.8587 6.92772 12.3414 6.65356 13.3835 6.23315C13.9063 6.02227 14.2876 5.78687 14.5282 5.55746C14.7672 5.32949 14.8267 5.14995 14.8267 5.02636C14.8267 4.90278 14.7672 4.72323 14.5282 4.49527C14.2876 4.26585 13.9063 4.03044 13.3835 3.81957C12.3414 3.39916 10.8587 3.125 9.18904 3.125C7.51937 3.125 6.03666 3.39916 4.99449 3.81957C4.47175 4.03044 4.09044 4.26585 3.8499 4.49527ZM4.52686 2.66034C5.75133 2.16639 7.39994 1.875 9.18904 1.875C10.9781 1.875 12.6267 2.16639 13.8512 2.66034C14.4618 2.90664 14.9976 3.21562 15.3909 3.59071C15.7857 3.96725 16.0767 4.45231 16.0767 5.02636C16.0767 5.60041 15.7857 6.08547 15.3909 6.46201C14.9976 6.83709 14.4618 7.14607 13.8512 7.39238C12.6267 7.88633 10.9781 8.17772 9.18904 8.17772C7.39994 8.17772 5.75133 7.88633 4.52686 7.39238C3.91628 7.14607 3.38045 6.83709 2.98718 6.46201C2.59238 6.08547 2.30139 5.60041 2.30139 5.02636C2.30139 4.45231 2.59238 3.96725 2.98718 3.59071C3.38045 3.21562 3.91628 2.90664 4.52686 2.66034Z" fill="#EBEEEF"/>
</svg>
