<svg width="20" height="20" viewBox="0 0 20 20" fill="none" xmlns="http://www.w3.org/2000/svg">
<path fill-rule="evenodd" clip-rule="evenodd" d="M16.1538 7.26668C16.498 7.29501 16.7547 7.59585 16.7272 7.94001C16.7222 7.99668 16.2705 13.5892 16.0105 15.935C15.8488 17.3908 14.8872 18.2767 13.4355 18.3033C12.3247 18.3225 11.253 18.3333 10.2055 18.3333C9.07633 18.3333 7.9755 18.3208 6.88633 18.2983C5.493 18.2708 4.52883 17.3675 4.37133 15.9408C4.10883 13.5742 3.65967 7.99585 3.6555 7.94001C3.62717 7.59585 3.88383 7.29418 4.228 7.26668C4.56717 7.25751 4.87383 7.49585 4.90133 7.83918C4.90399 7.87535 5.08762 10.1534 5.28772 12.4073L5.32791 12.8571C5.42869 13.9774 5.53085 15.0539 5.61383 15.8033C5.703 16.6142 6.1405 17.0325 6.91217 17.0483C8.9955 17.0925 11.1213 17.095 13.413 17.0533C14.233 17.0375 14.6763 16.6275 14.768 15.7975C15.0263 13.4692 15.4763 7.89585 15.4813 7.83918C15.5088 7.49585 15.813 7.25585 16.1538 7.26668ZM11.9545 1.66693C12.7195 1.66693 13.392 2.18276 13.5895 2.92193L13.8012 3.97276C13.8696 4.31724 14.1719 4.56881 14.5219 4.57434L17.2567 4.57443C17.6017 4.57443 17.8817 4.85443 17.8817 5.19943C17.8817 5.54443 17.6017 5.82443 17.2567 5.82443L14.5463 5.82431C14.5421 5.82439 14.5379 5.82443 14.5337 5.82443L14.5133 5.8236L5.86802 5.82433C5.86129 5.8244 5.85457 5.82443 5.84783 5.82443L5.835 5.8236L3.125 5.82443C2.78 5.82443 2.5 5.54443 2.5 5.19943C2.5 4.85443 2.78 4.57443 3.125 4.57443L5.85917 4.5736L5.94335 4.56827C6.25692 4.52759 6.51753 4.28943 6.58117 3.97276L6.78367 2.95943C6.9895 2.18276 7.662 1.66693 8.427 1.66693H11.9545ZM11.9545 2.91693H8.427C8.227 2.91693 8.05117 3.0511 8.00033 3.2436L7.80617 4.2186C7.78149 4.34209 7.74556 4.46111 7.69957 4.57465H12.6822C12.6361 4.46111 12.6001 4.34209 12.5753 4.2186L12.3728 3.20526C12.3303 3.0511 12.1545 2.91693 11.9545 2.91693Z" fill="#EBEEEF"/>
</svg>
