<svg width="20" height="20" viewBox="0 0 20 20" fill="none" xmlns="http://www.w3.org/2000/svg">
<path d="M13.3666 16.1616C13.025 16.1616 12.6833 15.9282 12.4916 15.7032C12.275 15.4699 11.8833 14.8782 11.6 14.4365C11.4083 14.1449 11.4916 13.7615 11.7833 13.5699C12.075 13.3865 12.4583 13.4614 12.65 13.7531C13.0083 14.3031 13.3083 14.7365 13.4333 14.8782C13.4416 14.8865 13.45 14.8949 13.4416 14.8949C14.75 14.7199 15.7083 14.3283 16.4583 13.6616C16.7833 13.3783 16.8916 13.1449 16.8666 12.8115C16.7166 10.8115 16.275 8.9116 15.5166 7.01159C15.2333 6.31159 14.75 5.84477 14.0666 5.61144C13.5583 5.39477 13.0583 5.25308 12.5833 5.16974L12.45 5.14493C12.35 5.12826 12.2416 5.11154 12.1583 5.09488C12.1333 5.17821 12.1083 5.26989 12.0916 5.31989C12.0083 5.61989 11.7166 5.81994 11.4083 5.77827C10.475 5.65327 9.51662 5.65327 8.58329 5.77827C8.27497 5.82827 7.97497 5.62823 7.89997 5.31989C7.8833 5.26989 7.8583 5.17821 7.8333 5.09488C7.74997 5.10321 7.64163 5.12826 7.54163 5.14493L7.39997 5.16974C6.9333 5.25308 6.4333 5.39475 5.9583 5.59475C5.2333 5.84475 4.74997 6.31159 4.46663 7.01159C3.7083 8.9116 3.26663 10.8032 3.11663 12.8115C3.09163 13.1449 3.19997 13.3783 3.52497 13.6616C4.2833 14.3366 5.24163 14.7282 6.5333 14.8949C6.66663 14.7532 6.86663 14.4864 7.34163 13.7531C7.5333 13.4614 7.91663 13.3782 8.2083 13.5699C8.49996 13.7615 8.58329 14.1449 8.39162 14.4365C7.94997 15.1115 7.66663 15.5199 7.4833 15.7115C7.27497 15.9532 6.87497 16.2115 6.46663 16.1449C4.9083 15.9615 3.66663 15.4531 2.69997 14.5948C2.09163 14.0614 1.81663 13.4448 1.87497 12.7114C2.04163 10.5781 2.5083 8.56152 3.31663 6.54487C3.7333 5.5032 4.49997 4.77817 5.52497 4.42817C6.04163 4.2115 6.6333 4.03643 7.19997 3.93643L7.34163 3.91161C8.22497 3.76161 8.64162 3.81989 8.93329 4.47822C9.64162 4.41155 10.35 4.41155 11.0666 4.47822C11.3583 3.81989 11.775 3.75328 12.6666 3.91161L12.8 3.93643C13.3666 4.03643 13.9583 4.21152 14.5166 4.44485C15.5 4.77819 16.2666 5.51154 16.6833 6.54487C17.4916 8.56152 17.9583 10.5781 18.125 12.7114C18.1833 13.4364 17.9083 14.0531 17.3 14.5948C16.3333 15.4531 15.0916 15.9615 13.5 16.1449C13.4583 16.1449 13.4166 16.1532 13.375 16.1532L13.3666 16.1616ZM13.3666 14.9116C13.3666 14.9116 13.3333 14.9116 13.3166 14.9116C13.3333 14.9116 13.35 14.9116 13.3666 14.9116ZM6.64163 14.9116C6.64163 14.9116 6.6583 14.9116 6.66663 14.9116C6.6583 14.9116 6.64997 14.9116 6.64163 14.9116Z" fill="#EBEEEF"/>
<path d="M10 15.0446C8.54171 15.0446 7.08339 14.6112 5.63339 13.7529C5.33339 13.5779 5.24172 13.1945 5.41672 12.8945C5.59172 12.5945 5.97506 12.5029 6.27506 12.6779C8.78337 14.1695 11.2167 14.1695 13.725 12.6779C14.025 12.5029 14.4084 12.6029 14.5834 12.8945C14.7584 13.1945 14.6667 13.5779 14.3667 13.7529C12.9167 14.6195 11.4584 15.0446 10 15.0446Z" fill="#EBEEEF"/>
<path d="M7.6331 11.8443C6.71643 11.8443 5.96643 11.011 5.96643 9.99435C5.96643 8.97769 6.71643 8.15269 7.6331 8.15269C8.54979 8.15269 9.29979 8.97769 9.29979 9.99435C9.29979 11.011 8.54979 11.8443 7.6331 11.8443ZM7.6331 9.40269C7.4081 9.40269 7.21643 9.67769 7.21643 9.99435C7.21643 10.3444 7.4331 10.5943 7.6331 10.5943C7.8581 10.5943 8.04977 10.311 8.04977 9.99435C8.04977 9.67769 7.8581 9.40269 7.6331 9.40269Z" fill="#EBEEEF"/>
<path d="M12.3662 11.8443C11.4495 11.8443 10.6995 11.011 10.6995 9.99435C10.6995 8.97769 11.4495 8.15269 12.3662 8.15269C13.2829 8.15269 14.0329 8.97769 14.0329 9.99435C14.0329 11.011 13.2829 11.8443 12.3662 11.8443ZM12.3662 9.40269C12.1412 9.40269 11.9495 9.67769 11.9495 9.99435C11.9495 10.311 12.1412 10.5943 12.3662 10.5943C12.5912 10.5943 12.7829 10.311 12.7829 9.99435C12.7829 9.67769 12.5912 9.40269 12.3662 9.40269Z" fill="#EBEEEF"/>
</svg>
