<svg width="20" height="20" viewBox="0 0 20 20" fill="none" xmlns="http://www.w3.org/2000/svg">
<path fill-rule="evenodd" clip-rule="evenodd" d="M7.40066 17C6.48071 16.9812 5.60584 16.598 4.96831 15.9345C4.33078 15.271 3.98274 14.3815 4.00066 13.4615V5.39C4.02382 4.48665 4.39754 3.62775 5.04273 2.99505C5.68791 2.36235 6.55396 2.0055 7.45758 2H11.8176C12.1077 2.00057 12.3949 2.05949 12.6618 2.17328C12.9287 2.28705 13.17 2.45336 13.3714 2.66231L16.2899 5.7C16.675 6.10112 16.889 6.63625 16.8868 7.19231V9.42385C16.8868 9.74217 16.629 10.0003 16.3107 10.0008C15.9917 10.0012 15.733 9.74277 15.733 9.42385V7.39654H14.1541C13.4804 7.39369 12.835 7.12418 12.3594 6.64691C11.8837 6.16964 11.6163 5.52345 11.6157 4.84962V3.15311L7.45989 3.15385C6.85843 3.15599 6.28137 3.39195 5.85071 3.81184C5.42006 4.23172 5.16957 4.80262 5.1522 5.40385V13.4715C5.14341 13.7761 5.19499 14.0793 5.304 14.3638C5.413 14.6483 5.57725 14.9084 5.78729 15.1291C5.99733 15.3498 6.24898 15.5267 6.52774 15.6497C6.8065 15.7726 7.10684 15.8391 7.41143 15.8454H10.6431C10.9599 15.8454 11.2176 16.1007 11.2204 16.4175C11.2233 16.7384 10.964 17 10.6431 17H7.40066ZM15.2083 6.24269L12.7695 3.70161V4.84961C12.7695 5.21828 12.9157 5.57192 13.1759 5.83304C13.4362 6.09416 13.7894 6.24147 14.158 6.24269H15.2083Z" fill="#EBEEEF"/>
<path fill-rule="evenodd" clip-rule="evenodd" d="M14.9365 17.3974C16.5168 17.3974 17.7979 16.1163 17.7979 14.536C17.7979 12.9557 16.5168 11.6747 14.9365 11.6747C13.3563 11.6747 12.0752 12.9557 12.0752 14.536C12.0752 16.1163 13.3563 17.3974 14.9365 17.3974ZM16.6548 14.1448C16.8338 13.986 16.8502 13.7121 16.6914 13.5331C16.5325 13.3541 16.2586 13.3377 16.0796 13.4966L14.4991 14.899L13.793 14.2743C13.6138 14.1157 13.3399 14.1324 13.1813 14.3117C13.0228 14.4909 13.0395 14.7647 13.2187 14.9233L14.2124 15.8025C14.3765 15.9477 14.6232 15.9476 14.7872 15.8021L16.6548 14.1448Z" fill="#6EE7B7"/>
</svg>
