<svg width="20" height="20" viewBox="0 0 20 20" fill="none" xmlns="http://www.w3.org/2000/svg">
<path d="M13.5207 17H7.40066C6.48071 16.9812 5.60584 16.598 4.96831 15.9345C4.33078 15.271 3.98274 14.3815 4.00066 13.4615V5.39C4.02382 4.48665 4.39754 3.62775 5.04273 2.99505C5.68791 2.36235 6.55396 2.0055 7.45758 2H11.8176C12.1077 2.00057 12.3949 2.05949 12.6618 2.17328C12.9287 2.28705 13.17 2.45336 13.3714 2.66231L16.2899 5.7C16.675 6.10112 16.889 6.63625 16.8868 7.19231V13.4715C16.8963 14.3824 16.5497 15.2609 15.9209 15.92C15.2922 16.579 14.431 16.9665 13.5207 17ZM7.45989 3.15385C6.85843 3.15599 6.28137 3.39195 5.85071 3.81184C5.42006 4.23172 5.16957 4.80262 5.1522 5.40385V13.4715C5.14341 13.7761 5.19499 14.0793 5.304 14.3638C5.413 14.6483 5.57725 14.9084 5.78729 15.1291C5.99733 15.3498 6.24898 15.5267 6.52774 15.6497C6.8065 15.7726 7.10684 15.8391 7.41143 15.8454H13.4976C14.1051 15.8178 14.6781 15.5551 15.0953 15.1126C15.5125 14.6702 15.7412 14.0827 15.733 13.4746V7.19231C15.7339 6.93422 15.6343 6.68592 15.4553 6.5L12.5384 3.46077C12.4449 3.36388 12.333 3.28672 12.2092 3.23386C12.0854 3.18101 11.9522 3.15354 11.8176 3.15308L7.45989 3.15385Z" fill="#EBEEEF"/>
<path d="M14.1541 7.39654C13.4804 7.39369 12.835 7.12418 12.3594 6.64691C11.8837 6.16964 11.6163 5.52345 11.6157 4.84962V2.625C11.6157 2.47199 11.6765 2.32525 11.7847 2.21705C11.8929 2.10886 12.0396 2.04808 12.1926 2.04808C12.3456 2.04808 12.4924 2.10886 12.6006 2.21705C12.7087 2.32525 12.7695 2.47199 12.7695 2.625V4.84962C12.7695 5.21828 12.9157 5.57192 13.1759 5.83304C13.4362 6.09416 13.7894 6.24147 14.158 6.24269H16.2641C16.4171 6.24269 16.5639 6.30348 16.6721 6.41167C16.7803 6.51986 16.841 6.66661 16.841 6.81962C16.841 6.97262 16.7803 7.11937 16.6721 7.22756C16.5639 7.33575 16.4171 7.39654 16.2641 7.39654H14.1541Z" fill="#EBEEEF"/>
</svg>
