<svg width="20" height="20" viewBox="0 0 20 20" fill="none" xmlns="http://www.w3.org/2000/svg">
<path d="M16.735 11.4184C16.5692 11.4184 16.4102 11.3526 16.293 11.2354C16.1758 11.1182 16.11 10.9592 16.11 10.7934V7.63427C16.1107 7.34257 15.998 7.06202 15.7958 6.85178L12.5508 3.47262C12.4453 3.36303 12.3189 3.27579 12.1791 3.21609C12.0392 3.15639 11.8887 3.12543 11.7367 3.1251H6.88997C6.21662 3.12763 5.57065 3.3919 5.08857 3.862C4.6065 4.3321 4.3261 4.97122 4.30664 5.64427V10.7934C4.30664 10.9592 4.24078 11.1182 4.12357 11.2354C4.00637 11.3526 3.8474 11.4184 3.68164 11.4184C3.51588 11.4184 3.35691 11.3526 3.23969 11.2354C3.12248 11.1182 3.05664 10.9592 3.05664 10.7934V5.62678C3.08219 4.6254 3.49668 3.67332 4.21227 2.97236C4.92785 2.2714 5.88827 1.87664 6.88997 1.87177H11.7383C12.0587 1.8726 12.3756 1.93771 12.6703 2.06324C12.965 2.18877 13.2316 2.3722 13.4542 2.60262L16.6992 5.98261C17.1256 6.42519 17.3632 7.01631 17.3617 7.63094V10.7901C17.3621 10.8726 17.3462 10.9544 17.3148 11.0307C17.2836 11.107 17.2374 11.1764 17.1792 11.2348C17.1209 11.2932 17.0517 11.3395 16.9754 11.371C16.8992 11.4025 16.8175 11.4187 16.735 11.4184Z" fill="#EBEEEF"/>
<path d="M16.6784 7.84701H14.3342C13.5885 7.84502 12.874 7.54756 12.3472 7.01978C11.8202 6.49199 11.5241 5.77692 11.5234 5.03117V2.55537C11.5234 2.3896 11.5892 2.23062 11.7065 2.11342C11.8237 1.99621 11.9827 1.93037 12.1484 1.93037C12.3142 1.93037 12.4732 1.99621 12.5904 2.11342C12.7076 2.23062 12.7734 2.3896 12.7734 2.55537V5.03117C12.7739 5.44575 12.9385 5.84327 13.2313 6.13672C13.5242 6.43019 13.9213 6.59569 14.3359 6.59701H16.6784C16.8442 6.59701 17.0032 6.66288 17.1203 6.78009C17.2376 6.8973 17.3034 7.05625 17.3034 7.22201C17.3034 7.38776 17.2376 7.54674 17.1203 7.66396C17.0032 7.78117 16.8442 7.84701 16.6784 7.84701Z" fill="#EBEEEF"/>
<path d="M3.88672 18.1229C3.72096 18.1229 3.56198 18.057 3.44477 17.9398C3.32757 17.8226 3.26172 17.6636 3.26172 17.4979V13.652C3.26172 13.4863 3.32757 13.3273 3.44477 13.2101C3.56198 13.0929 3.72096 13.027 3.88672 13.027H5.05338C5.31358 13.0127 5.57399 13.0515 5.81867 13.1412C6.06336 13.2309 6.28718 13.3695 6.47647 13.5486C6.66575 13.7278 6.81652 13.9436 6.91957 14.1829C7.02261 14.4224 7.07576 14.6802 7.07576 14.9408C7.07576 15.2014 7.02261 15.4593 6.91957 15.6986C6.81652 15.9379 6.66575 16.1539 6.47647 16.3329C6.28718 16.5121 6.06336 16.6507 5.81867 16.7404C5.57399 16.83 5.31358 16.8689 5.05338 16.8545H4.51422V17.4979C4.51422 17.5801 4.49797 17.6616 4.4664 17.7376C4.43483 17.8136 4.38858 17.8826 4.33027 17.9407C4.27197 17.9988 4.20278 18.0448 4.12667 18.076C4.05055 18.1073 3.96901 18.1232 3.88672 18.1229ZM4.51172 15.6045H5.05089C5.14328 15.6132 5.23647 15.6025 5.32447 15.5731C5.41249 15.5437 5.4934 15.4962 5.56202 15.4337C5.63063 15.3713 5.68545 15.2951 5.72296 15.2102C5.76047 15.1254 5.77984 15.0336 5.77984 14.9408C5.77984 14.848 5.76047 14.7562 5.72296 14.6714C5.68545 14.5864 5.63063 14.5104 5.56202 14.4479C5.4934 14.3854 5.41249 14.3379 5.32447 14.3085C5.23647 14.2791 5.14328 14.2684 5.05089 14.277H4.51172V15.6045Z" fill="#EBEEEF"/>
<path d="M14.6452 18.1291C14.4794 18.1291 14.3204 18.0633 14.2032 17.946C14.086 17.8289 14.0202 17.6699 14.0202 17.5041V13.6491C14.0202 13.4834 14.086 13.3244 14.2032 13.2072C14.3204 13.0899 14.4794 13.0241 14.6452 13.0241H16.7335C16.8992 13.0241 17.0582 13.0899 17.1754 13.2072C17.2927 13.3244 17.3585 13.4834 17.3585 13.6491C17.3585 13.8149 17.2927 13.9739 17.1754 14.091C17.0582 14.2083 16.8992 14.2741 16.7335 14.2741H15.2702V15.2741H16.4127C16.5784 15.2741 16.7374 15.3399 16.8546 15.4572C16.9718 15.5744 17.0377 15.7334 17.0377 15.8991C17.0377 16.0649 16.9718 16.2239 16.8546 16.341C16.7374 16.4583 16.5784 16.5241 16.4127 16.5241H15.2702V17.5033C15.2703 17.5854 15.2542 17.6668 15.2228 17.7427C15.1915 17.8186 15.1455 17.8876 15.0874 17.9458C15.0293 18.0039 14.9604 18.05 14.8846 18.0814C14.8087 18.1129 14.7273 18.1291 14.6452 18.1291Z" fill="#EBEEEF"/>
<path d="M8.95833 18.1291C8.79258 18.1291 8.63358 18.0633 8.51642 17.946C8.39917 17.8289 8.33333 17.6699 8.33333 17.5041V13.6491C8.33333 13.4834 8.39917 13.3244 8.51642 13.2072C8.63358 13.0899 8.79258 13.0241 8.95833 13.0241H9.92167C10.2568 13.0241 10.5887 13.0901 10.8985 13.2184C11.2082 13.3467 11.4895 13.5347 11.7266 13.7717C11.9636 14.0088 12.1516 14.2901 12.2798 14.5998C12.4082 14.9095 12.4742 15.2414 12.4742 15.5766C12.4742 15.9118 12.4082 16.2438 12.2798 16.5534C12.1516 16.8631 11.9636 17.1445 11.7266 17.3815C11.4895 17.6185 11.2082 17.8065 10.8985 17.9349C10.5887 18.0631 10.2568 18.1291 9.92167 18.1291H8.95833ZM9.58167 16.8791H9.92C10.2654 16.8791 10.5967 16.7419 10.841 16.4976C11.0852 16.2534 11.2225 15.922 11.2225 15.5766C11.2225 15.2312 11.0852 14.8999 10.841 14.6556C10.5967 14.4114 10.2654 14.2741 9.92 14.2741H9.58167V16.8791Z" fill="#EBEEEF"/>
</svg>
