<svg width="20" height="20" viewBox="0 0 20 20" fill="none" xmlns="http://www.w3.org/2000/svg">
<path fill-rule="evenodd" clip-rule="evenodd" d="M6.86396 3.125C5.41558 3.125 4.24158 4.299 4.24158 5.74738V13.443C4.24158 14.8913 5.41558 16.0653 6.86396 16.0653H8.90729C9.25246 16.0653 9.53229 16.3452 9.53229 16.6903C9.53229 17.0356 9.25246 17.3153 8.90729 17.3153H6.86396C4.72523 17.3153 2.99158 15.5817 2.99158 13.443V5.74738C2.99158 3.60864 4.72523 1.875 6.86396 1.875H12.4587C14.5975 1.875 16.331 3.60864 16.331 5.74738V8.40042C16.331 8.74558 16.0513 9.02542 15.706 9.02542C15.3609 9.02542 15.081 8.74558 15.081 8.40042V5.74738C15.081 4.299 13.907 3.125 12.4587 3.125H6.86396Z" fill="#EBEEEF"/>
<path fill-rule="evenodd" clip-rule="evenodd" d="M6.34198 7.21354C6.34198 6.86837 6.62179 6.58854 6.96698 6.58854H10.2038C10.549 6.58854 10.8288 6.86837 10.8288 7.21354C10.8288 7.55872 10.549 7.83854 10.2038 7.83854H6.96698C6.62179 7.83854 6.34198 7.55872 6.34198 7.21354ZM6.34119 10.7111C6.34119 10.3658 6.621 10.0861 6.96619 10.0861H8.28784C8.63304 10.0861 8.91287 10.3658 8.91287 10.7111C8.91287 11.0562 8.63304 11.3361 8.28784 11.3361H6.96619C6.621 11.3361 6.34119 11.0562 6.34119 10.7111Z" fill="#EBEEEF"/>
<path d="M13.6915 18.0003C13.4985 18.0008 13.3072 17.9633 13.1288 17.8898C12.9503 17.8163 12.7881 17.7083 12.6515 17.572L12.374 17.2953C12.3314 17.2533 12.2739 17.2296 12.214 17.2295H11.8265C11.4346 17.2288 11.0591 17.0729 10.7821 16.7958C10.5051 16.5187 10.3494 16.143 10.349 15.7512V15.3612C10.3493 15.3303 10.3435 15.2996 10.3317 15.2709C10.32 15.2423 10.3026 15.2163 10.2806 15.1945L10.0123 14.9262C9.73589 14.6505 9.57989 14.2765 9.57855 13.8861C9.57714 13.4957 9.73039 13.1206 10.0048 12.8428L10.0298 12.8187L10.2798 12.5687C10.3221 12.5262 10.3457 12.4687 10.3456 12.4087V12.0212C10.3463 11.6296 10.5021 11.2543 10.7788 10.9772C11.0555 10.7002 11.4307 10.544 11.8223 10.5428H12.2115C12.2716 10.5428 12.3294 10.5192 12.3723 10.477L12.6415 10.2078C12.9179 9.93025 13.2931 9.77358 13.6849 9.77217C14.0767 9.77075 14.4531 9.92475 14.7315 10.2003L15.0073 10.4762C15.0282 10.4973 15.0531 10.5142 15.0806 10.5256C15.1081 10.5371 15.1376 10.5429 15.1673 10.5428H15.5565C15.9484 10.5433 16.3241 10.6992 16.6013 10.9763C16.8785 11.2535 17.0343 11.6293 17.0348 12.0212V12.4095C17.0351 12.4693 17.0584 12.5265 17.0998 12.5695L17.3715 12.8412C17.6483 13.1179 17.8041 13.493 17.8051 13.8843C17.8061 14.2757 17.6519 14.6515 17.3765 14.9295L17.099 15.207C17.0579 15.2491 17.0351 15.3058 17.0356 15.3645V15.7545C17.0352 16.1462 16.8794 16.5217 16.6023 16.7985C16.3253 17.0753 15.9498 17.231 15.5581 17.2312H15.1665C15.1371 17.2311 15.108 17.2368 15.0808 17.2479C15.0536 17.2591 15.029 17.2755 15.0081 17.2962L14.734 17.5687C14.598 17.7063 14.4361 17.8157 14.2576 17.8903C14.079 17.965 13.8875 18.0036 13.694 18.0037L13.6915 18.0003ZM10.8815 13.7337C10.8439 13.7775 10.8242 13.8339 10.8266 13.8916C10.8289 13.9493 10.853 14.0039 10.894 14.0445L11.1673 14.3187C11.4436 14.5953 11.5988 14.9703 11.599 15.3612V15.7512C11.599 15.8116 11.6229 15.8696 11.6656 15.9123C11.7082 15.9552 11.7661 15.9793 11.8265 15.9795H12.214C12.6046 15.9803 12.9792 16.1351 13.2565 16.4103L13.5273 16.6803C13.5491 16.7025 13.575 16.72 13.6036 16.7318C13.6322 16.7438 13.663 16.7498 13.694 16.7495C13.7236 16.7498 13.7531 16.7439 13.7804 16.7325C13.8077 16.721 13.8325 16.7042 13.8531 16.6828L14.129 16.4078C14.2655 16.2708 14.428 16.1623 14.6067 16.0885C14.7856 16.0147 14.9771 15.9771 15.1706 15.9778H15.5615C15.5915 15.978 15.6212 15.9722 15.649 15.9607C15.6767 15.9493 15.7019 15.9324 15.7231 15.9112C15.7657 15.8682 15.7896 15.8101 15.7898 15.7495V15.3612C15.789 14.9712 15.943 14.5968 16.2181 14.3203L16.4923 14.0462C16.5136 14.0249 16.5305 13.9997 16.5421 13.9718C16.5536 13.944 16.5595 13.9143 16.5595 13.8841C16.5595 13.854 16.5536 13.8242 16.5421 13.7964C16.5305 13.7686 16.5136 13.7433 16.4923 13.722L16.2198 13.4487C16.0827 13.312 15.9741 13.1495 15.9001 12.9706C15.8261 12.7916 15.7884 12.5998 15.789 12.4062V12.0178C15.789 11.9573 15.765 11.8993 15.7221 11.8564C15.6793 11.8136 15.6211 11.7895 15.5606 11.7895H15.1715C14.9778 11.7901 14.7859 11.7523 14.607 11.6782C14.428 11.6041 14.2656 11.4952 14.129 11.3578L13.8581 11.0887L13.8456 11.077C13.8039 11.0393 13.7495 11.0184 13.6931 11.0187C13.6633 11.0186 13.6336 11.0245 13.6061 11.0359C13.5784 11.0473 13.5534 11.0642 13.5323 11.0853L13.2606 11.3578C12.9828 11.6334 12.6077 11.7885 12.2165 11.7895H11.8281C11.7677 11.7898 11.7098 11.8139 11.6672 11.8567C11.6246 11.8995 11.6006 11.9574 11.6006 12.0178V12.4062C11.6009 12.5997 11.5631 12.7913 11.4891 12.97C11.4152 13.1488 11.3066 13.3112 11.1698 13.4478L10.899 13.7195L10.8815 13.7337ZM13.2965 15.3253C13.2142 15.3253 13.1328 15.309 13.0569 15.2774C12.9809 15.2457 12.912 15.1995 12.854 15.1412L12.0873 14.3728C11.9736 14.2548 11.9108 14.0968 11.9125 13.933C11.9141 13.7691 11.9801 13.6124 12.0961 13.4968C12.2121 13.381 12.3691 13.3155 12.5329 13.3143C12.6968 13.3131 12.8546 13.3763 12.9723 13.4903L13.2973 13.8153L14.4356 12.677C14.5535 12.5632 14.7113 12.5001 14.8752 12.5014C15.0391 12.5028 15.1958 12.5684 15.3117 12.6843C15.4277 12.8001 15.4935 12.9568 15.495 13.1207C15.4965 13.2845 15.4336 13.4424 15.3198 13.5603L13.7365 15.1437C13.6195 15.2598 13.4613 15.3252 13.2965 15.3253Z" fill="#EBEEEF"/>
</svg>
