<svg width="20" height="20" viewBox="0 0 20 20" fill="none" xmlns="http://www.w3.org/2000/svg">
<path fill-rule="evenodd" clip-rule="evenodd" d="M9.99921 3.54169C10.3444 3.54169 10.6242 3.82151 10.6242 4.16669V11.4217L13.1721 8.86552C13.4159 8.62102 13.8115 8.62035 14.056 8.8641C14.3005 9.10777 14.3011 9.50352 14.0575 9.74794L10.4608 13.3562C10.3698 13.4559 10.247 13.5259 10.1085 13.5504C10.0722 13.5569 10.0352 13.5602 9.99787 13.5602C9.83171 13.5601 9.67237 13.4939 9.55512 13.3762L5.94224 9.74769C5.69869 9.5031 5.69954 9.10735 5.94414 8.86385C6.18874 8.62027 6.58446 8.6211 6.82802 8.86569L9.37421 11.4229V4.16669C9.37421 3.82151 9.65404 3.54169 9.99921 3.54169Z" fill="#EBEEEF"/>
<path fill-rule="evenodd" clip-rule="evenodd" d="M4.98865 15.8333C4.98865 15.4881 5.26846 15.2083 5.61365 15.2083H14.385C14.7301 15.2083 15.01 15.4881 15.01 15.8333C15.01 16.1785 14.7301 16.4583 14.385 16.4583H5.61365C5.26846 16.4583 4.98865 16.1785 4.98865 15.8333Z" fill="#EBEEEF"/>
</svg>
