<svg width="20" height="20" viewBox="0 0 20 20" fill="none" xmlns="http://www.w3.org/2000/svg">
<path fill-rule="evenodd" clip-rule="evenodd" d="M17.292 17.033C17.637 17.033 17.917 17.313 17.917 17.658C17.917 18.003 17.637 18.283 17.292 18.283H11.2479C10.9029 18.283 10.6229 18.003 10.6229 17.658C10.6229 17.313 10.9029 17.033 11.2479 17.033H17.292ZM13.4302 3.0447C13.4719 3.0772 14.866 4.16054 14.866 4.16054C15.3727 4.4622 15.7685 5.00137 15.9185 5.6397C16.0677 6.27137 15.9594 6.92304 15.6119 7.47387C15.6095 7.47754 15.6072 7.48117 15.5992 7.49197L15.5929 7.50032C15.5365 7.57465 15.2913 7.8847 14.0538 9.43519C14.0423 9.45551 14.0292 9.47454 14.015 9.49304C13.9942 9.5203 13.9714 9.54535 13.9472 9.56817C13.8628 9.67445 13.7736 9.78612 13.6799 9.90353L13.49 10.1414C13.098 10.6322 12.6332 11.2142 12.0817 11.9046L11.7986 12.2588C10.7339 13.5914 9.37032 15.2977 7.62352 17.483C7.24102 17.9597 6.66769 18.2372 6.05185 18.2447L3.01935 18.283H3.01102C2.72185 18.283 2.47019 18.0847 2.40269 17.8022L1.72019 14.9097C1.57935 14.3105 1.71935 13.6922 2.10352 13.2122L9.95352 3.39387C9.95685 3.39054 9.95936 3.38637 9.96269 3.38304C10.8235 2.35387 12.3802 2.2022 13.4302 3.0447ZM9.07829 6.48917L3.07935 13.993C2.93685 14.1714 2.88435 14.4014 2.93685 14.6222L3.50435 17.0264L6.03685 16.9947C6.27769 16.9922 6.50019 16.8847 6.64769 16.7014C7.40726 15.751 8.3619 14.5566 9.3434 13.3284L10.0385 12.4585C10.959 11.3066 11.8683 10.1684 12.6292 9.21572L9.07829 6.48917ZM10.9252 4.18054L9.85913 5.5125L13.4098 8.23827C14.0932 7.38225 14.5428 6.81845 14.5844 6.7647C14.721 6.54304 14.7744 6.2297 14.7027 5.92804C14.6294 5.61887 14.4369 5.35637 14.1594 5.18887C14.1002 5.14804 12.696 4.05804 12.6527 4.02387C12.1244 3.60054 11.3535 3.67387 10.9252 4.18054Z" fill="#EBEEEF"/>
</svg>
