<svg width="20" height="20" viewBox="0 0 20 20" fill="none" xmlns="http://www.w3.org/2000/svg">
<path fill-rule="evenodd" clip-rule="evenodd" d="M7.49973 3.125C6.4641 3.125 5.625 3.9641 5.625 4.99973C5.625 6.03537 6.4641 6.87447 7.49973 6.87447L12.4992 6.87528C13.5348 6.87522 14.3748 6.03533 14.3748 4.99973C14.3748 3.96436 13.5351 3.125 12.4992 3.125H7.49973ZM4.375 4.99973C4.375 3.27374 5.77374 1.875 7.49973 1.875H12.4992C14.2249 1.875 15.6248 3.27348 15.6248 4.99973C15.6248 6.72573 14.2252 8.12528 12.4992 8.12528L7.49973 8.12447C7.4997 8.12447 7.49977 8.12447 7.49973 8.12447C5.77379 8.12441 4.375 6.72569 4.375 4.99973Z" fill="#EBEEEF"/>
<path fill-rule="evenodd" clip-rule="evenodd" d="M10.0008 1.875C10.346 1.87503 10.6258 2.15484 10.6258 2.5V12.5005C10.6258 12.8457 10.346 13.1255 10.0008 13.1255C9.65558 13.1255 9.37583 12.8457 9.37583 12.5005V7.53213C9.37525 7.52155 9.375 7.51089 9.375 7.50017L9.37583 2.5C9.37583 2.15484 9.65567 1.87498 10.0008 1.875Z" fill="#EBEEEF"/>
<path fill-rule="evenodd" clip-rule="evenodd" d="M12.4997 8.125C11.4647 8.125 10.625 8.96425 10.625 9.99975C10.625 11.0353 11.4641 11.8744 12.4997 11.8744C13.5357 11.8744 14.3752 11.0351 14.3752 9.99975C14.3752 8.96433 13.5357 8.125 12.4997 8.125ZM9.375 9.99975C9.375 8.2736 10.7747 6.875 12.4997 6.875C14.2254 6.875 15.6252 8.27347 15.6252 9.99975C15.6252 11.726 14.2254 13.1244 12.4997 13.1244C10.7737 13.1244 9.375 11.7257 9.375 9.99975Z" fill="#EBEEEF"/>
<path fill-rule="evenodd" clip-rule="evenodd" d="M7.49973 8.125C6.46436 8.125 5.625 8.96467 5.625 10.0005C5.625 11.0364 6.46436 11.8761 7.49973 11.8761C7.84491 11.8761 8.12473 12.1559 8.12473 12.5011C8.12473 12.8463 7.84491 13.1261 7.49973 13.1261C5.77348 13.1261 4.375 11.7263 4.375 10.0005C4.375 8.27481 5.77348 6.875 7.49973 6.875C7.84491 6.875 8.12473 7.15483 8.12473 7.5C8.12473 7.84518 7.84491 8.125 7.49973 8.125Z" fill="#EBEEEF"/>
<path fill-rule="evenodd" clip-rule="evenodd" d="M7.49973 13.125C6.4641 13.125 5.625 13.9641 5.625 14.9998C5.625 16.0353 6.4641 16.8745 7.49973 16.8745C8.53567 16.8745 9.37525 16.0351 9.37525 14.9998V13.125H7.49973ZM4.375 14.9998C4.375 13.2738 5.77374 11.875 7.49973 11.875H10.0003C10.3454 11.875 10.6253 12.1548 10.6253 12.5V14.9998C10.6253 16.726 9.22542 18.1245 7.49973 18.1245C5.77374 18.1245 4.375 16.7258 4.375 14.9998Z" fill="#EBEEEF"/>
</svg>
