<svg width="20" height="20" viewBox="0 0 20 20" fill="none" xmlns="http://www.w3.org/2000/svg">
<path fill-rule="evenodd" clip-rule="evenodd" d="M3.34185 3.29004C4.14522 2.54185 5.2518 2.15497 6.48842 2.15497H13.9283C15.165 2.15497 16.2715 2.54185 17.075 3.29018C17.8833 4.04318 18.3334 5.11503 18.3334 6.37808V13.6247C18.3334 14.8874 17.8833 15.9589 17.0748 16.7115C16.2714 17.4595 15.1649 17.8462 13.9283 17.8462H6.48842C5.25112 17.8462 4.14467 17.4574 3.34163 16.7089C2.53373 15.9557 2.08337 14.8845 2.08337 13.6247V6.37727C2.08337 5.11456 2.53347 4.04291 3.34185 3.29004ZM4.19377 4.20479C3.66585 4.69644 3.33337 5.42343 3.33337 6.37727V13.6247C3.33337 14.5749 3.66558 15.3019 4.19399 15.7945C4.72725 16.2916 5.51082 16.5962 6.48842 16.5962H13.9283C14.9067 16.5962 15.6902 16.2928 16.223 15.7967C16.7509 15.3053 17.0834 14.5785 17.0834 13.6247V6.37808C17.0834 5.42378 16.7509 4.69658 16.223 4.20485C15.69 3.70846 14.9066 3.40497 13.9283 3.40497H6.48842C5.51014 3.40497 4.72669 3.70847 4.19377 4.20479Z" fill="#EBEEEF"/>
<path fill-rule="evenodd" clip-rule="evenodd" d="M9.04062 8.6091C8.94304 9.47569 8.94012 10.4102 9.04121 11.393C9.06496 11.5726 9.13954 11.6423 9.18779 11.6694C9.23971 11.6986 9.36254 11.7346 9.57738 11.6507C10.3345 11.3449 11.026 10.894 11.5791 10.3939C11.7485 10.2375 11.7904 10.0949 11.7898 9.99602C11.7893 9.89585 11.7447 9.75635 11.5812 9.60844L11.578 9.6056C10.9982 9.0736 10.3271 8.6571 9.57146 8.34744L9.56571 8.3451C9.39388 8.27268 9.26846 8.29545 9.20046 8.33114C9.14213 8.36177 9.06496 8.43252 9.04062 8.6091ZM10.048 7.19185C9.58054 6.99586 9.06079 6.99271 8.61954 7.22433C8.16806 7.4613 7.87206 7.90614 7.80062 8.45144L7.79928 8.46227C7.68988 9.42902 7.68798 10.4587 7.79863 11.5289L7.80011 11.5419C7.86413 12.0559 8.12843 12.5077 8.57496 12.7589C9.01804 13.0082 9.54512 13.0066 10.0372 12.813L10.0422 12.811C10.9465 12.4464 11.7639 11.9124 12.4199 11.319L12.4237 11.3154C12.8118 10.9584 13.0425 10.4934 13.0398 9.98927C13.037 9.48694 12.8029 9.02885 12.4216 8.6831C11.7257 8.04511 10.928 7.55275 10.048 7.19185Z" fill="#EBEEEF"/>
<path fill-rule="evenodd" clip-rule="evenodd" d="M14.0446 6.40948C14.0446 6.0643 14.3244 5.78448 14.6696 5.78448H17.7081C18.0532 5.78448 18.3331 6.0643 18.3331 6.40948C18.3331 6.75466 18.0532 7.03448 17.7081 7.03448H14.6696C14.3244 7.03448 14.0446 6.75466 14.0446 6.40948ZM14.0446 9.98139C14.0446 9.63623 14.3244 9.35639 14.6696 9.35639H17.7081C18.0532 9.35639 18.3331 9.63623 18.3331 9.98139C18.3331 10.3266 18.0532 10.6064 17.7081 10.6064H14.6696C14.3244 10.6064 14.0446 10.3266 14.0446 9.98139ZM14.0446 13.5536C14.0446 13.2085 14.3244 12.9286 14.6696 12.9286H17.7081C18.0532 12.9286 18.3331 13.2085 18.3331 13.5536C18.3331 13.8988 18.0532 14.1786 17.7081 14.1786H14.6696C14.3244 14.1786 14.0446 13.8988 14.0446 13.5536Z" fill="#EBEEEF"/>
<path fill-rule="evenodd" clip-rule="evenodd" d="M2.10291 6.40948C2.10291 6.0643 2.38272 5.78448 2.72791 5.78448H5.7461C6.09127 5.78448 6.3711 6.0643 6.3711 6.40948C6.3711 6.75466 6.09127 7.03448 5.7461 7.03448H2.72791C2.38272 7.03448 2.10291 6.75466 2.10291 6.40948ZM2.10291 9.98139C2.10291 9.63623 2.38272 9.35639 2.72791 9.35639H5.7461C6.09127 9.35639 6.3711 9.63623 6.3711 9.98139C6.3711 10.3266 6.09127 10.6064 5.7461 10.6064H2.72791C2.38272 10.6064 2.10291 10.3266 2.10291 9.98139ZM2.10291 13.5536C2.10291 13.2085 2.38272 12.9286 2.72791 12.9286H5.7461C6.09127 12.9286 6.3711 13.2085 6.3711 13.5536C6.3711 13.8988 6.09127 14.1786 5.7461 14.1786H2.72791C2.38272 14.1786 2.10291 13.8988 2.10291 13.5536Z" fill="#EBEEEF"/>
<path fill-rule="evenodd" clip-rule="evenodd" d="M5.74866 2.24933C6.09383 2.24933 6.37366 2.52915 6.37366 2.87433V17.1271C6.37366 17.4722 6.09383 17.7521 5.74866 17.7521C5.40347 17.7521 5.12366 17.4722 5.12366 17.1271V2.87433C5.12366 2.52915 5.40347 2.24933 5.74866 2.24933Z" fill="#EBEEEF"/>
<path fill-rule="evenodd" clip-rule="evenodd" d="M14.668 2.24933C15.0131 2.24933 15.293 2.52915 15.293 2.87433V17.1279C15.293 17.4731 15.0131 17.7529 14.668 17.7529C14.3227 17.7529 14.043 17.4731 14.043 17.1279V2.87433C14.043 2.52915 14.3227 2.24933 14.668 2.24933Z" fill="#EBEEEF"/>
</svg>
