<svg width="20" height="20" viewBox="0 0 20 20" fill="none" xmlns="http://www.w3.org/2000/svg">
<path fill-rule="evenodd" clip-rule="evenodd" d="M2.56543 11.6893C2.95107 11.2757 3.49179 11.056 4.09997 11.056H6.70031C7.30934 11.056 7.85034 11.2754 8.236 11.6896C8.617 12.0987 8.80025 12.6476 8.80025 13.2305V15.6808C8.80025 16.264 8.61709 16.8131 8.23609 17.2223C7.85042 17.6367 7.30935 17.8562 6.70031 17.8562H4.09997C3.49094 17.8562 2.94986 17.6367 2.56419 17.2223C2.1832 16.8131 2.00006 16.264 2.00006 15.6808V13.2305C2.00006 12.6468 2.18431 12.0981 2.56543 11.6893ZM3.47972 12.5417C3.35 12.6808 3.25006 12.9068 3.25006 13.2305V15.6808C3.25006 16.0058 3.34989 16.2318 3.47914 16.3707C3.60368 16.5045 3.80005 16.6062 4.09997 16.6062H6.70031C7.00023 16.6062 7.1966 16.5045 7.32115 16.3707C7.45039 16.2318 7.55022 16.0058 7.55022 15.6808V13.2305C7.55022 12.9061 7.45047 12.6802 7.32122 12.5414C7.19666 12.4077 7.00024 12.306 6.70031 12.306H4.09997C3.80163 12.306 3.60489 12.4074 3.47972 12.5417Z" fill="#EBEEEF"/>
<path fill-rule="evenodd" clip-rule="evenodd" d="M14.6438 12.0993C13.3431 12.0993 12.2882 13.154 12.2882 14.4557C12.2882 15.7565 13.3429 16.8113 14.6438 16.8113C15.9446 16.8113 16.9994 15.7565 16.9994 14.4557C16.9994 13.154 15.9445 12.0993 14.6438 12.0993ZM11.0382 14.4557C11.0382 12.4638 12.6525 10.8493 14.6438 10.8493C16.6351 10.8493 18.2494 12.4638 18.2494 14.4557C18.2494 16.4469 16.6349 18.0613 14.6438 18.0613C12.6526 18.0613 11.0382 16.4469 11.0382 14.4557Z" fill="#EBEEEF"/>
<path fill-rule="evenodd" clip-rule="evenodd" d="M8.62434 2.65717C9.13242 1.77847 10.4022 1.78137 10.9058 2.66337L13.315 6.89321C13.8139 7.76902 13.1824 8.85893 12.1728 8.85893H7.32317C6.31066 8.85893 5.67894 7.76312 6.18417 6.88708L8.62434 2.65717ZM9.70642 3.28286L7.267 7.51157C7.2584 7.5265 7.25719 7.53662 7.25732 7.54385C7.25748 7.553 7.2602 7.56467 7.26706 7.57655C7.27392 7.58843 7.28263 7.59657 7.2904 7.60124C7.29653 7.60492 7.30581 7.60895 7.32317 7.60895H12.1728C12.19 7.60895 12.1993 7.60495 12.2054 7.60128C12.2132 7.59665 12.2218 7.58859 12.2287 7.57682C12.2355 7.56504 12.2383 7.55344 12.2384 7.54428C12.2386 7.53701 12.2374 7.5269 12.2289 7.51193L9.82025 3.28314C9.8115 3.26793 9.80317 3.2616 9.79684 3.25807C9.78884 3.25357 9.77734 3.25003 9.7635 3.25C9.74967 3.24997 9.73809 3.25345 9.73 3.25792C9.72359 3.26144 9.71525 3.2677 9.70642 3.28286Z" fill="#EBEEEF"/>
</svg>
