<svg width="20" height="20" viewBox="0 0 20 20" fill="none" xmlns="http://www.w3.org/2000/svg">
<path fill-rule="evenodd" clip-rule="evenodd" d="M14.5505 1.88158C14.779 1.91497 14.9705 2.07167 15.0485 2.28909L17.3965 8.83883C17.4668 9.03475 17.435 9.25267 17.3115 9.42025L16.8082 9.04975C17.3115 9.42025 17.311 9.421 17.311 9.421L17.3105 9.42175L17.3093 9.42333L17.3065 9.42708L17.2994 9.43642C17.2939 9.44358 17.287 9.45233 17.2786 9.46267C17.2619 9.48333 17.2394 9.51033 17.2107 9.5425C17.1535 9.60683 17.0716 9.69233 16.9631 9.791C16.746 9.9885 16.4225 10.2384 15.9755 10.477C15.0765 10.9569 13.705 11.3766 11.7461 11.2587C10.0298 11.1555 9.00013 11.5918 8.41421 12.0023C8.11644 12.211 7.92109 12.4214 7.80365 12.5722C7.79883 12.5783 7.79414 12.5845 7.78958 12.5904L9.32571 16.875H13.7663C14.1115 16.875 14.3913 17.1548 14.3913 17.5C14.3913 17.8452 14.1115 18.125 13.7663 18.125H8.90038C8.89063 18.1252 8.88096 18.1252 8.87129 18.125H3.60925C3.26408 18.125 2.98425 17.8452 2.98425 17.5C2.98425 17.1548 3.26408 16.875 3.60925 16.875H7.99777L4.16152 6.17472C4.10558 6.01869 4.11392 5.84682 4.18469 5.69692L4.74985 5.9638C4.18469 5.69692 4.18509 5.69609 4.18509 5.69609L4.18552 5.6952L4.18644 5.69327L4.18859 5.68882L4.19411 5.67763C4.19836 5.66917 4.20373 5.65872 4.21028 5.64642C4.22339 5.62182 4.24124 5.58979 4.26431 5.55149C4.31044 5.47493 4.37759 5.37298 4.46949 5.25502C4.65342 5.01894 4.93685 4.71832 5.34879 4.42971C6.18218 3.84578 7.49534 3.34315 9.47305 3.46208C11.2081 3.56643 12.349 3.19332 13.0386 2.82499C13.3861 2.63942 13.626 2.45135 13.7739 2.31681C13.8479 2.24947 13.8989 2.19547 13.9288 2.16186C13.9437 2.14505 13.9534 2.13336 13.958 2.12767C13.9592 2.12611 13.9606 2.12437 13.9606 2.12437C14.0979 1.94177 14.3241 1.8485 14.5505 1.88158ZM14.1851 3.58493C14.0261 3.69712 13.8409 3.81366 13.6275 3.9276C12.7285 4.40778 11.357 4.82764 9.39805 4.70983C7.68167 4.60661 6.65199 5.04289 6.06606 5.45343C5.76833 5.66204 5.57298 5.87253 5.45554 6.02327C5.45077 6.02939 5.44613 6.03542 5.44161 6.04134L7.31827 11.2758C7.43023 11.1774 7.55605 11.0773 7.6969 10.9787C8.5303 10.3947 9.84346 9.89208 11.8211 10.011C13.5563 10.1153 14.6972 9.74242 15.3869 9.37425C15.7096 9.202 15.9395 9.0275 16.0891 8.89583L14.1851 3.58493ZM7.66 12.7861L7.65962 12.7868L7.6607 12.7847L7.66175 12.7825L7.6624 12.7812" fill="#EBEEEF"/>
</svg>
