<svg width="20" height="20" viewBox="0 0 20 20" fill="none" xmlns="http://www.w3.org/2000/svg">
<path fill-rule="evenodd" clip-rule="evenodd" d="M7.30349 6.9064C7.58281 7.1092 7.64484 7.50003 7.44204 7.77936L5.34864 10.6627C5.25528 10.7957 5.35298 10.9552 5.49286 10.9552H9.93017C10.2753 10.9552 10.5552 11.2351 10.5552 11.5802V16.2698C10.5552 16.4439 10.7768 16.5217 10.8834 16.3773L12.7938 13.7456C12.9965 13.4662 13.3873 13.4042 13.6667 13.6069C13.946 13.8097 14.0081 14.2006 13.8053 14.4799L11.894 17.1129L11.8926 17.1149C11.0778 18.2281 9.30517 17.6621 9.30517 16.2698V12.2052H5.49286C4.31308 12.2052 3.66008 10.8772 4.33209 9.93525L4.33511 9.931L6.43053 7.04495C6.63333 6.76563 7.02417 6.7036 7.30349 6.9064Z" fill="#EBEEEF"/>
<path fill-rule="evenodd" clip-rule="evenodd" d="M10.7738 3.20269L9.56967 4.85888C9.36675 5.13807 8.97583 5.19986 8.69667 4.99688C8.4175 4.79391 8.35567 4.40303 8.55867 4.12384L9.76467 2.46501C10.5794 1.35039 12.353 1.91767 12.353 3.30905V5.7945C12.353 6.13967 12.0732 6.4195 11.728 6.4195C11.3828 6.4195 11.103 6.13967 11.103 5.7945V3.30905C11.103 3.25212 11.0868 3.21952 11.0703 3.19816C11.0508 3.173 11.0194 3.14952 10.9783 3.13616C10.9371 3.12279 10.8974 3.12322 10.8663 3.13231C10.8396 3.14005 10.8069 3.15754 10.7738 3.20269Z" fill="#EBEEEF"/>
<path fill-rule="evenodd" clip-rule="evenodd" d="M13.0811 7.99479C13.0811 7.64962 13.3609 7.36979 13.7061 7.36979H16.1632C17.3418 7.36979 17.9974 8.69692 17.3247 9.63983L17.3214 9.64442L15.9315 11.5557C15.7285 11.8349 15.3376 11.8967 15.0584 11.6937C14.7793 11.4907 14.7175 11.0997 14.9205 10.8206L16.3083 8.91225C16.4008 8.78025 16.3041 8.61983 16.1632 8.61983H13.7061C13.3609 8.61983 13.0811 8.34 13.0811 7.99479Z" fill="#EBEEEF"/>
<path fill-rule="evenodd" clip-rule="evenodd" d="M3.01718 3.27698C3.26763 3.03946 3.66322 3.04992 3.90075 3.30038L16.9613 17.0713C17.1989 17.3217 17.1884 17.7174 16.9379 17.9549C16.6875 18.1924 16.2919 18.182 16.0544 17.9315L2.99378 4.16056C2.75625 3.91011 2.76673 3.51452 3.01718 3.27698Z" fill="#EBEEEF"/>
</svg>
