<svg width="20" height="20" viewBox="0 0 20 20" fill="none" xmlns="http://www.w3.org/2000/svg">
<path fill-rule="evenodd" clip-rule="evenodd" d="M12.6896 4.33594C12.6896 3.99077 12.9695 3.71094 13.3146 3.71094H17.7086C18.0539 3.71094 18.3336 3.99077 18.3336 4.33594C18.3336 4.68113 18.0539 4.96094 17.7086 4.96094H13.3146C12.9695 4.96094 12.6896 4.68113 12.6896 4.33594Z" fill="#EBEEEF"/>
<path fill-rule="evenodd" clip-rule="evenodd" d="M15.1571 10C15.1571 9.65484 15.437 9.37501 15.7821 9.37501H17.7087C18.0539 9.37501 18.3337 9.65484 18.3337 10C18.3337 10.3452 18.0539 10.625 17.7087 10.625H15.7821C15.437 10.625 15.1571 10.3452 15.1571 10Z" fill="#EBEEEF"/>
<path fill-rule="evenodd" clip-rule="evenodd" d="M12.6896 15.6608C12.6896 15.3157 12.9695 15.0358 13.3146 15.0358H17.7086C18.0539 15.0358 18.3336 15.3157 18.3336 15.6608C18.3336 16.006 18.0539 16.2858 17.7086 16.2858H13.3146C12.9695 16.2858 12.6896 16.006 12.6896 15.6608Z" fill="#EBEEEF"/>
<path fill-rule="evenodd" clip-rule="evenodd" d="M8.51296 2.60638C9.02504 2.78719 9.41079 3.28053 9.41079 3.91475V7.69105H12.6179C13.185 7.69105 13.6078 8.04581 13.8039 8.46384C13.9994 8.88051 14.0012 9.41551 13.7012 9.86484L9.01679 16.8748C8.65171 17.4205 8.03139 17.5754 7.51072 17.3916C6.99861 17.2108 6.61287 16.7174 6.61287 16.0832V12.3061H3.40579C2.83904 12.3061 2.41617 11.9519 2.21988 11.5341C2.02426 11.1176 2.02238 10.5826 2.32273 10.1336L7.00686 3.12318C7.37194 2.57742 7.99226 2.42255 8.51296 2.60638ZM8.04602 3.81791L3.36191 10.8283C3.3282 10.8787 3.32374 10.944 3.35129 11.0027C3.36433 11.0304 3.37969 11.0451 3.38801 11.0508C3.39346 11.0547 3.39691 11.0561 3.40579 11.0561H7.23787C7.58305 11.0561 7.86287 11.3359 7.86287 11.6811V16.0832C7.86287 16.1397 7.87824 16.1687 7.88798 16.1823C7.89965 16.1988 7.91425 16.2084 7.92689 16.2128C7.93302 16.215 7.93769 16.2156 7.94046 16.2157C7.94297 16.2158 7.94416 16.2153 7.94416 16.2153L7.94545 16.2148L7.94747 16.2136L7.95002 16.2118C7.9542 16.2086 7.96431 16.1999 7.97747 16.1803L12.6616 9.17067C12.6957 9.11968 12.7 9.05384 12.6722 8.99468C12.6591 8.96676 12.6437 8.95201 12.6354 8.94626C12.63 8.94243 12.6265 8.94101 12.6179 8.94101H8.78579C8.44062 8.94101 8.16078 8.66126 8.16078 8.31605V3.91475C8.16078 3.85824 8.14541 3.82928 8.13567 3.8156C8.12401 3.79923 8.10941 3.78953 8.09677 3.78507C8.09064 3.78291 8.08597 3.78233 8.08319 3.78225C8.08062 3.78218 8.07949 3.78257 8.07949 3.78257L8.07821 3.78313C8.07821 3.78313 8.07595 3.78438 8.07364 3.78614C8.06945 3.78933 8.05922 3.79819 8.04602 3.81791Z" fill="#EBEEEF"/>
</svg>
