<svg width="20" height="20" viewBox="0 0 20 20" fill="none" xmlns="http://www.w3.org/2000/svg">
<path d="M9.92092 18.2389C9.77092 18.2389 9.6125 18.2139 9.4625 18.1639C8.85417 17.9639 8.45425 17.4222 8.45425 16.7806V12.5806H4.51253C3.96253 12.5806 3.47088 12.2722 3.22088 11.7889C2.97088 11.2972 3.02089 10.7222 3.33756 10.2722L8.91258 2.58893C9.28758 2.07226 9.92925 1.86393 10.5376 2.06393C11.1459 2.26393 11.5458 2.8056 11.5458 3.44726V7.64726H15.4876C16.0376 7.64726 16.5376 7.9556 16.7793 8.43891C17.0293 8.93057 16.9793 9.50557 16.6626 9.95557L11.0876 17.6389C10.8043 18.0306 10.3793 18.2389 9.92092 18.2389ZM10.0875 3.23893C10.0375 3.23893 9.97917 3.2556 9.92917 3.32226L4.3542 11.0056C4.28753 11.0972 4.31257 11.1806 4.33757 11.2222C4.36257 11.2639 4.41254 11.3306 4.52088 11.3306H9.08758C9.42925 11.3306 9.71258 11.6139 9.71258 11.9556V16.7806C9.71258 16.9056 9.78758 16.9556 9.85425 16.9722C9.92092 16.9889 10.0126 16.9972 10.0793 16.8972L15.6625 9.21391C15.7292 9.12224 15.7043 9.03891 15.6793 8.99724C15.6543 8.95557 15.6043 8.88891 15.4959 8.88891H10.9293C10.5876 8.88891 10.3043 8.60557 10.3043 8.26393V3.43893C10.3043 3.31393 10.2293 3.26393 10.1626 3.24726C10.1376 3.24726 10.1125 3.23893 10.0875 3.23893Z" fill="#EBEEEF"/>
</svg>
