<svg width="20" height="20" viewBox="0 0 20 20" fill="none" xmlns="http://www.w3.org/2000/svg">
<path fill-rule="evenodd" clip-rule="evenodd" d="M1.94495 9.99983C1.94495 5.85851 5.30256 2.5 9.4448 2.5C13.5305 2.5 16.8526 5.76652 16.9429 9.83033C16.9505 10.1754 16.677 10.4613 16.3319 10.469C15.9868 10.4767 15.7009 10.2032 15.6932 9.85808C15.618 6.47212 12.8494 3.75 9.4448 3.75C5.99301 3.75 3.19495 6.54877 3.19495 9.99983C3.19495 13.4517 5.99296 16.2497 9.4448 16.2497C11.5782 16.2497 13.462 15.182 14.5908 13.5478C14.787 13.2638 15.1763 13.1927 15.4603 13.3888C15.7443 13.585 15.8155 13.9742 15.6193 14.2583C14.267 16.2161 12.006 17.4997 9.4448 17.4997C5.30261 17.4997 1.94495 14.1421 1.94495 9.99983Z" fill="#EBEEEF"/>
<path fill-rule="evenodd" clip-rule="evenodd" d="M6.67481 7.19727C7.01998 7.19727 7.29981 7.47709 7.29981 7.82227V12.1763C7.29981 12.5215 7.01998 12.8013 6.67481 12.8013C6.32962 12.8013 6.0498 12.5215 6.0498 12.1763V7.82227C6.0498 7.47709 6.32962 7.19727 6.67481 7.19727Z" fill="#EBEEEF"/>
<path fill-rule="evenodd" clip-rule="evenodd" d="M10.2246 8.36591C9.83134 8.36591 9.51175 8.68499 9.51175 9.07949V10.9233C9.51175 11.3167 9.83109 11.6362 10.2246 11.6362C10.618 11.6362 10.9374 11.3167 10.9374 10.9233V9.07949C10.9374 8.68499 10.6178 8.36591 10.2246 8.36591ZM8.26172 9.07949C8.26172 7.99513 9.1405 7.11588 10.2246 7.11588C11.3087 7.11588 12.1874 7.99513 12.1874 9.07949V10.9233C12.1874 12.0072 11.3084 12.8862 10.2246 12.8862C9.14075 12.8862 8.26172 12.0072 8.26172 10.9233V9.07949Z" fill="#EBEEEF"/>
<path fill-rule="evenodd" clip-rule="evenodd" d="M17.8822 7.62601C18.1812 7.79845 18.2838 8.18064 18.1113 8.47968L17.0443 10.3299C16.9615 10.4735 16.825 10.5783 16.6649 10.6213C16.5048 10.6643 16.3342 10.6419 16.1906 10.5591L14.3508 9.49776C14.0519 9.32526 13.9493 8.94301 14.1218 8.64401C14.2943 8.34501 14.6765 8.24249 14.9755 8.41501L16.2737 9.16393L17.0285 7.8552C17.201 7.55619 17.5832 7.45357 17.8822 7.62601Z" fill="#EBEEEF"/>
</svg>
