<svg width="20" height="20" viewBox="0 0 20 20" fill="none" xmlns="http://www.w3.org/2000/svg">
<path d="M10 18.125C5.51667 18.125 1.875 14.4833 1.875 10C1.875 5.51667 5.51667 1.875 10 1.875C14.4833 1.875 18.125 5.51667 18.125 10C18.125 14.4833 14.4833 18.125 10 18.125ZM10 3.125C6.20833 3.125 3.125 6.20833 3.125 10C3.125 13.7917 6.20833 16.875 10 16.875C13.7917 16.875 16.875 13.7917 16.875 10C16.875 6.20833 13.7917 3.125 10 3.125Z" fill="#EBEEEF"/>
<path d="M12.234 17.782C12.234 17.782 12.1923 17.782 12.1673 17.782C11.8257 17.7487 11.5757 17.4403 11.609 17.0987C11.7173 15.9903 11.059 14.7987 10.834 14.5737C10.6673 14.407 10.609 14.157 10.6923 13.9237C10.7673 13.6987 10.9757 13.5403 11.209 13.507C12.8173 13.3237 13.8923 12.757 13.8923 10.607C13.8923 10.0653 13.684 9.54867 13.309 9.157C13.1423 8.982 13.0923 8.732 13.1757 8.507C13.3007 8.17366 13.3257 7.83201 13.2673 7.49034C13.034 7.55701 12.6507 7.72366 12.1007 8.09032C11.9507 8.19033 11.759 8.22373 11.584 8.17373C10.5423 7.8904 9.44233 7.8904 8.39233 8.17373C8.21732 8.22373 8.02565 8.19033 7.87565 8.09032C7.33398 7.72366 6.95065 7.56535 6.70898 7.49868C6.65065 7.83202 6.67564 8.18199 6.80064 8.507C6.88398 8.732 6.83398 8.982 6.66732 9.157C6.29232 9.54867 6.08398 10.0737 6.08398 10.6237C6.08398 12.7487 7.15898 13.3153 8.77567 13.5237C9.009 13.557 9.209 13.7153 9.284 13.9403C9.359 14.1653 9.30067 14.4153 9.134 14.582C8.909 14.807 8.25065 15.9987 8.359 17.0987C8.39233 17.4403 8.14232 17.7487 7.80065 17.782C7.45898 17.8237 7.15065 17.5654 7.11732 17.2238C7.02565 16.2654 7.31732 15.2987 7.66732 14.5903C6.46732 14.2737 4.83398 13.3987 4.83398 10.6237C4.83398 9.87367 5.06732 9.16542 5.51732 8.58208C5.35898 7.91539 5.40898 7.22372 5.68398 6.59038C5.75898 6.42372 5.90065 6.29034 6.07565 6.24034C6.26732 6.18201 6.99232 6.05705 8.334 6.90705C9.41733 6.65705 10.5507 6.65705 11.634 6.90705C12.984 6.06538 13.7007 6.18201 13.8923 6.24034C14.0673 6.29034 14.209 6.42372 14.284 6.59038C14.559 7.22372 14.6173 7.92373 14.4507 8.58208C14.8923 9.16542 15.134 9.87367 15.134 10.607C15.134 13.407 13.5007 14.282 12.3007 14.5903C12.6423 15.2903 12.9423 16.2654 12.8423 17.2238C12.809 17.5487 12.5423 17.7903 12.2173 17.7903L12.234 17.782Z" fill="#EBEEEF"/>
</svg>
