<svg width="20" height="20" viewBox="0 0 20 20" fill="none" xmlns="http://www.w3.org/2000/svg">
<path fill-rule="evenodd" clip-rule="evenodd" d="M2.14696 7.42146C1.99518 7.11058 2.12457 6.73624 2.43463 6.58487L9.03212 3.36222C9.79387 2.98949 10.6845 2.98949 11.4463 3.36222L17.2963 6.22029C18.6794 6.89574 18.6794 8.86674 17.2963 9.54224L15.0746 10.6278V13.9156C15.0746 14.9247 14.4854 15.8932 13.5072 16.2822C11.3022 17.1594 9.07529 17.1464 6.8605 16.2772C5.8762 15.8915 5.2805 14.9198 5.2805 13.9042V10.9224C5.2805 10.1152 6.12522 9.58941 6.8487 9.94266L9.58104 11.2772C9.99604 11.4807 10.4819 11.4807 10.8978 11.2772L16.7478 8.41916C17.1954 8.19946 17.1954 7.56143 16.7478 7.34333L10.8978 4.48526C10.4819 4.28181 9.99604 4.28181 9.5802 4.48526L2.98273 7.70792C2.67267 7.86092 2.29872 7.73233 2.14696 7.42146ZM13.8246 11.2382L11.4463 12.4003C10.6845 12.773 9.79387 12.773 9.03212 12.4003L6.5305 11.178V13.9042C6.5305 14.4495 6.85032 14.9312 7.31704 15.1135C9.24371 15.8703 11.1419 15.8768 13.0454 15.12C13.508 14.9361 13.8246 14.4576 13.8246 13.9156V11.2382Z" fill="#EBEEEF"/>
<path d="M3.08364 14.3827C2.73859 14.3827 2.45864 14.1027 2.45864 13.7577V10.3593C2.45864 9.32091 3.21547 8.43707 4.24209 8.27595L7.3679 7.78604C7.62831 7.74535 7.87571 7.87067 8.00225 8.08389C8.04173 8.15062 8.0694 8.2255 8.08201 8.30687C8.13531 8.64866 7.90297 8.96766 7.56118 9.02141L4.43536 9.51132C4.01707 9.57641 3.70864 9.93607 3.70864 10.3593V13.7577C3.70864 13.9628 3.61057 14.1435 3.4588 14.2574C3.35423 14.3355 3.22442 14.3827 3.08364 14.3827Z" fill="#EBEEEF"/>
</svg>
