<svg width="20" height="20" viewBox="0 0 20 20" fill="none" xmlns="http://www.w3.org/2000/svg">
<path d="M10.211 17.5171C10.1199 17.5168 10.0298 17.497 9.94688 17.4588C9.69688 17.3413 3.78608 14.5379 2.40608 10.1146C1.50775 7.31545 2.50692 3.78712 5.73942 2.73712C6.5556 2.48225 7.42031 2.42316 8.26358 2.56462C8.97338 2.72624 9.63854 3.0433 10.211 3.49295C10.783 3.03842 11.4501 2.71881 12.1627 2.55795C13.0058 2.41661 13.8705 2.47774 14.6852 2.73629C17.9127 3.77629 18.9095 7.30629 18.0078 10.1188C16.5444 14.5879 10.7227 17.3429 10.476 17.4579C10.393 17.4965 10.3026 17.5167 10.211 17.5171ZM7.36191 3.73962C6.94062 3.73939 6.52172 3.80289 6.11941 3.92795C3.54441 4.76545 2.89858 7.54629 3.60108 9.73793C4.66691 13.1546 9.08271 15.6121 10.2144 16.1938C11.336 15.6163 15.692 13.1821 16.8211 9.73376C17.5245 7.54129 16.8819 4.75795 14.3052 3.92712C13.6808 3.7285 13.018 3.68165 12.3719 3.79045C11.7143 3.98422 11.1063 4.31764 10.5894 4.76795C10.4812 4.84909 10.3496 4.89295 10.2144 4.89295C10.0792 4.89295 9.94762 4.84909 9.83937 4.76795C9.32054 4.31873 8.71079 3.98674 8.05191 3.79462C7.82381 3.75736 7.59303 3.73897 7.36191 3.73962Z" fill="#EBEEEF"/>
</svg>
