<svg width="20" height="20" viewBox="0 0 20 20" fill="none" xmlns="http://www.w3.org/2000/svg">
<path fill-rule="evenodd" clip-rule="evenodd" d="M10 3.125C6.20274 3.125 3.125 6.20274 3.125 10C3.125 13.7965 6.20279 16.875 10 16.875C13.7972 16.875 16.875 13.7965 16.875 10C16.875 6.20274 13.7972 3.125 10 3.125ZM1.875 10C1.875 5.51239 5.51239 1.875 10 1.875C14.4876 1.875 18.125 5.51239 18.125 10C18.125 14.4867 14.4877 18.125 10 18.125C5.51234 18.125 1.875 14.4867 1.875 10Z" fill="#EBEEEF"/>
<path fill-rule="evenodd" clip-rule="evenodd" d="M9.999 7.26298C8.48742 7.26298 7.26237 8.488 7.26237 9.99958C7.26237 11.5112 8.48742 12.7362 9.999 12.7362C11.5107 12.7362 12.7364 11.511 12.7364 9.99958C12.7364 8.48825 11.5107 7.26298 9.999 7.26298ZM6.01237 9.99958C6.01237 7.79767 7.79706 6.01298 9.999 6.01298C12.2008 6.01298 13.9864 7.79748 13.9864 9.99958C13.9864 12.2017 12.2008 13.9862 9.999 13.9862C7.79706 13.9862 6.01237 12.2015 6.01237 9.99958Z" fill="#EBEEEF"/>
<path fill-rule="evenodd" clip-rule="evenodd" d="M4.38547 4.38606C4.6295 4.14194 5.02523 4.14188 5.26935 4.38592L7.85583 6.9716C8.09995 7.21563 8.10001 7.61137 7.85597 7.85548C7.61193 8.0996 7.2162 8.09966 6.97209 7.85562L4.3856 5.26994C4.14148 5.0259 4.14142 4.63017 4.38547 4.38606ZM15.6149 4.38606C15.8589 4.63017 15.8588 5.0259 15.6147 5.26994L13.0282 7.85562C12.7842 8.09966 12.3884 8.0996 12.1444 7.85548C11.9003 7.61137 11.9004 7.21563 12.1445 6.9716L14.731 4.38592C14.9752 4.14188 15.3708 4.14194 15.6149 4.38606ZM7.85669 12.1441C8.10077 12.3882 8.10077 12.7839 7.85669 13.028L5.27021 15.6145C5.02613 15.8586 4.6304 15.8586 4.38632 15.6145C4.14225 15.3704 4.14225 14.9747 4.38632 14.7306L6.97281 12.1441C7.21689 11.9001 7.61262 11.9001 7.85669 12.1441ZM12.1444 12.1441C12.3885 11.9001 12.7842 11.9001 13.0283 12.1441L15.6148 14.7306C15.8589 14.9747 15.8589 15.3704 15.6148 15.6145C15.3708 15.8586 14.975 15.8586 14.7309 15.6145L12.1444 13.028C11.9004 12.7839 11.9004 12.3882 12.1444 12.1441Z" fill="#EBEEEF"/>
</svg>
