<svg width="20" height="20" viewBox="0 0 20 20" fill="none" xmlns="http://www.w3.org/2000/svg">
<path fill-rule="evenodd" clip-rule="evenodd" d="M8.05261 2.00111C8.06499 2.00037 8.07739 2 8.08979 2H12.1317C12.1441 2 12.1565 2.00037 12.1688 2.00111C13.1778 2.06125 13.9938 2.47886 14.5315 3.15758C15.0625 3.82788 15.2791 4.69777 15.2083 5.59784L15.2074 5.60809C15.1391 6.3252 14.7736 6.95453 14.2638 7.57822C13.7579 8.19706 13.0482 8.88192 12.1973 9.69892C11.9942 9.913 11.9625 10.0523 11.9625 10.1251C11.9625 10.1979 11.9943 10.3375 12.1974 10.5521C13.0483 11.369 13.7578 12.0536 14.2637 12.6721C14.7735 13.2956 15.139 13.9247 15.2073 14.6419L15.2083 14.6522C15.2792 15.5522 15.0625 16.4221 14.5315 17.0924C13.9938 17.7712 13.1778 18.1887 12.1688 18.2489C12.1565 18.2497 12.1441 18.25 12.1317 18.25H8.08979C8.07739 18.25 8.06499 18.2497 8.05261 18.2489C7.04334 18.1887 6.22703 17.7713 5.6893 17.0924C5.15824 16.422 4.94187 15.552 5.01322 14.6518L5.01401 14.6419C5.08237 13.9247 5.44794 13.2956 5.95778 12.6721C6.46354 12.0536 7.17314 11.3691 8.02384 10.5522C8.22668 10.3377 8.25859 10.198 8.25859 10.1251C8.25859 10.0524 8.22693 9.91317 8.0235 9.699C7.17291 8.88192 6.46334 8.19703 5.95757 7.57818C5.44786 6.95451 5.08244 6.32517 5.01409 5.60808L5.01314 5.59818C4.94179 4.69802 5.15824 3.82798 5.6893 3.15758C6.22703 2.47878 7.04334 2.06124 8.05261 2.00111ZM8.10926 3.25C7.42711 3.29477 6.96097 3.56534 6.66912 3.93377C6.3689 4.31275 6.2091 4.85204 6.2589 5.49417C6.2939 5.84777 6.47975 6.24182 6.92544 6.78716C7.37514 7.33741 8.02595 7.96809 8.89893 8.80667C8.90484 8.81242 8.91068 8.81817 8.91634 8.82408C9.26284 9.18425 9.50859 9.62042 9.50859 10.1251C9.50859 10.6295 9.26318 11.0656 8.91809 11.4257C8.91209 11.432 8.90593 11.4382 8.89968 11.4443C8.02622 12.2828 7.37524 12.9133 6.92544 13.4634C6.47969 14.0085 6.2939 14.4023 6.2589 14.7558C6.20909 15.398 6.3689 15.9373 6.66912 16.3162C6.96097 16.6847 7.42711 16.9552 8.10926 17H12.1122C12.7938 16.9552 13.2598 16.6848 13.5518 16.3162C13.852 15.9372 14.012 15.3978 13.9625 14.7557C13.9275 14.4022 13.7417 14.0084 13.296 13.4634C12.8463 12.9133 12.1953 12.2828 11.3218 11.4443C11.3156 11.4383 11.3096 11.4323 11.3037 11.4261C10.9579 11.0658 10.7125 10.6296 10.7125 10.1251C10.7125 9.6205 10.9581 9.18442 11.3039 8.82442C11.3098 8.81833 11.3158 8.81242 11.3218 8.80658C12.1952 7.96802 12.8462 7.33733 13.2959 6.78711C13.7417 6.24188 13.9275 5.84787 13.9625 5.49432C14.012 4.85217 13.852 4.31282 13.5518 3.93377C13.2598 3.56527 12.7938 3.29476 12.1122 3.25H8.10926Z" fill="#EBEEEF"/>
</svg>
