<svg width="20" height="20" viewBox="0 0 20 20" fill="none" xmlns="http://www.w3.org/2000/svg">
<path fill-rule="evenodd" clip-rule="evenodd" d="M10.2084 3.125C6.41112 3.125 3.33337 6.20274 3.33337 10C3.33337 13.7965 6.41117 16.875 10.2084 16.875C14.0056 16.875 17.0834 13.7965 17.0834 10C17.0834 6.20274 14.0056 3.125 10.2084 3.125ZM2.08337 10C2.08337 5.51239 5.72077 1.875 10.2084 1.875C14.696 1.875 18.3334 5.51239 18.3334 10C18.3334 14.4867 14.696 18.125 10.2084 18.125C5.72072 18.125 2.08337 14.4867 2.08337 10Z" fill="#EBEEEF"/>
<path fill-rule="evenodd" clip-rule="evenodd" d="M10.2084 6.28418C10.5535 6.28418 10.8334 6.564 10.8334 6.90918V6.96188C10.8334 7.30706 10.5535 7.58688 10.2084 7.58688C9.86321 7.58688 9.58337 7.30706 9.58337 6.96188V6.90918C9.58337 6.564 9.86321 6.28418 10.2084 6.28418ZM10.2131 8.86967C10.5583 8.86967 10.8381 9.1495 10.8381 9.49467V13.0777C10.8381 13.4228 10.5583 13.7027 10.2131 13.7027C9.86796 13.7027 9.58812 13.4228 9.58812 13.0777V9.49467C9.58812 9.1495 9.86796 8.86967 10.2131 8.86967Z" fill="#EBEEEF"/>
</svg>
