<svg width="20" height="20" viewBox="0 0 20 20" fill="none" xmlns="http://www.w3.org/2000/svg">
<path fill-rule="evenodd" clip-rule="evenodd" d="M3.11683 3.24777C3.93723 2.3676 5.10557 1.87496 6.48513 1.87496H13.5141C14.8968 1.87496 16.0657 2.36733 16.8857 3.248C17.7011 4.12364 18.125 5.33237 18.125 6.68861V13.3113C18.125 14.6675 17.7011 15.8763 16.8856 16.752C16.0654 17.6326 14.8963 18.125 13.5133 18.125H6.48513C5.10233 18.125 3.93365 17.6325 3.11381 16.7519C2.29868 15.8762 1.875 14.6675 1.875 13.3113V6.68861C1.875 5.33168 2.30098 4.12305 3.11683 3.24777ZM4.03121 4.10006C3.46687 4.70551 3.125 5.59122 3.125 6.68861V13.3113C3.125 14.4095 3.46551 15.295 4.02876 15.9001C4.58729 16.5002 5.41117 16.875 6.48513 16.875H13.5133C14.5877 16.875 15.412 16.5001 15.9708 15.9C16.5343 15.295 16.875 14.4094 16.875 13.3113V6.68861C16.875 5.59053 16.5343 4.70494 15.9709 4.09983C15.4122 3.49975 14.588 3.12496 13.5141 3.12496H6.48513C5.41523 3.12496 4.59101 3.49949 4.03121 4.10006Z" fill="#EBEEEF"/>
<path fill-rule="evenodd" clip-rule="evenodd" d="M9.87042 7.98173C8.60367 7.98173 7.5765 9.00896 7.5765 10.2756C7.5765 11.5424 8.60367 12.5695 9.87042 12.5695C11.1372 12.5695 12.1643 11.5424 12.1643 10.2756C12.1643 9.00896 11.1372 7.98173 9.87042 7.98173ZM6.3265 10.2756C6.3265 8.31858 7.91335 6.73173 9.87042 6.73173C11.8275 6.73173 13.4143 8.31858 13.4143 10.2756C13.4143 12.2327 11.8275 13.8195 9.87042 13.8195C7.91335 13.8195 6.3265 12.2327 6.3265 10.2756Z" fill="#EBEEEF"/>
<path fill-rule="evenodd" clip-rule="evenodd" d="M13.1909 6.14892C13.1909 5.67299 13.5773 5.28642 14.0534 5.28642C14.5322 5.28642 14.9151 5.6758 14.9151 6.14892C14.9151 6.62494 14.5294 7.01059 14.0534 7.01059C13.5802 7.01059 13.1909 6.62773 13.1909 6.14892Z" fill="#EBEEEF"/>
</svg>
