<svg width="20" height="20" viewBox="0 0 20 20" fill="none" xmlns="http://www.w3.org/2000/svg">
<path fill-rule="evenodd" clip-rule="evenodd" d="M13.7068 3.125C13.0403 3.125 12.5002 3.66517 12.5002 4.33167V6.50167C12.5002 7.16816 13.0403 7.70833 13.7068 7.70833H15.8768C16.5433 7.70833 17.0835 7.16816 17.0835 6.50167V4.33167C17.0835 3.66517 16.5433 3.125 15.8768 3.125H13.7068ZM11.2502 4.33167C11.2502 2.97483 12.35 1.875 13.7068 1.875H15.8768C17.2337 1.875 18.3335 2.97483 18.3335 4.33167V6.50167C18.3335 7.85851 17.2337 8.95833 15.8768 8.95833H13.7068C12.35 8.95833 11.2502 7.85851 11.2502 6.50167V4.33167Z" fill="#EBEEEF"/>
<path fill-rule="evenodd" clip-rule="evenodd" d="M13.7068 12.292C13.0403 12.292 12.5001 12.8322 12.5001 13.4987V15.6687C12.5001 16.3352 13.0403 16.8753 13.7068 16.8753H15.8768C16.5433 16.8753 17.0835 16.3352 17.0835 15.6687V13.4987C17.0835 12.8322 16.5433 12.292 15.8768 12.292H13.7068ZM11.2501 13.4987C11.2501 12.1418 12.35 11.042 13.7068 11.042H15.8768C17.2336 11.042 18.3335 12.1418 18.3335 13.4987V15.6687C18.3335 17.0255 17.2336 18.1253 15.8768 18.1253H13.7068C12.35 18.1253 11.2501 17.0255 11.2501 15.6687V13.4987Z" fill="#EBEEEF"/>
<path fill-rule="evenodd" clip-rule="evenodd" d="M4.54065 3.125C3.87416 3.125 3.33398 3.66517 3.33398 4.33167V15.6683C3.33398 16.3348 3.87416 16.875 4.54065 16.875H6.71065C7.37714 16.875 7.91732 16.3348 7.91732 15.6683V4.33167C7.91732 3.66517 7.37714 3.125 6.71065 3.125H4.54065ZM2.08398 4.33167C2.08398 2.97482 3.18381 1.875 4.54065 1.875H6.71065C8.06749 1.875 9.16732 2.97482 9.16732 4.33167V15.6683C9.16732 17.0252 8.06749 18.125 6.71065 18.125H4.54065C3.18381 18.125 2.08398 17.0252 2.08398 15.6683V4.33167Z" fill="#EBEEEF"/>
</svg>
