<svg width="20" height="20" viewBox="0 0 20 20" fill="none" xmlns="http://www.w3.org/2000/svg">
<path fill-rule="evenodd" clip-rule="evenodd" d="M10.5529 4.56171C12.3801 2.79807 15.2758 2.79791 17.1024 4.56182C18.9745 6.37039 19.027 9.35417 17.2182 11.2266L17.2107 11.2343L15.3353 13.1097C15.1759 13.2691 15.0051 13.4163 14.826 13.5509L14.825 13.5517C12.7404 15.1108 9.78669 14.6846 8.22761 12.6002C8.02086 12.3238 8.07732 11.9321 8.35377 11.7253C8.63011 11.5186 9.02186 11.575 9.22861 11.8514C10.3742 13.383 12.5443 13.6963 14.0758 12.5511C14.2095 12.4506 14.3354 12.3418 14.4514 12.2258L16.3228 10.3543C17.648 8.97851 17.6085 6.78891 16.2339 5.46091C14.8919 4.16498 12.7639 4.16485 11.421 5.4611C11.1726 5.70082 10.7769 5.69381 10.5373 5.44546C10.2975 5.1971 10.3045 4.80143 10.5529 4.56171Z" fill="#EBEEEF"/>
<path fill-rule="evenodd" clip-rule="evenodd" d="M6.00807 7.72628C8.09261 6.16708 11.0464 6.5934 12.6054 8.67776C12.8122 8.95417 12.7558 9.34592 12.4794 9.55267C12.2029 9.75942 11.8113 9.70292 11.6045 9.42651C10.4589 7.89497 8.28891 7.58174 6.75736 8.72684C6.62362 8.82734 6.49776 8.93609 6.38168 9.05217L4.5103 10.9236C3.18505 12.2994 3.22451 14.4891 4.59916 15.817C5.94116 17.1137 8.06899 17.1139 9.41194 15.817C9.66027 15.5772 10.0559 15.5841 10.2957 15.8324C10.5355 16.0807 10.5286 16.4763 10.2803 16.7161C8.45302 18.4808 5.5572 18.4809 3.73063 16.716C1.85855 14.9074 1.80604 11.9238 3.61487 10.0513L3.62237 10.0436L5.4978 8.16832C5.65724 8.00888 5.82797 7.86159 6.00701 7.72707L6.00807 7.72628Z" fill="#EBEEEF"/>
</svg>
