<svg width="20" height="20" viewBox="0 0 20 20" fill="none" xmlns="http://www.w3.org/2000/svg">
<path fill-rule="evenodd" clip-rule="evenodd" d="M3.11683 3.24776C3.93723 2.3676 5.10557 1.87495 6.48513 1.87495H13.5141C14.8968 1.87495 16.0657 2.36732 16.8857 3.248C17.7011 4.12363 18.125 5.33236 18.125 6.6886V13.3113C18.125 14.6675 17.7011 15.8763 16.8856 16.752C16.0654 17.6326 14.8963 18.125 13.5133 18.125H6.48513C5.10233 18.125 3.93365 17.6325 3.11381 16.7519C2.29868 15.8762 1.875 14.6675 1.875 13.3113V6.6886C1.875 5.33167 2.30098 4.12305 3.11683 3.24776ZM4.03121 4.10005C3.46687 4.7055 3.125 5.59121 3.125 6.6886V13.3113C3.125 14.4095 3.46551 15.295 4.02876 15.9001C4.58729 16.5002 5.41117 16.875 6.48513 16.875H13.5133C14.5877 16.875 15.412 16.5001 15.9708 15.9C16.5343 15.295 16.875 14.4094 16.875 13.3113V6.6886C16.875 5.59052 16.5343 4.70493 15.9709 4.09982C15.4122 3.49975 14.588 3.12495 13.5141 3.12495H6.48513C5.41523 3.12495 4.59101 3.49948 4.03121 4.10005Z" fill="#EBEEEF"/>
<path fill-rule="evenodd" clip-rule="evenodd" d="M6.56901 8.53512C6.91419 8.53512 7.19401 8.81495 7.19401 9.16012V13.167C7.19401 13.5122 6.91419 13.792 6.56901 13.792C6.22383 13.792 5.94401 13.5122 5.94401 13.167V9.16012C5.94401 8.81495 6.22383 8.53512 6.56901 8.53512Z" fill="#EBEEEF"/>
<path fill-rule="evenodd" clip-rule="evenodd" d="M11.4112 8.87362C10.5914 8.87362 9.92592 9.53912 9.92592 10.359V13.1675C9.92592 13.5126 9.64608 13.7925 9.30092 13.7925C8.95575 13.7925 8.67592 13.5126 8.67592 13.1675V10.359C8.67592 8.84879 9.90108 7.62365 11.4112 7.62365C12.9226 7.62365 14.1466 8.84895 14.1466 10.359V13.1675C14.1466 13.5126 13.8668 13.7925 13.5216 13.7925C13.1764 13.7925 12.8966 13.5126 12.8966 13.1675V10.359C12.8966 9.53895 12.2318 8.87362 11.4112 8.87362Z" fill="#EBEEEF"/>
<path fill-rule="evenodd" clip-rule="evenodd" d="M5.85367 6.92335C5.85367 6.52827 6.1739 6.20764 6.56937 6.20764C6.96434 6.20764 7.28512 6.52777 7.28512 6.92335C7.28512 7.31892 6.96435 7.63906 6.56937 7.63906C6.17388 7.63906 5.85367 7.31842 5.85367 6.92335Z" fill="#EBEEEF"/>
</svg>
