<svg width="20" height="20" viewBox="0 0 20 20" fill="none" xmlns="http://www.w3.org/2000/svg">
<path fill-rule="evenodd" clip-rule="evenodd" d="M5.10715 4.89661C5.35123 4.65252 5.74696 4.65251 5.99104 4.89659L6.78186 5.68739C7.02594 5.93146 7.02594 6.32719 6.78187 6.57127C6.53779 6.81536 6.14207 6.81536 5.89799 6.57128L5.10717 5.78049C4.86309 5.53641 4.86308 5.14068 5.10715 4.89661ZM6.78174 13.4244C7.02589 13.6684 7.02599 14.0642 6.78199 14.3083L5.34767 15.7434C5.10366 15.9876 4.70793 15.9877 4.46379 15.7437C4.21964 15.4997 4.21953 15.104 4.46354 14.8598L5.89785 13.4247C6.14186 13.1805 6.53759 13.1804 6.78174 13.4244ZM13.6361 13.4244C13.8802 13.1804 14.2759 13.1805 14.5199 13.4247L15.9543 14.8598C16.1983 15.104 16.1982 15.4997 15.954 15.7437C15.7098 15.9877 15.3142 15.9876 15.0702 15.7434L13.6358 14.3083C13.3918 14.0642 13.3919 13.6684 13.6361 13.4244Z" fill="#EBEEEF"/>
<path fill-rule="evenodd" clip-rule="evenodd" d="M10.2083 3.30403C10.5534 3.30403 10.8333 3.58386 10.8333 3.92903V4.52719C10.8333 4.87236 10.5534 5.15219 10.2083 5.15219C9.86309 5.15219 9.58325 4.87236 9.58325 4.52719V3.92903C9.58325 3.58386 9.86309 3.30403 10.2083 3.30403ZM2.54883 9.9985C2.54883 9.65333 2.82865 9.3735 3.17383 9.3735H4.73692C5.08209 9.3735 5.36192 9.65333 5.36192 9.9985C5.36192 10.3437 5.08209 10.6235 4.73692 10.6235H3.17383C2.82865 10.6235 2.54883 10.3437 2.54883 9.9985ZM15.0547 9.9985C15.0547 9.65333 15.3344 9.3735 15.6797 9.3735H17.7083C18.0534 9.3735 18.3333 9.65333 18.3333 9.9985C18.3333 10.3437 18.0534 10.6235 17.7083 10.6235H15.6797C15.3344 10.6235 15.0547 10.3437 15.0547 9.9985ZM10.2083 14.8449C10.5534 14.8449 10.8333 15.1247 10.8333 15.4699V17.4986C10.8333 17.8437 10.5534 18.1236 10.2083 18.1236C9.86309 18.1236 9.58325 17.8437 9.58325 17.4986V15.4699C9.58325 15.1247 9.86309 14.8449 10.2083 14.8449Z" fill="#EBEEEF"/>
</svg>
