<svg width="20" height="20" viewBox="0 0 20 20" fill="none" xmlns="http://www.w3.org/2000/svg">
<path fill-rule="evenodd" clip-rule="evenodd" d="M9.42354 1.66667C11.4619 1.66667 13.1202 3.325 13.1202 5.36334V6.14001C13.1202 6.485 12.8402 6.76501 12.4952 6.76501C12.1502 6.76501 11.8702 6.485 11.8702 6.14001V5.36334C11.8702 4.01334 10.7727 2.91667 9.42354 2.91667H5.36104C4.01354 2.91667 2.91687 4.01334 2.91687 5.36334V14.6375C2.91687 15.9867 4.01354 17.0833 5.36104 17.0833H9.4327C10.776 17.0833 11.8702 15.99 11.8702 14.6467V13.8608C11.8702 13.5158 12.1502 13.2358 12.4952 13.2358C12.8402 13.2358 13.1202 13.5158 13.1202 13.8608V14.6467C13.1202 16.68 11.4652 18.3333 9.4327 18.3333H5.36104C3.32437 18.3333 1.66687 16.6758 1.66687 14.6375V5.36334C1.66687 3.325 3.32437 1.66667 5.36104 1.66667H9.42354ZM16.157 7.12834L18.597 9.5575C18.6187 9.5791 18.6382 9.60156 18.6561 9.62533L18.597 9.5575C18.6265 9.58661 18.6527 9.61842 18.6755 9.65234C18.6855 9.66771 18.6952 9.6836 18.7042 9.69993C18.7115 9.7127 18.7181 9.72602 18.7244 9.73956C18.7296 9.75152 18.7347 9.76349 18.7393 9.77565C18.7456 9.79148 18.7511 9.80777 18.756 9.82426C18.7596 9.83726 18.7629 9.85022 18.7659 9.86334C18.7696 9.87926 18.7725 9.89527 18.7748 9.91141C18.7761 9.9219 18.7774 9.93289 18.7784 9.94397C18.7803 9.96298 18.7811 9.98145 18.7811 10L18.7769 10.0517L18.7752 10.0848C18.775 10.0862 18.7748 10.0876 18.7746 10.089L18.7811 10C18.7811 10.0463 18.776 10.0921 18.766 10.1366C18.7629 10.1498 18.7596 10.1628 18.7558 10.1755C18.7511 10.1922 18.7456 10.2085 18.7395 10.2245C18.7347 10.2365 18.7296 10.2485 18.7242 10.2603C18.7181 10.274 18.7115 10.2873 18.7043 10.3004C18.6952 10.3164 18.6855 10.3323 18.6752 10.3477C18.6694 10.3568 18.6629 10.3659 18.6563 10.3747C18.6364 10.4008 18.6148 10.4254 18.5914 10.4481L16.157 12.8725C16.0353 12.9942 15.8753 13.055 15.7161 13.055C15.5561 13.055 15.3953 12.9942 15.2736 12.8708C15.0303 12.6258 15.0311 12.2308 15.2753 11.9875L16.6419 10.625H8.1217C7.7767 10.625 7.4967 10.345 7.4967 10C7.4967 9.655 7.7767 9.375 8.1217 9.375H16.6435L15.2753 8.01334C15.0311 7.77001 15.0295 7.37501 15.2736 7.13001C15.517 6.885 15.912 6.885 16.157 7.12834Z" fill="#EBEEEF"/>
</svg>
