<svg width="20" height="20" viewBox="0 0 20 20" fill="none" xmlns="http://www.w3.org/2000/svg">
<path fill-rule="evenodd" clip-rule="evenodd" d="M10.3808 6.24023C10.726 6.24023 11.0058 6.52006 11.0058 6.86523V6.87415C11.0058 6.8777 11.0058 6.88123 11.0057 6.88476C13.7693 7.24893 15.9073 9.61558 15.9073 12.4811C15.9073 15.5988 13.3764 18.1259 10.2625 18.1259C7.14852 18.1259 4.61756 15.5988 4.61756 12.4811C4.61756 9.53425 6.8786 7.11505 9.75588 6.85863C9.75938 6.5165 10.0379 6.24023 10.3808 6.24023ZM10.2625 8.08617C7.83835 8.08617 5.86756 10.0542 5.86756 12.4811C5.86756 14.9078 7.83835 16.8759 10.2625 16.8759C12.6865 16.8759 14.6573 14.9078 14.6573 12.4811C14.6573 10.0542 12.6865 8.08617 10.2625 8.08617Z" fill="#EBEEEF"/>
<path fill-rule="evenodd" clip-rule="evenodd" d="M5.81738 3.13477L8.42554 7.74916C8.59538 8.04965 8.48946 8.43092 8.18898 8.60083C7.88848 8.77067 7.50719 8.66475 7.33734 8.36425L4.59387 3.51046C4.18254 2.78423 4.70827 1.88477 5.54137 1.88477H7.68765C8.08328 1.88477 8.44804 2.09943 8.64021 2.44535L10.9275 6.56116C10.9395 6.58278 10.9501 6.60481 10.9594 6.62713L11.2717 7.1871C11.4398 7.48856 11.3317 7.86924 11.0303 8.03738C10.7288 8.20552 10.3481 8.09744 10.18 7.79598L9.83538 7.17813C9.82304 7.15598 9.81221 7.1334 9.80279 7.11052L7.59326 3.13477H5.81738Z" fill="#EBEEEF"/>
<path fill-rule="evenodd" clip-rule="evenodd" d="M12.9611 3.12532L10.9429 7.1467C10.788 7.4552 10.4125 7.57977 10.104 7.42495C9.79546 7.27012 9.67088 6.89451 9.82571 6.58601L11.8892 2.47442C12.0753 2.10608 12.4527 1.875 12.8638 1.875H12.8659L14.8802 1.88149C15.6885 1.88377 16.214 2.73466 15.851 3.45877L13.3787 8.38792C13.224 8.6965 12.8484 8.82117 12.5399 8.66642C12.2313 8.51167 12.1066 8.13608 12.2614 7.82753L14.6171 3.13065L12.9611 3.12532Z" fill="#EBEEEF"/>
<path fill-rule="evenodd" clip-rule="evenodd" d="M10.7359 10.1537C10.9277 10.2657 11.0457 10.4712 11.0457 10.6933V14.57C11.0457 14.9152 10.7659 15.195 10.4207 15.195C10.0755 15.195 9.79571 14.9152 9.79571 14.57V11.7637L9.56671 11.8928C9.26613 12.0625 8.88488 11.9563 8.71529 11.6557C8.54563 11.355 8.65179 10.9738 8.95246 10.8042L10.1135 10.149C10.307 10.0398 10.544 10.0416 10.7359 10.1537Z" fill="#EBEEEF"/>
</svg>
