<svg width="20" height="20" viewBox="0 0 20 20" fill="none" xmlns="http://www.w3.org/2000/svg">
<path fill-rule="evenodd" clip-rule="evenodd" d="M4.61756 12.4808C4.61756 9.36317 7.14852 6.83593 10.2625 6.83593C13.3764 6.83593 15.9073 9.36317 15.9073 12.4808C15.9073 15.5985 13.3764 18.1257 10.2625 18.1257C7.14852 18.1257 4.61756 15.5985 4.61756 12.4808ZM10.2625 8.08593C7.83835 8.08593 5.86756 10.054 5.86756 12.4808C5.86756 14.9077 7.83835 16.8757 10.2625 16.8757C12.6865 16.8757 14.6573 14.9077 14.6573 12.4808C14.6573 10.054 12.6865 8.08593 10.2625 8.08593Z" fill="#EBEEEF"/>
<path fill-rule="evenodd" clip-rule="evenodd" d="M5.81738 3.13477L8.42554 7.74916C8.59538 8.04965 8.48946 8.43092 8.18898 8.60083C7.88848 8.77067 7.50719 8.66475 7.33734 8.36425L4.59387 3.51046C4.18254 2.78423 4.70827 1.88477 5.54137 1.88477H7.68765C8.0834 1.88477 8.44829 2.09957 8.64038 2.44568L11.2724 7.18826C11.4398 7.49007 11.331 7.87052 11.0291 8.03802C10.7273 8.20552 10.3469 8.09663 10.1794 7.79483L7.59319 3.13477H5.81738Z" fill="#EBEEEF"/>
<path fill-rule="evenodd" clip-rule="evenodd" d="M12.9611 3.12532L10.9429 7.1467C10.788 7.4552 10.4125 7.57977 10.104 7.42495C9.79546 7.27012 9.67088 6.89451 9.82571 6.58601L11.8892 2.47442C12.0753 2.10608 12.4527 1.875 12.8638 1.875H12.8659L14.8802 1.88149C15.6885 1.88377 16.214 2.73466 15.851 3.45877L13.3787 8.38792C13.224 8.6965 12.8484 8.82117 12.5399 8.66642C12.2313 8.51167 12.1066 8.13607 12.2614 7.82753L14.6171 3.13065L12.9611 3.12532Z" fill="#EBEEEF"/>
<path fill-rule="evenodd" clip-rule="evenodd" d="M8.73379 10.6803C8.73379 10.3352 9.01363 10.0553 9.35879 10.0553H11.407C11.6476 10.0553 11.867 10.1936 11.9708 10.4107C12.0746 10.6278 12.0445 10.8853 11.8935 11.0728L11.2704 11.8453C11.7297 12.1714 12.0295 12.7078 12.0295 13.3139C12.0295 14.3075 11.2229 15.1123 10.2304 15.1123C9.73313 15.1123 9.28196 14.9103 8.95654 14.5837C8.71288 14.3392 8.71363 13.9434 8.95821 13.6998C9.20279 13.4563 9.59846 13.457 9.84213 13.7015C9.94154 13.8013 10.0775 13.8623 10.2304 13.8623C10.5336 13.8623 10.7795 13.6161 10.7795 13.3139C10.7795 13.0102 10.5328 12.764 10.2304 12.764C9.98971 12.764 9.77038 12.6258 9.66654 12.4087C9.56271 12.1915 9.59279 11.934 9.74396 11.7467L10.0999 11.3053H9.35879C9.01363 11.3053 8.73379 11.0255 8.73379 10.6803Z" fill="#EBEEEF"/>
</svg>
