<svg width="20" height="20" viewBox="0 0 20 20" fill="none" xmlns="http://www.w3.org/2000/svg">
<path fill-rule="evenodd" clip-rule="evenodd" d="M7.75391 9.26184C7.75391 7.9554 8.845 6.9 10.2072 6.9C11.561 6.9 12.6612 7.95367 12.6612 9.26184C12.6612 10.1867 12.1093 10.8396 11.3996 11.2178C11.3557 11.2419 11.3142 11.2644 11.2747 11.2858C11.0716 11.3959 10.9214 11.4774 10.7987 11.5838C10.6816 11.6853 10.6434 11.7649 10.6449 11.8761C10.6494 12.2074 10.3732 12.4795 10.0281 12.4838C9.68292 12.4882 9.3995 12.223 9.395 11.8917C9.38758 11.3464 9.65492 10.9584 9.961 10.6931C10.1974 10.4882 10.4912 10.3307 10.6909 10.2237C10.7243 10.2058 10.7551 10.1893 10.7826 10.1742L10.7904 10.1699C11.2017 9.95144 11.4112 9.6544 11.4112 9.26184C11.4112 8.61536 10.8696 8.1 10.2072 8.1C9.54008 8.1 9.00392 8.6136 9.00392 9.26184C9.00392 9.5932 8.72408 9.86184 8.37892 9.86184C8.03372 9.86184 7.75391 9.5932 7.75391 9.26184ZM10.0211 13.0826C10.3662 13.0826 10.6461 13.3513 10.6461 13.6826V13.6882C10.6461 14.0195 10.3662 14.2882 10.0211 14.2882C9.67592 14.2882 9.39608 14.0195 9.39608 13.6882V13.6826C9.39608 13.3513 9.67592 13.0826 10.0211 13.0826Z" fill="#EBEEEF"/>
<path d="M10.2087 18.4028H10.1812C9.49867 18.4028 6.65532 18.4028 4.68115 18.4028H4.16617C3.9217 18.4019 3.68201 18.3375 3.47261 18.2165C3.2632 18.0954 3.09188 17.922 2.97685 17.715C2.86181 17.5078 2.80737 17.2747 2.81927 17.0403C2.83118 16.8059 2.90901 16.579 3.04449 16.3836C3.22782 16.1188 3.46116 15.7948 3.65116 15.542C3.67112 15.5142 3.68243 15.4815 3.68376 15.4478C3.68509 15.4141 3.67638 15.3807 3.65866 15.3516C3.34723 14.8677 3.06752 14.3657 2.82116 13.8484C2.13216 12.395 1.92012 10.7748 2.21319 9.20296C2.50627 7.63111 3.2906 6.18209 4.46198 5.04839C5.41066 4.14515 6.5764 3.48003 7.85627 3.11175C9.13617 2.74348 10.4908 2.68339 11.8006 2.93678C13.1104 3.19017 14.3351 3.74925 15.3664 4.56466C16.3978 5.38007 17.2043 6.42671 17.7145 7.6122C18.2248 8.79768 18.423 10.0855 18.292 11.362C18.1609 12.6385 17.7044 13.8644 16.9629 14.9314C16.2214 15.9985 15.2177 16.8738 14.0403 17.4802C12.8629 18.0866 11.5482 18.4054 10.212 18.4084L10.2087 18.4028ZM10.1853 17.2028H10.2087C11.2126 17.2018 12.2041 16.9898 13.1135 16.5817C14.0229 16.1736 14.8282 15.5792 15.4728 14.8404C16.4753 13.6686 17.0354 12.2056 17.0623 10.6894C17.089 9.17328 16.5808 7.693 15.6203 6.48919C15.0214 5.75266 14.2662 5.1468 13.4048 4.7118C12.5435 4.27681 11.5956 4.02262 10.6241 3.96611C9.65258 3.9096 8.67958 4.05205 7.76981 4.38401C6.86002 4.71598 6.03415 5.22987 5.34699 5.89159C4.35277 6.85593 3.68828 8.08823 3.44203 9.42424C3.19579 10.7603 3.37949 12.1367 3.96867 13.37C4.20059 13.843 4.45902 14.3038 4.74282 14.75C4.8784 14.9779 4.94373 15.2381 4.93119 15.5002C4.91865 15.7624 4.82876 16.0158 4.672 16.2308C4.4895 16.4772 4.26282 16.7908 4.08865 17.0452C4.07664 17.0604 4.06962 17.0787 4.06843 17.0978C4.06725 17.1169 4.07195 17.1359 4.08199 17.1524C4.11032 17.202 4.14199 17.1884 4.16532 17.2028H4.61699C6.65532 17.2028 9.502 17.2028 10.1853 17.2028Z" fill="#EBEEEF"/>
</svg>
