<svg width="20" height="20" viewBox="0 0 20 20" fill="none" xmlns="http://www.w3.org/2000/svg">
<path fill-rule="evenodd" clip-rule="evenodd" d="M9.97407 8.07578C9.09703 8.07578 8.38615 8.78668 8.38615 9.66372C8.38615 10.5407 9.09703 11.2516 9.97407 11.2516C10.851 11.2516 11.5619 10.5407 11.5619 9.66372C11.5619 8.78668 10.851 8.07578 9.97407 8.07578ZM7.18613 9.66372C7.18613 8.12396 8.43431 6.87578 9.97407 6.87578C11.5137 6.87578 12.7619 8.12396 12.7619 9.66372C12.7619 11.2034 11.5137 12.4516 9.97407 12.4516C8.43431 12.4516 7.18613 11.2034 7.18613 9.66372Z" fill="#EBEEEF"/>
<path fill-rule="evenodd" clip-rule="evenodd" d="M9.98892 16.4C9.68844 16.4 9.44492 16.1564 9.44492 15.856C9.44492 15.5556 9.68844 15.312 9.98892 15.312C10.2893 15.312 10.5329 15.5556 10.5329 15.856C10.5329 16.1564 10.2893 16.4 9.98892 16.4ZM8.24492 15.856C8.24492 16.8192 9.02572 17.6 9.98892 17.6C10.9521 17.6 11.7329 16.8192 11.7329 15.856C11.7329 14.8928 10.9521 14.112 9.98892 14.112C9.02572 14.112 8.24492 14.8928 8.24492 15.856Z" fill="#EBEEEF"/>
<path fill-rule="evenodd" clip-rule="evenodd" d="M9.99121 15.3121C9.65985 15.3121 9.39121 15.0435 9.39121 14.7121V12.1242C9.39121 11.7928 9.65985 11.5242 9.99121 11.5242C10.3226 11.5242 10.5912 11.7928 10.5912 12.1242V14.7121C10.5912 15.0435 10.3226 15.3121 9.99121 15.3121Z" fill="#EBEEEF"/>
<path fill-rule="evenodd" clip-rule="evenodd" d="M9.98892 3.2C9.68844 3.2 9.44492 3.44356 9.44492 3.744C9.44492 4.04445 9.68844 4.288 9.98892 4.288C10.2893 4.288 10.5329 4.04445 10.5329 3.744C10.5329 3.44356 10.2893 3.2 9.98892 3.2ZM8.24492 3.744C8.24492 2.78082 9.02572 2 9.98892 2C10.9521 2 11.7329 2.78082 11.7329 3.744C11.7329 4.70719 10.9521 5.488 9.98892 5.488C9.02572 5.488 8.24492 4.70719 8.24492 3.744Z" fill="#EBEEEF"/>
<path fill-rule="evenodd" clip-rule="evenodd" d="M9.99121 4.28789C9.65985 4.28789 9.39121 4.55651 9.39121 4.88789V7.47578C9.39121 7.80715 9.65985 8.07578 9.99121 8.07578C10.3226 8.07578 10.5912 7.80715 10.5912 7.47578V4.88789C10.5912 4.55651 10.3226 4.28789 9.99121 4.28789Z" fill="#EBEEEF"/>
<path fill-rule="evenodd" clip-rule="evenodd" d="M4.27317 13.0998C4.12295 12.8396 4.2121 12.5069 4.47229 12.3567C4.73248 12.2064 5.06519 12.2956 5.21541 12.5558C5.36563 12.816 5.27649 13.1487 5.01629 13.2989C4.7561 13.4492 4.42339 13.36 4.27317 13.0998ZM3.87229 11.3175C3.03815 11.7991 2.75235 12.8656 3.23394 13.6998C3.71553 14.534 4.78215 14.8197 5.61629 14.3381C6.45043 13.8566 6.73623 12.79 6.25464 11.9558C5.77305 11.1216 4.70643 10.8359 3.87229 11.3175Z" fill="#EBEEEF"/>
<path fill-rule="evenodd" clip-rule="evenodd" d="M5.21662 12.5581C5.05093 12.2712 5.14926 11.9042 5.43623 11.7385L7.67741 10.4445C7.96439 10.2788 8.33136 10.3772 8.49704 10.6642C8.66272 10.9512 8.5644 11.3181 8.27744 11.4838L6.03623 12.7777C5.74926 12.9434 5.3823 12.8451 5.21662 12.5581Z" fill="#EBEEEF"/>
<path fill-rule="evenodd" clip-rule="evenodd" d="M15.7045 6.49981C15.5542 6.23962 15.2215 6.15046 14.9614 6.30069C14.7011 6.4509 14.612 6.78362 14.7622 7.04381C14.9125 7.304 15.2451 7.39315 15.5054 7.24292C15.7655 7.0927 15.8547 6.75999 15.7045 6.49981ZM14.3614 5.26146C15.1955 4.77986 16.2621 5.06566 16.7437 5.89981C17.2253 6.73394 16.9395 7.80056 16.1054 8.28212C15.2712 8.76372 14.2046 8.47796 13.723 7.64381C13.2414 6.80967 13.5272 5.74305 14.3614 5.26146Z" fill="#EBEEEF"/>
<path fill-rule="evenodd" clip-rule="evenodd" d="M14.7635 7.04562C14.5978 6.75865 14.2309 6.66032 13.9438 6.82601L11.7027 8.11996C11.4157 8.28564 11.3173 8.6526 11.483 8.93956C11.6488 9.22652 12.0157 9.32484 12.3027 9.15916L14.5438 7.86524C14.8309 7.69955 14.9292 7.3326 14.7635 7.04562Z" fill="#EBEEEF"/>
<path fill-rule="evenodd" clip-rule="evenodd" d="M4.27317 6.49981C4.12295 6.76 4.2121 7.0927 4.47229 7.24293C4.73248 7.39315 5.06519 7.304 5.21541 7.04381C5.36563 6.78361 5.27649 6.45091 5.01629 6.30069C4.7561 6.15047 4.42339 6.23961 4.27317 6.49981ZM3.87229 8.28212C3.03815 7.80057 2.75235 6.73395 3.23394 5.89981C3.71553 5.06566 4.78215 4.77986 5.61629 5.26146C6.45043 5.74305 6.73623 6.80966 6.25464 7.64381C5.77305 8.47796 4.70643 8.76372 3.87229 8.28212Z" fill="#EBEEEF"/>
<path fill-rule="evenodd" clip-rule="evenodd" d="M5.21662 7.04188C5.05093 7.32886 5.14926 7.69582 5.43623 7.8615L7.67741 9.15548C7.96439 9.32116 8.33136 9.22284 8.49704 8.9358C8.66272 8.64884 8.5644 8.28188 8.27744 8.1162L6.03623 6.82227C5.74926 6.65659 5.3823 6.75491 5.21662 7.04188Z" fill="#EBEEEF"/>
<path fill-rule="evenodd" clip-rule="evenodd" d="M15.7045 13.0998C15.5542 13.36 15.2215 13.4492 14.9614 13.2989C14.7011 13.1487 14.612 12.816 14.7622 12.5558C14.9125 12.2956 15.2451 12.2064 15.5054 12.3567C15.7655 12.5069 15.8547 12.8396 15.7045 13.0998ZM14.3614 14.3381C15.1955 14.8197 16.2621 14.534 16.7437 13.6998C17.2253 12.8656 16.9395 11.7991 16.1054 11.3175C15.2712 10.8359 14.2046 11.1216 13.723 11.9558C13.2414 12.79 13.5272 13.8566 14.3614 14.3381Z" fill="#EBEEEF"/>
<path fill-rule="evenodd" clip-rule="evenodd" d="M14.7635 12.554C14.5978 12.841 14.2309 12.9393 13.9438 12.7736L11.7027 11.4796C11.4157 11.314 11.3173 10.947 11.483 10.66C11.6488 10.3731 12.0157 10.2748 12.3027 10.4404L14.5438 11.7344C14.8309 11.9 14.9292 12.267 14.7635 12.554Z" fill="#EBEEEF"/>
</svg>
