<svg width="20" height="20" viewBox="0 0 20 20" fill="none" xmlns="http://www.w3.org/2000/svg">
<path fill-rule="evenodd" clip-rule="evenodd" d="M14.8077 4.6319C15.1264 4.6319 15.3847 4.8902 15.3847 5.20883V14.7898C15.3847 15.1085 15.1264 15.3667 14.8077 15.3667C14.4891 15.3667 14.2308 15.1085 14.2308 14.7898V5.20883C14.2308 4.8902 14.4891 4.6319 14.8077 4.6319Z" fill="#EBEEEF"/>
<path fill-rule="evenodd" clip-rule="evenodd" d="M4.8322 5.03228C5.50861 4.64812 6.34665 4.63087 7.18262 4.96307L7.18701 4.96482C8.91698 5.66878 10.4845 6.70114 11.7408 7.84879L11.7442 7.85186C12.4026 8.4629 12.7606 9.22438 12.7564 10.0178C12.7522 10.8097 12.3874 11.5597 11.7423 12.1501C10.413 13.3792 8.88636 14.3318 7.19255 15.033C6.41602 15.3621 5.58695 15.3543 4.90419 14.9925C4.21282 14.6262 3.74013 13.9326 3.62339 13.035L3.62205 13.0246C3.41005 11.1272 3.40622 9.09969 3.62155 6.98766L3.62293 6.97543C3.72848 6.12125 4.15359 5.4177 4.8322 5.03228ZM4.76879 7.11114C4.56196 9.144 4.56687 11.0849 4.76825 12.8911C4.84261 13.4527 5.11695 13.7995 5.44445 13.973C5.78076 14.1512 6.24257 14.1829 6.744 13.9699L6.74897 13.9678C8.32743 13.3146 9.73721 12.4328 10.96 11.3018L10.9624 11.2995C11.4071 10.893 11.6003 10.4362 11.6026 10.0116C11.6048 9.58853 11.4178 9.12384 10.9609 8.69907C9.79928 7.63837 8.34805 6.68334 6.75438 6.03451C6.17631 5.80536 5.71503 5.85784 5.40203 6.0356C5.09193 6.21173 4.83823 6.56098 4.76879 7.11114Z" fill="#EBEEEF"/>
</svg>
