<svg width="20" height="20" viewBox="0 0 20 20" fill="none" xmlns="http://www.w3.org/2000/svg">
<path fill-rule="evenodd" clip-rule="evenodd" d="M12.1451 2.00001C12.1809 2.00001 12.216 2.00302 12.2501 2.00881L12.3642 2.00951C12.5342 2.00951 12.6967 2.07867 12.815 2.20117L17.0358 6.59867C17.1475 6.71451 17.2101 6.87034 17.2101 7.03117V14.6695C17.225 16.7603 15.5967 18.4687 13.5025 18.5537L6.72917 18.5545C4.68755 18.5084 3.05014 16.8572 3.00025 14.8355L3 5.74201C3.04833 3.67451 4.75583 2.00951 6.80833 2.00951L12.04 2.00881C12.0742 2.00302 12.1093 2.00001 12.1451 2.00001ZM11.52 3.25917L6.81 3.25951C5.42917 3.25951 4.2825 4.37784 4.25 5.75701V14.6695C4.21917 16.097 5.34417 17.2728 6.7575 17.3045H13.4775C14.8683 17.247 15.97 16.0912 15.9601 14.6745L15.96 7.81917L14.2851 7.82001C12.7601 7.81584 11.5201 6.57251 11.5201 5.04917L11.52 3.25917ZM11.9894 12.5068C12.3344 12.5068 12.6144 12.7868 12.6144 13.1318C12.6144 13.4768 12.3344 13.7568 11.9894 13.7568H7.48942C7.14442 13.7568 6.86442 13.4768 6.86442 13.1318C6.86442 12.7868 7.14442 12.5068 7.48942 12.5068H11.9894ZM10.2853 9.38009C10.6303 9.38009 10.9103 9.66009 10.9103 10.0051C10.9103 10.3501 10.6303 10.6301 10.2853 10.6301H7.48867C7.14367 10.6301 6.86367 10.3501 6.86367 10.0051C6.86367 9.66009 7.14367 9.38009 7.48867 9.38009H10.2853ZM12.77 3.96001L12.7701 5.04917C12.7701 5.88584 13.4509 6.56751 14.2867 6.57001L15.275 6.56917L12.77 3.96001Z" fill="#EBEEEF"/>
</svg>
