<svg width="20" height="20" viewBox="0 0 20 20" fill="none" xmlns="http://www.w3.org/2000/svg">
<path fill-rule="evenodd" clip-rule="evenodd" d="M10.208 3.125C7.08947 3.125 4.5614 5.65297 4.5614 8.77242C4.5614 10.7753 5.75739 12.812 7.16309 14.3947C7.85667 15.1756 8.57738 15.8186 9.17621 16.2613C9.47629 16.4832 9.73638 16.6479 9.93954 16.754C10.0959 16.8356 10.1807 16.8622 10.208 16.8708C10.2353 16.8622 10.3202 16.8356 10.4765 16.754C10.6796 16.6479 10.9397 16.4832 11.2399 16.2613C11.8386 15.8186 12.5594 15.1756 13.253 14.3947C14.6586 12.812 15.8546 10.7753 15.8546 8.77242C15.8546 5.65297 13.3265 3.125 10.208 3.125ZM3.3114 8.77242C3.3114 4.96271 6.39901 1.875 10.208 1.875C14.017 1.875 17.1046 4.96271 17.1046 8.77242C17.1046 11.2323 15.6667 13.5593 14.1875 15.2247C13.4387 16.0679 12.6543 16.7701 11.983 17.2664C11.6481 17.5141 11.332 17.7175 11.0549 17.8621C10.8081 17.9909 10.498 18.125 10.208 18.125C9.91804 18.125 9.60796 17.9909 9.36113 17.8621C9.08404 17.7175 8.76796 17.5141 8.43304 17.2664C7.7618 16.7701 6.97735 16.0679 6.2285 15.2247C4.74934 13.5593 3.3114 11.2323 3.3114 8.77242ZM7.49214 8.71958C7.49214 7.21962 8.70779 6.00427 10.2082 6.00427C11.708 6.00427 12.9235 7.21977 12.9235 8.71958C12.9235 10.219 11.7083 11.4357 10.2082 11.4357C8.70746 11.4357 7.49214 10.2192 7.49214 8.71958ZM10.2082 7.25427C9.39788 7.25427 8.74213 7.91028 8.74213 8.71958C8.74213 9.52908 9.39813 10.1857 10.2082 10.1857C11.0173 10.1857 11.6735 9.52925 11.6735 8.71958C11.6735 7.91013 11.0176 7.25427 10.2082 7.25427Z" fill="#EBEEEF"/>
</svg>
