<svg width="20" height="20" viewBox="0 0 20 20" fill="none" xmlns="http://www.w3.org/2000/svg">
<path fill-rule="evenodd" clip-rule="evenodd" d="M4.03847 4.63191C4.35709 4.63191 4.61539 4.89021 4.61539 5.20883V14.7899C4.61539 15.1085 4.35709 15.3668 4.03847 15.3668C3.71985 15.3668 3.46155 15.1085 3.46155 14.7899V5.20883C3.46155 4.89021 3.71985 4.63191 4.03847 4.63191Z" fill="#EBEEEF"/>
<path fill-rule="evenodd" clip-rule="evenodd" d="M12.0914 6.03452C10.4977 6.68335 9.04647 7.6384 7.88478 8.69915C7.42785 9.12392 7.24088 9.58862 7.24312 10.0117C7.24537 10.4362 7.43846 10.8931 7.88324 11.2997L7.8857 11.3019C9.10847 12.4329 10.5183 13.3148 12.0968 13.9679L12.1018 13.97C12.6032 14.183 13.065 14.1513 13.4013 13.9732C13.7289 13.7995 14.0032 13.4528 14.0775 12.8912C14.2789 11.085 14.2839 9.14408 14.077 7.11119C14.0075 6.56101 13.7539 6.21174 13.4438 6.03562C13.1308 5.85784 12.6695 5.80536 12.0914 6.03452ZM14.0136 5.03229C14.6922 5.41771 15.1173 6.12127 15.2229 6.97545L15.2242 6.98769C15.4396 9.09977 15.4357 11.1272 15.2236 13.0248L15.2225 13.0351C15.1058 13.9328 14.633 14.6263 13.9416 14.9927C13.2589 15.3545 12.4297 15.3622 11.6532 15.0332C9.95932 14.3319 8.43262 13.3793 7.10337 12.1501C6.45819 11.5597 6.09349 10.8098 6.08929 10.0178C6.08509 9.22446 6.44306 8.463 7.10151 7.85192L7.10485 7.84882C8.36123 6.70116 9.92878 5.66882 11.6588 4.96485L11.6632 4.96306C12.4991 4.63085 13.3372 4.64812 14.0136 5.03229Z" fill="#EBEEEF"/>
</svg>
