<svg width="20" height="20" viewBox="0 0 20 20" fill="none" xmlns="http://www.w3.org/2000/svg">
<path fill-rule="evenodd" clip-rule="evenodd" d="M9.23646 4.72331C6.32385 4.72331 3.95837 7.08878 3.95837 10.0014C3.95837 12.9203 6.32338 15.2795 9.23646 15.2795C11.0427 15.2795 12.6374 14.3772 13.5885 12.9985C13.7846 12.7144 14.1739 12.643 14.458 12.839C14.742 13.0351 14.8135 13.4243 14.6175 13.7084C13.4417 15.4125 11.4689 16.5295 9.23646 16.5295C5.63396 16.5295 2.70837 13.6116 2.70837 10.0014C2.70837 6.39843 5.63349 3.47331 9.23646 3.47331C12.7867 3.47331 15.6744 6.30164 15.7711 9.8295C15.7805 10.1745 15.5085 10.4619 15.1635 10.4713C14.8184 10.4808 14.531 10.2088 14.5215 9.86375C14.4433 7.01055 12.1076 4.72331 9.23646 4.72331Z" fill="#EBEEEF"/>
<path fill-rule="evenodd" clip-rule="evenodd" d="M16.9104 6.17239C17.2283 6.30682 17.377 6.67353 17.2426 6.99145L15.9025 10.1611C15.768 10.479 15.4014 10.6278 15.0835 10.4933L11.9313 9.16058C11.6134 9.02617 11.4646 8.6595 11.599 8.34158C11.7335 8.02363 12.1001 7.87487 12.418 8.00929L14.9945 9.09867L16.0913 6.50467C16.2257 6.18673 16.5925 6.03797 16.9104 6.17239Z" fill="#EBEEEF"/>
</svg>
