<svg width="20" height="20" viewBox="0 0 20 20" fill="none" xmlns="http://www.w3.org/2000/svg">
<path fill-rule="evenodd" clip-rule="evenodd" d="M3.09008 6.17016C3.40802 6.03573 3.77471 6.1845 3.90914 6.50243L5.00611 9.09692L7.58308 8.00734C7.90101 7.87293 8.26771 8.02168 8.40215 8.33958C8.53656 8.65758 8.38781 9.02425 8.06986 9.15867L4.91723 10.4916C4.5993 10.6261 4.2326 10.4773 4.09817 10.1593L2.75782 6.98921C2.62339 6.67128 2.77216 6.30458 3.09008 6.17016Z" fill="#EBEEEF"/>
<path fill-rule="evenodd" clip-rule="evenodd" d="M10.7624 4.72005C7.89007 4.72005 5.55536 7.00814 5.48318 9.85342C5.47443 10.1984 5.1876 10.4711 4.84253 10.4623C4.49746 10.4536 4.22483 10.1668 4.23358 9.82167C4.32297 6.29835 7.21237 3.47005 10.7624 3.47005C14.366 3.47005 17.2915 6.39558 17.2915 9.99908C17.2915 13.6098 14.3655 16.5282 10.7624 16.5282C8.52865 16.5282 6.56349 15.4102 5.38174 13.7082C5.18487 13.4246 5.25514 13.0352 5.53867 12.8383C5.82221 12.6414 6.21165 12.7117 6.40851 12.9953C7.36756 14.3765 8.95698 15.2782 10.7624 15.2782C13.6761 15.2782 16.0415 12.9185 16.0415 9.99908C16.0415 7.08594 13.6756 4.72005 10.7624 4.72005Z" fill="#EBEEEF"/>
</svg>
