<svg width="20" height="20" viewBox="0 0 20 20" fill="none" xmlns="http://www.w3.org/2000/svg">
<path fill-rule="evenodd" clip-rule="evenodd" d="M8.86463 5.94458C9.10829 5.7001 9.50404 5.69947 9.74846 5.94315L13.3483 9.53133C13.4611 9.63083 13.5379 9.77042 13.5561 9.92783C13.559 9.9525 13.5606 9.9775 13.5605 10.0027C13.5605 10.1688 13.4943 10.3281 13.3765 10.4453L9.74821 14.0582C9.50363 14.3017 9.10788 14.3008 8.86438 14.0563C8.62079 13.8117 8.62163 13.4159 8.86629 13.1723L11.4241 10.6255H4.16663C3.82145 10.6255 3.54163 10.3457 3.54163 10.0005C3.54163 9.65533 3.82145 9.3755 4.16663 9.3755H11.4213L8.86604 6.82846C8.62154 6.58478 8.62088 6.18904 8.86463 5.94458Z" fill="#EBEEEF"/>
<path fill-rule="evenodd" clip-rule="evenodd" d="M15.8333 4.99023C16.1785 4.99023 16.4583 5.27006 16.4583 5.61523V14.3863C16.4583 14.7314 16.1785 15.0113 15.8333 15.0113C15.4881 15.0113 15.2083 14.7314 15.2083 14.3863V5.61523C15.2083 5.27006 15.4881 4.99023 15.8333 4.99023Z" fill="#EBEEEF"/>
</svg>
