<svg width="20" height="20" viewBox="0 0 20 20" fill="none" xmlns="http://www.w3.org/2000/svg">
<path fill-rule="evenodd" clip-rule="evenodd" d="M9.78246 1.66667C14.2575 1.66667 17.8975 5.30667 17.8975 9.78167C17.8975 11.893 17.0872 13.8186 15.7613 15.2637L18.3703 17.8673C18.6145 18.1114 18.6153 18.5064 18.3711 18.7506C18.2495 18.8739 18.0886 18.9348 17.9286 18.9348C17.7695 18.9348 17.6095 18.8739 17.487 18.7523L14.8465 16.1192C13.4575 17.2315 11.6964 17.8975 9.78246 17.8975C5.30746 17.8975 1.66663 14.2567 1.66663 9.78167C1.66663 5.30667 5.30746 1.66667 9.78246 1.66667ZM9.78246 2.91667C5.99663 2.91667 2.91663 5.99583 2.91663 9.78167C2.91663 13.5675 5.99663 16.6475 9.78246 16.6475C13.5675 16.6475 16.6475 13.5675 16.6475 9.78167C16.6475 5.99583 13.5675 2.91667 9.78246 2.91667Z" fill="#EBEEEF"/>
</svg>
