<svg width="20" height="20" viewBox="0 0 20 20" fill="none" xmlns="http://www.w3.org/2000/svg">
<path fill-rule="evenodd" clip-rule="evenodd" d="M9.50002 4.6C6.79383 4.6 4.60002 6.79381 4.60002 9.5C4.60002 12.2062 6.79383 14.4 9.50002 14.4C12.2062 14.4 14.4 12.2062 14.4 9.5C14.4 6.79381 12.2062 4.6 9.50002 4.6ZM3.40002 9.5C3.40002 6.13106 6.13109 3.4 9.50002 3.4C12.869 3.4 15.6 6.13106 15.6 9.5C15.6 10.9684 15.0812 12.3156 14.2169 13.3683L16.4243 15.5757C16.6586 15.8101 16.6586 16.19 16.4243 16.4243C16.19 16.6586 15.8101 16.6586 15.5758 16.4243L13.3683 14.2168C12.3156 15.0812 10.9684 15.6 9.50002 15.6C6.13109 15.6 3.40002 12.8689 3.40002 9.5Z" fill="#EBEEEF"/>
</svg>
