<svg width="20" height="20" viewBox="0 0 20 20" fill="none" xmlns="http://www.w3.org/2000/svg">
<path d="M17.6881 10.3646L18.388 11.2891C18.5507 11.517 18.6561 11.7807 18.6952 12.0574C18.7155 12.2022 18.7175 12.347 18.7021 12.4887C18.6875 12.6221 18.6577 12.754 18.613 12.881L18.4515 13.2895C18.401 13.4099 18.3473 13.5304 18.2883 13.6475C18.1662 13.9095 17.9815 14.1358 17.75 14.3067C17.5188 14.4792 17.2482 14.5899 16.963 14.6306L15.8212 14.7982C15.7207 14.8129 15.6275 14.8601 15.5547 14.9317C15.5217 14.9643 15.4945 15.0017 15.473 15.0424C15.446 15.0945 15.4285 15.1498 15.4212 15.2068L15.2548 16.3396C15.2154 16.626 15.1047 16.8962 14.9325 17.1274C14.7609 17.3601 14.5334 17.544 14.2714 17.6645C14.0345 17.7833 13.79 17.8793 13.545 17.9753L13.5047 17.99C13.3143 18.055 13.1145 18.0893 12.9131 18.0893C12.5355 18.0909 12.1676 17.9705 11.8629 17.7475L10.9547 17.0557C10.9014 17.0183 10.842 16.9923 10.7793 16.9776C10.7334 16.9679 10.6857 16.963 10.6381 16.9646C10.5254 16.9597 10.414 16.9906 10.3215 17.0557L9.40479 17.7475C9.27213 17.8467 9.10529 17.8907 8.94138 17.8663C8.77738 17.8435 8.6293 17.7556 8.52955 17.6221C8.45955 17.5294 8.41763 17.4187 8.40746 17.3048C8.40304 17.2575 8.40421 17.2087 8.41113 17.1599C8.42863 17.0362 8.48238 16.9223 8.56371 16.8311C8.59104 16.8002 8.62154 16.7725 8.65488 16.7481L9.57121 16.0564C9.68396 15.9766 9.80438 15.9099 9.93013 15.8578C10.156 15.7634 10.3993 15.713 10.6463 15.713C11.0316 15.713 11.4071 15.8334 11.7213 16.0564L12.6299 16.7481C12.6681 16.7741 12.7096 16.7953 12.7536 16.81C12.7865 16.8214 12.8207 16.8295 12.8557 16.8344C12.9371 16.8441 13.0197 16.8344 13.0962 16.8067C13.3204 16.7302 13.5405 16.6407 13.7545 16.5398C13.7936 16.5219 13.8299 16.4991 13.8628 16.4715C13.893 16.447 13.9198 16.4177 13.9434 16.3868C13.9926 16.3217 14.0251 16.2452 14.0382 16.1638L14.1965 15.0229C14.2522 14.6599 14.4215 14.3246 14.6799 14.0642C14.946 13.7973 15.2906 13.6231 15.663 13.5645L16.8047 13.4066C16.8857 13.3936 16.9622 13.361 17.0277 13.3106C17.0932 13.2618 17.1453 13.1967 17.1799 13.1235C17.2808 12.9086 17.3699 12.6889 17.4464 12.4643C17.4749 12.3894 17.4846 12.308 17.4745 12.2283C17.4643 12.1485 17.4346 12.072 17.3882 12.0069L16.6965 11.0808C16.4751 10.7813 16.3526 10.42 16.3465 10.0473C16.3343 9.69246 16.4365 9.34088 16.6379 9.04796L17.3296 8.12345C17.3764 8.05671 17.4061 7.98021 17.4163 7.90046C17.4265 7.82071 17.4167 7.73933 17.3882 7.66446C17.3113 7.43985 17.2226 7.22012 17.1213 7.0069C17.0871 6.93204 17.0346 6.86694 16.9691 6.8181C16.904 6.76765 16.8275 6.7351 16.7465 6.7237L15.6129 6.56419C15.2316 6.50886 14.8796 6.32657 14.6131 6.04824C14.4488 5.88874 14.3181 5.69831 14.2265 5.48998C14.1643 5.35 14.1204 5.20189 14.0964 5.04727L13.9381 3.91446C13.925 3.83308 13.8925 3.75658 13.8433 3.69148C13.823 3.66381 13.7997 3.63939 13.7745 3.61661C13.7387 3.58569 13.6985 3.55964 13.6549 3.54011C13.4405 3.43919 13.2207 3.34968 12.9965 3.27319C12.9212 3.24389 12.8399 3.23412 12.7601 3.24551C12.68 3.25528 12.6039 3.28458 12.538 3.33178L11.6216 4.02351C11.312 4.24812 10.9376 4.36856 10.5547 4.3653C10.1718 4.36856 9.79788 4.24812 9.48821 4.02351L8.57146 3.33178C8.53771 3.30736 8.50105 3.28783 8.4628 3.27319C8.42663 3.26016 8.38838 3.25039 8.34971 3.24551C8.26955 3.23412 8.18858 3.24389 8.1129 3.27319C7.8887 3.34968 7.66897 3.43919 7.45494 3.54011C7.38048 3.57429 7.31578 3.62637 7.26614 3.69148C7.2169 3.75658 7.18435 3.83308 7.17133 3.91446L7.01304 5.04727C6.95282 5.4265 6.775 5.77644 6.50483 6.04824C6.35997 6.18822 6.19354 6.30215 6.01288 6.38679C5.86274 6.45678 5.70323 6.5056 5.53803 6.53164L4.40481 6.68953C4.32384 6.70255 4.24734 6.7351 4.18183 6.78393C4.11631 6.83438 4.06423 6.89786 4.02964 6.97273C3.92874 7.18757 3.83962 7.40729 3.76313 7.6319C3.73464 7.70678 3.72488 7.78815 3.73505 7.86791C3.74522 7.94766 3.77493 8.02416 3.82131 8.08926L4.51304 9.01538C4.62616 9.16838 4.71324 9.33763 4.77224 9.51671C4.8288 9.68754 4.85972 9.86663 4.86298 10.0473C4.84304 10.4135 4.70876 10.7634 4.47968 11.0482L3.78794 11.9727C3.71877 12.0557 3.63007 12.1192 3.53079 12.1583C3.48765 12.1745 3.44208 12.1875 3.39529 12.194C3.24148 12.2169 3.08482 12.1827 2.95461 12.098C2.83376 12.0004 2.75401 11.8605 2.73082 11.7058C2.70762 11.5512 2.74303 11.3933 2.82969 11.2647L3.52143 10.3402C3.58734 10.2572 3.62274 10.153 3.62152 10.0473V10.0229C3.61501 9.91871 3.58043 9.81779 3.52143 9.73154L2.86306 8.80704C2.63682 8.50921 2.51638 8.14623 2.52126 7.77351C2.52126 7.56843 2.55504 7.36661 2.62136 7.17292C2.72146 6.91414 2.82155 6.65697 2.94648 6.40632C3.06692 6.14428 3.25124 5.91641 3.48318 5.74551C3.7147 5.57299 3.9857 5.46231 4.27134 5.42324L5.39643 5.2556C5.51239 5.24095 5.619 5.18562 5.69631 5.09773C5.78135 5.02123 5.8375 4.91869 5.85459 4.80639L6.02143 3.67357C6.05398 3.39525 6.15244 3.13158 6.3091 2.90046C6.46576 2.66934 6.67572 2.48054 6.92149 2.3487C7.17133 2.22338 7.42971 2.12247 7.6881 2.02319C7.96356 1.91902 8.26101 1.88646 8.55279 1.92878C8.84413 1.9711 9.11996 2.08666 9.35479 2.26407L10.313 2.9558C10.4025 3.0209 10.5112 3.05345 10.6215 3.04857C10.7341 3.05183 10.8452 3.01928 10.938 2.9558L11.8548 2.26407C12.1469 2.04109 12.5042 1.92227 12.8716 1.92227C13.0755 1.92227 13.2781 1.95645 13.4714 2.02319C13.7298 2.12247 13.9881 2.23152 14.238 2.3487C14.5 2.46914 14.7275 2.65307 14.8992 2.88419C14.9594 2.96557 15.0123 3.05183 15.057 3.14134C15.14 3.30899 15.1958 3.48803 15.2215 3.67357L15.3879 4.80639C15.4054 4.91869 15.4615 5.02123 15.5465 5.09773C15.6247 5.17748 15.7272 5.23119 15.8379 5.24747L16.9715 5.41511C17.2568 5.4558 17.527 5.56648 17.7585 5.739C17.9151 5.85456 18.0506 5.99616 18.1593 6.15567C18.211 6.23217 18.257 6.31354 18.2964 6.39819C18.3819 6.58048 18.4628 6.76765 18.5393 6.95645L18.6215 7.16479C18.6801 7.32429 18.7155 7.4903 18.7265 7.65958C18.7346 7.78328 18.7298 7.90697 18.7119 8.02905C18.687 8.20157 18.6365 8.36921 18.563 8.52546C18.5125 8.63288 18.4515 8.73546 18.3798 8.83146L17.6881 9.75596C17.6222 9.83896 17.5868 9.94146 17.588 10.0473V10.0733C17.5868 10.1791 17.6222 10.2816 17.6881 10.3646Z" fill="#EBEEEF"/>
<path fill-rule="evenodd" clip-rule="evenodd" d="M14.3572 10.9408C14.2087 11.7058 13.8368 12.4105 13.2883 12.964C12.7963 13.4685 12.1786 13.833 11.4991 14.0203C10.82 14.2075 10.1026 14.2123 9.42145 14.03L6.85475 16.6228C6.66147 16.8197 6.43076 16.976 6.17604 17.0818C5.92091 17.1875 5.64748 17.2413 5.37159 17.2396C4.91709 17.2396 4.47844 17.0736 4.13828 16.7725C3.94094 16.6 3.78061 16.3884 3.66749 16.1524C3.55397 15.9164 3.49009 15.6592 3.4791 15.3972C3.46811 15.1351 3.51084 14.8747 3.60402 14.629C3.69719 14.3832 3.83921 14.1602 4.0215 13.9715L6.62974 11.3298C6.51499 10.9474 6.45965 10.5502 6.46372 10.153C6.46738 9.81612 6.51418 9.47921 6.6041 9.15046C6.79982 8.43596 7.19207 7.78978 7.7365 7.28685C8.28094 6.78393 8.95562 6.44538 9.68395 6.30703C10.4119 6.16869 11.1642 6.23705 11.8548 6.5056C11.9134 6.52188 11.9691 6.54792 12.02 6.58048C12.0602 6.60488 12.0977 6.63418 12.1315 6.66836C12.2075 6.74648 12.2625 6.84252 12.2901 6.94831C12.3182 7.05248 12.3178 7.16315 12.2897 7.26895C12.2616 7.37312 12.2063 7.46914 12.1298 7.54727L10.4631 9.21396L10.63 10.0473L11.43 10.1384L13.0966 8.47171C13.1695 8.39854 13.259 8.34321 13.3579 8.31224C13.4563 8.27969 13.5609 8.27155 13.6635 8.28946C13.7644 8.30898 13.8591 8.35454 13.9389 8.41963C14.0186 8.48479 14.0813 8.56938 14.1216 8.66379C14.4235 9.38321 14.5053 10.1742 14.3572 10.9408ZM5.97137 15.7471L8.79645 12.889C8.87987 12.798 8.98854 12.7328 9.10854 12.7035C9.22904 12.6726 9.35512 12.6807 9.47154 12.7215C9.96837 12.9119 10.5104 12.9525 11.03 12.8386C11.3522 12.7686 11.657 12.64 11.9309 12.4626C12.0989 12.3536 12.2551 12.225 12.3967 12.0801C12.5306 11.9418 12.649 11.7905 12.7504 11.6277C12.8345 11.491 12.907 11.3477 12.9664 11.198C13.0355 11.0238 13.086 10.8432 13.1174 10.6576C13.145 10.4949 13.1576 10.3305 13.1548 10.1645L12.3215 10.9978C12.2584 11.0629 12.1884 11.1215 12.1131 11.172C12.0485 11.2143 11.9793 11.2517 11.9069 11.2826C11.7506 11.3477 11.5825 11.3819 11.4133 11.3803C11.3412 11.3884 11.2684 11.3884 11.1964 11.3803L10.405 11.2305C10.1596 11.185 9.93295 11.0694 9.75354 10.8953C9.57404 10.7211 9.44995 10.4997 9.3967 10.2556L9.22987 9.47271C9.18504 9.26929 9.19162 9.05929 9.24812 8.86071C9.30512 8.66054 9.41053 8.47829 9.55495 8.33015L10.3883 7.49682C9.94554 7.50333 9.51137 7.62051 9.12362 7.83373C8.73629 8.04857 8.40745 8.35454 8.16619 8.72563C7.9249 9.09671 7.77882 9.52154 7.74058 9.96263C7.70233 10.4037 7.77313 10.848 7.94647 11.255C7.99367 11.3705 8.00587 11.4959 7.98227 11.6179C7.95867 11.7384 7.89967 11.8506 7.81341 11.9385L4.93824 14.847C4.87559 14.909 4.82675 14.9838 4.79379 15.0652C4.78037 15.0977 4.76979 15.1319 4.76206 15.1677C4.75067 15.2182 4.74538 15.2703 4.74659 15.3224C4.74497 15.42 4.76531 15.5176 4.80559 15.6071C4.83449 15.6706 4.87355 15.7292 4.92075 15.7813L4.97975 15.8383C5.12583 15.9539 5.30974 16.0075 5.49407 15.9896C5.6784 15.9734 5.84929 15.8855 5.97137 15.7471Z" fill="#EBEEEF"/>
</svg>
