<svg width="20" height="20" viewBox="0 0 20 20" fill="none" xmlns="http://www.w3.org/2000/svg">
<path fill-rule="evenodd" clip-rule="evenodd" d="M4.27002 5.51541C4.27002 3.50493 5.89974 1.875 7.90962 1.875H12.5061C14.5158 1.875 16.1457 3.50479 16.1457 5.51454C16.1457 5.51452 16.1457 5.51456 16.1457 5.51454L16.1465 14.4845C16.1465 16.4951 14.5167 18.125 12.5061 18.125H7.91043C5.90068 18.125 4.27086 16.4952 4.27084 14.4855L4.27002 5.51541ZM5.52002 5.51541C5.52002 5.51538 5.52002 5.51543 5.52002 5.51541L5.52084 14.4853C5.52084 15.8048 6.59101 16.875 7.91043 16.875H12.5061C13.8263 16.875 14.8965 15.8048 14.8965 14.4847L14.8957 5.51465C14.8957 4.19523 13.8255 3.125 12.5061 3.125H7.90962C6.59033 3.125 5.52005 4.19509 5.52002 5.51541Z" fill="#EBEEEF"/>
<path fill-rule="evenodd" clip-rule="evenodd" d="M9.375 14.3993C9.375 13.9385 9.74892 13.5661 10.2085 13.5661C10.6682 13.5661 11.0421 13.9385 11.0421 14.3993C11.0421 14.8596 10.6689 15.2328 10.2085 15.2328C9.74817 15.2328 9.375 14.8596 9.375 14.3993Z" fill="#EBEEEF"/>
</svg>
