<svg width="20" height="20" viewBox="0 0 20 20" fill="none" xmlns="http://www.w3.org/2000/svg">
<path fill-rule="evenodd" clip-rule="evenodd" d="M6.01057 4.68438C6.34194 4.68438 6.61057 4.95301 6.61057 5.28438V15.1384C6.61057 15.3813 6.4641 15.6002 6.23958 15.693C6.01506 15.7857 5.75679 15.7338 5.5854 15.5618L3.17482 13.1408C2.94102 12.906 2.94183 12.5261 3.17665 12.2922C3.41146 12.0585 3.79136 12.0593 4.02518 12.2941L5.41057 13.6854V5.28438C5.41057 4.95301 5.6792 4.68438 6.01057 4.68438Z" fill="#EBEEEF"/>
<path fill-rule="evenodd" clip-rule="evenodd" d="M8.6844 6.175C8.6844 5.84363 8.95304 5.575 9.2844 5.575H16.4006C16.7319 5.575 17.0006 5.84363 17.0006 6.175C17.0006 6.50637 16.7319 6.775 16.4006 6.775H9.2844C8.95304 6.775 8.6844 6.50637 8.6844 6.175ZM8.6844 10.2649C8.6844 9.93352 8.95304 9.66488 9.2844 9.66488H13.3085C13.6398 9.66488 13.9085 9.93352 13.9085 10.2649C13.9085 10.5962 13.6398 10.8649 13.3085 10.8649H9.2844C8.95304 10.8649 8.6844 10.5962 8.6844 10.2649ZM8.6844 14.3554C8.6844 14.0241 8.95304 13.7554 9.2844 13.7554H11.1802C11.5115 13.7554 11.7802 14.0241 11.7802 14.3554C11.7802 14.6869 11.5115 14.9554 11.1802 14.9554H9.2844C8.95304 14.9554 8.6844 14.6869 8.6844 14.3554Z" fill="#EBEEEF"/>
</svg>
