<svg width="20" height="20" viewBox="0 0 20 20" fill="none" xmlns="http://www.w3.org/2000/svg">
<path fill-rule="evenodd" clip-rule="evenodd" d="M6.01057 15.7406C6.34194 15.7406 6.61057 15.472 6.61057 15.1406V5.28661C6.61057 5.0437 6.4641 4.82476 6.23958 4.73205C6.01506 4.63933 5.75679 4.69113 5.5854 4.86326L3.17482 7.28421C2.94102 7.51903 2.94183 7.89893 3.17665 8.13272C3.41146 8.36656 3.79136 8.36576 4.02518 8.13088L5.41057 6.73956V15.1406C5.41057 15.472 5.6792 15.7406 6.01057 15.7406Z" fill="#EBEEEF"/>
<path fill-rule="evenodd" clip-rule="evenodd" d="M8.6844 6.175C8.6844 5.84363 8.95304 5.575 9.2844 5.575H11.1802C11.5115 5.575 11.7802 5.84363 11.7802 6.175C11.7802 6.50636 11.5115 6.775 11.1802 6.775H9.2844C8.95304 6.775 8.6844 6.50636 8.6844 6.175ZM8.6844 10.2649C8.6844 9.93352 8.95304 9.66488 9.2844 9.66488H13.3078C13.6391 9.66488 13.9078 9.93352 13.9078 10.2649C13.9078 10.5962 13.6391 10.8649 13.3078 10.8649H9.2844C8.95304 10.8649 8.6844 10.5962 8.6844 10.2649ZM8.6844 14.3554C8.6844 14.0241 8.95304 13.7554 9.2844 13.7554H16.4006C16.7319 13.7554 17.0006 14.0241 17.0006 14.3554C17.0006 14.6869 16.7319 14.9554 16.4006 14.9554H9.2844C8.95304 14.9554 8.6844 14.6869 8.6844 14.3554Z" fill="#EBEEEF"/>
</svg>
