<svg width="20" height="20" viewBox="0 0 20 20" fill="none" xmlns="http://www.w3.org/2000/svg">
<path fill-rule="evenodd" clip-rule="evenodd" d="M5.70535 1.91264C5.98043 1.91264 6.22317 2.09249 6.30327 2.35566C6.63544 3.44706 7.48953 4.30119 8.58087 4.63336C8.84404 4.71346 9.02387 4.9562 9.02387 5.23128C9.02387 5.50635 8.84404 5.74909 8.58087 5.82919C7.48953 6.16137 6.63544 7.01549 6.30327 8.10689C6.22317 8.37009 5.98043 8.54992 5.70535 8.54992C5.43027 8.54992 5.18752 8.37009 5.10742 8.10689C4.77526 7.01549 3.92117 6.16137 2.82984 5.82919C2.56669 5.74909 2.38684 5.50635 2.38684 5.23128C2.38684 4.9562 2.56669 4.71346 2.82984 4.63336C3.92117 4.30119 4.77526 3.44706 5.10742 2.35566C5.18752 2.09249 5.43027 1.91264 5.70535 1.91264ZM4.44849 5.23128C4.94386 5.56592 5.37072 5.99279 5.70535 6.48818C6.03997 5.99279 6.46684 5.56592 6.96221 5.23128C6.46684 4.89664 6.03997 4.46976 5.70535 3.97438C5.37072 4.46976 4.94386 4.89664 4.44849 5.23128Z" fill="#EBEEEF"/>
<path fill-rule="evenodd" clip-rule="evenodd" d="M12.541 5.89559C12.8215 5.89559 13.0675 6.08243 13.143 6.35258C13.5459 7.79643 14.0884 8.83775 14.8605 9.61959C15.632 10.4008 16.6807 10.9711 18.1799 11.3895C18.45 11.4648 18.6368 11.711 18.6368 11.9915C18.6368 12.2719 18.45 12.5181 18.1799 12.5935C16.736 12.9964 15.6947 13.5388 14.9129 14.3111C14.1317 15.0826 13.5614 16.1312 13.143 17.6303C13.0675 17.9005 12.8215 18.0873 12.541 18.0873C12.2605 18.0873 12.0144 17.9005 11.939 17.6303C11.536 16.1865 10.9935 15.1453 10.2214 14.3634C9.44979 13.5823 8.40121 13.0118 6.90206 12.5935C6.63191 12.5181 6.44507 12.2719 6.44507 11.9915C6.44507 11.711 6.63191 11.4648 6.90206 11.3895C8.34587 10.9865 9.38721 10.4441 10.169 9.67192C10.9502 8.90034 11.5205 7.85174 11.939 6.35258C12.0144 6.08243 12.2605 5.89559 12.541 5.89559ZM12.5403 8.37259C12.1495 9.23067 11.662 9.95417 11.0474 10.5613C10.4457 11.1555 9.74037 11.6203 8.92204 11.9922C9.78012 12.3828 10.5036 12.8703 11.1107 13.485C11.705 14.0867 12.1698 14.7921 12.5416 15.6104C12.9324 14.7523 13.4198 14.0288 14.0345 13.4217C14.6361 12.8275 15.3415 12.3627 16.1599 11.9908C15.3017 11.6001 14.5783 11.1126 13.9712 10.4979C13.377 9.89625 12.9121 9.19092 12.5403 8.37259Z" fill="#EBEEEF"/>
<path fill-rule="evenodd" clip-rule="evenodd" d="M3.7996 15.9298C3.7996 15.4948 4.15218 15.1418 4.58761 15.1418C5.02253 15.1418 5.37571 15.4943 5.37571 15.9298C5.37571 16.3653 5.02253 16.7179 4.58761 16.7179C4.15217 16.7179 3.7996 16.3648 3.7996 15.9298Z" fill="#EBEEEF"/>
<path fill-rule="evenodd" clip-rule="evenodd" d="M14.8667 3.91386C14.8667 3.47884 15.2193 3.12582 15.6547 3.12582C16.0896 3.12582 16.4428 3.47834 16.4428 3.91386C16.4428 4.34938 16.0896 4.7019 15.6547 4.7019C15.2193 4.7019 14.8667 4.34889 14.8667 3.91386Z" fill="#EBEEEF"/>
</svg>
