<svg width="20" height="20" viewBox="0 0 20 20" fill="none" xmlns="http://www.w3.org/2000/svg">
<path fill-rule="evenodd" clip-rule="evenodd" d="M4.54311 4.1001C3.97877 4.70555 3.6369 5.59125 3.6369 6.68864V13.3113C3.6369 14.4095 3.97741 15.2951 4.54065 15.9002C5.09919 16.5002 5.92308 16.875 6.99704 16.875H14.0252C15.0996 16.875 15.9239 16.5002 16.4828 15.9001C17.0463 15.295 17.3869 14.4094 17.3869 13.3113V6.68864C17.3869 5.59056 17.0463 4.70497 16.4829 4.09986C15.9241 3.49979 15.0999 3.125 14.026 3.125H6.99704C5.92713 3.125 5.10291 3.49952 4.54311 4.1001ZM3.62873 3.2478C4.44914 2.36764 5.61748 1.875 6.99704 1.875H14.026C15.4088 1.875 16.5776 2.36737 17.3976 3.24804C18.2129 4.12367 18.6369 5.3324 18.6369 6.68864V13.3113C18.6369 14.6676 18.2129 15.8763 17.3975 16.752C16.5774 17.6327 15.4083 18.125 14.0252 18.125H6.99704C5.61423 18.125 4.44554 17.6326 3.62571 16.7518C2.81058 15.8762 2.3869 14.6675 2.3869 13.3113V6.68864C2.3869 5.33171 2.81287 4.12309 3.62873 3.2478Z" fill="#EBEEEF"/>
<path fill-rule="evenodd" clip-rule="evenodd" d="M10.5127 6.36353C10.8579 6.36353 11.1377 6.64335 11.1377 6.98853V13.0115C11.1377 13.3567 10.8579 13.6365 10.5127 13.6365C10.1675 13.6365 9.88769 13.3567 9.88769 13.0115V6.98853C9.88769 6.64335 10.1675 6.36353 10.5127 6.36353Z" fill="#EBEEEF"/>
<path fill-rule="evenodd" clip-rule="evenodd" d="M13.6614 8.18184C13.8339 8.48074 13.7315 8.86299 13.4325 9.03558L8.21652 12.0471C7.91759 12.2197 7.53535 12.1172 7.36276 11.8183C7.19017 11.5194 7.29259 11.1372 7.59152 10.9646L12.8075 7.95308C13.1065 7.78049 13.4887 7.88291 13.6614 8.18184Z" fill="#EBEEEF"/>
<path fill-rule="evenodd" clip-rule="evenodd" d="M13.6614 11.8182C13.8339 11.5192 13.7315 11.137 13.4325 10.9644L8.21652 7.9529C7.91759 7.78031 7.53535 7.88273 7.36276 8.18167C7.19017 8.48057 7.29259 8.86282 7.59152 9.03541L12.8075 12.0469C13.1065 12.2195 13.4887 12.1171 13.6614 11.8182Z" fill="#EBEEEF"/>
</svg>
