<svg width="20" height="20" viewBox="0 0 20 20" fill="none" xmlns="http://www.w3.org/2000/svg">
<path fill-rule="evenodd" clip-rule="evenodd" d="M1.875 4.52661H18.5417V9.84327H17.9167C17.3255 9.84327 16.8638 10.2744 16.8638 10.7966C16.8638 11.3183 17.3251 11.7492 17.9167 11.7492H18.5417V17.065H1.875V11.7492H2.5C3.09159 11.7492 3.55286 11.3183 3.55286 10.7966C3.55286 10.3041 3.12472 9.90335 2.5 9.90335H1.875V4.52661ZM3.125 5.68046V8.82381C4.07393 9.05473 4.80286 9.80396 4.80286 10.7966C4.80286 11.769 4.09072 12.5771 3.125 12.8247V15.9112H17.2917V12.8247C16.3259 12.5771 15.6138 11.769 15.6138 10.7966C15.6138 9.8245 16.3257 9.01558 17.2917 8.76773V5.68046H3.125Z" fill="#EBEEEF"/>
<path fill-rule="evenodd" clip-rule="evenodd" d="M10.2076 7.00056L11.4365 9.15073L14.0316 9.5652L12.1961 11.3085L12.571 13.7149L10.2076 12.6421L7.84413 13.7149L8.21902 11.3085L6.38346 9.5652L8.97857 9.15073L10.2076 7.00056ZM10.2076 9.4732L9.79732 10.191L8.93107 10.3293L9.54382 10.9112L9.41865 11.7144L10.2076 11.3563L10.9964 11.7144L10.8713 10.9112L11.484 10.3293L10.6177 10.191L10.2076 9.4732Z" fill="#EBEEEF"/>
</svg>
