<svg width="20" height="20" viewBox="0 0 20 20" fill="none" xmlns="http://www.w3.org/2000/svg">
<path fill-rule="evenodd" clip-rule="evenodd" d="M6.60474 5.25937C6.84323 5.25937 7.05908 5.40062 7.15456 5.61915L10.9592 14.3275C11.0919 14.6311 10.9532 14.9849 10.6496 15.1175C10.346 15.2502 9.99219 15.1116 9.85955 14.8079L6.60474 7.35804L3.34992 14.8079C3.21725 15.1116 2.86354 15.2502 2.55989 15.1175C2.25623 14.9849 2.11762 14.6311 2.25029 14.3275L6.05493 5.61915C6.15041 5.40062 6.36625 5.25937 6.60474 5.25937Z" fill="#EBEEEF"/>
<path fill-rule="evenodd" clip-rule="evenodd" d="M3.56089 11.4531C3.56089 11.1218 3.82952 10.8531 4.16089 10.8531H9.04899C9.38035 10.8531 9.64899 11.1218 9.64899 11.4531C9.64899 11.7845 9.38035 12.0531 9.04899 12.0531H4.16089C3.82952 12.0531 3.56089 11.7845 3.56089 11.4531Z" fill="#EBEEEF"/>
<path fill-rule="evenodd" clip-rule="evenodd" d="M14.6639 10.0938C13.5943 10.0938 12.7281 10.96 12.7281 12.0297C12.7281 13.0986 13.5944 13.9656 14.6639 13.9656C15.7329 13.9656 16.5999 13.0986 16.5999 12.0297C16.5999 10.9601 15.733 10.0938 14.6639 10.0938ZM11.5281 12.0297C11.5281 10.2972 12.9316 8.89375 14.6639 8.89375C16.3955 8.89375 17.7999 10.2971 17.7999 12.0297C17.7999 13.7613 16.3956 15.1656 14.6639 15.1656C12.9315 15.1656 11.5281 13.7612 11.5281 12.0297Z" fill="#EBEEEF"/>
<path fill-rule="evenodd" clip-rule="evenodd" d="M17.2 9.05311C17.5313 9.05311 17.8 9.32175 17.8 9.65311V14.4097C17.8 14.741 17.5313 15.0097 17.2 15.0097C16.8686 15.0097 16.6 14.741 16.6 14.4097V9.65311C16.6 9.32175 16.8686 9.05311 17.2 9.05311Z" fill="#EBEEEF"/>
</svg>
