<svg width="20" height="20" viewBox="0 0 20 20" fill="none" xmlns="http://www.w3.org/2000/svg">
<path d="M6.90751 7.00002C7.25256 7.00002 7.53251 7.28002 7.53251 7.62502V10.5833C7.53251 11.2733 8.09241 11.8333 8.78254 11.8333C9.47263 11.8333 10.0325 11.2733 10.0325 10.5833V7.62502C10.0325 7.28002 10.3125 7.00002 10.6575 7.00002C11.0025 7.00002 11.2825 7.28002 11.2825 7.62502V10.5833C11.2825 11.9642 10.1635 13.0833 8.78254 13.0833C7.40149 13.0833 6.28251 11.9642 6.28251 10.5833V7.62502C6.28251 7.28002 6.56246 7.00002 6.90751 7.00002Z" fill="#EBEEEF"/>
<path d="M13.5742 7.00002C13.9192 7.00002 14.1992 7.28002 14.1992 7.62502V12.2917C14.1992 12.6367 13.9192 12.9167 13.5742 12.9167C13.2291 12.9167 12.9492 12.6367 12.9492 12.2917V7.62502C12.9492 7.28002 13.2291 7.00002 13.5742 7.00002Z" fill="#EBEEEF"/>
<path fill-rule="evenodd" clip-rule="evenodd" d="M3.35771 3.03915C4.17843 2.15912 5.34664 1.66667 6.72604 1.66667H13.7549C15.1375 1.66667 16.3065 2.15917 17.1268 3.04001C17.9419 3.91501 18.3659 5.12416 18.3659 6.48V13.1033C18.3659 14.4592 17.9419 15.6683 17.1268 16.5433C16.3065 17.4242 15.1375 17.9167 13.754 17.9167H6.72604C5.34257 17.9167 4.17436 17.4242 3.35404 16.5433C2.53903 15.6675 2.11584 14.4592 2.11584 13.1033V6.48C2.11584 5.12335 2.54187 3.91501 3.35771 3.03915ZM4.27161 3.89165C3.70764 4.49748 3.36584 5.38336 3.36584 6.48V13.1033C3.36584 14.2017 3.70602 15.0867 4.26917 15.6917C4.82744 16.2917 5.65182 16.6667 6.72604 16.6667H13.754C14.8282 16.6667 15.6526 16.2917 16.2117 15.6917C16.7749 15.0867 17.1159 14.2008 17.1159 13.1033V6.48C17.1159 5.38249 16.7749 4.49667 16.2117 3.89165C15.6535 3.29168 14.829 2.91667 13.7549 2.91667H6.72604C5.65589 2.91667 4.8315 3.29081 4.27161 3.89165Z" fill="#EBEEEF"/>
</svg>
