<svg width="20" height="20" viewBox="0 0 20 20" fill="none" xmlns="http://www.w3.org/2000/svg">
<path fill-rule="evenodd" clip-rule="evenodd" d="M5.84424 8.30403C4.66417 8.30403 3.70764 9.26083 3.70764 10.4398V14.7371C3.70764 15.917 4.66429 16.8737 5.84424 16.8737H14.5725C15.7515 16.8737 16.7083 15.9172 16.7083 14.7371V10.4398C16.7083 9.26067 15.7517 8.30403 14.5725 8.30403H5.84424ZM2.45764 10.4398C2.45764 8.57025 3.97406 7.05403 5.84424 7.05403H14.5725C16.442 7.05403 17.9583 8.57033 17.9583 10.4398V14.7371C17.9583 16.6073 16.4421 18.1237 14.5725 18.1237H5.84424C3.97394 18.1237 2.45764 16.6074 2.45764 14.7371V10.4398Z" fill="#EBEEEF"/>
<path fill-rule="evenodd" clip-rule="evenodd" d="M9.50754 11.4365C9.42721 12.1487 9.42504 12.9176 9.50812 13.7278C9.52437 13.8485 9.57029 13.8748 9.57721 13.8787C9.58746 13.8844 9.65562 13.9174 9.81096 13.8568C10.4285 13.6077 10.993 13.2396 11.4447 12.8313C11.5668 12.7183 11.5859 12.6269 11.5856 12.5785C11.5854 12.529 11.5643 12.4397 11.4467 12.3332L11.444 12.3307C10.9702 11.8967 10.4228 11.5563 9.80496 11.3033L9.79871 11.3008C9.68129 11.2513 9.61021 11.2722 9.58496 11.2854C9.57113 11.2927 9.55804 11.3034 9.54571 11.3217C9.53354 11.34 9.51612 11.3752 9.50754 11.4365ZM10.2815 10.1478C9.86796 9.97417 9.40254 9.96958 9.00421 10.1785C8.59563 10.3928 8.33069 10.7943 8.26749 11.2791L8.26623 11.2894C8.17398 12.1024 8.17296 12.9667 8.26555 13.8638L8.26702 13.8767C8.32361 14.3319 8.55904 14.7399 8.96396 14.9679C9.36554 15.194 9.83804 15.1895 10.2706 15.0193L10.2754 15.0174C11.0406 14.7092 11.7311 14.2579 12.2855 13.7563L12.2892 13.7528C12.6303 13.4392 12.838 13.0252 12.8356 12.572C12.8333 12.1202 12.6226 11.7123 12.287 11.4078C11.698 10.8685 11.0242 10.4523 10.2815 10.1478Z" fill="#EBEEEF"/>
<path fill-rule="evenodd" clip-rule="evenodd" d="M4.73466 5.0944C4.73466 4.74922 5.01448 4.4694 5.35966 4.4694H15.0569C15.402 4.4694 15.6819 4.74922 15.6819 5.0944C15.6819 5.43957 15.402 5.7194 15.0569 5.7194H5.35966C5.01448 5.7194 4.73466 5.43957 4.73466 5.0944Z" fill="#EBEEEF"/>
<path fill-rule="evenodd" clip-rule="evenodd" d="M6.84892 2.5C6.84892 2.15483 7.12874 1.875 7.47392 1.875H12.942C13.2871 1.875 13.567 2.15483 13.567 2.5C13.567 2.84518 13.2871 3.125 12.942 3.125H7.47392C7.12874 3.125 6.84892 2.84518 6.84892 2.5Z" fill="#EBEEEF"/>
</svg>
