<svg width="20" height="20" viewBox="0 0 20 20" fill="none" xmlns="http://www.w3.org/2000/svg">
<path fill-rule="evenodd" clip-rule="evenodd" d="M8.87025 4.59551L6.35474 6.16781C5.9534 6.41926 5.44182 6.53896 5.00784 6.54331C4.71194 6.56478 4.45997 6.57381 4.24881 6.58137C4.22779 6.58213 4.20719 6.58286 4.18698 6.58361C3.95168 6.59216 3.78659 6.59994 3.64453 6.61903C3.40818 6.6508 3.23603 6.71118 2.97293 6.92993C2.79518 7.07886 2.63981 7.43605 2.56198 8.07371C2.49762 8.60099 2.49917 9.18399 2.50067 9.74757C2.50089 9.83207 2.50112 9.91624 2.50112 9.99966C2.50112 10.0808 2.50092 10.1627 2.50071 10.2451C2.49929 10.8107 2.49782 11.3967 2.56261 11.9262C2.64051 12.5627 2.79541 12.9202 2.97238 13.0697C3.23821 13.2885 3.41062 13.3485 3.64627 13.3801C3.78837 13.3992 3.9534 13.407 4.18919 13.4157C4.20818 13.4164 4.22753 13.4171 4.24722 13.4178C4.45964 13.4256 4.71349 13.4348 5.01254 13.4568C5.44859 13.4612 5.95423 13.5813 6.35443 13.8322L8.87025 15.4047C9.91375 16.0566 11.3041 15.3098 11.3756 13.9537L11.3763 13.9413C11.567 11.3137 11.567 8.68632 11.3763 6.05881L11.3758 6.05165C11.2923 4.68254 9.90942 3.94624 8.87025 4.59551ZM12.6233 5.97155C12.4896 3.82539 10.1873 2.29857 8.20786 3.53545L5.69151 5.10827C5.51574 5.21846 5.23173 5.29343 4.98328 5.29343C4.96787 5.29343 4.95246 5.294 4.93709 5.29514C4.65664 5.31592 4.41986 5.32442 4.20274 5.33222C4.18218 5.33296 4.16178 5.33369 4.14155 5.33443C3.91481 5.34267 3.68988 5.3517 3.47802 5.38017C3.00671 5.44351 2.61554 5.60126 2.17291 5.96948L2.17184 5.97037C1.59568 6.45183 1.40301 7.25191 1.32118 7.92225C1.24658 8.53349 1.24877 9.20341 1.25058 9.75949C1.25086 9.84224 1.25112 9.92249 1.25112 9.99966C1.25112 10.0752 1.25088 10.1537 1.25063 10.2346C1.24889 10.7923 1.2468 11.4646 1.32186 12.078C1.40389 12.7482 1.59656 13.5479 2.17129 14.0293L2.175 14.0324C2.61928 14.3987 3.00909 14.5558 3.47998 14.619C3.69148 14.6474 3.91621 14.6564 4.14302 14.6648C4.16185 14.6655 4.18083 14.6662 4.19996 14.6669C4.41839 14.6749 4.65719 14.6837 4.94083 14.7049C4.95641 14.7062 4.97203 14.7067 4.98764 14.7067C5.23544 14.7067 5.51394 14.7806 5.69082 14.8914L8.20779 16.4647C10.1822 17.6983 12.5056 16.1785 12.6235 14.026C12.8181 11.3412 12.818 8.65632 12.6233 5.97155Z" fill="#EBEEEF"/>
<path fill-rule="evenodd" clip-rule="evenodd" d="M14.5407 6.38035C14.84 6.20841 15.222 6.31167 15.3939 6.61098C16.5992 8.70907 16.5992 11.2905 15.3939 13.3886C15.222 13.6879 14.84 13.7912 14.5407 13.6192C14.2413 13.4472 14.1381 13.0652 14.3101 12.7659C15.2938 11.0534 15.2938 8.94616 14.3101 7.23361C14.1381 6.9343 14.2413 6.55228 14.5407 6.38035Z" fill="#EBEEEF"/>
<path fill-rule="evenodd" clip-rule="evenodd" d="M16.5843 4.3979C16.8673 4.20043 17.2569 4.26986 17.4544 4.55297C19.7373 7.82608 19.7373 12.1752 17.4544 15.4484C17.2569 15.7315 16.8673 15.8009 16.5843 15.6035C16.3011 15.406 16.2317 15.0164 16.4292 14.7333C18.4124 11.8898 18.4124 8.11154 16.4292 5.26807C16.2317 4.98496 16.3011 4.59537 16.5843 4.3979Z" fill="#EBEEEF"/>
</svg>
