<svg width="20" height="20" viewBox="0 0 20 20" fill="none" xmlns="http://www.w3.org/2000/svg">
<path fill-rule="evenodd" clip-rule="evenodd" d="M3.32567 3.24738C4.14629 2.36735 5.31479 1.875 6.69422 1.875H13.723C15.1056 1.875 16.2743 2.36711 17.0941 3.24774C17.9093 4.12333 18.333 5.33205 18.333 6.68854V13.3111C18.333 14.6672 17.9093 15.8759 17.094 16.7516C16.2741 17.6323 15.1053 18.1246 13.7221 18.1246H6.69422C5.31147 18.1246 4.14263 17.6323 3.32262 16.7516C2.5073 15.876 2.08337 14.6673 2.08337 13.3111V6.68854C2.08337 5.33118 2.50957 4.12255 3.32567 3.24738ZM4.23987 4.09987C3.6754 4.70519 3.33337 5.59083 3.33337 6.68854V13.3111C3.33337 14.4091 3.67402 15.2947 4.23744 15.8998C4.79618 16.4998 5.62027 16.8746 6.69422 16.8746H13.7221C14.7965 16.8746 15.6206 16.4998 16.1792 15.8998C16.7425 15.2948 17.083 14.4092 17.083 13.3111V6.68854C17.083 5.58995 16.7425 4.70442 16.1793 4.09949C15.6208 3.49963 14.797 3.125 13.723 3.125H6.69422C5.62424 3.125 4.79982 3.49938 4.23987 4.09987Z" fill="#EBEEEF"/>
<path fill-rule="evenodd" clip-rule="evenodd" d="M10.2019 14.3392C10.2019 13.994 10.4817 13.7142 10.8269 13.7142H13.1068C13.4519 13.7142 13.7318 13.994 13.7318 14.3392C13.7318 14.6843 13.4519 14.9642 13.1068 14.9642H10.8269C10.4817 14.9642 10.2019 14.6843 10.2019 14.3392Z" fill="#EBEEEF"/>
<path fill-rule="evenodd" clip-rule="evenodd" d="M6.8693 10.2287C7.11338 9.98458 7.5091 9.98458 7.75318 10.2287L9.39013 11.8656C9.63421 12.1097 9.63421 12.5054 9.39013 12.7495L7.75318 14.3865C7.5091 14.6306 7.11338 14.6306 6.8693 14.3865C6.62522 14.1424 6.62522 13.7467 6.8693 13.5026L8.06434 12.3076L6.8693 11.1125C6.62522 10.8684 6.62522 10.4727 6.8693 10.2287Z" fill="#EBEEEF"/>
<path fill-rule="evenodd" clip-rule="evenodd" d="M2.08337 7.91016C2.08337 7.56497 2.3632 7.28516 2.70837 7.28516H17.708C18.0531 7.28516 18.333 7.56497 18.333 7.91016C18.333 8.25533 18.0531 8.53516 17.708 8.53516H2.70837C2.3632 8.53516 2.08337 8.25533 2.08337 7.91016Z" fill="#EBEEEF"/>
<path fill-rule="evenodd" clip-rule="evenodd" d="M4.82426 5.45898C4.82426 5.11381 5.10408 4.83398 5.44926 4.83398H5.45759C5.80278 4.83398 6.08259 5.11381 6.08259 5.45898C6.08259 5.80416 5.80278 6.08398 5.45759 6.08398H5.44926C5.10408 6.08398 4.82426 5.80416 4.82426 5.45898ZM6.89579 5.45898C6.89579 5.11381 7.17562 4.83398 7.52079 4.83398H7.52913C7.87431 4.83398 8.15413 5.11381 8.15413 5.45898C8.15413 5.80416 7.87431 6.08398 7.52913 6.08398H7.52079C7.17562 6.08398 6.89579 5.80416 6.89579 5.45898ZM8.96771 5.45898C8.96771 5.11381 9.24754 4.83398 9.59271 4.83398H9.60104C9.94621 4.83398 10.226 5.11381 10.226 5.45898C10.226 5.80416 9.94621 6.08398 9.60104 6.08398H9.59271C9.24754 6.08398 8.96771 5.80416 8.96771 5.45898Z" fill="#EBEEEF"/>
</svg>
