<svg width="20" height="20" viewBox="0 0 20 20" fill="none" xmlns="http://www.w3.org/2000/svg">
<path fill-rule="evenodd" clip-rule="evenodd" d="M15.8582 3.67172C16.7949 3.9492 17.5098 4.71127 17.7504 5.66334C17.8896 6.09432 17.9785 6.76092 18.0357 7.48565C18.0957 8.24446 18.1252 9.12926 18.125 10.0076C18.1248 10.8859 18.0951 11.767 18.035 12.5183C17.978 13.2309 17.8897 13.8882 17.7496 14.3083C17.5088 15.2558 16.7982 16.0146 15.867 16.2938C15.6289 16.3787 15.2944 16.4363 14.9384 16.4805C14.5535 16.5284 14.0854 16.5672 13.5668 16.5977C12.5286 16.6587 11.2617 16.6881 9.99925 16.6871C8.73675 16.6862 7.4701 16.6548 6.43241 16.5933C5.91406 16.5626 5.44663 16.524 5.06243 16.4768C4.7066 16.4333 4.37435 16.3771 4.13867 16.2957C3.22227 16.0301 2.51412 15.3009 2.25293 14.3778C2.11164 13.9508 2.02207 13.2814 1.96447 12.5536C1.90447 11.7953 1.87495 10.9089 1.875 10.0274C1.87505 9.14592 1.90468 8.26021 1.96472 7.50311C2.02186 6.78241 2.11044 6.1191 2.24993 5.69343C2.49042 4.74334 3.20173 3.98389 4.13578 3.70511C4.37203 3.62292 4.7058 3.56673 5.06285 3.52319C5.44707 3.47634 5.91452 3.43809 6.43278 3.40768C7.47031 3.34681 8.73667 3.3159 9.99875 3.31392C11.2608 3.31192 12.5268 3.33884 13.5638 3.39466C14.0817 3.42256 14.5484 3.45796 14.9317 3.50146C15.292 3.54235 15.6252 3.59504 15.8582 3.67172ZM5.21416 4.764C4.84877 4.80856 4.63244 4.85446 4.54209 4.88727C4.52927 4.89193 4.51632 4.89617 4.50323 4.89997C3.9941 5.04802 3.5908 5.46816 3.45793 6.01542C3.45347 6.03377 3.44819 6.05192 3.44209 6.0698C3.35335 6.32986 3.26931 6.86411 3.2108 7.60191C3.15395 8.31895 3.12505 9.17084 3.125 10.0275C3.12495 10.8842 3.15375 11.7367 3.21058 12.4549C3.26903 13.1937 3.35314 13.7303 3.44242 13.9934C3.44628 14.0048 3.44982 14.0163 3.45302 14.0278C3.59924 14.5572 3.99977 14.9583 4.49788 15.0983C4.51268 15.1025 4.52732 15.1072 4.54177 15.1124C4.63255 15.1453 4.8493 15.1913 5.21458 15.2362C5.56324 15.2789 6.00237 15.3157 6.50637 15.3455C7.5134 15.4052 8.75467 15.4362 10.0002 15.4371C11.2458 15.4381 12.4867 15.409 13.4935 15.3498C13.9973 15.3202 14.436 15.2834 14.7841 15.2401C15.1493 15.1947 15.3638 15.1478 15.4522 15.1146C15.4668 15.1092 15.4817 15.1043 15.4966 15.0999C16.0051 14.9518 16.4092 14.5308 16.5421 13.9843C16.5469 13.9646 16.5526 13.9452 16.5592 13.9261C16.6465 13.676 16.7304 13.1513 16.789 12.4186C16.8458 11.7078 16.8748 10.8608 16.875 10.0074C16.8752 9.15401 16.8464 8.30302 16.7897 7.58413C16.7312 6.8456 16.6472 6.30462 16.5567 6.0348C16.5512 6.01806 16.5462 6.00109 16.5421 5.98394C16.4092 5.4374 16.0051 5.01632 15.4966 4.8683C15.4879 4.86577 15.4792 4.86304 15.4707 4.86014C15.3765 4.82822 15.1564 4.78498 14.7907 4.74348C14.441 4.70379 14.001 4.67002 13.4966 4.64286C12.4886 4.58859 11.2465 4.56195 10.0007 4.56391C8.75475 4.56587 7.51319 4.59644 6.506 4.65554C6.00191 4.68511 5.56279 4.72149 5.21416 4.764Z" fill="#EBEEEF"/>
<path fill-rule="evenodd" clip-rule="evenodd" d="M7.82878 8.27713C7.82878 7.49832 8.66917 7.00662 9.348 7.3924L12.409 9.13292C13.0925 9.52292 13.0952 10.5111 12.4077 10.9013L9.34817 12.641C8.67125 13.0258 7.82878 12.5382 7.82878 11.7572V8.27713ZM9.07875 8.67726L11.4344 10.0168L9.07875 11.3563V8.67726Z" fill="#EBEEEF"/>
</svg>
