<svg width="20" height="20" viewBox="0 0 20 20" fill="none" xmlns="http://www.w3.org/2000/svg">
<path fill-rule="evenodd" clip-rule="evenodd" d="M10.6946 3.75C7.29014 3.75 4.5216 6.47206 4.44643 9.85792C4.43876 10.203 4.15279 10.4765 3.8077 10.4689C3.46261 10.4612 3.18907 10.1752 3.19673 9.83017C3.28696 5.76645 6.60908 2.5 10.6946 2.5C14.8368 2.5 18.1944 5.85845 18.1944 9.99967C18.1944 14.1418 14.8368 17.4994 10.6946 17.4994C8.13358 17.4994 5.87255 16.2157 4.52028 14.2581C4.3241 13.9741 4.3953 13.5847 4.67931 13.3886C4.96332 13.1924 5.35259 13.2637 5.54877 13.5477C6.67751 15.1818 8.56129 16.2494 10.6946 16.2494C14.1465 16.2494 16.9444 13.4515 16.9444 9.99967C16.9444 6.54871 14.1464 3.75 10.6946 3.75Z" fill="#EBEEEF"/>
<path fill-rule="evenodd" clip-rule="evenodd" d="M2.25782 7.626C2.55684 7.45356 2.93903 7.55618 3.11148 7.85519L3.86619 9.16392L5.16442 8.41492C5.46341 8.24247 5.84562 8.345 6.01811 8.644C6.1906 8.943 6.08805 9.32517 5.78906 9.49767L3.94938 10.559C3.80578 10.6418 3.63515 10.6642 3.47504 10.6212C3.31493 10.5783 3.17845 10.4735 3.09563 10.3299L2.02863 8.47967C1.85619 8.18063 1.9588 7.79844 2.25782 7.626Z" fill="#EBEEEF"/>
<path fill-rule="evenodd" clip-rule="evenodd" d="M8.57746 7.19727C8.92263 7.19727 9.20246 7.47709 9.20246 7.82227V12.1762C9.20246 12.5214 8.92263 12.8012 8.57746 12.8012C8.23226 12.8012 7.95243 12.5214 7.95243 12.1762V7.82227C7.95243 7.47709 8.23226 7.19727 8.57746 7.19727Z" fill="#EBEEEF"/>
<path fill-rule="evenodd" clip-rule="evenodd" d="M12.1255 8.36592C11.7323 8.36592 11.4127 8.685 11.4127 9.0795V10.9232C11.4127 11.3167 11.732 11.6361 12.1255 11.6361C12.519 11.6361 12.8383 11.3167 12.8383 10.9232V9.0795C12.8383 8.685 12.5187 8.36592 12.1255 8.36592ZM10.1627 9.0795C10.1627 7.99513 11.0415 7.11588 12.1255 7.11588C13.2095 7.11588 14.0883 7.99512 14.0883 9.0795V10.9232C14.0883 12.0071 13.2093 12.8861 12.1255 12.8861C11.0417 12.8861 10.1627 12.0071 10.1627 10.9232V9.0795Z" fill="#EBEEEF"/>
</svg>
