<svg width="20" height="20" viewBox="0 0 20 20" fill="none" xmlns="http://www.w3.org/2000/svg">
<path fill-rule="evenodd" clip-rule="evenodd" d="M11.8437 3.29755C12.4853 3.29755 13.0172 3.80083 13.0596 4.44526C13.0723 4.63688 13.1723 4.81205 13.3309 4.92033C13.4895 5.02861 13.689 5.05798 13.872 4.99997C14.0375 4.94755 14.2137 4.91912 14.3972 4.91912C15.3591 4.91912 16.146 5.70529 16.146 6.68395C16.146 7.12804 15.9846 7.53157 15.7176 7.84122C15.5145 8.07687 15.5155 8.4261 15.7202 8.66044C18.3704 11.6952 15.9495 15.014 13.7267 14.8746C13.5561 14.8639 13.3885 14.9236 13.2631 15.0397C13.1376 15.1558 13.0652 15.3182 13.0626 15.4891C13.0526 16.164 12.5069 16.7013 11.8437 16.7013C11.1746 16.7013 10.6248 16.1539 10.6248 15.4698V4.52909C10.6248 3.84487 11.1746 3.29755 11.8437 3.29755ZM14.1633 3.67821C13.8183 2.72845 12.9125 2.04755 11.8437 2.04755C10.4763 2.04755 9.37479 3.16253 9.37479 4.52909V15.4698C9.37479 16.8363 10.4763 17.9513 11.8437 17.9513C12.9889 17.9513 13.9477 17.1695 14.2291 16.1126C17.2976 15.818 19.5993 11.7084 16.9755 8.22453C17.2427 7.7733 17.396 7.24602 17.396 6.68395C17.396 5.02294 16.0575 3.66912 14.3972 3.66912C14.3185 3.66912 14.2405 3.67219 14.1633 3.67821Z" fill="#EBEEEF"/>
<path fill-rule="evenodd" clip-rule="evenodd" d="M8.15622 3.29755C7.51458 3.29755 6.98275 3.80083 6.94028 4.44526C6.92765 4.63688 6.82764 4.81205 6.66906 4.92033C6.51047 5.02861 6.31091 5.05798 6.12785 4.99997C5.96242 4.94755 5.78617 4.91912 5.60271 4.91912C4.64076 4.91912 3.85394 5.70529 3.85394 6.68395C3.85394 7.12804 4.01528 7.53157 4.28228 7.84122C4.48548 8.07687 4.48439 8.4261 4.27972 8.66044C1.62953 11.6952 4.05039 15.014 6.27323 14.8746C6.44383 14.8639 6.61138 14.9236 6.73683 15.0397C6.86229 15.1558 6.93473 15.3182 6.93727 15.4891C6.94729 16.164 7.49308 16.7013 8.15622 16.7013C8.82529 16.7013 9.37479 16.1539 9.37479 15.4698C9.37479 15.1246 9.65496 14.8448 10.0001 14.8448C10.3453 14.8448 10.6248 15.1246 10.6248 15.4698C10.6248 16.8363 9.52363 17.9513 8.15622 17.9513C7.01108 17.9513 6.05223 17.1695 5.77083 16.1126C2.70228 15.818 0.400668 11.7084 3.02445 8.22453C2.75721 7.7733 2.60394 7.24602 2.60394 6.68395C2.60394 5.02294 3.94242 3.66912 5.60271 3.66912C5.68135 3.66912 5.75937 3.67219 5.83663 3.67821C6.18159 2.72845 7.08747 2.04755 8.15622 2.04755C9.52363 2.04755 10.6248 3.16253 10.6248 4.52909C10.6248 4.87426 10.3453 5.15409 10.0001 5.15409C9.65496 5.15409 9.37479 4.87426 9.37479 4.52909C9.37479 3.84487 8.82529 3.29755 8.15622 3.29755Z" fill="#EBEEEF"/>
<path fill-rule="evenodd" clip-rule="evenodd" d="M16.6015 7.77717C16.3411 7.55063 15.9464 7.5781 15.7198 7.83854C15.4918 8.1007 15.1866 8.29013 14.8426 8.37211C14.5068 8.45202 14.2995 8.7891 14.3794 9.12485C14.4594 9.46069 14.7964 9.66802 15.1322 9.5881C15.7377 9.44385 16.2689 9.11186 16.6629 8.65894C16.8895 8.39852 16.862 8.00371 16.6015 7.77717Z" fill="#EBEEEF"/>
<path fill-rule="evenodd" clip-rule="evenodd" d="M3.39552 7.77717C3.65596 7.55063 4.05073 7.5781 4.27728 7.83854C4.50532 8.1007 4.81041 8.29013 5.15448 8.37211C5.49027 8.45202 5.69764 8.7891 5.61768 9.12485C5.5377 9.46069 5.20066 9.66802 4.86488 9.5881C4.25933 9.44385 3.72815 9.11186 3.33416 8.65894C3.10761 8.39852 3.13508 8.00371 3.39552 7.77717Z" fill="#EBEEEF"/>
<path fill-rule="evenodd" clip-rule="evenodd" d="M12.325 5.84739C12.6517 5.9587 12.8263 6.31382 12.715 6.64055C12.5451 7.13905 12.1317 7.4897 11.7108 7.71406C11.2775 7.94501 10.756 8.08764 10.2299 8.12926C9.21313 8.20971 7.93502 7.91465 7.32702 6.7932C7.1625 6.48975 7.27513 6.11039 7.57858 5.94587C7.88203 5.78135 8.26139 5.89398 8.42588 6.19743C8.69346 6.6909 9.34188 6.94562 10.1313 6.88316C10.5083 6.85333 10.8595 6.75132 11.1228 6.61101C11.3983 6.46413 11.5047 6.31689 11.5318 6.23743C11.6431 5.9107 11.9982 5.73607 12.325 5.84739Z" fill="#EBEEEF"/>
<path fill-rule="evenodd" clip-rule="evenodd" d="M12.9842 13.4593C13.3109 13.3479 13.4855 12.9929 13.3742 12.6661C13.1738 12.0779 12.6796 11.65 12.1507 11.368C11.6094 11.0794 10.9522 10.8989 10.286 10.8461C8.98888 10.7434 7.41173 11.1239 6.66783 12.496C6.50332 12.7994 6.61595 13.1788 6.9194 13.3434C7.22285 13.5079 7.60221 13.3952 7.76673 13.0918C8.17017 12.3476 9.11763 12.0076 10.1874 12.0922C10.7045 12.1331 11.1914 12.2731 11.5626 12.471C11.9463 12.6756 12.1334 12.9001 12.191 13.0693C12.3023 13.396 12.6575 13.5706 12.9842 13.4593Z" fill="#EBEEEF"/>
</svg>
