<svg width="20" height="20" viewBox="0 0 20 20" fill="none" xmlns="http://www.w3.org/2000/svg">
<path fill-rule="evenodd" clip-rule="evenodd" d="M10.0206 3.125C9.7525 3.125 9.53558 3.3425 9.53558 3.60919V4.91378C9.53558 5.25896 9.25575 5.53878 8.91058 5.53878H5.02032C4.75282 5.53878 4.53613 5.75569 4.53613 6.02297V16.3908C4.53613 16.6586 4.75252 16.875 5.02032 16.875H13.2858V3.60919C13.2858 3.34221 13.0687 3.125 12.8017 3.125H10.0206ZM5.02032 18.125C4.06217 18.125 3.28613 17.349 3.28613 16.3908V6.02297C3.28613 5.06593 4.06187 4.28878 5.02032 4.28878H8.28559V3.60919C8.28559 2.65155 9.06275 1.875 10.0206 1.875H12.8017C13.759 1.875 14.5358 2.65185 14.5358 3.60919V6.87527H16.1803C17.1377 6.87527 17.9145 7.65212 17.9145 8.6095V16.3908C17.9145 17.3493 17.1373 18.125 16.1803 18.125H5.02032ZM14.5358 8.12527H16.1803C16.4473 8.12527 16.6645 8.3425 16.6645 8.6095V16.3908C16.6645 16.6583 16.4476 16.875 16.1803 16.875H14.5358V8.12527Z" fill="#EBEEEF"/>
<path fill-rule="evenodd" clip-rule="evenodd" d="M7.12277 13.5598C7.46159 13.4938 7.7897 13.7151 7.85563 14.0539L7.85725 14.0622C7.92318 14.4011 7.70196 14.7292 7.36313 14.7951C7.02431 14.8611 6.69619 14.6398 6.63026 14.301L6.62865 14.2927C6.56272 13.9538 6.78395 13.6257 7.12277 13.5598Z" fill="#EBEEEF"/>
<path fill-rule="evenodd" clip-rule="evenodd" d="M7.12277 10.5715C7.46159 10.5056 7.7897 10.7268 7.85563 11.0657L7.85725 11.074C7.92318 11.4128 7.70196 11.7409 7.36313 11.8068C7.02431 11.8727 6.69619 11.6515 6.63026 11.3127L6.62865 11.3044C6.56272 10.9656 6.78395 10.6374 7.12277 10.5715Z" fill="#EBEEEF"/>
<path fill-rule="evenodd" clip-rule="evenodd" d="M7.12277 7.51488C7.46159 7.44895 7.7897 7.67018 7.85563 8.009L7.85725 8.01734C7.92318 8.35617 7.70196 8.68425 7.36313 8.75017C7.02431 8.81617 6.69619 8.59492 6.63026 8.25608L6.62865 8.24774C6.56272 7.90892 6.78395 7.5808 7.12277 7.51488Z" fill="#EBEEEF"/>
<path fill-rule="evenodd" clip-rule="evenodd" d="M10.4585 13.5598C10.7973 13.4938 11.1254 13.7151 11.1914 14.0539L11.193 14.0622C11.259 14.401 11.0378 14.7292 10.6989 14.7951C10.3602 14.8611 10.032 14.6398 9.96609 14.301L9.96442 14.2927C9.8985 13.9539 10.1197 13.6257 10.4585 13.5598Z" fill="#EBEEEF"/>
<path fill-rule="evenodd" clip-rule="evenodd" d="M10.4585 10.5715C10.7973 10.5056 11.1254 10.7267 11.1914 11.0656L11.193 11.0739C11.259 11.4127 11.0378 11.7409 10.6989 11.8068C10.3602 11.8727 10.032 11.6516 9.96609 11.3127L9.96442 11.3044C9.8985 10.9656 10.1197 10.6375 10.4585 10.5715Z" fill="#EBEEEF"/>
<path fill-rule="evenodd" clip-rule="evenodd" d="M10.4585 7.51489C10.7973 7.44894 11.1254 7.67014 11.1914 8.00896L11.193 8.01729C11.259 8.35609 11.0378 8.68425 10.6989 8.75017C10.3602 8.81617 10.032 8.59492 9.96609 8.25612L9.96442 8.24779C9.8985 7.90897 10.1197 7.58084 10.4585 7.51489Z" fill="#EBEEEF"/>
</svg>
