<svg width="20" height="20" viewBox="0 0 20 20" fill="none" xmlns="http://www.w3.org/2000/svg">
<path fill-rule="evenodd" clip-rule="evenodd" d="M6.45838 15.6348C6.45838 15.2896 6.7382 15.0098 7.08338 15.0098H17.0839C17.4291 15.0098 17.7089 15.2896 17.7089 15.6348C17.7089 15.9799 17.4291 16.2598 17.0839 16.2598H7.08338C6.7382 16.2598 6.45838 15.9799 6.45838 15.6348Z" fill="#EBEEEF"/>
<path fill-rule="evenodd" clip-rule="evenodd" d="M6.45838 10.6348C6.45838 10.2896 6.7382 10.0098 7.08338 10.0098H17.0839C17.4291 10.0098 17.7089 10.2896 17.7089 10.6348C17.7089 10.9799 17.4291 11.2598 17.0839 11.2598H7.08338C6.7382 11.2598 6.45838 10.9799 6.45838 10.6348Z" fill="#EBEEEF"/>
<path fill-rule="evenodd" clip-rule="evenodd" d="M6.45838 5.63479C6.45838 5.28961 6.7382 5.00979 7.08338 5.00979H17.0839C17.4291 5.00979 17.7089 5.28961 17.7089 5.63479C17.7089 5.97996 17.4291 6.25979 17.0839 6.25979H7.08338C6.7382 6.25979 6.45838 5.97996 6.45838 5.63479Z" fill="#EBEEEF"/>
<path fill-rule="evenodd" clip-rule="evenodd" d="M2.91589 5.63399C2.91589 5.169 3.29276 4.79169 3.75814 4.79169C4.22304 4.79169 4.60053 5.1685 4.60053 5.63399C4.60053 6.09948 4.22304 6.4763 3.75814 6.4763C3.29275 6.4763 2.91589 6.09898 2.91589 5.63399Z" fill="#EBEEEF"/>
<path fill-rule="evenodd" clip-rule="evenodd" d="M2.91589 10.7414C2.91589 10.2764 3.29276 9.8991 3.75814 9.8991C4.22304 9.8991 4.60053 10.2759 4.60053 10.7414C4.60053 11.2069 4.22304 11.5837 3.75814 11.5837C3.29275 11.5837 2.91589 11.2064 2.91589 10.7414Z" fill="#EBEEEF"/>
<path fill-rule="evenodd" clip-rule="evenodd" d="M2.91589 15.634C2.91589 15.169 3.29276 14.7917 3.75814 14.7917C4.22304 14.7917 4.60053 15.1685 4.60053 15.634C4.60053 16.0994 4.22304 16.4763 3.75814 16.4763C3.29275 16.4763 2.91589 16.099 2.91589 15.634Z" fill="#EBEEEF"/>
</svg>
