<svg width="20" height="20" viewBox="0 0 20 20" fill="none" xmlns="http://www.w3.org/2000/svg">
<path fill-rule="evenodd" clip-rule="evenodd" d="M3.04969 8.05338C3.04969 7.70821 3.3295 7.42838 3.67469 7.42838H17.0425C17.3877 7.42838 17.6675 7.70821 17.6675 8.05338C17.6675 8.39858 17.3877 8.67842 17.0425 8.67842H3.67469C3.3295 8.67842 3.04969 8.39858 3.04969 8.05338Z" fill="#EBEEEF"/>
<path fill-rule="evenodd" clip-rule="evenodd" d="M13.3872 1.875C13.7324 1.875 14.0122 2.15483 14.0122 2.5V4.96812C14.0122 5.31329 13.7324 5.59312 13.3872 5.59312C13.042 5.59312 12.7622 5.31329 12.7622 4.96812V2.5C12.7622 2.15483 13.042 1.875 13.3872 1.875Z" fill="#EBEEEF"/>
<path fill-rule="evenodd" clip-rule="evenodd" d="M7.32825 1.875C7.67343 1.875 7.95325 2.15483 7.95325 2.5V4.96812C7.95325 5.31329 7.67343 5.59312 7.32825 5.59312C6.98307 5.59312 6.70325 5.31329 6.70325 4.96812V2.5C6.70325 2.15483 6.98307 1.875 7.32825 1.875Z" fill="#EBEEEF"/>
<path fill-rule="evenodd" clip-rule="evenodd" d="M4.13744 4.12714C4.90329 3.39915 5.9692 3.0599 7.18323 3.0599H13.5335C14.7503 3.0599 15.8168 3.39888 16.5815 4.1277C17.351 4.86107 17.7336 5.91167 17.7301 7.16777V14.0114C17.7301 15.2677 17.3457 16.3192 16.5762 17.0538C15.8111 17.7842 14.7447 18.1253 13.527 18.1253H7.18323C5.96545 18.1253 4.89819 17.7768 4.13306 17.0353C3.36484 16.2907 2.9801 15.2263 2.9801 13.9547V7.16653C2.9801 5.90973 3.36676 4.85972 4.13744 4.12714ZM4.99865 5.03313C4.53102 5.47764 4.2301 6.16846 4.2301 7.16653V13.9547C4.2301 14.9736 4.53294 15.6821 5.00303 16.1377C5.47622 16.5963 6.19802 16.8753 7.18323 16.8753H13.527C14.5188 16.8753 15.2415 16.5998 15.713 16.1497C16.1802 15.7037 16.4801 15.0108 16.4801 14.0114V7.16473C16.483 6.16621 16.1846 5.4762 15.7191 5.03257C15.2488 4.58429 14.5262 4.3099 13.5335 4.3099H7.18323C6.19427 4.3099 5.47112 4.58403 4.99865 5.03313Z" fill="#EBEEEF"/>
</svg>
