<svg width="20" height="20" viewBox="0 0 20 20" fill="none" xmlns="http://www.w3.org/2000/svg">
<path fill-rule="evenodd" clip-rule="evenodd" d="M8.5859 4.07227C8.1359 4.07227 7.72251 4.31645 7.50479 4.71039C7.39115 4.91577 7.26887 5.13001 7.15364 5.31683C7.04551 5.49213 6.9204 5.68194 6.80189 5.81248L6.79145 5.82372C6.39618 6.23822 5.85596 6.48158 5.28467 6.50421C5.27643 6.50453 5.26818 6.5047 5.25994 6.5047C4.19646 6.5047 3.33471 7.36524 3.33331 8.4285V13.13C3.33331 14.675 4.5853 15.9274 6.12994 15.9274H14.2867C15.8306 15.9274 17.0833 14.6749 17.0833 13.13V8.42642C17.0833 7.36244 16.2207 6.49983 15.1567 6.49983C15.1492 6.49983 15.1418 6.4997 15.1344 6.49943C14.5611 6.479 14.0194 6.23395 13.6251 5.82044L13.6153 5.80992C13.4966 5.67956 13.3751 5.49292 13.2712 5.3216C13.1606 5.13887 13.0442 4.92967 12.9361 4.72703C12.7197 4.32336 12.3016 4.07227 11.8461 4.07227H8.5859ZM6.4109 4.10548C6.84836 3.31418 7.6803 2.82227 8.5859 2.82227H11.8461C12.7657 2.82227 13.6058 3.32992 14.0382 4.13737C14.1408 4.3295 14.2457 4.51777 14.3403 4.67387C14.4376 4.83452 14.5042 4.92782 14.5357 4.96401C14.7031 5.13647 14.9304 5.23898 15.1698 5.24986C16.9181 5.25693 18.3333 6.67647 18.3333 8.42642V13.13C18.3333 15.3651 16.5211 17.1774 14.2867 17.1774H6.12994C3.89456 17.1774 2.08331 15.3649 2.08331 13.13V8.42808C2.08533 6.67956 3.4989 5.26257 5.24537 5.25473C5.48625 5.24263 5.71289 5.14017 5.88064 4.96749C5.9155 4.92742 5.98661 4.8278 6.08975 4.66061C6.19019 4.49777 6.30157 4.30308 6.4109 4.10548Z" fill="#EBEEEF"/>
<path fill-rule="evenodd" clip-rule="evenodd" d="M14.5191 7.5651C14.8642 7.5651 15.1441 7.84492 15.1441 8.1901V8.23875C15.1441 8.58392 14.8642 8.86375 14.5191 8.86375C14.1738 8.86375 13.8941 8.58392 13.8941 8.23875V8.1901C13.8941 7.84492 14.1738 7.5651 14.5191 7.5651Z" fill="#EBEEEF"/>
<path fill-rule="evenodd" clip-rule="evenodd" d="M7.00519 10.9207C7.00519 9.15267 8.43865 7.7181 10.2077 7.7181C11.9768 7.7181 13.4103 9.15267 13.4103 10.9207C13.4103 12.6897 11.9767 14.1233 10.2077 14.1233C8.43881 14.1233 7.00519 12.6897 7.00519 10.9207ZM10.2077 8.96808C9.12931 8.96808 8.25519 9.84275 8.25519 10.9207C8.25519 11.9992 9.12915 12.8732 10.2077 12.8732C11.2864 12.8732 12.1603 11.9992 12.1603 10.9207C12.1603 9.84275 11.2862 8.96808 10.2077 8.96808Z" fill="#EBEEEF"/>
</svg>
