<svg width="20" height="20" viewBox="0 0 20 20" fill="none" xmlns="http://www.w3.org/2000/svg">
<path d="M10.208 1.875C14.6956 1.875 18.333 5.51239 18.333 10C18.333 14.4867 14.6957 18.125 10.208 18.125C5.72049 18.1248 2.08301 14.4866 2.08301 10C2.08301 5.51249 5.72054 1.87516 10.208 1.875ZM13.5361 7.63379C13.2922 7.38994 12.8964 7.39015 12.6523 7.63379L9.24609 11.04L7.7627 9.55859C7.51857 9.31459 7.12294 9.31443 6.87891 9.55859C6.63497 9.80268 6.63482 10.1984 6.87891 10.4424L8.80371 12.3662C9.04777 12.6102 9.44349 12.6101 9.6875 12.3662L13.5361 8.51855C13.7801 8.2745 13.7801 7.87786 13.5361 7.63379Z" fill="#6EE7B7"/>
</svg>
