<svg width="20" height="20" viewBox="0 0 20 20" fill="none" xmlns="http://www.w3.org/2000/svg">
<path d="M8.0107 14.6412C7.92864 14.6412 7.84739 14.625 7.7716 14.5935C7.6958 14.5621 7.62696 14.516 7.56904 14.4579L3.9232 10.812C3.8093 10.6942 3.74623 10.5364 3.74758 10.3724C3.74892 10.2086 3.81458 10.0518 3.9304 9.93586C4.04623 9.81994 4.20295 9.75411 4.36683 9.75261C4.5307 9.75111 4.6886 9.81402 4.80654 9.92786L8.0107 13.132L15.5941 5.54869C15.6517 5.48902 15.7207 5.44144 15.797 5.40872C15.8732 5.376 15.9552 5.3588 16.0382 5.35811C16.1212 5.35743 16.2035 5.37329 16.2803 5.40475C16.3572 5.43621 16.4269 5.48265 16.4855 5.54136C16.5442 5.60007 16.5906 5.66987 16.6219 5.7467C16.6533 5.82352 16.6692 5.90583 16.6683 5.98882C16.6676 6.07181 16.6503 6.15381 16.6175 6.23005C16.5847 6.30629 16.5371 6.37522 16.4774 6.43285L8.44816 14.4579C8.33223 14.5743 8.175 14.6401 8.0107 14.6412Z" fill="#EBEEEF"/>
</svg>
