<svg width="20" height="20" viewBox="0 0 20 20" fill="none" xmlns="http://www.w3.org/2000/svg">
<path fill-rule="evenodd" clip-rule="evenodd" d="M6.53937 4.94299C7.28718 3.95454 8.48387 3.16406 10.2084 3.16406C11.9329 3.16406 13.1295 3.95454 13.8774 4.94299C14.4431 5.69083 14.7555 6.55395 14.8668 7.28234C15.7335 7.39111 16.5277 7.7464 17.1414 8.33425C17.8937 9.05491 18.3334 10.0857 18.3334 11.3215C18.3334 12.9752 17.3488 14.3979 15.9354 15.0362C15.6207 15.1783 15.2505 15.0384 15.1085 14.7238C14.9665 14.4092 15.1063 14.0391 15.4209 13.897C16.4025 13.4537 17.0834 12.4667 17.0834 11.3215C17.0834 10.3941 16.7605 9.70025 16.2767 9.23691C15.7884 8.76916 15.0945 8.49683 14.289 8.4965C13.9439 8.49633 13.6642 8.21656 13.6642 7.87149C13.6642 7.32244 13.439 6.43529 12.8805 5.69716C12.3414 4.98452 11.4976 4.41406 10.2084 4.41406C8.91912 4.41406 8.07537 4.98452 7.53622 5.69716C6.97779 6.43529 6.75257 7.32244 6.75257 7.87149C6.75257 8.21458 6.476 8.4935 6.13292 8.4965C5.32493 8.50341 4.62917 8.77683 4.14009 9.2435C3.65634 9.70516 3.33337 10.3949 3.33337 11.3215C3.33337 12.4667 4.0142 13.4537 4.99587 13.897C5.31047 14.0391 5.45032 14.4092 5.30826 14.7238C5.16619 15.0384 4.796 15.1783 4.48142 15.0362C3.06796 14.3979 2.08337 12.9752 2.08337 11.3215C2.08337 10.0848 2.52419 9.05766 3.27713 8.33916C3.89122 7.75318 4.68494 7.3989 5.54942 7.2859C5.66025 6.55676 5.97267 5.69205 6.53937 4.94299Z" fill="#EBEEEF"/>
<path fill-rule="evenodd" clip-rule="evenodd" d="M10.2084 9.75583C10.5535 9.75583 10.8334 10.0357 10.8334 10.3808L10.8336 16.2096C10.8337 16.5547 10.5539 16.8346 10.2087 16.8347C9.86354 16.8347 9.58371 16.5548 9.58362 16.2097L9.58337 10.3809C9.58337 10.0357 9.86321 9.75591 10.2084 9.75583Z" fill="#EBEEEF"/>
<path fill-rule="evenodd" clip-rule="evenodd" d="M7.45687 13.4578C7.70094 13.2137 8.09667 13.2137 8.34071 13.4578L10.208 15.3251L12.0752 13.4578C12.3193 13.2137 12.715 13.2137 12.9591 13.4578C13.2032 13.7019 13.2032 14.0976 12.9591 14.3417L10.65 16.6508C10.4059 16.8949 10.0101 16.8949 9.76604 16.6508L7.45687 14.3417C7.21278 14.0976 7.21278 13.7019 7.45687 13.4578Z" fill="#EBEEEF"/>
</svg>
