<svg width="20" height="20" viewBox="0 0 20 20" fill="none" xmlns="http://www.w3.org/2000/svg">
<path fill-rule="evenodd" clip-rule="evenodd" d="M6.40259 6.92091C6.62355 7.18609 6.5877 7.58019 6.32252 7.80115L3.68456 9.99927L6.32259 12.198C6.58775 12.419 6.62353 12.8131 6.40253 13.0783C6.18152 13.3434 5.78741 13.3793 5.52226 13.1582L2.30815 10.4793C2.16567 10.3605 2.0833 10.1846 2.08331 9.9991C2.08333 9.8136 2.16572 9.63777 2.30822 9.51902L5.52234 6.84084C5.78752 6.61988 6.18162 6.65572 6.40259 6.92091Z" fill="#EBEEEF"/>
<path fill-rule="evenodd" clip-rule="evenodd" d="M14.0137 6.92091C14.2347 6.65572 14.6288 6.61988 14.8939 6.84084L18.108 9.51902C18.2505 9.63777 18.3329 9.8136 18.3329 9.9991C18.333 10.1846 18.2506 10.3605 18.1081 10.4793L14.894 13.1582C14.6289 13.3793 14.2348 13.3434 14.0138 13.0783C13.7928 12.8131 13.8285 12.419 14.0937 12.198L16.7317 9.99927L14.0938 7.80115C13.8286 7.58019 13.7927 7.18609 14.0137 6.92091Z" fill="#EBEEEF"/>
<path fill-rule="evenodd" clip-rule="evenodd" d="M12.5646 3.5209C12.889 3.63886 13.0563 3.99746 12.9383 4.32186L8.65231 16.108C8.53431 16.4324 8.17573 16.5998 7.85133 16.4818C7.52694 16.3639 7.35959 16.0053 7.47756 15.6809L11.7636 3.89467C11.8816 3.57027 12.2401 3.40293 12.5646 3.5209Z" fill="#EBEEEF"/>
</svg>
