<svg width="20" height="20" viewBox="0 0 20 20" fill="none" xmlns="http://www.w3.org/2000/svg">
<path fill-rule="evenodd" clip-rule="evenodd" d="M5.7794 3.54169C4.5135 3.54169 3.48792 4.56727 3.48792 5.83317V15.0002C3.48792 16.2661 4.5135 17.2917 5.7794 17.2917C7.0453 17.2917 8.07088 16.2661 8.07088 15.0002V5.83317C8.07088 4.56727 7.0453 3.54169 5.7794 3.54169ZM2.23792 5.83317C2.23792 3.87691 3.82314 2.29169 5.7794 2.29169C7.73566 2.29169 9.32087 3.87691 9.32087 5.83317V15.0002C9.32087 16.9564 7.73566 18.5417 5.7794 18.5417C3.82314 18.5417 2.23792 16.9564 2.23792 15.0002V5.83317Z" fill="#EBEEEF"/>
<path fill-rule="evenodd" clip-rule="evenodd" d="M10.4835 5.28796C11.8667 3.90572 14.1092 3.90572 15.4925 5.28796C16.8747 6.6712 16.8751 8.91406 15.4928 10.2972L8.28371 17.5056C8.03962 17.7496 7.64389 17.7496 7.39983 17.5055C7.15576 17.2614 7.15579 16.8656 7.39988 16.6216L14.6086 9.41365C14.6086 9.41373 14.6087 9.41365 14.6086 9.41365C15.5029 8.51856 15.5031 7.06705 14.6087 6.17195C14.6087 6.17192 14.6087 6.17199 14.6087 6.17195M11.3671 6.17216L9.13841 8.40165C8.89441 8.64581 8.49866 8.64581 8.25453 8.40181C8.01041 8.15779 8.01033 7.76205 8.25436 7.51794L10.4835 5.28796M11.3671 6.17216C12.2622 5.278 13.7137 5.27784 14.6087 6.17195L11.3671 6.17216Z" fill="#EBEEEF"/>
<path fill-rule="evenodd" clip-rule="evenodd" d="M12.1963 12.0833C12.1963 11.7381 12.4761 11.4583 12.8213 11.4583H14.9464C16.9027 11.4583 18.4879 13.0436 18.4879 14.9998C18.4879 16.9561 16.9027 18.5413 14.9465 18.5413L5.77968 18.5416C5.4345 18.5416 5.15467 18.2617 5.15466 17.9166C5.15465 17.5714 5.43446 17.2916 5.77964 17.2916L14.9464 17.2913C16.2123 17.2913 17.2379 16.2657 17.2379 14.9998C17.2379 13.7339 16.2123 12.7083 14.9464 12.7083H12.8213C12.4761 12.7083 12.1963 12.4285 12.1963 12.0833Z" fill="#EBEEEF"/>
<path fill-rule="evenodd" clip-rule="evenodd" d="M5.0293 15.042C5.0293 14.628 5.36486 14.292 5.77926 14.292C6.19318 14.292 6.5293 14.6275 6.5293 15.042C6.5293 15.4565 6.19318 15.792 5.77926 15.792C5.36485 15.792 5.0293 15.456 5.0293 15.042Z" fill="#EBEEEF"/>
</svg>
