<svg width="20" height="20" viewBox="0 0 20 20" fill="none" xmlns="http://www.w3.org/2000/svg">
<path fill-rule="evenodd" clip-rule="evenodd" d="M2.61145 9.97473C2.61145 9.62956 2.89128 9.34973 3.23645 9.34973H4.31776C4.66293 9.34973 4.94276 9.62956 4.94276 9.97473C4.94276 10.3199 4.66293 10.5997 4.31776 10.5997H3.23645C2.89128 10.5997 2.61145 10.3199 2.61145 9.97473Z" fill="#EBEEEF"/>
<path fill-rule="evenodd" clip-rule="evenodd" d="M2.61145 4.86814C2.61145 4.52296 2.89128 4.24314 3.23645 4.24314H7.49651C7.84169 4.24314 8.12151 4.52296 8.12151 4.86814C8.12151 5.21332 7.84169 5.49314 7.49651 5.49314H3.23645C2.89128 5.49314 2.61145 5.21332 2.61145 4.86814Z" fill="#EBEEEF"/>
<path fill-rule="evenodd" clip-rule="evenodd" d="M2.61145 15.1326C2.61145 14.7875 2.89128 14.5076 3.23645 14.5076H7.62784C7.97302 14.5076 8.25284 14.7875 8.25284 15.1326C8.25284 15.4778 7.97302 15.7576 7.62784 15.7576H3.23645C2.89128 15.7576 2.61145 15.4778 2.61145 15.1326Z" fill="#EBEEEF"/>
<path fill-rule="evenodd" clip-rule="evenodd" d="M12.3703 3.97784C12.6451 3.97784 12.8877 4.15739 12.968 4.42026C13.6969 6.80634 15.5714 8.67489 17.9681 9.40173C18.2315 9.48164 18.4117 9.72456 18.4117 9.99981C18.4117 10.2751 18.2315 10.5181 17.9681 10.598C15.5714 11.3248 13.6969 13.1934 12.968 15.5795C12.8877 15.8423 12.6451 16.0219 12.3703 16.0219C12.0955 16.0219 11.8529 15.8423 11.7725 15.5795C11.0437 13.1934 9.16921 11.3248 6.77251 10.598C6.50904 10.5181 6.3289 10.2751 6.3289 9.99981C6.3289 9.72456 6.50905 9.48164 6.77251 9.40173C9.16921 8.67489 11.0437 6.80634 11.7725 4.42026C11.8529 4.15739 12.0955 3.97784 12.3703 3.97784ZM8.61071 9.99981C10.2223 10.8306 11.5372 12.1416 12.3703 13.7488C13.2034 12.1416 14.5183 10.8306 16.13 9.99981C14.5183 9.16906 13.2034 7.8581 12.3703 6.25089C11.5372 7.8581 10.2223 9.16906 8.61071 9.99981Z" fill="#EBEEEF"/>
</svg>
