<svg width="20" height="20" viewBox="0 0 20 20" fill="none" xmlns="http://www.w3.org/2000/svg">
<path fill-rule="evenodd" clip-rule="evenodd" d="M9.381 3.31261C9.38092 3.31264 9.381 3.31258 9.381 3.31261L4.64914 6.04455C4.64906 6.04459 4.64921 6.0445 4.64914 6.04455C4.63335 6.05368 4.61756 6.06322 4.60223 6.0729L6.59298 7.22468L12.0713 4.05547L10.7848 3.31261C10.3503 3.06232 9.81534 3.06238 9.381 3.31261ZM13.3208 4.7768L7.84105 7.94677L10.0853 9.24525L15.5662 6.0746C15.55 6.06435 15.5336 6.0544 15.5169 6.04477L13.3208 4.7768ZM17.0484 5.82791C16.8234 5.47694 16.5153 5.17816 16.1423 4.96244L11.4093 2.22982C10.5886 1.7569 9.57759 1.75664 8.75692 2.22955L4.02376 4.96223C3.20416 5.43618 2.69775 6.31134 2.69775 7.2597V12.7245C2.69775 13.6718 3.20361 14.548 4.02392 15.0212L8.75634 17.7536C9.11934 17.9632 9.5195 18.0802 9.92392 18.1044C9.97475 18.1178 10.0281 18.1248 10.0832 18.1248C10.1383 18.1248 10.1917 18.1178 10.2426 18.1043C10.6468 18.08 11.0465 17.9631 11.4093 17.7536L16.1418 15.0212C16.9621 14.548 17.4679 13.6718 17.4679 12.7245V7.2597C17.4679 6.80424 17.3513 6.36571 17.1391 5.9804C17.1288 5.9557 17.1168 5.93138 17.103 5.90758C17.0866 5.87923 17.0683 5.85265 17.0484 5.82791ZM16.2132 7.14438L10.7082 10.329V16.712C10.7338 16.6992 10.7592 16.6856 10.7842 16.6711L15.5169 13.9387C15.9502 13.6888 16.2179 13.2253 16.2179 12.7245V7.2597C16.2179 7.221 16.2163 7.18253 16.2132 7.14438ZM9.45817 16.7123V10.3265L7.20998 9.02575V10.2346C7.20998 10.5798 6.93016 10.8596 6.58498 10.8596C6.2398 10.8596 5.95998 10.5798 5.95998 10.2346V8.30258L3.95275 7.14128C3.94944 7.18045 3.94775 7.21995 3.94775 7.2597V12.7245C3.94775 13.2253 4.21541 13.6886 4.64861 13.9386L9.38142 16.6711C9.40667 16.6857 9.43234 16.6994 9.45817 16.7123Z" fill="#EBEEEF"/>
</svg>
