<svg width="20" height="20" viewBox="0 0 20 20" fill="none" xmlns="http://www.w3.org/2000/svg">
<path d="M9.56617 13.8337C9.41667 13.8336 9.26884 13.8021 9.13234 13.7412C8.99584 13.6803 8.87359 13.5914 8.77367 13.4803L8.07114 12.6978L7.19783 13.6145C7.08275 13.7302 6.92697 13.7964 6.76376 13.7988C6.60055 13.8012 6.44289 13.7397 6.32446 13.6273C6.20604 13.515 6.13624 13.3608 6.13001 13.1977C6.12379 13.0346 6.18162 12.8755 6.29114 12.7545L7.30118 11.6895C7.51374 11.4832 7.79594 11.3643 8.09199 11.3562C8.23911 11.3587 8.38409 11.3916 8.51792 11.4528C8.65175 11.5141 8.77142 11.6022 8.8695 11.712L9.56367 12.4837L11.1578 10.602C11.2541 10.4883 11.3731 10.3961 11.5071 10.3312C11.6412 10.2663 11.7873 10.2302 11.9362 10.2253C12.0855 10.2198 12.2343 10.2462 12.3727 10.3027C12.511 10.3592 12.6358 10.4444 12.7387 10.5528L14.1195 11.982C14.2346 12.1013 14.2977 12.2615 14.2947 12.4273C14.2918 12.5932 14.223 12.751 14.1037 12.8662C13.9843 12.9813 13.8241 13.0443 13.6583 13.0413C13.4925 13.0384 13.3347 12.9697 13.2195 12.8503L11.9795 11.5653L10.3812 13.452C10.2823 13.5686 10.1596 13.6627 10.0213 13.7277C9.883 13.7929 9.73234 13.8276 9.5795 13.8295L9.56617 13.8337Z" fill="#EBEEEF"/>
<path d="M13.5418 18.125H6.9118C6.41789 18.1163 5.93054 18.0102 5.47778 17.8126C5.02502 17.6151 4.61577 17.33 4.2735 16.9738C3.93124 16.6176 3.66269 16.1972 3.48335 15.737C3.30401 15.2767 3.21743 14.7855 3.22848 14.2917V5.5475C3.25357 4.56887 3.65842 3.63839 4.35738 2.95297C5.05634 2.26755 5.99451 1.88096 6.97344 1.875H11.6968C12.0112 1.87547 12.3223 1.93925 12.6115 2.06252C12.9007 2.18579 13.1621 2.36603 13.3802 2.5925L16.5385 5.88333C16.9569 6.31734 17.19 6.89714 17.1884 7.5V14.3025C17.1987 15.2892 16.8233 16.241 16.1421 16.955C15.4609 17.6689 14.5279 18.0888 13.5418 18.125ZM6.97594 3.125C6.32429 3.12712 5.69905 3.38267 5.23247 3.83759C4.76589 4.29252 4.49454 4.91111 4.47594 5.5625V14.3025C4.4664 14.6324 4.52234 14.9609 4.64043 15.2692C4.75851 15.5773 4.93642 15.8592 5.16395 16.0982C5.39149 16.3372 5.66413 16.5289 5.96611 16.6622C6.26809 16.7953 6.59347 16.8673 6.92344 16.8742H13.5143C14.1724 16.8443 14.7932 16.5597 15.2452 16.0803C15.6971 15.601 15.9448 14.9646 15.9359 14.3058V7.5C15.9359 7.22044 15.8278 6.95171 15.6343 6.75L12.4751 3.45833C12.3741 3.35306 12.2529 3.26927 12.1187 3.21199C11.9845 3.15471 11.8402 3.12513 11.6943 3.125H6.97344H6.97594Z" fill="#EBEEEF"/>
<path d="M16.5104 7.72125H14.2279C13.4979 7.71794 12.799 7.4259 12.2838 6.90891C11.7684 6.39192 11.4788 5.69201 11.4779 4.96208V2.55208C11.4779 2.38633 11.5438 2.22735 11.6609 2.11014C11.7782 1.99293 11.9371 1.92708 12.1029 1.92708C12.2686 1.92708 12.4276 1.99293 12.5449 2.11014C12.662 2.22735 12.7279 2.38633 12.7279 2.55208V4.96208C12.7279 5.36076 12.8856 5.74323 13.1667 6.02599C13.4477 6.30876 13.8292 6.46882 14.2279 6.47125H16.5087C16.6744 6.47125 16.8334 6.5371 16.9507 6.65431C17.0679 6.77152 17.1337 6.93048 17.1337 7.09625C17.1337 7.26201 17.0679 7.42098 16.9507 7.53819C16.8334 7.6554 16.6744 7.72125 16.5087 7.72125H16.5104Z" fill="#EBEEEF"/>
<path d="M7.90956 10.1681C8.37483 10.1681 8.75208 9.79082 8.75208 9.32557C8.75208 8.86024 8.37483 8.48307 7.90956 8.48307C7.44426 8.48307 7.06706 8.86024 7.06706 9.32557C7.06706 9.79082 7.44426 10.1681 7.90956 10.1681Z" fill="#EBEEEF"/>
</svg>
