<svg width="20" height="20" viewBox="0 0 20 20" fill="none" xmlns="http://www.w3.org/2000/svg">
<path d="M6.79152 17.8942C5.72974 17.8928 4.71182 17.4705 3.96102 16.7197C3.21022 15.9688 2.78782 14.9509 2.7865 13.8892V5.88C2.78782 4.81822 3.21022 3.80029 3.96102 3.04949C4.71182 2.2987 5.72974 1.87632 6.79152 1.875H12.6149C13.6766 1.87632 14.6945 2.2987 15.4454 3.04949C16.1961 3.80029 16.6185 4.81822 16.6198 5.88V8.64083C16.6198 8.80658 16.554 8.96558 16.4368 9.08275C16.3195 9.2 16.1605 9.26583 15.9948 9.26583C15.829 9.26583 15.6701 9.2 15.553 9.08275C15.4357 8.96558 15.3698 8.80658 15.3698 8.64083V5.88C15.369 5.1496 15.0785 4.44937 14.562 3.9329C14.0455 3.41643 13.3452 3.12588 12.6149 3.125H6.79152C6.06112 3.12588 5.36087 3.41643 4.8444 3.9329C4.32793 4.44937 4.03738 5.1496 4.0365 5.88V13.8892C4.03738 14.6196 4.32793 15.3198 4.8444 15.8362C5.36087 16.3527 6.06112 16.6432 6.79152 16.6442H8.91821C9.08396 16.6442 9.24287 16.71 9.36012 16.8272C9.47729 16.9444 9.54321 17.1034 9.54321 17.2692C9.54321 17.4349 9.47729 17.5939 9.36012 17.7111C9.24287 17.8283 9.08396 17.8942 8.91821 17.8942H6.79152Z" fill="#EBEEEF"/>
<path d="M12.626 18.1248C12.4433 18.1241 12.2629 18.085 12.0964 18.0101C11.9298 17.9352 11.781 17.8261 11.6593 17.6899C11.5376 17.5537 11.446 17.3935 11.3903 17.2196C11.3345 17.0457 11.316 16.8621 11.3359 16.6806L11.4018 16.0589C11.4478 15.6287 11.6282 15.2239 11.9175 14.9022L14.5534 12.0239C14.8152 11.7407 15.1787 11.5728 15.5641 11.5572C15.9495 11.5416 16.3254 11.6794 16.6092 11.9406L17.165 12.4556C17.4473 12.7177 17.614 13.0811 17.6287 13.466C17.6434 13.8509 17.5048 14.226 17.2434 14.5089L14.6443 17.3422C14.3315 17.6913 13.9091 17.9233 13.4467 17.9998L12.8442 18.1022C12.7721 18.1154 12.6992 18.123 12.626 18.1248ZM15.6259 12.8047C15.5978 12.8047 15.57 12.8106 15.5442 12.8217C15.5185 12.8329 15.4952 12.8492 15.4759 12.8698L12.8476 15.7406C12.7353 15.8671 12.6656 16.0257 12.6484 16.1939L12.5817 16.8156L13.2425 16.7722C13.4266 16.7413 13.5947 16.6488 13.7192 16.5098L16.3267 13.6631C16.3453 13.6435 16.3598 13.6204 16.3694 13.5952C16.379 13.57 16.3835 13.5431 16.3826 13.5162C16.3818 13.4892 16.3756 13.4627 16.3645 13.4381C16.3533 13.4135 16.3374 13.3914 16.3176 13.3731L15.7625 12.8589C15.7254 12.8244 15.6766 12.8051 15.6259 12.8047Z" fill="#EBEEEF"/>
<path d="M9.79062 12.2183H7.61397C7.44822 12.2183 7.28924 12.1524 7.17202 12.0352C7.05482 11.918 6.98897 11.7591 6.98897 11.5933C6.98897 11.4275 7.05482 11.2686 7.17202 11.1514C7.28924 11.0342 7.44822 10.9683 7.61397 10.9683H9.79062C9.95637 10.9683 10.1154 11.0342 10.2326 11.1514C10.3498 11.2686 10.4156 11.4275 10.4156 11.5933C10.4156 11.7591 10.3498 11.918 10.2326 12.0352C10.1154 12.1524 9.95637 12.2183 9.79062 12.2183ZM11.784 8.5775H7.61733C7.45157 8.5775 7.29259 8.51167 7.17538 8.39442C7.05817 8.27721 6.99233 8.11823 6.99233 7.95247C6.99233 7.78672 7.05817 7.62774 7.17538 7.51053C7.29259 7.39332 7.45157 7.32747 7.61733 7.32747H11.784C11.9498 7.32747 12.1087 7.39332 12.2259 7.51053C12.3431 7.62774 12.409 7.78672 12.409 7.95247C12.409 8.11823 12.3431 8.27721 12.2259 8.39442C12.1087 8.51167 11.9498 8.5775 11.784 8.5775Z" fill="#EBEEEF"/>
</svg>
