<svg width="20" height="20" viewBox="0 0 20 20" fill="none" xmlns="http://www.w3.org/2000/svg">
<path fill-rule="evenodd" clip-rule="evenodd" d="M7.40066 17C6.48071 16.9812 5.60584 16.598 4.96831 15.9345C4.33078 15.271 3.98274 14.3815 4.00066 13.4615V5.39C4.02382 4.48665 4.39754 3.62775 5.04273 2.99505C5.68791 2.36235 6.55396 2.0055 7.45758 2H11.8176C12.1077 2.00057 12.3949 2.05949 12.6618 2.17328C12.9287 2.28705 13.17 2.45336 13.3714 2.66231L16.2899 5.7C16.675 6.10112 16.889 6.63625 16.8868 7.19231V9.42385C16.8868 9.74217 16.629 10.0003 16.3107 10.0008C15.9917 10.0012 15.733 9.74277 15.733 9.42385V7.39654H14.1541C13.4804 7.39369 12.835 7.12418 12.3594 6.64691C11.8837 6.16964 11.6163 5.52345 11.6157 4.84962V3.15311L7.45989 3.15385C6.85843 3.15599 6.28137 3.39195 5.85071 3.81184C5.42006 4.23172 5.16957 4.80262 5.1522 5.40385V13.4715C5.14341 13.7761 5.19499 14.0793 5.304 14.3638C5.413 14.6483 5.57725 14.9084 5.78729 15.1291C5.99733 15.3498 6.24898 15.5267 6.52774 15.6497C6.8065 15.7726 7.10684 15.8391 7.41143 15.8454H10.6431C10.9599 15.8454 11.2176 16.1007 11.2204 16.4175C11.2233 16.7384 10.964 17 10.6431 17H7.40066ZM15.2083 6.24269L12.7695 3.70161V4.84961C12.7695 5.21828 12.9157 5.57192 13.1759 5.83304C13.4362 6.09416 13.7894 6.24147 14.158 6.24269H15.2083Z" fill="#EBEEEF"/>
<path d="M16.3021 13.3007V12.4687C16.2925 11.7263 15.6829 11.1311 14.9405 11.1407C14.2125 11.1495 13.6253 11.7351 13.6125 12.4623V13.3007M16.0821 16.779H13.8293C13.2117 16.779 12.7109 16.2782 12.7109 15.6606V14.3966C12.7109 13.779 13.2117 13.2782 13.8293 13.2782H16.0821C16.6989 13.2782 17.2005 13.779 17.2005 14.3966V15.6606C17.2005 16.2782 16.6989 16.779 16.0821 16.779Z" stroke="#EBEEEF" stroke-linecap="round" stroke-linejoin="round"/>
</svg>
