<svg width="20" height="20" viewBox="0 0 20 20" fill="none" xmlns="http://www.w3.org/2000/svg">
<path fill-rule="evenodd" clip-rule="evenodd" d="M7.40066 17C6.48071 16.9812 5.60584 16.598 4.96831 15.9345C4.33078 15.271 3.98274 14.3815 4.00066 13.4615V5.39C4.02382 4.48665 4.39754 3.62775 5.04273 2.99505C5.68791 2.36235 6.55396 2.0055 7.45758 2H11.8176C12.1077 2.00057 12.3949 2.05949 12.6618 2.17328C12.9287 2.28705 13.17 2.45336 13.3714 2.66231L16.2899 5.7C16.675 6.10112 16.889 6.63625 16.8868 7.19231V8.5C16.8868 8.81833 16.629 9.0765 16.3107 9.07692C15.9917 9.07735 15.733 8.81893 15.733 8.5V7.39654H14.1541C13.4804 7.39369 12.835 7.12418 12.3594 6.64691C11.8837 6.16964 11.6163 5.52345 11.6157 4.84962V3.15311L7.45989 3.15385C6.85843 3.15599 6.28137 3.39195 5.85071 3.81184C5.42006 4.23172 5.16957 4.80262 5.1522 5.40385V13.4715C5.14341 13.7761 5.19499 14.0793 5.304 14.3638C5.413 14.6483 5.57725 14.9084 5.78729 15.1291C5.99733 15.3498 6.24898 15.5267 6.52774 15.6497C6.8065 15.7726 7.10684 15.8391 7.41143 15.8454H9.02728H10C10.3168 15.8454 10.5744 16.1007 10.5773 16.4175C10.5802 16.7384 10.3209 17 10 17H9.0219H7.40066ZM15.2083 6.24269L12.7695 3.70161V4.84961C12.7695 5.21828 12.9157 5.57192 13.1759 5.83304C13.4362 6.09416 13.7894 6.24147 14.158 6.24269H15.2083Z" fill="#EBEEEF"/>
<path fill-rule="evenodd" clip-rule="evenodd" d="M13.2554 16.0549L12.6691 16.1533C12.2409 16.2251 11.8618 15.8677 11.9086 15.4347L11.9739 14.8306C12.0054 14.5387 12.1272 14.2637 12.3231 14.0451L14.8764 11.258C15.1781 10.9321 15.6877 10.912 16.0136 11.2145L16.5522 11.7129C16.8781 12.0145 16.8982 12.5233 16.5958 12.85L14.0708 15.6056C13.8578 15.8436 13.5707 16.0024 13.2554 16.0549Z" stroke="#EBEEEF" stroke-width="1.1" stroke-linecap="round" stroke-linejoin="round"/>
</svg>
