<svg width="20" height="20" viewBox="0 0 20 20" fill="none" xmlns="http://www.w3.org/2000/svg">
<path d="M6.89271 18.1252C6.40022 18.1143 5.91469 18.0066 5.46384 17.808C5.013 17.6095 4.6057 17.3241 4.26519 16.9682C3.92469 16.6122 3.65766 16.1926 3.47936 15.7333C3.30106 15.2742 3.21498 14.7843 3.22604 14.2918V5.54764C3.24206 4.56256 3.6468 3.62376 4.35205 2.93584C5.0573 2.24791 6.00589 1.86665 6.99104 1.87514H11.6978C12.0121 1.87576 12.3231 1.93959 12.6123 2.06285C12.9015 2.18611 13.1629 2.36628 13.3811 2.59264L16.5419 5.88347C16.9593 6.31805 17.192 6.89755 17.1911 7.50014V14.3043C17.2006 15.2911 16.8245 16.2427 16.1429 16.9563C15.4613 17.67 14.5281 18.0893 13.5419 18.1252H6.89271ZM6.97938 3.12514C6.32785 3.12767 5.70283 3.38336 5.23633 3.8382C4.76984 4.29303 4.4984 4.91138 4.47938 5.56264V14.3043C4.47007 14.634 4.5261 14.9623 4.64424 15.2702C4.76237 15.5782 4.94028 15.8597 5.1677 16.0987C5.39514 16.3375 5.66759 16.5291 5.96936 16.6622C6.27114 16.7953 6.59628 16.8674 6.92604 16.8743H13.5169C14.1749 16.8447 14.7958 16.5603 15.248 16.0814C15.7002 15.6024 15.9484 14.9663 15.9403 14.3077V7.50014C15.94 7.22046 15.8316 6.95171 15.6378 6.75014L12.4794 3.45847C12.3781 3.3534 12.2567 3.26975 12.1223 3.21249C11.9881 3.15523 11.8437 3.12552 11.6978 3.12514H6.97938Z" fill="#EBEEEF"/>
<path d="M14.2287 7.72125C13.4988 7.71795 12.7998 7.4259 12.2846 6.90891C11.7693 6.39191 11.4796 5.69201 11.4787 4.96208V2.55208C11.4787 2.38632 11.5445 2.22735 11.6618 2.11014C11.7789 1.99293 11.9379 1.92708 12.1037 1.92708C12.2694 1.92708 12.4284 1.99293 12.5456 2.11014C12.6628 2.22735 12.7287 2.38632 12.7287 2.55208V4.96291C12.7296 5.36211 12.8883 5.74474 13.1703 6.02732C13.4522 6.30991 13.8345 6.46949 14.2337 6.47125H16.5145C16.6803 6.47125 16.8393 6.5371 16.9564 6.65431C17.0737 6.77151 17.1395 6.93049 17.1395 7.09625C17.1395 7.26201 17.0737 7.42098 16.9564 7.53819C16.8393 7.6554 16.6803 7.72125 16.5145 7.72125H14.2287Z" fill="#EBEEEF"/>
<path d="M10.985 14.4177C10.8614 14.4176 10.7407 14.3808 10.638 14.3122C10.5353 14.2435 10.4553 14.1459 10.4081 14.0317C10.3608 13.9177 10.3484 13.7921 10.3725 13.6709C10.3966 13.5497 10.456 13.4384 10.5433 13.351L11.91 11.9843L10.5708 10.6452C10.4531 10.5273 10.387 10.3677 10.3871 10.2012C10.3872 10.0346 10.4534 9.87491 10.5713 9.75725C10.689 9.63958 10.8488 9.5735 11.0153 9.57358C11.1818 9.57367 11.3414 9.63983 11.4592 9.75766L13.24 11.5393C13.298 11.5973 13.3441 11.6662 13.3755 11.7419C13.4069 11.8177 13.4231 11.899 13.4231 11.981C13.4231 12.0631 13.4069 12.1442 13.3755 12.2201C13.3441 12.2958 13.298 12.3647 13.24 12.4227L11.4317 14.231C11.3734 14.2903 11.3038 14.3374 11.2272 14.3695C11.1504 14.4015 11.0681 14.4179 10.985 14.4177Z" fill="#EBEEEF"/>
<path d="M9.095 12.7359C9.01284 12.736 8.93142 12.7199 8.85542 12.6884C8.7795 12.6569 8.7105 12.6107 8.6525 12.5526L6.84417 10.7492C6.78609 10.6912 6.74002 10.6222 6.70859 10.5464C6.67715 10.4706 6.66097 10.3892 6.66097 10.3072C6.66097 10.225 6.67715 10.1437 6.70859 10.0678C6.74002 9.992 6.78609 9.92308 6.84417 9.86508L8.625 8.08255C8.74284 7.96865 8.90067 7.90557 9.06459 7.90692C9.22842 7.90826 9.38525 7.97392 9.50117 8.08975C9.61709 8.20557 9.68292 8.36233 9.68442 8.52616C9.68592 8.69008 9.623 8.84791 9.50917 8.96591L8.17 10.3034L9.53667 11.6659C9.624 11.7533 9.68342 11.8646 9.7075 11.9857C9.73159 12.1069 9.71917 12.2325 9.67192 12.3467C9.62467 12.4608 9.54467 12.5583 9.44192 12.6271C9.33925 12.6957 9.2185 12.7324 9.095 12.7326V12.7359Z" fill="#EBEEEF"/>
</svg>
