<svg width="20" height="20" viewBox="0 0 20 20" fill="none" xmlns="http://www.w3.org/2000/svg">
<path d="M13.9017 17.3753H6.51503C5.95218 17.3831 5.39348 17.2779 4.87202 17.0659C4.35055 16.854 3.87693 16.5395 3.4792 16.1411C3.02241 15.6686 2.6639 15.1101 2.42444 14.498C2.18499 13.8859 2.06934 13.2324 2.08419 12.5753V7.42781C2.04757 6.81768 2.13475 6.20645 2.34049 5.63089C2.54623 5.05533 2.86628 4.52734 3.28138 4.07869C3.69648 3.63004 4.19804 3.27 4.75591 3.02022C5.31377 2.77046 5.9164 2.63612 6.52753 2.62531H13.8909C14.502 2.63612 15.1046 2.77046 15.6625 3.02022C16.2204 3.27 16.7219 3.63004 17.137 4.07869C17.5521 4.52734 17.8721 5.05533 18.0779 5.63089C18.2836 6.20645 18.3708 6.81768 18.3342 7.42781V12.5753C18.3486 13.2318 18.2327 13.8847 17.9933 14.4962C17.7539 15.1076 17.3955 15.6656 16.9392 16.1378C16.5415 16.5369 16.0677 16.8521 15.546 17.0646C15.0242 17.2772 14.465 17.3829 13.9017 17.3753ZM6.52586 16.1253H13.9C14.2993 16.1322 14.6959 16.0589 15.0662 15.9096C15.4365 15.7603 15.773 15.5381 16.0559 15.2561C16.3959 14.8994 16.6619 14.4788 16.8384 14.0186C17.0149 13.5585 17.0985 13.068 17.0842 12.5753V7.42781C17.0842 5.36947 15.7417 3.87531 13.8909 3.87531H6.52753C4.67669 3.87531 3.33419 5.36947 3.33419 7.42781V12.5753C3.32039 13.0674 3.40415 13.5573 3.58065 14.0169C3.75714 14.4764 4.02288 14.8965 4.36253 15.2528C4.64508 15.5346 4.98136 15.7566 5.35141 15.906C5.72145 16.0553 6.11773 16.1287 6.51669 16.122L6.52586 16.1253Z" fill="#EBEEEF"/>
<path d="M10.2303 11.3494C9.69995 11.3491 9.18545 11.1687 8.77112 10.8377L5.4061 8.12521C5.27703 8.02112 5.1946 7.87001 5.17694 7.70514C5.15928 7.54026 5.20784 7.37512 5.31194 7.24604C5.41604 7.11698 5.56715 7.03454 5.73202 7.01689C5.8969 6.99922 6.06203 7.04779 6.1911 7.15188L9.55196 9.86189C9.74546 10.0166 9.98587 10.1009 10.2336 10.1009C10.4814 10.1009 10.7218 10.0166 10.9153 9.86189L14.242 7.15688C14.3705 7.05223 14.5355 7.00296 14.7005 7.01992C14.8654 7.03688 15.0169 7.11867 15.1215 7.24729C15.2262 7.37593 15.2755 7.54086 15.2585 7.70581C15.2415 7.87077 15.1597 8.02223 15.0311 8.12688L11.6978 10.8369C11.2806 11.1687 10.7633 11.3494 10.2303 11.3494Z" fill="#EBEEEF"/>
</svg>
