<svg width="20" height="20" viewBox="0 0 20 20" fill="none" xmlns="http://www.w3.org/2000/svg">
<path fill-rule="evenodd" clip-rule="evenodd" d="M10.2084 3.125C6.41112 3.125 3.33337 6.20274 3.33337 10C3.33337 13.7965 6.41117 16.875 10.2084 16.875C14.0056 16.875 17.0834 13.7965 17.0834 10C17.0834 6.20274 14.0056 3.125 10.2084 3.125ZM2.08337 10C2.08337 5.51239 5.72077 1.875 10.2084 1.875C14.696 1.875 18.3334 5.51239 18.3334 10C18.3334 14.4867 14.696 18.125 10.2084 18.125C5.72072 18.125 2.08337 14.4867 2.08337 10Z" fill="#EBEEEF"/>
<path fill-rule="evenodd" clip-rule="evenodd" d="M10.2051 6.29718C10.5502 6.29718 10.8301 6.577 10.8301 6.92218V10.5051C10.8301 10.8503 10.5502 11.1301 10.2051 11.1301C9.85991 11.1301 9.58008 10.8503 9.58008 10.5051V6.92218C9.58008 6.577 9.85991 6.29718 10.2051 6.29718ZM10.2082 12.4534C10.5534 12.4534 10.8332 12.7332 10.8332 13.0784V13.1181C10.8332 13.4633 10.5534 13.7431 10.2082 13.7431C9.86308 13.7431 9.58324 13.4633 9.58324 13.1181V13.0784C9.58324 12.7332 9.86308 12.4534 10.2082 12.4534Z" fill="#EBEEEF"/>
</svg>
