<svg width="20" height="20" viewBox="0 0 20 20" fill="none" xmlns="http://www.w3.org/2000/svg">
<path fill-rule="evenodd" clip-rule="evenodd" d="M8.26532 3.76836C9.14767 2.2388 11.3568 2.24433 12.2314 3.7784L18.0314 13.9577C18.8992 15.4817 17.7988 17.3756 16.0451 17.3756H4.37157C2.61223 17.3756 1.51281 15.4715 2.39172 13.9476L8.26532 3.76836ZM11.1454 4.39735C10.749 3.70223 9.748 3.69971 9.34808 4.39294L3.47452 14.5721C3.07619 15.2628 3.57461 16.1256 4.37157 16.1256H16.0451C16.8395 16.1256 17.3387 15.2672 16.9452 14.5764L11.1454 4.39735Z" fill="#EBEEEF"/>
<path fill-rule="evenodd" clip-rule="evenodd" d="M10.2181 7.93457C10.5632 7.93457 10.8431 8.21439 10.8431 8.55958V11.0689C10.8431 11.4142 10.5632 11.6939 10.2181 11.6939C9.87283 11.6939 9.59308 11.4142 9.59308 11.0689V8.55958C9.59308 8.21439 9.87283 7.93457 10.2181 7.93457ZM10.2165 12.9412C10.5617 12.9412 10.8415 13.221 10.8415 13.5662V13.6067C10.8415 13.9518 10.5617 14.2317 10.2165 14.2317C9.87133 14.2317 9.5915 13.9518 9.5915 13.6067V13.5662C9.5915 13.221 9.87133 12.9412 10.2165 12.9412Z" fill="#EBEEEF"/>
</svg>
