<svg width="20" height="20" viewBox="0 0 20 20" fill="none" xmlns="http://www.w3.org/2000/svg">
<path fill-rule="evenodd" clip-rule="evenodd" d="M16.3075 11.6838C13.8643 6.38964 6.55237 6.38964 4.10914 11.6838C3.9645 11.9972 3.59317 12.1341 3.27976 11.9894C2.96635 11.8448 2.82953 11.4735 2.97417 11.1601C5.86426 4.89757 14.5524 4.89757 17.4425 11.1601C17.5871 11.4735 17.4503 11.8448 17.1369 11.9894C16.8235 12.1341 16.4521 11.9972 16.3075 11.6838Z" fill="#EBEEEF"/>
<path fill-rule="evenodd" clip-rule="evenodd" d="M10.2112 11.3004C9.49587 11.3004 8.90954 11.8845 8.90954 12.603C8.90954 13.3221 9.49571 13.9055 10.2112 13.9055C10.9278 13.9055 11.5137 13.3219 11.5137 12.603C11.5137 11.8846 10.9275 11.3004 10.2112 11.3004ZM7.65955 12.603C7.65955 11.1931 8.80654 10.0504 10.2112 10.0504C11.6165 10.0504 12.7637 11.1929 12.7637 12.603C12.7637 14.014 11.6164 15.1555 10.2112 15.1555C8.80679 15.1555 7.65955 14.0138 7.65955 12.603Z" fill="#EBEEEF"/>
</svg>
