<svg width="20" height="20" viewBox="0 0 20 20" fill="none" xmlns="http://www.w3.org/2000/svg">
<path fill-rule="evenodd" clip-rule="evenodd" d="M10.3134 1.98757C10.5045 1.85409 10.754 1.8381 10.9607 1.94609C13.1716 3.1016 15.0932 4.73681 16.2295 7.09625C17.3169 9.21758 17.4265 11.7005 16.6283 13.7711C15.825 15.8549 14.0948 17.5293 11.5398 17.9563C4.86978 19.4032 0.390321 11.247 5.4184 6.44981C5.66395 6.20793 6.36267 5.55687 6.68707 5.32529C6.87759 5.18928 7.12814 5.17114 7.33627 5.27828C7.54439 5.38543 7.6752 5.59988 7.6752 5.83398C7.6752 5.98433 7.75897 6.85054 7.91932 7.66065C7.99642 8.05021 8.08293 8.382 8.16951 8.59742C8.47521 8.5545 8.74337 8.39633 8.99021 8.11859C9.29546 7.77518 9.55237 7.26174 9.74496 6.62418C10.13 5.34903 10.205 3.7558 10.0515 2.58098C10.0213 2.34982 10.1222 2.12104 10.3134 1.98757ZM11.3745 3.62318C11.391 4.71533 11.2604 5.92998 10.9415 6.98561C10.72 7.7191 10.3944 8.42042 9.92454 8.949C9.46012 9.4715 8.84479 9.83225 8.08147 9.858C7.95942 9.882 7.83212 9.87675 7.70825 9.8395C7.54383 9.78992 7.42397 9.69583 7.34431 9.6155C7.19332 9.46325 7.09434 9.266 7.02744 9.10675C6.88653 8.77142 6.77692 8.32681 6.6931 7.90335C6.64009 7.6355 6.59382 7.35674 6.55532 7.09234C6.45002 7.19082 6.35749 7.27925 6.29245 7.34344L6.28467 7.35111C2.18705 11.2552 5.80855 17.9324 11.2882 16.7318C11.2989 16.7295 11.3095 16.7274 11.3204 16.7257C13.3999 16.3829 14.7985 15.0427 15.462 13.3215C16.1312 11.5853 16.0441 9.47034 15.1138 7.66016L15.1064 7.64518C14.284 5.93365 12.9745 4.63013 11.3745 3.62318Z" fill="#EBEEEF"/>
</svg>
