<svg width="20" height="20" viewBox="0 0 20 20" fill="none" xmlns="http://www.w3.org/2000/svg">
<path fill-rule="evenodd" clip-rule="evenodd" d="M4.24721 4.07367C3.77057 4.67197 3.52051 5.61156 3.52051 6.95139V13.0455C3.52051 14.3205 3.89458 15.2565 4.51279 15.8735C5.13117 16.4907 6.06991 16.8645 7.34927 16.8645H13.4296C14.7053 16.8645 15.6415 16.4909 16.2583 15.874C16.8752 15.257 17.2487 14.3208 17.2487 13.0455V13.0419L17.2705 9.16574V9.16391C17.2703 7.79137 17.0167 6.90602 16.5525 6.36254C16.1075 5.84148 15.3602 5.51183 14.0578 5.51183H11.845C11.0885 5.50965 10.3766 5.15379 9.92117 4.54985L9.92058 4.5491L9.20733 3.60022C8.98817 3.3083 8.64492 3.13638 8.28116 3.13638H6.71857C5.44703 3.13638 4.70017 3.50509 4.24721 4.07367ZM3.26952 3.2948C4.02899 2.34147 5.19366 1.88638 6.71857 1.88638H8.28116C9.03942 1.88638 9.75208 2.24412 10.2065 2.84912L10.9192 3.79726C11.1389 4.08827 11.4826 4.26053 11.8477 4.26183H14.0578C15.5584 4.26183 16.7299 4.64547 17.5031 5.55078C18.2568 6.43342 18.5205 7.68698 18.5205 9.16574V9.16924L18.4987 13.0455V13.0473C18.4983 14.5668 18.0479 15.852 17.1423 16.7577C16.2362 17.664 14.9503 18.1145 13.4296 18.1145H7.34927C5.82571 18.1145 4.53757 17.6642 3.62979 16.7582C2.72185 15.8521 2.27051 14.5661 2.27051 13.0455V6.95139C2.27051 5.49881 2.53375 4.21839 3.26952 3.2948Z" fill="#EBEEEF"/>
<path fill-rule="evenodd" clip-rule="evenodd" d="M9.58167 13.1006C9.58167 12.7554 9.8615 12.4756 10.2067 12.4756H13.493C13.8382 12.4756 14.118 12.7554 14.118 13.1006C14.118 13.4457 13.8382 13.7256 13.493 13.7256H10.2067C9.8615 13.7256 9.58167 13.4457 9.58167 13.1006Z" fill="#EBEEEF"/>
</svg>
