<svg width="20" height="20" viewBox="0 0 20 20" fill="none" xmlns="http://www.w3.org/2000/svg">
<path fill-rule="evenodd" clip-rule="evenodd" d="M4.06005 4.07201C3.58342 4.67022 3.33337 5.6096 3.33337 6.949V13.0439C3.33337 14.3189 3.70745 15.2549 4.32566 15.8719C4.94403 16.489 5.88277 16.8629 7.16214 16.8629H13.2425C14.5182 16.8629 15.4544 16.4893 16.0712 15.8724C16.688 15.2554 17.0615 14.3193 17.0615 13.0439V13.0404L17.0834 9.16411V9.16236C17.0831 7.78979 16.8295 6.90443 16.3654 6.36095C15.9204 5.83989 15.1731 5.51025 13.8707 5.51025H11.6578C10.9013 5.50806 10.1891 5.1521 9.73371 4.54702L9.02037 3.59883L9.01971 3.59794C8.80087 3.30604 8.45829 3.1348 8.09402 3.1348H6.53144C5.2599 3.1348 4.51302 3.5035 4.06005 4.07201ZM3.08242 3.29308C3.84188 2.33989 5.00653 1.8848 6.53144 1.8848H8.09402C8.85171 1.8848 9.56471 2.24126 10.0195 2.84779L10.7325 3.79529C10.952 4.087 11.2954 4.25895 11.6606 4.26025H13.8707C15.3713 4.26025 16.5428 4.64389 17.316 5.5492C18.0697 6.43184 18.3334 7.68539 18.3334 9.16411V9.1677L18.3115 13.0439V13.0458C18.3111 14.5652 17.8608 15.8504 16.9551 16.7562C16.049 17.6624 14.7632 18.1129 13.2425 18.1129H7.16214C5.63857 18.1129 4.35044 17.6626 3.44266 16.7567C2.53472 15.8505 2.08337 14.5645 2.08337 13.0439V6.949C2.08337 5.49678 2.34662 4.21656 3.08242 3.29308Z" fill="#EBEEEF"/>
<path fill-rule="evenodd" clip-rule="evenodd" d="M9.05337 8.71828C9.29746 8.96236 9.29746 9.35803 9.05337 9.60211L7.70928 10.9462L9.08087 12.3179C9.32496 12.5619 9.32496 12.9577 9.08087 13.2018C8.83679 13.4458 8.44112 13.4458 8.19702 13.2018L6.38346 11.3882C6.26625 11.2709 6.2004 11.112 6.2004 10.9462C6.2004 10.7804 6.26625 10.6215 6.38346 10.5043L8.1695 8.71828C8.41354 8.4742 8.80929 8.4742 9.05337 8.71828Z" fill="#EBEEEF"/>
<path fill-rule="evenodd" clip-rule="evenodd" d="M11.3646 8.71828C11.6087 8.4742 12.0044 8.4742 12.2484 8.71828L14.0345 10.5043C14.2786 10.7484 14.2786 11.1441 14.0345 11.3882L12.2209 13.2018C11.9769 13.4458 11.5811 13.4458 11.337 13.2018C11.0929 12.9577 11.0929 12.5619 11.337 12.3179L12.7087 10.9462L11.3646 9.60211C11.1205 9.35803 11.1205 8.96236 11.3646 8.71828Z" fill="#EBEEEF"/>
</svg>
