<svg width="20" height="20" viewBox="0 0 20 20" fill="none" xmlns="http://www.w3.org/2000/svg">
<path fill-rule="evenodd" clip-rule="evenodd" d="M14.6175 17.4988H5.38278C4.08249 17.4988 2.98058 17.0355 2.20685 16.2046C1.43781 15.3787 1.03955 14.2403 1.03955 12.9665V7.0335C1.03955 5.75967 1.43781 4.62125 2.20698 3.79534C2.98082 2.96439 4.08293 2.50118 5.38353 2.50118L14.6175 2.50113C15.9177 2.50113 17.0195 2.9644 17.793 3.7954C18.5619 4.62134 18.96 5.75973 18.96 7.03346V12.9664C18.96 14.2409 18.5597 15.3793 17.7902 16.2048C17.0162 17.0353 15.9147 17.4988 14.6175 17.4988ZM5.38278 16.2488H14.6175C15.6051 16.2488 16.3624 15.9033 16.8759 15.3525C17.3939 14.7968 17.71 13.9814 17.71 12.9664V7.03346C17.71 6.01771 17.395 5.20244 16.8781 4.64709C16.3659 4.09679 15.6089 3.75113 14.6175 3.75113L5.38353 3.75118C4.39163 3.75118 3.63425 4.09689 3.12173 4.64723C2.60453 5.2026 2.28955 6.01784 2.28955 7.0335V12.9665C2.28955 13.9821 2.60453 14.7974 3.12167 15.3528C3.63412 15.9031 4.39131 16.2488 5.38278 16.2488Z" fill="#EBEEEF"/>
<path fill-rule="evenodd" clip-rule="evenodd" d="M12.8913 12.9419C12.6473 12.6979 12.6473 12.3021 12.8913 12.0581L14.9493 10L12.8913 7.94192C12.6473 7.69784 12.6473 7.30217 12.8913 7.05809C13.1354 6.81401 13.5311 6.81401 13.7752 7.05809L16.2752 9.55809C16.5193 9.80217 16.5193 10.1978 16.2752 10.4419L13.7752 12.9419C13.5311 13.186 13.1354 13.186 12.8913 12.9419Z" fill="#EBEEEF"/>
<path fill-rule="evenodd" clip-rule="evenodd" d="M7.10856 12.9419C7.35264 12.6979 7.35264 12.3021 7.10856 12.0581L5.0505 10L7.10856 7.94192C7.35264 7.69784 7.35264 7.30217 7.10856 7.05809C6.86449 6.81401 6.46875 6.81401 6.22468 7.05809L3.7247 9.55809C3.48062 9.80217 3.48062 10.1978 3.7247 10.4419L6.22468 12.9419C6.46875 13.186 6.86449 13.186 7.10856 12.9419Z" fill="#EBEEEF"/>
</svg>
