<svg width="20" height="20" viewBox="0 0 20 20" fill="none" xmlns="http://www.w3.org/2000/svg">
<path fill-rule="evenodd" clip-rule="evenodd" d="M10.2227 1.66708C10.8193 1.66708 11.3993 1.91208 11.8152 2.33792C12.2302 2.76625 12.4593 3.35375 12.4418 3.94958C12.4435 4.08375 12.4877 4.23875 12.5677 4.37458C12.7002 4.59958 12.9093 4.75792 13.1577 4.82292C13.406 4.88458 13.666 4.85125 13.8868 4.72042C14.9535 4.11125 16.311 4.47625 16.9202 5.53458L17.4393 6.43375C17.4527 6.45792 17.4643 6.48125 17.4743 6.50542C18.026 7.54792 17.6577 8.86042 16.6327 9.45958C16.4835 9.54542 16.3627 9.66542 16.2793 9.81042C16.1502 10.0346 16.1143 10.3013 16.1793 10.5463C16.246 10.7963 16.4052 11.0037 16.6293 11.1321C17.1352 11.4229 17.5127 11.9129 17.6635 12.4788C17.8143 13.0437 17.7318 13.6571 17.4377 14.1629L16.8843 15.0846C16.2752 16.1313 14.9177 16.4937 13.8618 15.8837C13.721 15.8029 13.5585 15.7588 13.3968 15.7546H13.3918C13.151 15.7546 12.9035 15.8571 12.7235 16.0363C12.541 16.2188 12.441 16.4621 12.4427 16.7204C12.4368 17.9446 11.441 18.9346 10.2227 18.9346H9.1785C7.95433 18.9346 6.9585 17.9396 6.9585 16.7154C6.95683 16.5646 6.9135 16.4079 6.83266 16.2721C6.70183 16.0438 6.49016 15.8804 6.246 15.8154C6.0035 15.7504 5.73766 15.7863 5.51933 15.9129C4.996 16.2046 4.38016 16.2754 3.81683 16.1171C3.25433 15.9579 2.7685 15.5712 2.4835 15.0588L1.96266 14.1613C1.3535 13.1046 1.716 11.7504 2.771 11.1404C3.07016 10.9679 3.256 10.6462 3.256 10.3013C3.256 9.95625 3.07016 9.63375 2.771 9.46125C1.71516 8.84792 1.3535 7.49042 1.96183 6.43375L2.52683 5.50625C3.12766 4.46125 4.486 4.09292 5.54516 4.70125C5.68933 4.78708 5.846 4.83042 6.00516 4.83208C6.52433 4.83208 6.9585 4.40375 6.96683 3.87708C6.9635 3.29625 7.19266 2.73875 7.61016 2.31792C8.02933 1.89792 8.586 1.66708 9.1785 1.66708H10.2227ZM10.2227 2.91708H9.1785C8.92017 2.91708 8.6785 3.01792 8.496 3.19958C8.31433 3.38208 8.21516 3.62458 8.21683 3.88292C8.19933 5.10125 7.2035 6.08208 5.99766 6.08208C5.611 6.07792 5.2385 5.97375 4.91516 5.78042C4.461 5.52208 3.86766 5.68125 3.60183 6.14375L3.03766 7.07125C2.77933 7.51958 2.93766 8.11208 3.39766 8.37958C4.08016 8.77458 4.506 9.51125 4.506 10.3013C4.506 11.0913 4.08016 11.8271 3.396 12.2229C2.9385 12.4879 2.78016 13.0771 3.04516 13.5354L3.571 14.4421C3.701 14.6763 3.9135 14.8454 4.15933 14.9146C4.40433 14.9829 4.67433 14.9538 4.89933 14.8288C5.23016 14.6346 5.61516 14.5338 6.00183 14.5338C6.19266 14.5338 6.3835 14.5579 6.57016 14.6079C7.1335 14.7596 7.62266 15.1363 7.91266 15.6421C8.101 15.9596 8.20516 16.3304 8.2085 16.7088C8.2085 17.2504 8.6435 17.6846 9.1785 17.6846H10.2227C10.7552 17.6846 11.1902 17.2529 11.1927 16.7204C11.1893 16.1321 11.4193 15.5729 11.8402 15.1521C12.2552 14.7371 12.8352 14.4879 13.4152 14.5046C13.7952 14.5138 14.161 14.6163 14.4835 14.7996C14.9477 15.0654 15.5402 14.9071 15.8085 14.4487L16.3618 13.5262C16.4852 13.3138 16.521 13.0471 16.4552 12.8013C16.3902 12.5554 16.2268 12.3421 16.0068 12.2163C15.4918 11.9196 15.1243 11.4413 14.9718 10.8679C14.821 10.3054 14.9035 9.69125 15.1977 9.18542C15.3893 8.85208 15.6702 8.57125 16.0068 8.37792C16.4585 8.11375 16.6168 7.52292 16.3543 7.06292C16.3435 7.04458 16.3335 7.02542 16.3252 7.00542L15.8368 6.15875C15.571 5.69625 14.9793 5.53708 14.5152 5.80125C14.0135 6.09792 13.4168 6.18292 12.8435 6.03208C12.271 5.88375 11.791 5.52125 11.4918 5.00958C11.3002 4.68958 11.196 4.31708 11.1927 3.93792C11.2002 3.65292 11.1002 3.39708 10.9185 3.20958C10.7377 3.02292 10.4835 2.91708 10.2227 2.91708ZM9.70425 7.47883C11.2601 7.47883 12.5259 8.7455 12.5259 10.3013C12.5259 11.8572 11.2601 13.1222 9.70425 13.1222C8.14841 13.1222 6.88258 11.8572 6.88258 10.3013C6.88258 8.7455 8.14841 7.47883 9.70425 7.47883ZM9.70425 8.72883C8.83758 8.72883 8.13258 9.43467 8.13258 10.3013C8.13258 11.168 8.83758 11.8722 9.70425 11.8722C10.5709 11.8722 11.2759 11.168 11.2759 10.3013C11.2759 9.43467 10.5709 8.72883 9.70425 8.72883Z" fill="#EBEEEF"/>
</svg>
