<svg width="20" height="20" viewBox="0 0 20 20" fill="none" xmlns="http://www.w3.org/2000/svg">
<path fill-rule="evenodd" clip-rule="evenodd" d="M6.80023 3.89322C6.46666 3.89322 6.15491 4.058 5.96739 4.33302L3.50882 7.93574C3.2458 8.32077 3.28139 8.83707 3.59516 9.18265C3.59508 9.18257 3.59524 9.18274 3.59516 9.18265L9.68356 15.8719C9.96423 16.1806 10.4502 16.1807 10.7309 15.8721L16.8204 9.18174C17.1342 8.8374 17.1711 8.32169 16.9079 7.93522L14.4561 4.33383C14.2685 4.05856 13.9558 3.89322 13.6226 3.89322H6.80023ZM4.93461 3.62885C5.35522 3.01196 6.05377 2.64322 6.80023 2.64322H13.6226C14.3693 2.64322 15.0686 3.01302 15.489 3.62966L17.9411 7.23168C18.5292 8.09538 18.4491 9.25015 17.7448 10.0232M17.7448 10.0232L11.6557 16.7131C10.8791 17.5671 9.53556 17.5671 8.75898 16.7131L2.67064 10.0239C1.96792 9.25057 1.8866 8.09468 2.47633 7.23115C2.47627 7.23124 2.47638 7.23107 2.47633 7.23115L4.93461 3.62885" fill="#EBEEEF"/>
</svg>
