<svg width="20" height="20" viewBox="0 0 20 20" fill="none" xmlns="http://www.w3.org/2000/svg">
<path fill-rule="evenodd" clip-rule="evenodd" d="M7.20255 3.125C6.64669 3.125 6.15971 3.59748 6.15971 4.22622C6.15971 4.85394 6.64651 5.32663 7.20255 5.32663H9.37821C9.29104 5.07915 9.17563 4.79762 9.02754 4.51918C8.60046 3.71568 8.01164 3.125 7.20255 3.125ZM10.205 5.95163C10.8186 5.83299 10.8185 5.83278 10.8185 5.83256L10.8182 5.83079L10.8175 5.82732L10.8154 5.81666L10.8079 5.78098C10.8014 5.75103 10.792 5.70897 10.7793 5.65651C10.754 5.55172 10.7155 5.4047 10.6619 5.22938C10.5552 4.88102 10.385 4.40971 10.1313 3.93244C9.64104 3.01012 8.72863 1.875 7.20255 1.875C5.91624 1.875 4.90971 2.94792 4.90971 4.22622C4.90971 5.5039 5.91643 6.57663 7.20255 6.57663H10.205C10.3915 6.57663 10.5683 6.4933 10.687 6.34942C10.8058 6.20553 10.854 6.01571 10.8185 5.83256L10.205 5.95163Z" fill="#EBEEEF"/>
<path fill-rule="evenodd" clip-rule="evenodd" d="M10.2787 3.93247C10.769 3.01014 11.6813 1.875 13.2074 1.875C14.4937 1.875 15.5002 2.94792 15.5002 4.22622C15.5002 5.5039 14.4935 6.57663 13.2074 6.57663H10.205C10.0185 6.57663 9.84179 6.4933 9.72304 6.34943C9.60438 6.20556 9.55613 6.01618 9.59146 5.83303L10.205 5.95163C9.59129 5.83303 9.59146 5.83324 9.59146 5.83303L9.59188 5.83082L9.59263 5.82735L9.59471 5.81668L9.60229 5.78101C9.60871 5.75106 9.61813 5.70899 9.63079 5.65653C9.65613 5.55175 9.69454 5.40473 9.74821 5.22942C9.85479 4.88105 10.025 4.40973 10.2787 3.93247ZM11.0319 5.32663H13.2074C13.7634 5.32663 14.2502 4.85394 14.2502 4.22622C14.2502 3.59748 13.7632 3.125 13.2074 3.125C12.3983 3.125 11.8095 3.71567 11.3825 4.51916C11.2345 4.7976 11.119 5.07914 11.0319 5.32663Z" fill="#EBEEEF"/>
<path fill-rule="evenodd" clip-rule="evenodd" d="M3.55074 6.44427C4.17988 5.72984 5.08158 5.32877 6.14412 5.32877H14.2652C15.3275 5.32877 16.2308 5.72963 16.8618 6.44333C17.4858 7.14902 17.8018 8.11181 17.8018 9.17592V14.2767C17.8018 15.3419 17.4834 16.3046 16.8587 17.0098C16.2272 17.7227 15.3245 18.1239 14.2652 18.1239H6.14412C5.08158 18.1239 4.17988 17.7228 3.55074 17.0084C2.92898 16.3024 2.6156 15.3398 2.6156 14.2767V9.17592C2.6156 8.11296 2.92898 7.15031 3.55074 6.44427ZM4.48884 7.27038C4.10723 7.70373 3.8656 8.35217 3.8656 9.17592V14.2767C3.8656 15.1005 4.10723 15.749 4.48884 16.1823C4.86308 16.6073 5.41313 16.8739 6.14412 16.8739H14.2652C14.9922 16.8739 15.5452 16.6074 15.923 16.1809C16.3076 15.7468 16.5518 15.0983 16.5518 14.2767V9.17592C16.5518 8.35333 16.3089 7.70503 15.9254 7.27132C15.549 6.84562 14.9964 6.57877 14.2652 6.57877H6.14412C5.41313 6.57877 4.86308 6.84542 4.48884 7.27038Z" fill="#EBEEEF"/>
<path fill-rule="evenodd" clip-rule="evenodd" d="M11.92 5.32877C12.2653 5.32827 12.5455 5.60769 12.546 5.95287L12.5541 11.5434C12.5544 11.7438 12.4586 11.932 12.2966 12.0498C12.1347 12.1676 11.926 12.2006 11.7355 12.1386L10.2107 11.6421L8.68571 12.1459C8.49521 12.2088 8.28608 12.1765 8.1235 12.059C7.96092 11.9414 7.86463 11.753 7.86463 11.5524V5.96999C7.86463 5.62482 8.14445 5.34499 8.48963 5.34499C8.83479 5.34499 9.11463 5.62482 9.11463 5.96999V10.6878L10.0093 10.3923C10.0725 10.3713 10.1387 10.3607 10.2053 10.3607H10.2134C10.2791 10.3607 10.3445 10.371 10.407 10.3914L11.3029 10.6831L11.296 5.95468C11.2955 5.60951 11.5749 5.32928 11.92 5.32877Z" fill="#EBEEEF"/>
</svg>
