<svg width="20" height="20" viewBox="0 0 20 20" fill="none" xmlns="http://www.w3.org/2000/svg">
<path fill-rule="evenodd" clip-rule="evenodd" d="M3.32567 3.24774C4.14627 2.36763 5.31477 1.875 6.69432 1.875H13.7232C15.106 1.875 16.2747 2.36738 17.0945 3.24811C17.9097 4.12378 18.3334 5.33249 18.3334 6.68865V13.3113C18.3334 14.6675 17.9097 15.8763 17.0945 16.7519C16.2745 17.6327 15.1055 18.125 13.7225 18.125H6.69432C5.31153 18.125 4.14268 17.6327 3.32266 16.752C2.50731 15.8763 2.08337 14.6676 2.08337 13.3113V6.68865C2.08337 5.33162 2.5096 4.123 3.32567 3.24774ZM4.23992 4.10017C3.67539 4.70565 3.33337 5.59135 3.33337 6.68865V13.3113C3.33337 14.4094 3.67403 15.295 4.23747 15.9002C4.79622 16.5002 5.62035 16.875 6.69432 16.875H13.7225C14.7969 16.875 15.621 16.5002 16.1795 15.9002C16.7429 15.2951 17.0834 14.4095 17.0834 13.3113V6.68865C17.0834 5.59047 16.7429 4.70488 16.1796 4.0998C15.621 3.49978 14.7972 3.125 13.7232 3.125H6.69432C5.62441 3.125 4.79994 3.49953 4.23992 4.10017Z" fill="#EBEEEF"/>
<path fill-rule="evenodd" clip-rule="evenodd" d="M7.82393 1.875C8.16912 1.875 8.44896 2.15483 8.44896 2.5V17.5C8.44896 17.8452 8.16912 18.125 7.82393 18.125C7.47876 18.125 7.19893 17.8452 7.19893 17.5V2.5C7.19893 2.15483 7.47876 1.875 7.82393 1.875Z" fill="#EBEEEF"/>
</svg>
