<svg width="20" height="20" viewBox="0 0 20 20" fill="none" xmlns="http://www.w3.org/2000/svg">
<path fill-rule="evenodd" clip-rule="evenodd" d="M7.09453 10.909C8.22648 10.9432 9.15771 11.8131 9.26946 12.9408C9.39529 13.9674 9.39521 15.0062 9.26929 16.0328C9.15371 17.1579 8.22516 18.025 7.09633 18.0641C6.18311 18.1453 5.26407 18.1453 4.35084 18.0641C3.22098 18.025 2.29341 17.1577 2.17785 16.0328C2.05178 15.0041 2.05188 13.9649 2.17815 12.9363C2.30146 11.8166 3.22558 10.9577 4.34842 10.9127C5.26206 10.8297 6.18051 10.8288 7.09453 10.909ZM7.00357 12.1558C6.15166 12.0799 5.29602 12.0808 4.44538 12.159C4.43287 12.1601 4.42034 12.1609 4.40778 12.1613C3.89636 12.1773 3.47522 12.5674 3.42039 13.0753L3.41939 13.0847C3.3048 14.0157 3.30472 14.9559 3.41932 15.8869L3.42094 15.9015C3.4715 16.4108 3.89281 16.8023 4.40392 16.8152C4.41737 16.8155 4.43082 16.8163 4.44422 16.8174C5.29526 16.8941 6.15191 16.8941 7.00294 16.8174C7.01634 16.8163 7.02978 16.8155 7.04324 16.8152C7.55373 16.8023 7.97568 16.4105 8.02622 15.9015L8.02786 15.8868C8.14243 14.9568 8.14243 14.0156 8.02786 13.0855L8.02597 13.0683C7.97762 12.5596 7.55602 12.1684 7.04642 12.1582C7.03211 12.1578 7.01782 12.1571 7.00357 12.1558Z" fill="#EBEEEF"/>
<path fill-rule="evenodd" clip-rule="evenodd" d="M14.6936 11.2321C15.0388 11.2321 15.3186 11.5119 15.3186 11.8571V13.8615H17.3238C17.669 13.8615 17.9488 14.1413 17.9488 14.4865C17.9488 14.8317 17.669 15.1115 17.3238 15.1115H15.3186V17.1171C15.3186 17.4623 15.0388 17.7421 14.6936 17.7421C14.3484 17.7421 14.0686 17.4623 14.0686 17.1171V15.1115H12.0638C11.7186 15.1115 11.4388 14.8317 11.4388 14.4865C11.4388 14.1413 11.7186 13.8615 12.0638 13.8615H14.0686V11.8571C14.0686 11.5119 14.3484 11.2321 14.6936 11.2321Z" fill="#EBEEEF"/>
<path fill-rule="evenodd" clip-rule="evenodd" d="M7.09486 1.93572C8.22626 1.97002 9.15771 2.83873 9.26946 3.96667C9.39529 4.99437 9.39521 6.0325 9.26921 7.06019C9.15171 8.18325 8.22421 9.04742 7.09666 9.08583C6.18321 9.16858 5.26395 9.16858 4.3505 9.08583C3.22296 9.04742 2.29545 8.18325 2.17792 7.06019C2.0518 6.03138 2.05186 4.9921 2.17811 3.9633C2.30036 2.84336 3.22405 1.98083 4.34906 1.936C5.26238 1.85476 6.18153 1.85467 7.09486 1.93572ZM7.00294 3.18248C6.15191 3.10584 5.29526 3.10584 4.44422 3.18248C4.4321 3.18358 4.41994 3.18431 4.40776 3.18469C3.89671 3.20073 3.47486 3.59205 3.42046 4.10138L3.4194 4.11137C3.30481 5.04232 3.30472 5.98269 3.41931 6.91364L3.4208 6.92688C3.47235 7.43457 3.89337 7.82449 4.40331 7.83685C4.41736 7.83719 4.43139 7.83801 4.44538 7.83929C5.29565 7.91746 6.15151 7.91746 7.00178 7.83929C7.01577 7.83801 7.02981 7.83719 7.04385 7.83685C7.55379 7.82449 7.97481 7.43457 8.02636 6.92688L8.02785 6.91364C8.14244 5.98269 8.14244 5.04231 8.02785 4.11136L8.02596 4.09413C7.97766 3.58594 7.55646 3.19515 7.04641 3.18488C7.0319 3.18458 7.0174 3.18378 7.00294 3.18248Z" fill="#EBEEEF"/>
<path fill-rule="evenodd" clip-rule="evenodd" d="M16.0646 1.93572C17.1949 1.97003 18.1273 2.8393 18.2383 3.96665C18.365 4.99436 18.3649 6.03249 18.2381 7.06018C18.1214 8.18356 17.1936 9.04742 16.0664 9.08583C15.1529 9.16858 14.2337 9.16858 13.3202 9.08583C12.1927 9.04742 11.2652 8.18325 11.1476 7.06019C11.0215 6.03138 11.0216 4.9921 11.1479 3.9633C11.2701 2.84336 12.1938 1.98083 13.3188 1.936C14.2321 1.85476 15.1513 1.85467 16.0646 1.93572ZM15.9727 3.18248C15.1216 3.10584 14.2649 3.10584 13.4139 3.18248C13.4018 3.18358 13.3896 3.18431 13.3774 3.18469C12.8664 3.20073 12.4446 3.59205 12.3902 4.10138L12.3891 4.11137C12.2745 5.04232 12.2744 5.98269 12.389 6.91364L12.3905 6.92688C12.442 7.43457 12.8631 7.82449 13.373 7.83685C13.3871 7.83719 13.4011 7.83801 13.4151 7.83929C14.2654 7.91746 15.1212 7.91746 15.9715 7.83929C15.9855 7.83801 15.9995 7.83719 16.0135 7.83685C16.5236 7.82448 16.9442 7.43457 16.9952 6.9275L16.9968 6.91313C17.1121 5.98252 17.1121 5.04248 16.9968 4.11188C16.996 4.10578 16.9954 4.09968 16.9948 4.09358C16.9471 3.58675 16.5254 3.19514 16.0161 3.18488C16.0016 3.18458 15.9871 3.18378 15.9727 3.18248Z" fill="#EBEEEF"/>
</svg>
