<svg width="20" height="20" viewBox="0 0 20 20" fill="none" xmlns="http://www.w3.org/2000/svg">
<path fill-rule="evenodd" clip-rule="evenodd" d="M3 15.8125C3 15.4811 3.26863 15.2125 3.6 15.2125H16.4C16.7314 15.2125 17 15.4811 17 15.8125C17 16.1438 16.7314 16.4125 16.4 16.4125H3.6C3.26863 16.4125 3 16.1438 3 15.8125Z" fill="#EBEEEF"/>
<path fill-rule="evenodd" clip-rule="evenodd" d="M3 4.61248C3 4.28111 3.26863 4.01248 3.6 4.01248H16.4C16.7314 4.01248 17 4.28111 17 4.61248C17 4.94386 16.7314 5.21248 16.4 5.21248H3.6C3.26863 5.21248 3 4.94386 3 4.61248Z" fill="#EBEEEF"/>
<path fill-rule="evenodd" clip-rule="evenodd" d="M3 10.2125C3 9.8811 3.26863 9.61246 3.6 9.61246H16.4C16.7314 9.61246 17 9.8811 17 10.2125C17 10.5438 16.7314 10.8125 16.4 10.8125H3.6C3.26863 10.8125 3 10.5438 3 10.2125Z" fill="#EBEEEF"/>
</svg>
