<svg width="20" height="20" viewBox="0 0 20 20" fill="none" xmlns="http://www.w3.org/2000/svg">
<path fill-rule="evenodd" clip-rule="evenodd" d="M5.73061 2.52579C6.99511 2.12121 8.49994 2.16256 9.7216 2.86841C10.6216 3.38784 11.2725 4.20434 11.6974 5.07629C11.7789 5.24386 11.9009 5.55674 11.9937 5.81457C12.0414 5.94722 12.0864 6.07895 12.1185 6.1842C12.1339 6.23484 12.1501 6.29136 12.1615 6.34329C12.1667 6.36688 12.1753 6.40846 12.1795 6.45626C12.1815 6.47894 12.1846 6.52385 12.1796 6.57897L12.1795 6.58028C12.1765 6.61355 12.1627 6.76637 12.0477 6.91332C12.0429 6.91997 12.0391 6.92397 12.0379 6.92542L12.0319 6.93262L12.0283 6.93684L12.0254 6.94024L12.0198 6.94662L10.2381 8.97711L12.0118 10.8719C12.2105 11.0843 12.2365 11.4058 12.0744 11.6474L10.4535 14.0619C10.2612 14.3485 9.87285 14.4249 9.58627 14.2325C9.29969 14.0402 9.22335 13.6519 9.41569 13.3653L10.7595 11.3633L8.93835 9.4177C8.7186 9.18303 8.71285 8.81995 8.92494 8.57828L10.8638 6.36899C10.8496 6.32789 10.8341 6.28393 10.8176 6.23809C10.7261 5.98394 10.6234 5.72637 10.5736 5.62372C10.2297 4.91782 9.73085 4.31701 9.09677 3.95102C8.23648 3.45386 7.10791 3.39771 6.11209 3.71616C3.75752 4.47479 2.82246 7.07421 3.59646 9.4947C4.22094 11.4358 5.90259 13.1953 7.51054 14.5018C8.30372 15.1462 9.05677 15.6628 9.61144 16.018C9.85294 16.1727 10.0561 16.2964 10.2077 16.3862C10.3608 16.2949 10.5665 16.1691 10.8112 16.0118C11.3695 15.6525 12.127 15.1312 12.9231 14.4834C14.5387 13.1691 16.2173 11.4109 16.819 9.49795L16.82 9.49486C17.5942 7.07672 16.6538 4.47644 14.2987 3.71665C13.6447 3.51146 12.9613 3.47426 12.3048 3.59471C11.9652 3.65701 11.6395 3.43228 11.5772 3.09276C11.5149 2.75326 11.7397 2.42753 12.0792 2.36524C12.9333 2.20852 13.8237 2.25706 14.6756 2.52482L14.6798 2.52613C17.8768 3.55571 18.9303 7.00068 18.0109 9.87453C17.2939 12.152 15.3698 14.1044 13.712 15.4531C12.8713 16.137 12.0744 16.6854 11.4874 17.0629C11.1937 17.252 10.9516 17.3988 10.7819 17.4989C10.697 17.549 10.6302 17.5875 10.5839 17.6138C10.5687 17.6224 10.5557 17.6298 10.545 17.6358C10.5394 17.6389 10.5345 17.6417 10.5303 17.644L10.5156 17.6522L10.5114 17.6545L10.5101 17.6552C10.5099 17.6553 10.5094 17.6556 10.2087 17.1077C9.90985 17.6566 9.90969 17.6565 9.90952 17.6564L9.90777 17.6555L9.9036 17.6532L9.88894 17.6451C9.87652 17.6382 9.8586 17.6283 9.8356 17.6153C9.7896 17.5893 9.7231 17.5514 9.63869 17.5019C9.47002 17.4029 9.22935 17.2578 8.93719 17.0706C8.3536 16.6968 7.56048 16.1529 6.72229 15.4719C5.06765 14.1274 3.14577 12.1761 2.40631 9.87678C1.48761 7.00451 2.53046 3.55637 5.72948 2.52615L5.73061 2.52579ZM10.2087 17.1077L9.90952 17.6564C10.0964 17.7583 10.3234 17.7576 10.5101 17.6552L10.2087 17.1077ZM11.0818 6.12039C11.0821 6.11995 11.0824 6.11966 11.0818 6.12039V6.12039Z" fill="#EBEEEF"/>
</svg>
