<svg width="20" height="20" viewBox="0 0 20 20" fill="none" xmlns="http://www.w3.org/2000/svg">
<path fill-rule="evenodd" clip-rule="evenodd" d="M3.27887 6.46216C3.59228 6.3175 3.96362 6.4543 4.10827 6.76771C6.55149 12.0611 13.8634 12.0611 16.3067 6.76771C16.4513 6.4543 16.8227 6.3175 17.1361 6.46216C17.4495 6.60682 17.5862 6.97815 17.4416 7.29155C14.5515 13.5532 5.86344 13.5532 2.97333 7.29155C2.82867 6.97815 2.96547 6.60682 3.27887 6.46216Z" fill="#EBEEEF"/>
<path fill-rule="evenodd" clip-rule="evenodd" d="M6.2944 9.47351C6.5735 9.6766 6.63512 10.0675 6.43202 10.3466L4.04952 13.6208C3.84642 13.8998 3.45552 13.9615 3.17642 13.7583C2.89731 13.5553 2.83569 13.1643 3.03878 12.8853L5.42129 9.6111C5.62439 9.33201 6.01529 9.27035 6.2944 9.47351Z" fill="#EBEEEF"/>
<path fill-rule="evenodd" clip-rule="evenodd" d="M14.127 9.47343C14.4062 9.27035 14.7971 9.33201 15.0001 9.61118L17.3817 12.8853C17.5848 13.1645 17.5232 13.5554 17.244 13.7584C16.9649 13.9615 16.574 13.8998 16.3709 13.6207L13.9892 10.3465C13.7862 10.0673 13.8479 9.67651 14.127 9.47343Z" fill="#EBEEEF"/>
<path fill-rule="evenodd" clip-rule="evenodd" d="M10.2075 10.7406C10.5527 10.7406 10.8325 11.0204 10.8325 11.3656V14.5873C10.8325 14.9324 10.5527 15.2123 10.2075 15.2123C9.86233 15.2123 9.5825 14.9324 9.5825 14.5873V11.3656C9.5825 11.0204 9.86233 10.7406 10.2075 10.7406Z" fill="#EBEEEF"/>
</svg>
