<svg width="20" height="20" viewBox="0 0 20 20" fill="none" xmlns="http://www.w3.org/2000/svg">
<path fill-rule="evenodd" clip-rule="evenodd" d="M7.38767 13.195C7.38767 12.8498 7.6675 12.57 8.01267 12.57H12.4065C12.7516 12.57 13.0315 12.8498 13.0315 13.195C13.0315 13.5402 12.7516 13.82 12.4065 13.82H8.01267C7.6675 13.82 7.38767 13.5402 7.38767 13.195Z" fill="#EBEEEF"/>
<path d="M14.5549 18.1246H5.86239C4.96276 18.1234 4.1003 17.7656 3.46417 17.1294C2.82803 16.4933 2.47017 15.6308 2.46906 14.7313V8.74958C2.46837 8.28989 2.57044 7.8359 2.76783 7.42079C2.96522 7.00568 3.25293 6.63996 3.60988 6.35038L8.25405 2.56621C8.80732 2.11897 9.49723 1.875 10.2086 1.875C10.9201 1.875 11.61 2.11897 12.1632 2.56621L16.8074 6.35038C17.1643 6.63996 17.4521 7.00568 17.6495 7.42079C17.8468 7.8359 17.9489 8.28989 17.9482 8.74958V14.7279C17.948 15.6281 17.5905 16.4914 16.9543 17.1283C16.3181 17.7651 15.4551 18.1234 14.5549 18.1246ZM10.2082 3.12454C9.78282 3.12427 9.37057 3.27153 9.04157 3.54121L4.39655 7.32538C4.18354 7.49776 4.01188 7.7157 3.89421 7.96318C3.77653 8.21064 3.71582 8.48133 3.71654 8.75542V14.7338C3.71721 15.3019 3.94324 15.8468 4.34506 16.2486C4.74687 16.6503 5.29165 16.8764 5.8599 16.877H14.5524C15.1207 16.8764 15.6654 16.6503 16.0672 16.2486C16.469 15.8468 16.6951 15.3019 16.6957 14.7338V8.74958C16.6965 8.4755 16.6357 8.20482 16.5181 7.95734C16.4004 7.70988 16.2287 7.49193 16.0157 7.31954L11.3749 3.53871C11.0452 3.27071 10.6331 3.12497 10.2082 3.12621V3.12454Z" fill="#EBEEEF"/>
</svg>
