<svg width="20" height="20" viewBox="0 0 20 20" fill="none" xmlns="http://www.w3.org/2000/svg">
<path fill-rule="evenodd" clip-rule="evenodd" d="M7.51272 6.39975C7.0708 6.39975 6.71228 6.75792 6.71228 7.20019C6.71228 7.64189 7.07103 8.00064 7.51272 8.00064C7.955 8.00064 8.31317 7.64211 8.31317 7.20019C8.31317 6.75769 7.95523 6.39975 7.51272 6.39975ZM5.46228 7.20019C5.46228 6.0671 6.38091 5.14975 7.51272 5.14975C8.64562 5.14975 9.56321 6.06733 9.56321 7.20019C9.56321 8.33201 8.64579 9.25067 7.51272 9.25067C6.38067 9.25067 5.46228 8.33224 5.46228 7.20019Z" fill="#EBEEEF"/>
<path fill-rule="evenodd" clip-rule="evenodd" d="M14.7846 10.0824L18.0753 12.4712C18.3546 12.6739 18.4167 13.0648 18.2139 13.3441C18.0111 13.6234 17.6203 13.6855 17.341 13.4828L14.05 11.0938C13.0693 10.3811 11.7283 10.4449 10.8183 11.2427L4.40914 16.9932C4.15222 17.2238 3.75707 17.2023 3.52655 16.9454C3.29603 16.6885 3.31743 16.2933 3.57435 16.0628L9.99087 10.3057C11.3385 9.12159 13.3285 9.02442 14.7846 10.0824Z" fill="#EBEEEF"/>
<path fill-rule="evenodd" clip-rule="evenodd" d="M4.3015 12.4976C3.86977 12.6853 3.49834 13.0245 3.13449 13.3588C2.88032 13.5923 2.48494 13.5756 2.2514 13.3214C2.01786 13.0673 2.03459 12.6719 2.28877 12.4383C2.30189 12.4263 2.3153 12.4139 2.329 12.4013C2.66463 12.0924 3.17165 11.6258 3.80308 11.3513C4.50297 11.0469 5.34782 10.9796 6.27463 11.4788L6.27627 11.4797C7.06127 11.9055 7.75377 12.3478 8.13977 12.6082C8.42596 12.8013 8.50137 13.1897 8.30836 13.4758C8.11532 13.762 7.72686 13.8375 7.44071 13.6444C7.07969 13.4008 6.42247 12.9811 5.6811 12.5789C5.12934 12.282 4.69038 12.3285 4.3015 12.4976Z" fill="#EBEEEF"/>
<path fill-rule="evenodd" clip-rule="evenodd" d="M4.23893 4.10139C3.67519 4.70572 3.33337 5.59016 3.33337 6.68722V13.3104C3.33337 14.4083 3.67369 15.2929 4.23627 15.897C4.79417 16.4961 5.6171 16.8702 6.68973 16.8702H13.7189C14.7917 16.8702 15.617 16.496 16.177 15.8963C16.7415 15.2919 17.0834 14.4074 17.0834 13.3104V6.68722C17.0834 5.59017 16.7415 4.70593 16.1771 4.10173C15.6171 3.50229 14.7918 3.12827 13.7189 3.12827H6.68973C5.62152 3.12827 4.79819 3.50188 4.23893 4.10139ZM3.3249 3.24873C4.14489 2.36972 5.31226 1.87827 6.68973 1.87827H13.7189C15.0999 1.87827 16.2693 2.36931 17.0905 3.24839C17.9074 4.12272 18.3334 5.33046 18.3334 6.68722V13.3104C18.3334 14.6672 17.9074 15.8751 17.0906 16.7496C16.2694 17.6288 15.1 18.1202 13.7189 18.1202H6.68973C5.30857 18.1202 4.14082 17.6288 3.32149 16.7489C2.50683 15.8741 2.08337 14.6663 2.08337 13.3104V6.68722C2.08337 5.33047 2.50939 4.12293 3.3249 3.24873Z" fill="#EBEEEF"/>
</svg>
