<svg width="20" height="20" viewBox="0 0 20 20" fill="none" xmlns="http://www.w3.org/2000/svg">
<path d="M7.41354 16.0492C7.02688 16.0493 6.64396 15.9732 6.28671 15.8253C5.92946 15.6773 5.60487 15.4605 5.33146 15.1871C5.05804 14.9137 4.84118 14.589 4.69326 14.2318C4.54534 13.8745 4.46925 13.4916 4.46936 13.105V12.21C4.47024 11.4291 4.78093 10.6803 5.33321 10.1283C5.88549 9.57609 6.63426 9.26567 7.4152 9.26501H12.931C13.3791 9.26409 13.8088 9.08617 14.1263 8.76992C14.4438 8.45367 14.6234 8.02478 14.626 7.57666V6.6683C14.627 6.44533 14.5838 6.22438 14.499 6.01812C14.4144 5.81187 14.2898 5.62433 14.1325 5.46632C13.9751 5.3083 13.7882 5.18292 13.5823 5.09731C13.3765 5.0117 13.1557 4.96757 12.9327 4.96746H12.9285L6.98686 4.98078C6.8211 4.98078 6.66215 4.91494 6.54494 4.79772C6.42773 4.68052 6.36186 4.52154 6.36186 4.35578C6.36186 4.19002 6.42773 4.0311 6.54494 3.91389C6.66215 3.79667 6.8211 3.73078 6.98686 3.73078L12.9285 3.71746C13.7096 3.73062 14.4566 4.03979 15.0185 4.58247C15.2938 4.85621 15.5116 5.18216 15.6594 5.54118C15.807 5.90022 15.8815 6.28508 15.8785 6.67328V7.58164C15.8741 8.36026 15.5621 9.10559 15.0104 9.65509C14.4587 10.2045 13.7122 10.5137 12.9335 10.515H7.41769C6.96821 10.5154 6.53725 10.6941 6.21934 11.0118C5.90143 11.3296 5.72254 11.7605 5.72188 12.21V13.105C5.72166 13.3276 5.76534 13.5481 5.85046 13.7538C5.93558 13.9595 6.06044 14.1463 6.21789 14.3037C6.37534 14.4611 6.56228 14.5858 6.76802 14.6708C6.97376 14.7559 7.19426 14.7995 7.41688 14.7992L10.6952 14.795C10.861 14.795 11.02 14.8608 11.1371 14.978C11.2544 15.0953 11.3202 15.2543 11.3202 15.42C11.3202 15.5858 11.2544 15.7447 11.1371 15.8619C11.02 15.9792 10.861 16.045 10.6952 16.045L7.41688 16.0492H7.41354Z" fill="#EBEEEF"/>
<path d="M5.13704 6.80315C4.81216 6.8042 4.49029 6.741 4.18994 6.61714C3.88961 6.49329 3.61673 6.31121 3.38703 6.08146C3.15741 5.85213 2.97525 5.57979 2.85096 5.28001C2.72668 4.98023 2.66272 4.6589 2.66272 4.33437C2.66272 4.00986 2.72668 3.68851 2.85096 3.38874C2.97525 3.08896 3.15741 2.81662 3.38703 2.5873C3.8576 2.13843 4.48297 1.88803 5.13329 1.88803C5.78362 1.88803 6.40896 2.13843 6.87954 2.5873C7.22575 2.93266 7.46159 3.3731 7.5571 3.85271C7.65262 4.33231 7.60352 4.82947 7.41604 5.28113C7.22855 5.73279 6.91113 6.11861 6.50404 6.38958C6.09696 6.66056 5.61855 6.80448 5.12954 6.80315H5.13704ZM4.27454 5.19731C4.50339 5.42617 4.81381 5.55472 5.13747 5.55472C5.46113 5.55472 5.77152 5.42617 6.00038 5.19731C6.22924 4.96845 6.35782 4.65803 6.35782 4.33437C6.35782 4.01071 6.22924 3.70035 6.00038 3.47149C5.76787 3.24963 5.45884 3.12583 5.13747 3.12583C4.81609 3.12583 4.50704 3.24963 4.27454 3.47149C4.16117 3.58479 4.07125 3.71929 4.00989 3.86736C3.94854 4.01541 3.91697 4.17411 3.91697 4.33437C3.91697 4.49465 3.94854 4.65338 4.00989 4.80145C4.07125 4.94951 4.16117 5.08401 4.27454 5.19731Z" fill="#EBEEEF"/>
<path d="M13.9525 18.1105C13.8029 18.1107 13.6547 18.0813 13.5165 18.0242C13.3782 17.967 13.2526 17.8832 13.1467 17.7775C13.0409 17.6718 12.9569 17.5463 12.8996 17.4081C12.8422 17.2699 12.8126 17.1218 12.8125 16.9722V13.8272C12.8113 13.6261 12.8639 13.4283 12.9649 13.2544C13.0658 13.0805 13.2115 12.9368 13.3867 12.838C13.5615 12.7387 13.7594 12.6873 13.9604 12.6888C14.1615 12.6904 14.3585 12.7451 14.5316 12.8473L17.1983 14.4231C17.3676 14.5237 17.5077 14.6666 17.6051 14.8378C17.7024 15.0089 17.7536 15.2024 17.7536 15.3993C17.7536 15.5962 17.7024 15.7897 17.6051 15.9608C17.5077 16.132 17.3676 16.2749 17.1983 16.3756L14.5316 17.953C14.3562 18.0564 14.1561 18.1108 13.9525 18.1105ZM14.0633 14.0222V16.7773L16.3966 15.3998L14.0633 14.0222Z" fill="#EBEEEF"/>
</svg>
