<svg width="20" height="20" viewBox="0 0 20 20" fill="none" xmlns="http://www.w3.org/2000/svg">
<path fill-rule="evenodd" clip-rule="evenodd" d="M6.13263 8.9132L4.79803 9.67745L4.46433 9.86495C4.17856 10.0255 4.17856 10.4432 4.46433 10.6038L8.99176 13.1475C9.85168 13.6305 10.8983 13.6305 11.7582 13.1475L16.2857 10.6038C16.5714 10.4432 16.5714 10.0255 16.2857 9.86495L15.9563 9.67995L14.594 8.94295L15.1888 7.84353L16.5643 8.58762L16.8979 8.7752C18.034 9.41345 18.034 11.0553 16.8979 11.6935L12.3705 14.2372C11.1303 14.934 9.61968 14.934 8.37951 14.2372L3.85206 11.6935C2.71598 11.0553 2.71598 9.41345 3.85206 8.7752L4.18351 8.58895L5.51142 7.82846L6.13263 8.9132Z" fill="#EBEEEF"/>
<path fill-rule="evenodd" clip-rule="evenodd" d="M16.1759 13.3953L14.6662 12.6275L15.2329 11.5134L16.7402 12.28L16.7416 12.2805C17.9349 12.8824 17.9721 14.5793 16.8071 15.2339L12.37 17.7267C11.1299 18.4235 9.61913 18.4235 8.37905 17.7267L4.00674 15.2702C2.82272 14.6049 2.88548 12.8725 4.11507 12.2961L5.63271 11.5658L6.17472 12.6922L4.64688 13.4274C4.33784 13.5714 4.32019 14.0125 4.61901 14.1805L8.9913 16.637C9.85122 17.12 10.8978 17.12 11.7577 16.637L16.1948 14.144C16.4883 13.9791 16.478 13.5474 16.1782 13.3965L16.1759 13.3953Z" fill="#EBEEEF"/>
<path fill-rule="evenodd" clip-rule="evenodd" d="M11.7582 3.61233C10.8983 3.12921 9.85168 3.12921 8.99176 3.61233L4.46433 6.15601C4.17855 6.31656 4.17855 6.73426 4.46433 6.89481L8.99176 9.43852C9.85168 9.92161 10.8983 9.92161 11.7582 9.43852L16.2857 6.89481C16.5714 6.73426 16.5714 6.31656 16.2857 6.15601L11.7582 3.61233ZM8.37951 2.52256C9.61968 1.82581 11.1303 1.82581 12.3705 2.52256L16.8979 5.06622C18.034 5.70451 18.034 7.34631 16.8979 7.98459L12.3705 10.5283C11.1303 11.225 9.61968 11.225 8.37951 10.5283L3.85205 7.98459C2.71598 7.34631 2.71599 5.70451 3.85205 5.06622L8.37951 2.52256Z" fill="#EBEEEF"/>
</svg>
