<svg width="20" height="20" viewBox="0 0 20 20" fill="none" xmlns="http://www.w3.org/2000/svg">
<path fill-rule="evenodd" clip-rule="evenodd" d="M11.1349 5.94532C11.3784 6.18993 11.3775 6.58565 11.133 6.8292L8.57529 9.37583H15.8321C16.1773 9.37583 16.4571 9.65567 16.4571 10.0008C16.4571 10.3461 16.1773 10.6258 15.8321 10.6258H8.57804L11.1332 13.1728C11.3776 13.4165 11.3783 13.8123 11.1346 14.0568C10.891 14.3012 10.4952 14.3018 10.2507 14.0582L6.65273 10.4717C6.52159 10.3572 6.43876 10.1887 6.43876 10.0008V9.99875C6.43881 9.83258 6.50502 9.67333 6.62277 9.55608L10.251 5.94343C10.4955 5.69987 10.8913 5.70072 11.1349 5.94532Z" fill="#EBEEEF"/>
<path fill-rule="evenodd" clip-rule="evenodd" d="M4.16663 4.99023C4.5118 4.99023 4.79163 5.27006 4.79163 5.61523V14.3859C4.79163 14.7311 4.5118 15.0109 4.16663 15.0109C3.82145 15.0109 3.54163 14.7311 3.54163 14.3859V5.61523C3.54163 5.27006 3.82145 4.99023 4.16663 4.99023Z" fill="#EBEEEF"/>
</svg>
