<svg width="20" height="20" viewBox="0 0 20 20" fill="none" xmlns="http://www.w3.org/2000/svg">
<mask id="mask0_5084_5069" style="mask-type:alpha" maskUnits="userSpaceOnUse" x="0" y="5" width="20" height="10">
<rect y="5" width="20" height="10" fill="#D9D9D9"/>
</mask>
<g mask="url(#mask0_5084_5069)">
<path d="M1.9 15C1.40294 15 0.995339 14.5961 1.04496 14.1015C1.13262 13.2278 1.34783 12.37 1.68508 11.5558C2.02233 10.7417 2.4767 9.98293 3.03249 9.30317C3.34712 8.91837 3.92096 8.92096 4.27243 9.27244C4.62391 9.62391 4.61872 10.1907 4.31381 10.5833C3.91993 11.0904 3.59482 11.649 3.34807 12.2447C3.10132 12.8404 2.93623 13.4653 2.85618 14.1023C2.79421 14.5955 2.39706 15 1.9 15Z" fill="#EBEEEF"/>
<path d="M5.95 7.9852C5.70147 7.55473 5.84749 6.99976 6.30062 6.79545C7.46033 6.27254 8.72104 6 10 6C11.279 6 12.5397 6.27254 13.6994 6.79545C14.1525 6.99976 14.2985 7.55473 14.05 7.98519C13.8015 8.41566 13.2526 8.55735 12.7945 8.36443C11.9127 7.99307 10.9628 7.8 10 7.8C9.03719 7.8 8.0873 7.99307 7.2055 8.36443C6.74741 8.55735 6.19853 8.41566 5.95 7.9852Z" fill="#535E66"/>
<path d="M18.1 15C18.5971 15 19.0047 14.5961 18.955 14.1015C18.8674 13.2278 18.6522 12.37 18.3149 11.5558C17.9777 10.7417 17.5233 9.98293 16.9675 9.30317C16.6529 8.91837 16.079 8.92096 15.7276 9.27243C15.3761 9.62391 15.3813 10.1907 15.6862 10.5833C16.0801 11.0904 16.4052 11.649 16.6519 12.2447C16.8987 12.8404 17.0638 13.4653 17.1438 14.1023C17.2058 14.5955 17.6029 15 18.1 15Z" fill="#535E66"/>
</g>
</svg>
