<svg width="20" height="20" viewBox="0 0 20 20" fill="none" xmlns="http://www.w3.org/2000/svg">
<path fill-rule="evenodd" clip-rule="evenodd" d="M5.42723 4.60595C5.77482 4.94744 5.81196 5.54312 5.51017 5.93645C4.66836 7.0336 4.16698 8.4481 4.16698 10.0116C4.16698 11.5503 4.66738 12.9651 5.51017 14.0636C5.81196 14.4568 5.77482 15.0525 5.42723 15.394C5.07964 15.7356 4.55321 15.6934 4.25143 15.3002C3.15656 13.8732 2.5 12.0236 2.5 10.0116C2.5 7.97791 3.15558 6.12803 4.25143 4.6998C4.55321 4.30648 5.07964 4.26446 5.42723 4.60595Z" fill="#EBEEEF"/>
<path fill-rule="evenodd" clip-rule="evenodd" d="M14.5729 4.60594C14.9204 4.26446 15.4468 4.30648 15.7486 4.69981C16.8445 6.12803 17.5001 7.97797 17.5001 10.0116C17.5001 12.0237 16.8435 13.8733 15.7486 15.3002C15.4468 15.6935 14.9204 15.7355 14.5729 15.394C14.2252 15.0526 14.1881 14.4569 14.4898 14.0635C15.3327 12.9651 15.8331 11.5504 15.8331 10.0116C15.8331 8.44804 15.3317 7.0336 14.4898 5.93644C14.1881 5.54313 14.2252 4.94744 14.5729 4.60594Z" fill="#EBEEEF"/>
<path fill-rule="evenodd" clip-rule="evenodd" d="M10.0001 8.37907C9.14708 8.37907 8.45658 9.10455 8.45658 9.99948C8.45658 10.8957 9.14731 11.6209 10.0001 11.6209C10.8528 11.6209 11.5435 10.8957 11.5435 9.99948C11.5435 9.10455 10.853 8.37907 10.0001 8.37907ZM6.78573 9.99948C6.78573 8.13631 8.22378 6.62498 10.0001 6.62498C11.7763 6.62498 13.2143 8.13631 13.2143 9.99948C13.2143 11.8633 11.7765 13.375 10.0001 13.375C8.22356 13.375 6.78573 11.8633 6.78573 9.99948Z" fill="#EBEEEF"/>
</svg>
