<svg width="20" height="20" viewBox="0 0 20 20" fill="none" xmlns="http://www.w3.org/2000/svg">
<path fill-rule="evenodd" clip-rule="evenodd" d="M10.3125 1.66814C12.7458 1.66814 14.7275 3.64981 14.7275 6.08564L14.7274 7.39948C16.2067 7.91432 17.2709 9.32265 17.2709 10.9755V14.5496C17.2709 16.6371 15.5734 18.3346 13.4859 18.3346H7.11837C5.03087 18.3346 3.33337 16.6371 3.33337 14.5496V10.9755C3.33337 9.32296 4.39714 7.91485 5.87605 7.39977L5.87662 6.08564C5.88162 4.88564 6.34579 3.77814 7.18329 2.94814C8.02162 2.11731 9.12829 1.63648 10.3125 1.66814ZM13.4859 8.44048H7.11837C5.72004 8.44048 4.58337 9.57714 4.58337 10.9755V14.5496C4.58337 15.948 5.72004 17.0846 7.11837 17.0846H13.4859C14.8834 17.0846 16.0209 15.948 16.0209 14.5496V10.9755C16.0209 9.57714 14.8834 8.44048 13.4859 8.44048ZM10.302 11.212C10.647 11.212 10.927 11.492 10.927 11.837V13.6878C10.927 14.0328 10.647 14.3128 10.302 14.3128C9.95696 14.3128 9.67696 14.0328 9.67696 13.6878V11.837C9.67696 11.492 9.95696 11.212 10.302 11.212ZM10.31 2.91814H10.2966C9.45246 2.91814 8.66162 3.24314 8.06412 3.83564C7.46246 4.43064 7.12996 5.22481 7.12662 6.07148L7.12587 7.19001H13.4767L13.4775 6.08564C13.4775 4.33898 12.0566 2.91814 10.31 2.91814Z" fill="#EBEEEF"/>
</svg>
