<svg width="20" height="20" viewBox="0 0 20 20" fill="none" xmlns="http://www.w3.org/2000/svg">
<path fill-rule="evenodd" clip-rule="evenodd" d="M4.61747 12.4808C4.61747 9.36317 7.14843 6.83593 10.2624 6.83593C13.3763 6.83593 15.9072 9.36317 15.9072 12.4808C15.9072 15.5985 13.3763 18.1257 10.2624 18.1257C7.14843 18.1257 4.61747 15.5985 4.61747 12.4808ZM10.2624 8.08593C7.83826 8.08593 5.86747 10.054 5.86747 12.4808C5.86747 14.9077 7.83826 16.8757 10.2624 16.8757C12.6865 16.8757 14.6572 14.9077 14.6572 12.4808C14.6572 10.054 12.6865 8.08593 10.2624 8.08593Z" fill="#EBEEEF"/>
<path fill-rule="evenodd" clip-rule="evenodd" d="M5.81566 3.13477L8.42379 7.74916C8.59371 8.04965 8.48779 8.43092 8.18726 8.60083C7.88676 8.77067 7.50547 8.66475 7.33562 8.36425L4.59216 3.51046C4.18084 2.78423 4.70656 1.88477 5.53966 1.88477H7.68594C8.08169 1.88477 8.44654 2.09957 8.63862 2.44568L11.2706 7.18826C11.4381 7.49007 11.3292 7.87052 11.0275 8.03802C10.7256 8.20552 10.3451 8.09663 10.1776 7.79483L7.59148 3.13477H5.81566Z" fill="#EBEEEF"/>
<path fill-rule="evenodd" clip-rule="evenodd" d="M12.9594 3.12532L10.9412 7.1467C10.7864 7.4552 10.4107 7.57977 10.1022 7.42495C9.79371 7.27012 9.66912 6.89451 9.82396 6.58601L11.8875 2.47442C12.0735 2.10608 12.451 1.875 12.8621 1.875H12.8641L14.8785 1.88149C15.6867 1.88377 16.2123 2.73466 15.8493 3.45877L13.377 8.38792C13.2222 8.6965 12.8467 8.82117 12.5381 8.66642C12.2295 8.51167 12.1049 8.13607 12.2596 7.82753L14.6155 3.13065L12.9594 3.12532Z" fill="#EBEEEF"/>
</svg>
