<svg width="20" height="20" viewBox="0 0 20 20" fill="none" xmlns="http://www.w3.org/2000/svg">
<path fill-rule="evenodd" clip-rule="evenodd" d="M4.61756 12.4808C4.61756 9.36317 7.14852 6.83593 10.2625 6.83593C13.3764 6.83593 15.9073 9.36317 15.9073 12.4808C15.9073 15.5985 13.3764 18.1257 10.2625 18.1257C7.14852 18.1257 4.61756 15.5985 4.61756 12.4808ZM10.2625 8.08593C7.83835 8.08593 5.86756 10.054 5.86756 12.4808C5.86756 14.9077 7.83835 16.8757 10.2625 16.8757C12.6865 16.8757 14.6573 14.9077 14.6573 12.4808C14.6573 10.054 12.6865 8.08593 10.2625 8.08593Z" fill="#EBEEEF"/>
<path fill-rule="evenodd" clip-rule="evenodd" d="M8.43104 11.5886C8.43104 10.6106 9.25204 9.86983 10.2123 9.86983C11.1669 9.86983 11.9846 10.6137 11.9846 11.5886C11.9846 12.0656 11.8148 12.5001 11.4189 12.9635C11.4097 12.9742 11.4001 12.9847 11.3903 12.9948L10.8442 13.5526H11.345C11.6902 13.5526 11.97 13.8324 11.97 14.1776C11.97 14.5227 11.6902 14.8026 11.345 14.8026H9.35763C9.10604 14.8026 8.87904 14.6518 8.78154 14.4198C8.68404 14.1879 8.73504 13.9202 8.91104 13.7404L10.4814 12.1363C10.7107 11.8634 10.7346 11.711 10.7346 11.5886C10.7346 11.357 10.5307 11.1198 10.2123 11.1198C9.88171 11.1198 9.68104 11.3601 9.68104 11.5886C9.68104 11.9337 9.40121 12.2136 9.05604 12.2136C8.71088 12.2136 8.43104 11.9337 8.43104 11.5886Z" fill="#EBEEEF"/>
<path fill-rule="evenodd" clip-rule="evenodd" d="M12.96 3.12532L10.9558 7.11889C10.8603 7.34194 10.6389 7.49823 10.3809 7.49823C10.0357 7.49823 9.75588 7.2184 9.75588 6.87323V6.8643C9.75588 6.74135 9.79138 6.62669 9.85271 6.53002L11.8881 2.47442C12.0742 2.10608 12.4516 1.875 12.8628 1.875H12.8648L14.8791 1.88149C15.6874 1.88377 16.213 2.73466 15.85 3.45877L13.3776 8.38792C13.2229 8.6965 12.8473 8.82117 12.5388 8.66642C12.2302 8.51167 12.1055 8.13607 12.2603 7.82753L14.616 3.13065L12.96 3.12532Z" fill="#EBEEEF"/>
<path fill-rule="evenodd" clip-rule="evenodd" d="M5.81738 3.13477L8.42554 7.74916C8.59538 8.04965 8.48946 8.43092 8.18898 8.60083C7.88848 8.77067 7.50719 8.66475 7.33734 8.36425L4.59387 3.51046C4.18254 2.78423 4.70827 1.88477 5.54137 1.88477H7.68765C8.08328 1.88477 8.44804 2.09943 8.64021 2.44535L10.9275 6.56116C10.9395 6.58278 10.9501 6.60481 10.9594 6.62713L11.2717 7.1871C11.4398 7.48856 11.3317 7.86924 11.0303 8.03738C10.7288 8.20552 10.3481 8.09744 10.18 7.79598L9.83538 7.17813C9.82304 7.15598 9.81221 7.1334 9.80279 7.11052L7.59326 3.13477H5.81738Z" fill="#EBEEEF"/>
</svg>
