<svg width="20" height="20" viewBox="0 0 20 20" fill="none" xmlns="http://www.w3.org/2000/svg">
<path fill-rule="evenodd" clip-rule="evenodd" d="M9.67558 3.26011C7.31825 2.66509 4.92565 4.09294 4.33068 6.45008C3.73506 8.80629 5.16337 11.2 7.52067 11.795C9.87721 12.39 12.2706 10.9621 12.8656 8.60501C13.4606 6.24852 12.0327 3.85506 9.67558 3.26011ZM3.11875 6.14395C3.88281 3.11738 6.95507 1.28421 9.9815 2.04811C13.0083 2.81208 14.8415 5.88523 14.0776 8.91092C13.3136 11.9376 10.2404 13.7709 7.21475 13.007C4.18827 12.2431 2.35396 9.16987 3.11875 6.14395Z" fill="#EBEEEF"/>
<path fill-rule="evenodd" clip-rule="evenodd" d="M4.40362 9.4294C4.73852 9.51298 4.94223 9.85223 4.85862 10.1871L3.55975 15.3899C3.55645 15.4031 3.55798 15.4095 3.55908 15.4131C3.56077 15.4185 3.56482 15.4261 3.57248 15.4334C3.58013 15.4406 3.58792 15.4443 3.59336 15.4457C3.59687 15.4466 3.60311 15.4478 3.61591 15.444C3.61588 15.444 3.61593 15.444 3.61591 15.444L6.1108 14.6907C6.56821 14.5529 7.0652 14.678 7.40248 15.0167C7.40246 15.0167 7.40249 15.0168 7.40248 15.0167L9.239 16.8614C9.24875 16.8711 9.255 16.8731 9.2585 16.874C9.264 16.8753 9.27258 16.8758 9.28267 16.873C9.29275 16.8702 9.29983 16.8655 9.30375 16.8616C9.30625 16.8591 9.31058 16.8544 9.31383 16.8412L10.6274 11.6382C10.7119 11.3036 11.0517 11.1007 11.3864 11.1852C11.7211 11.2697 11.9238 11.6095 11.8394 11.9441L10.5258 17.1471C10.2795 18.123 9.06283 18.4562 8.35317 17.7433L6.51664 15.8987C6.50528 15.8873 6.48793 15.8827 6.47186 15.8875C6.47183 15.8875 6.47188 15.8875 6.47186 15.8875L3.97719 16.6406C3.01568 16.9308 2.10396 16.0623 2.34684 15.0876L3.64584 9.8844C3.72945 9.54948 4.06872 9.34582 4.40362 9.4294Z" fill="#EBEEEF"/>
<path fill-rule="evenodd" clip-rule="evenodd" d="M16.2441 10.8454C16.579 10.7619 16.9182 10.9657 17.0018 11.3006L18.0717 15.5921C18.3033 16.4882 17.4594 17.2716 16.5914 17.005L14.5763 16.3978L13.0956 17.8936C12.8528 18.139 12.457 18.141 12.2117 17.8981C11.9664 17.6553 11.9644 17.2595 12.2072 17.0143L13.7178 15.4883L13.7188 15.4873C14.0229 15.1815 14.4705 15.0694 14.8809 15.1842L14.8929 15.1877L16.828 15.7708L15.7889 11.603C15.7054 11.2681 15.9092 10.9289 16.2441 10.8454Z" fill="#EBEEEF"/>
<path fill-rule="evenodd" clip-rule="evenodd" d="M12.4524 5.21438C12.4742 4.86989 12.7711 4.60826 13.1156 4.63001C15.1236 4.7568 16.9175 6.15798 17.4347 8.21603C17.7511 9.46318 17.5433 10.7308 16.9372 11.7655C16.3205 12.8521 15.277 13.6845 13.9753 14.0097C13.6404 14.0933 13.3011 13.8897 13.2174 13.5548C13.1338 13.2199 13.3374 12.8806 13.6723 12.7969C14.6343 12.5567 15.3995 11.9443 15.8519 11.1453L15.8567 11.1368C16.3025 10.3774 16.4571 9.44493 16.2229 8.52276L16.2225 8.52118C15.8427 7.00874 14.5216 5.97128 13.0369 5.87753C12.6924 5.85578 12.4307 5.55888 12.4524 5.21438Z" fill="#EBEEEF"/>
</svg>
