<svg width="20" height="20" viewBox="0 0 20 20" fill="none" xmlns="http://www.w3.org/2000/svg">
<path fill-rule="evenodd" clip-rule="evenodd" d="M13.0388 7.84771C13.2797 8.08724 13.2804 8.47626 13.0405 8.7166L9.51679 12.2464C9.40132 12.3621 9.2444 12.4271 9.08084 12.4271C8.91719 12.4271 8.76027 12.3621 8.6448 12.2464L6.88257 10.4815C6.64259 10.2412 6.64325 9.85222 6.88403 9.61269C7.12482 9.37317 7.51455 9.37382 7.75452 9.61417L9.08075 10.9424L12.1684 7.84935C12.4083 7.60892 12.798 7.60827 13.0388 7.84771Z" fill="#EBEEEF"/>
<path d="M10.0006 17.9943H9.97351C9.30135 17.9943 6.50108 17.9943 4.55684 17.9943H4.04966C3.8089 17.9934 3.57284 17.9274 3.36661 17.8035C3.16038 17.6795 2.99166 17.5019 2.87837 17.2899C2.76507 17.0779 2.71145 16.8392 2.72318 16.5991C2.73491 16.3591 2.81155 16.1267 2.94498 15.9267C3.12554 15.6555 3.35534 15.3238 3.54246 15.0649C3.56212 15.0365 3.57326 15.003 3.57456 14.9685C3.57588 14.9339 3.5673 14.8998 3.54984 14.87C3.24315 14.3744 2.96767 13.8604 2.72504 13.3307C2.04648 11.8426 1.83765 10.1835 2.12629 8.57399C2.41493 6.96447 3.18736 5.48072 4.34099 4.31987C5.27529 3.39498 6.42336 2.71392 7.68384 2.33682C8.94435 1.95973 10.2784 1.89819 11.5684 2.15765C12.8584 2.41712 14.0644 2.98959 15.0802 3.82454C16.096 4.65949 16.8902 5.73121 17.3927 6.9451C17.8951 8.15899 18.0904 9.47769 17.9613 10.7848C17.8323 12.0918 17.3827 13.3471 16.6525 14.4397C15.9222 15.5323 14.9337 16.4287 13.7742 17.0496C12.6146 17.6705 11.3197 17.9969 10.0039 18L10.0006 17.9943ZM9.97761 16.7655H10.0006C10.9893 16.7645 11.9657 16.5474 12.8614 16.1295C13.757 15.7116 14.5502 15.103 15.185 14.3465C16.1722 13.1466 16.7239 11.6486 16.7503 10.0961C16.7766 8.54359 16.2762 7.02784 15.3302 5.79519C14.7404 5.04101 13.9967 4.42063 13.1483 3.97521C12.3 3.52979 11.3665 3.26951 10.4097 3.21165C9.45286 3.15378 8.49469 3.29964 7.59868 3.63956C6.70268 3.97949 5.88933 4.50569 5.21259 5.18327C4.23344 6.17071 3.57902 7.43253 3.3365 8.80057C3.09399 10.1687 3.27491 11.578 3.85515 12.8409C4.08357 13.3252 4.33807 13.797 4.61758 14.2539C4.7511 14.4873 4.81544 14.7537 4.80309 15.0222C4.79074 15.2906 4.70221 15.55 4.54783 15.7702C4.36809 16.0225 4.14484 16.3436 3.97332 16.6041C3.96149 16.6197 3.95458 16.6385 3.95341 16.658C3.95224 16.6775 3.95688 16.697 3.96676 16.7139C3.99466 16.7647 4.02586 16.7508 4.04884 16.7655H4.49365C6.50109 16.7655 9.30464 16.7655 9.97761 16.7655Z" fill="#EBEEEF"/>
</svg>
