<svg width="20" height="20" viewBox="0 0 20 20" fill="none" xmlns="http://www.w3.org/2000/svg">
<path fill-rule="evenodd" clip-rule="evenodd" d="M3.1194 3.64285C3.89656 2.80908 5.00249 2.34375 6.30533 2.34375H13.833C15.1386 2.34375 16.245 2.80882 17.0219 3.64306C17.7941 4.47227 18.1941 5.61543 18.1941 6.895V13.1036C18.1941 14.3828 17.794 15.5259 17.0218 16.3553C16.2449 17.1895 15.1383 17.6548 13.8321 17.6548H6.30533C4.99918 17.6548 3.8929 17.1895 3.11633 16.3551C2.34449 15.5258 1.94495 14.3826 1.94495 13.1036V6.895C1.94495 5.61477 2.34679 4.47173 3.1194 3.64285ZM4.03378 4.49515C3.51274 5.05413 3.19495 5.87422 3.19495 6.895V13.1036C3.19495 14.1248 3.51139 14.9447 4.03137 15.5035C4.54662 16.0572 5.30804 16.4048 6.30533 16.4048H13.8321C14.8295 16.4048 15.5914 16.0571 16.107 15.5033C16.6274 14.9446 16.9441 14.1246 16.9441 13.1036V6.895C16.9441 5.87357 16.6274 5.05359 16.1071 4.49493C15.5915 3.9413 14.8299 3.59375 13.833 3.59375H6.30533C5.31204 3.59375 4.55027 3.94104 4.03378 4.49515Z" fill="#EBEEEF"/>
<path fill-rule="evenodd" clip-rule="evenodd" d="M1.94495 7.08333C1.94495 6.73816 2.22477 6.45833 2.56995 6.45833H17.57C17.9151 6.45833 18.195 6.73816 18.195 7.08333C18.195 7.42851 17.9151 7.70833 17.57 7.70833H2.56995C2.22477 7.70833 1.94495 7.42851 1.94495 7.08333Z" fill="#EBEEEF"/>
<path fill-rule="evenodd" clip-rule="evenodd" d="M8.35262 2.41097C8.66254 2.25901 9.03696 2.38707 9.18887 2.69699L11.2032 6.80518C11.3552 7.11511 11.2271 7.48955 10.9172 7.64151C10.6073 7.79347 10.2328 7.66541 10.0809 7.35548L8.06656 3.2473C7.9146 2.93737 8.04266 2.56293 8.35262 2.41097ZM12.0615 2.41097C12.3715 2.25901 12.7459 2.38707 12.8978 2.69699L14.9121 6.80518C15.064 7.11511 14.936 7.48955 14.6261 7.64151C14.3161 7.79347 13.9417 7.66541 13.7898 7.35548L11.7755 3.2473C11.6235 2.93737 11.7515 2.56293 12.0615 2.41097ZM4.75903 2.60019C5.06936 2.44907 5.44346 2.57815 5.59457 2.88849L7.50246 6.80662C7.65358 7.11696 7.52451 7.49104 7.21416 7.64217C6.90382 7.79328 6.52974 7.6642 6.37862 7.35387L4.47073 3.43573C4.31962 3.12539 4.44869 2.75131 4.75903 2.60019Z" fill="#EBEEEF"/>
</svg>
