<svg width="20" height="20" viewBox="0 0 20 20" fill="none" xmlns="http://www.w3.org/2000/svg">
<path fill-rule="evenodd" clip-rule="evenodd" d="M3 9.5C3 5.35838 6.35755 2 10.5 2C14.6425 2 18 5.35838 18 9.5C18 13.6424 14.6424 17 10.5 17C6.35759 17 3 13.6424 3 9.5ZM10.5 3.15385C6.99488 3.15385 4.15385 5.99555 4.15385 9.5C4.15385 13.0052 6.99484 15.8462 10.5 15.8462C14.0052 15.8462 16.8462 13.0052 16.8462 9.5C16.8462 5.99555 14.0052 3.15385 10.5 3.15385Z" fill="#EBEEEF"/>
<path fill-rule="evenodd" clip-rule="evenodd" d="M7.99885 6.85327C8.41792 6.61519 8.91808 6.6158 9.38646 6.80204L9.39092 6.80379C10.256 7.15602 11.0386 7.67167 11.6664 8.24523L11.6698 8.24838C12.0376 8.59 12.254 9.03231 12.2515 9.50923C12.2492 9.98485 12.0295 10.4208 11.6678 10.752C11.0021 11.3678 10.2392 11.8438 9.39608 12.1926C8.952 12.3802 8.45894 12.3825 8.0414 12.1615C7.61505 11.9358 7.33638 11.5132 7.26902 10.9953L7.26768 10.985C7.16323 10.0505 7.16157 9.05569 7.26719 8.02192L7.2686 8.00954C7.32918 7.52167 7.57774 7.09251 7.99885 6.85327ZM8.41435 8.14623C8.31735 9.10008 8.32006 10.008 8.41383 10.851C8.4385 11.032 8.51828 11.1084 8.58127 11.1417C8.65275 11.1795 8.779 11.201 8.948 11.1293L8.953 11.1272C9.68008 10.8267 10.326 10.4217 10.8853 9.904L10.8879 9.90162C11.0494 9.754 11.0972 9.61115 11.0977 9.50331C11.0983 9.39662 11.053 9.25085 10.8862 9.09531C10.3532 8.60877 9.68692 8.17054 8.95823 7.87345C8.74827 7.79052 8.62482 7.82469 8.56881 7.85652C8.51518 7.88698 8.43841 7.96292 8.41435 8.14623Z" fill="#EBEEEF"/>
<path fill-rule="evenodd" clip-rule="evenodd" d="M13.2344 6.6229C13.553 6.6229 13.8113 6.88119 13.8113 7.19982V11.7998C13.8113 12.1184 13.553 12.3767 13.2344 12.3767C12.9158 12.3767 12.6575 12.1184 12.6575 11.7998V7.19982C12.6575 6.88119 12.9158 6.6229 13.2344 6.6229Z" fill="#EBEEEF"/>
</svg>
