<svg width="20" height="20" viewBox="0 0 20 20" fill="none" xmlns="http://www.w3.org/2000/svg">
<path fill-rule="evenodd" clip-rule="evenodd" d="M8.60352 16.755C9.03519 17.2358 9.58936 17.5 10.1644 17.5H10.1652C10.7427 17.5 11.2994 17.2358 11.7319 16.7542C11.9635 16.4983 12.3585 16.4775 12.6144 16.7083C12.871 16.9392 12.8919 17.335 12.661 17.5908C11.9877 18.3383 11.1019 18.75 10.1652 18.75H10.1635C9.22935 18.7492 8.34519 18.3375 7.67436 17.59C7.44352 17.3342 7.46435 16.9383 7.72102 16.7083C7.97769 16.4767 8.37269 16.4975 8.60352 16.755ZM10.2059 0.833336C13.91 0.833336 16.3984 3.71834 16.3984 6.4125C16.3984 7.79834 16.7509 8.38584 17.125 9.00917C17.495 9.62417 17.9142 10.3225 17.9142 11.6425C17.6234 15.015 14.1025 15.29 10.2059 15.29C6.30919 15.29 2.78752 15.015 2.50001 11.6958C2.49752 10.3225 2.91669 9.62417 3.28669 9.00917L3.41731 8.7893C3.73892 8.23655 4.01336 7.6353 4.01336 6.4125C4.01336 3.71834 6.50169 0.833336 10.2059 0.833336ZM10.2059 2.08334C7.29336 2.08334 5.26336 4.365 5.26336 6.4125C5.26336 8.145 4.78252 8.94584 4.35752 9.6525C4.01669 10.22 3.74752 10.6683 3.74752 11.6425C3.88669 13.2142 4.92419 14.04 10.2059 14.04C15.4584 14.04 16.5284 13.1775 16.6667 11.5883C16.6642 10.6683 16.395 10.22 16.0542 9.6525C15.6292 8.94584 15.1484 8.145 15.1484 6.4125C15.1484 4.365 13.1184 2.08334 10.2059 2.08334Z" fill="#EBEEEF"/>
</svg>
