<svg width="20" height="20" viewBox="0 0 20 20" fill="none" xmlns="http://www.w3.org/2000/svg">
<path fill-rule="evenodd" clip-rule="evenodd" d="M7.15801 2.91667H5.22968C4.54051 2.91667 3.97968 3.4775 3.97968 4.16667V15.8333C3.97968 16.5225 4.54051 17.0833 5.22968 17.0833H7.15801C7.84718 17.0833 8.40798 16.5225 8.40798 15.8333V4.16667C8.40798 3.4775 7.84718 2.91667 7.15801 2.91667Z" fill="#EBEEEF"/>
<path fill-rule="evenodd" clip-rule="evenodd" d="M14.7702 2.91667H12.8419C12.1527 2.91667 11.5919 3.4775 11.5919 4.16667V15.8333C11.5919 16.5225 12.1527 17.0833 12.8419 17.0833H14.7702C15.4594 17.0833 16.0202 16.5225 16.0202 15.8333V4.16667C16.0202 3.4775 15.4594 2.91667 14.7702 2.91667Z" fill="#EBEEEF"/>
</svg>
