<svg width="20" height="20" viewBox="0 0 20 20" fill="none" xmlns="http://www.w3.org/2000/svg">
<path d="M13.1871 9.64808L12.2468 15.3322C12.1778 15.7181 11.8508 15.9926 11.465 15.9871C10.0705 15.9447 6.7846 15.9557 4.3174 16.6372C4.02723 16.7164 3.75196 16.6215 3.56688 16.4364C3.3771 16.2467 3.28221 15.9714 3.36141 15.6812C4.04762 13.2195 4.05311 9.92808 4.01625 8.53842C4.00606 8.14786 4.28054 7.82005 4.66638 7.75182L10.3505 6.81152M7.41968 12.5798L3.56124 16.4382M9.90313 4.93658L10.4482 3.9508C10.8332 3.2544 11.7782 3.12108 12.3405 3.68416L16.3166 7.66023C16.8797 8.22253 16.7464 9.1675 16.05 9.55258L15.0642 10.0977C14.5191 10.3996 13.8392 10.3039 13.3985 9.86317L10.1384 6.6023C9.69688 6.16156 9.60121 5.48242 9.90313 4.93658ZM9.15471 10.846C9.63387 11.3244 9.63387 12.1016 9.15471 12.5808C8.67554 13.0599 7.89913 13.0599 7.41996 12.5808C6.9408 12.1016 6.9408 11.3244 7.41996 10.846C7.89913 10.3668 8.67554 10.3668 9.15471 10.846Z" stroke="#EBEEEF" stroke-width="1.25" stroke-linecap="round" stroke-linejoin="round"/>
</svg>
