<svg width="20" height="20" viewBox="0 0 20 20" fill="none" xmlns="http://www.w3.org/2000/svg">
<path d="M10.1923 5C10.5108 5 10.7692 5.25832 10.7692 5.57692V9.61538H14.8077C15.1262 9.61538 15.3846 9.87369 15.3846 10.1923C15.3846 10.3666 15.3072 10.5228 15.1852 10.6285C15.0842 10.7162 14.9519 10.7692 14.8077 10.7692H10.7692V14.8077C10.7692 15.1263 10.5108 15.3846 10.1923 15.3846C9.87377 15.3846 9.61538 15.1263 9.61538 14.8077V10.7692H5.57692C5.25842 10.7692 5 10.5109 5 10.1923C5 9.87369 5.25842 9.61538 5.57692 9.61538H9.61538V5.57692C9.61538 5.25832 9.87377 5 10.1923 5Z" fill="#EBEEEF"/>
</svg>
