<svg width="20" height="20" viewBox="0 0 20 20" fill="none" xmlns="http://www.w3.org/2000/svg">
<path fill-rule="evenodd" clip-rule="evenodd" d="M2.08301 6.20914C2.08301 4.13206 3.76634 2.44873 5.84342 2.44873H13.015C14.8364 2.44873 16.3535 3.74359 16.7007 5.46185C16.769 5.80019 16.5502 6.12989 16.2118 6.19825C15.8734 6.26661 15.5438 6.04774 15.4754 5.7094C15.2437 4.56225 14.2293 3.69873 13.015 3.69873H5.84342C4.4567 3.69873 3.33301 4.82242 3.33301 6.20914V10.4546C3.33301 11.8412 4.4567 12.965 5.84342 12.965H9.04534C9.39051 12.965 9.67034 13.2447 9.67034 13.59C9.67034 13.9352 9.39051 14.215 9.04534 14.215H5.84342C3.76634 14.215 2.08301 12.5316 2.08301 10.4546V6.20914Z" fill="#EBEEEF"/>
<path fill-rule="evenodd" clip-rule="evenodd" d="M4.92969 16.6342C4.92969 16.289 5.2095 16.0092 5.55469 16.0092H9.599C9.94417 16.0092 10.224 16.289 10.224 16.6342C10.224 16.9794 9.94417 17.2592 9.599 17.2592H5.55469C5.2095 17.2592 4.92969 16.9794 4.92969 16.6342Z" fill="#EBEEEF"/>
<path fill-rule="evenodd" clip-rule="evenodd" d="M7.85748 12.9697C8.19818 13.0251 8.42942 13.3462 8.37392 13.6869L7.87772 16.7348C7.82225 17.0755 7.50109 17.3067 7.1604 17.2512C6.81971 17.1957 6.58849 16.8746 6.64396 16.5339L7.14018 13.4861C7.19564 13.1454 7.51679 12.9142 7.85748 12.9697Z" fill="#EBEEEF"/>
<path fill-rule="evenodd" clip-rule="evenodd" d="M10.6982 9.72717C10.6982 8.38234 11.7897 7.29085 13.1346 7.29085H15.8962C17.2414 7.29085 18.3315 8.38167 18.3326 9.72667V15.1158C18.3326 16.4616 17.2419 17.5523 15.8962 17.5523H13.1354C11.7897 17.5523 10.6991 16.4617 10.6991 15.1159L10.6982 9.72717ZM11.9482 9.72717L11.9491 15.1158C11.9491 15.7712 12.4801 16.3023 13.1354 16.3023H15.8962C16.5516 16.3023 17.0826 15.7713 17.0826 15.1158V9.72775C17.0817 9.07192 16.5503 8.54084 15.8962 8.54084H13.1346C12.4801 8.54084 11.9482 9.07267 11.9482 9.72717Z" fill="#EBEEEF"/>
<path fill-rule="evenodd" clip-rule="evenodd" d="M14.5166 14.1024C14.8618 14.1024 15.1416 14.3821 15.1416 14.7274V14.7357C15.1416 15.0809 14.8618 15.3607 14.5166 15.3607C14.1714 15.3607 13.8916 15.0809 13.8916 14.7357V14.7274C13.8916 14.3821 14.1714 14.1024 14.5166 14.1024Z" fill="#EBEEEF"/>
</svg>
