<svg width="20" height="20" viewBox="0 0 20 20" fill="none" xmlns="http://www.w3.org/2000/svg">
<path fill-rule="evenodd" clip-rule="evenodd" d="M10.2084 3.125C6.41112 3.125 3.33337 6.20274 3.33337 10C3.33337 13.7965 6.41117 16.875 10.2084 16.875C14.0056 16.875 17.0834 13.7965 17.0834 10C17.0834 6.20274 14.0056 3.125 10.2084 3.125ZM2.08337 10C2.08337 5.51239 5.72077 1.875 10.2084 1.875C14.696 1.875 18.3334 5.51239 18.3334 10C18.3334 14.4867 14.696 18.125 10.2084 18.125C5.72072 18.125 2.08337 14.4867 2.08337 10Z" fill="#EBEEEF"/>
<path fill-rule="evenodd" clip-rule="evenodd" d="M10.1644 12.8719C10.5096 12.8719 10.7894 13.1518 10.7894 13.4969V13.5204C10.7894 13.8656 10.5096 14.1454 10.1644 14.1454C9.81926 14.1454 9.53943 13.8656 9.53943 13.5204V13.4969C9.53943 13.1518 9.81926 12.8719 10.1644 12.8719Z" fill="#EBEEEF"/>
<path fill-rule="evenodd" clip-rule="evenodd" d="M7.75232 8.49442C7.75232 7.04494 8.91838 5.87891 10.3679 5.87891C11.8089 5.87891 12.9826 7.04378 12.9826 8.49442C12.9826 9.51633 12.3975 10.2389 11.6369 10.6595C11.5895 10.6865 11.5444 10.7119 11.5011 10.7362C11.2807 10.8602 11.1117 10.9553 10.9735 11.0797C10.8377 11.2018 10.7866 11.3053 10.7885 11.4497C10.793 11.7949 10.5169 12.0784 10.1717 12.0829C9.82655 12.0874 9.54313 11.8113 9.53863 11.4662C9.53079 10.8679 9.81246 10.4427 10.1375 10.1504C10.3894 9.92367 10.7024 9.7495 10.9198 9.6285C10.9567 9.608 10.9909 9.589 11.0215 9.5715L11.0295 9.567C11.4911 9.31258 11.7326 8.96092 11.7326 8.49442C11.7326 7.73646 11.1209 7.12891 10.3679 7.12891C9.60871 7.12891 9.00229 7.7353 9.00229 8.49442C9.00229 8.83958 8.72246 9.11942 8.37729 9.11942C8.03214 9.11942 7.75232 8.83958 7.75232 8.49442Z" fill="#EBEEEF"/>
</svg>
