<svg width="20" height="20" viewBox="0 0 20 20" fill="none" xmlns="http://www.w3.org/2000/svg">
<path fill-rule="evenodd" clip-rule="evenodd" d="M2.52356 13.3827C2.52356 12.3864 3.33122 11.5788 4.32747 11.5788H7.85527C8.20044 11.5788 8.48029 11.8586 8.48029 12.2038C8.48029 12.5489 8.20044 12.8288 7.85527 12.8288H4.32747C4.02157 12.8288 3.77356 13.0768 3.77356 13.3827V16.321C3.77356 16.6245 4.024 16.8749 4.32747 16.8749H16.0898C16.3932 16.8749 16.6437 16.6245 16.6437 16.321V14.9516C16.6437 14.6457 16.3957 14.3977 16.0898 14.3977H12.562C12.2168 14.3977 11.937 14.1178 11.937 13.7727C11.937 13.4275 12.2168 13.1477 12.562 13.1477H16.0898C17.086 13.1477 17.8937 13.9553 17.8937 14.9516V16.321C17.8937 17.3148 17.0836 18.1249 16.0898 18.1249H4.32747C3.33365 18.1249 2.52356 17.3148 2.52356 16.321V13.3827Z" fill="#EBEEEF"/>
<path fill-rule="evenodd" clip-rule="evenodd" d="M10.2071 3.4452L10.5124 4.05569L10.5132 4.05739C10.6596 4.348 10.9382 4.54526 11.2565 4.59103L11.9248 4.68709L11.449 5.1443C11.21 5.3715 11.1048 5.70133 11.1602 6.02037L11.2751 6.67885L10.6645 6.36251C10.3779 6.21396 10.0373 6.21375 9.75079 6.36236L9.13896 6.67953L9.25388 6.0218C9.30946 5.7013 9.20304 5.37164 8.96563 5.14483L8.48846 4.6871L9.15521 4.59127C9.47854 4.54613 9.75546 4.34456 9.90013 4.05739L10.2071 3.4452ZM10.6637 1.98664C10.1773 1.73387 9.57813 1.92509 9.32729 2.41129L8.84496 3.37302L7.77419 3.52691C7.55408 3.55708 7.35306 3.66151 7.20239 3.81654L7.19978 3.81924C6.8251 4.20944 6.83469 4.83038 7.22535 5.20765L7.22688 5.20912L7.99772 5.94849L7.81573 6.99051L7.8139 7.00155C7.78128 7.21026 7.81548 7.42826 7.9184 7.62066L8.46954 7.32587L7.91672 7.61749C8.17153 8.10052 8.76854 8.28222 9.24846 8.03076L10.2075 7.53356L11.1651 8.02964L11.1665 8.03034C11.3504 8.12623 11.5668 8.16572 11.783 8.12994C12.3201 8.04273 12.6859 7.53749 12.5999 6.99939L12.4165 5.94823L13.1862 5.2085L13.1869 5.20789C13.3488 5.05247 13.4507 4.84737 13.4795 4.62944C13.5506 4.09198 13.1738 3.60016 12.6391 3.5269L11.5685 3.37305L11.0912 2.41831L11.0871 2.41032C10.993 2.22855 10.8454 2.08091 10.6637 1.98664Z" fill="#EBEEEF"/>
<path fill-rule="evenodd" clip-rule="evenodd" d="M9.03371 10.2799C8.73021 10.2799 8.47979 10.5304 8.47979 10.8338V17.4995C8.47979 17.8447 8.19995 18.1245 7.85478 18.1245C7.5096 18.1245 7.22978 17.8447 7.22978 17.4995V10.8338C7.22978 9.84 8.03986 9.02992 9.03371 9.02992H11.3825C12.3788 9.02992 13.1865 9.83758 13.1865 10.8338V17.4995C13.1865 17.8447 12.9066 18.1245 12.5615 18.1245C12.2163 18.1245 11.9365 17.8447 11.9365 17.4995V10.8338C11.9365 10.528 11.6885 10.2799 11.3825 10.2799H9.03371Z" fill="#EBEEEF"/>
</svg>
