<svg width="20" height="20" viewBox="0 0 20 20" fill="none" xmlns="http://www.w3.org/2000/svg">
<path d="M9.29486 17.736C9.16427 18.0567 8.79969 18.2097 8.47986 18.0778L6.66791 17.3388C6.4372 17.2445 6.17719 17.251 5.95136 17.3584L5.31008 17.666C4.21918 18.1885 2.95819 17.3926 2.95819 16.1833L2.96715 5.81868C2.96715 4.68262 3.28453 3.68327 3.96283 2.96224C4.24847 2.65951 4.58539 2.42025 4.96544 2.24447C5.494 1.9987 6.10557 1.875 6.77777 1.875H12.9513C14.1089 1.875 15.0818 2.23796 15.7605 2.96549C16.4331 3.68652 16.7424 4.68587 16.7424 5.81868V9.3945C16.7424 9.73958 16.4624 10.0195 16.1174 10.0195C15.7719 10.0195 15.4924 9.73958 15.4924 9.3945V5.81868C15.4924 4.90398 15.2442 4.24317 14.8466 3.81673C14.4548 3.39681 13.8444 3.125 12.9513 3.125H6.77777C5.88747 3.125 5.27062 3.39681 4.87267 3.81998C4.71397 3.98926 4.57847 4.19433 4.47268 4.43685C4.30992 4.80794 4.21715 5.26692 4.21715 5.82032L4.20819 16.1849C4.20819 16.4746 4.51052 16.6634 4.77053 16.5381L5.41262 16.2321L5.41343 16.2305C5.95624 15.9717 6.58287 15.9537 7.14073 16.1817L8.95269 16.9206C9.27211 17.0524 9.42544 17.417 9.29486 17.736Z" fill="#EBEEEF"/>
<path d="M12.2303 7.50651C12.2303 7.85157 11.9507 8.13151 11.6053 8.13151H7.46462C7.11916 8.13151 6.83962 7.85157 6.83962 7.50651C6.83962 7.16146 7.11916 6.88151 7.46462 6.88151H11.6053C11.9507 6.88151 12.2303 7.16146 12.2303 7.50651Z" fill="#EBEEEF"/>
<path d="M9.76077 10.7227C9.76077 11.0677 9.48085 11.3477 9.13577 11.3477H7.46462C7.11916 11.3477 6.83962 11.0677 6.83962 10.7227C6.83962 10.5582 6.9035 10.4085 7.00849 10.2962C7.12242 10.1742 7.28436 10.0977 7.46462 10.0977H9.13577C9.48085 10.0977 9.76077 10.3776 9.76077 10.7227Z" fill="#EBEEEF"/>
<path d="M15.2153 15.5273C15.0383 15.8236 14.6545 15.9213 14.3584 15.7438L13.379 15.1595C13.1897 15.0472 13.0742 14.8438 13.0742 14.624V13.3643C13.0742 13.1754 13.1576 13.0062 13.2895 12.8923C13.3993 12.7963 13.5425 12.7393 13.6992 12.7393C14.0442 12.7393 14.3242 13.0176 14.3242 13.3643V14.2692L14.9988 14.6713C15.2955 14.847 15.3923 15.2311 15.2153 15.5273Z" fill="#EBEEEF"/>
<path fill-rule="evenodd" clip-rule="evenodd" d="M17.4394 14.4027C17.4394 16.4567 15.7731 18.125 13.717 18.125C11.6618 18.125 9.99554 16.4567 9.99554 14.4027C9.99554 12.347 11.6618 10.6803 13.717 10.6803C15.7731 10.6803 17.4394 12.347 17.4394 14.4027ZM13.717 16.875C15.0826 16.875 16.1894 15.7683 16.1894 14.4027C16.1894 13.0371 15.0826 11.9303 13.717 11.9303C12.3527 11.9303 11.2455 13.0371 11.2455 14.4027C11.2455 15.7683 12.3527 16.875 13.717 16.875Z" fill="#EBEEEF"/>
</svg>
