<svg width="20" height="20" viewBox="0 0 20 20" fill="none" xmlns="http://www.w3.org/2000/svg">
<path fill-rule="evenodd" clip-rule="evenodd" d="M17.5698 12.2201C17.915 12.2201 18.1948 12.4998 18.1948 12.8451V14.9377C18.1948 16.6978 16.7675 18.1248 15.0069 18.1248H12.915C12.5698 18.1248 12.29 17.845 12.29 17.4998C12.29 17.1547 12.5698 16.8748 12.915 16.8748H15.0069C16.0775 16.8748 16.9448 16.0072 16.9448 14.9377V12.8451C16.9448 12.4998 17.2246 12.2201 17.5698 12.2201Z" fill="#EBEEEF"/>
<path fill-rule="evenodd" clip-rule="evenodd" d="M2.56995 12.2201C2.91513 12.2201 3.19495 12.4998 3.19495 12.8451V14.9377C3.19495 16.0072 4.06228 16.8748 5.13289 16.8748H7.22475C7.56992 16.8748 7.84975 17.1547 7.84975 17.4998C7.84975 17.845 7.56992 18.1248 7.22475 18.1248H5.13289C3.37218 18.1248 1.94495 16.6978 1.94495 14.9377V12.8451C1.94495 12.4998 2.22477 12.2201 2.56995 12.2201Z" fill="#EBEEEF"/>
<path fill-rule="evenodd" clip-rule="evenodd" d="M5.13289 3.125C4.0624 3.125 3.19495 3.99246 3.19495 5.06293V7.15561C3.19495 7.50078 2.91513 7.78061 2.56995 7.78061C2.22477 7.78061 1.94495 7.50078 1.94495 7.15561V5.06293C1.94495 3.3021 3.37205 1.875 5.13289 1.875H7.22475C7.56992 1.875 7.84975 2.15483 7.84975 2.5C7.84975 2.84517 7.56992 3.125 7.22475 3.125H5.13289Z" fill="#EBEEEF"/>
<path fill-rule="evenodd" clip-rule="evenodd" d="M12.29 2.5C12.29 2.15483 12.5698 1.875 12.915 1.875H15.0069C16.7677 1.875 18.1948 3.3021 18.1948 5.06293V7.15561C18.1948 7.50078 17.915 7.78061 17.5698 7.78061C17.2246 7.78061 16.9448 7.50078 16.9448 7.15561V5.06293C16.9448 3.99246 16.0774 3.125 15.0069 3.125H12.915C12.5698 3.125 12.29 2.84517 12.29 2.5Z" fill="#EBEEEF"/>
</svg>
