<svg width="20" height="20" viewBox="0 0 20 20" fill="none" xmlns="http://www.w3.org/2000/svg">
<path fill-rule="evenodd" clip-rule="evenodd" d="M14.5762 3.23077C13.6632 3.23077 12.9237 3.94677 12.9237 4.83074C12.9237 5.71472 13.6632 6.43072 14.5762 6.43072C15.4893 6.43072 16.2288 5.71472 16.2288 4.83074C16.2288 3.94677 15.4893 3.23077 14.5762 3.23077ZM11.6524 4.83074C11.6524 3.26704 12.9611 2 14.5762 2C16.1913 2 17.5 3.26704 17.5 4.83074C17.5 6.39445 16.1913 7.66149 14.5762 7.66149C12.9611 7.66149 11.6524 6.39445 11.6524 4.83074ZM5.4238 8.39967C4.51077 8.39967 3.77123 9.11565 3.77123 9.99959C3.77123 10.8836 4.51077 11.5996 5.4238 11.5996C6.33683 11.5996 7.07637 10.8836 7.07637 9.99959C7.07637 9.11565 6.33683 8.39967 5.4238 8.39967ZM2.5 9.99959C2.5 8.43594 3.80869 7.16886 5.4238 7.16886C7.03891 7.16886 8.34759 8.43594 8.34759 9.99959C8.34759 11.5633 7.03891 12.8304 5.4238 12.8304C3.80869 12.8304 2.5 11.5633 2.5 9.99959ZM14.5762 13.5693C13.6632 13.5693 12.9237 14.2853 12.9237 15.1692C12.9237 16.0526 13.6634 16.7692 14.5762 16.7692C15.4891 16.7692 16.2288 16.0526 16.2288 15.1692C16.2288 14.2853 15.4893 13.5693 14.5762 13.5693ZM11.6524 15.1692C11.6524 13.6056 12.9611 12.3385 14.5762 12.3385C16.1913 12.3385 17.5 13.6056 17.5 15.1692C17.5 16.732 16.1915 18 14.5762 18C12.961 18 11.6524 16.732 11.6524 15.1692Z" fill="#EBEEEF"/>
<path fill-rule="evenodd" clip-rule="evenodd" d="M13.1492 5.63549C13.3261 5.92905 13.2237 6.30586 12.9205 6.47714L7.71825 9.41579C7.41508 9.58704 7.02587 9.48792 6.84897 9.19442C6.67206 8.90084 6.77445 8.52398 7.07765 8.35273L12.2798 5.41409C12.5831 5.24281 12.9723 5.34193 13.1492 5.63549ZM6.84961 10.8046C7.02636 10.511 7.41552 10.4117 7.71884 10.5828L12.9284 13.5222C13.2317 13.6934 13.3344 14.0702 13.1576 14.3638C12.9808 14.6574 12.5916 14.7568 12.2884 14.5856L7.07873 11.6462C6.77544 11.475 6.67286 11.0983 6.84961 10.8046Z" fill="#EBEEEF"/>
</svg>
