<svg width="20" height="20" viewBox="0 0 20 20" fill="none" xmlns="http://www.w3.org/2000/svg">
<path fill-rule="evenodd" clip-rule="evenodd" d="M9.70328 5.73318C9.95336 5.73322 10.1749 5.89436 10.252 6.13224C10.7622 7.70671 11.9976 8.94161 13.5725 9.45261C13.8104 9.52984 13.9714 9.75146 13.9714 10.0015C13.9714 10.2516 13.8102 10.4732 13.5724 10.5502C11.9976 11.0605 10.7623 12.2953 10.252 13.8705C10.1749 14.1084 9.95336 14.2696 9.70328 14.2696C9.45321 14.2697 9.23151 14.1086 9.15436 13.8707C8.64336 12.2952 7.40855 11.0605 5.83399 10.5502C5.5961 10.4732 5.43497 10.2516 5.43492 10.0015C5.43487 9.75146 5.59592 9.52984 5.83377 9.45261C7.40857 8.94161 8.64336 7.70682 9.15444 6.13202C9.23159 5.89418 9.45321 5.73312 9.70328 5.73318ZM7.41808 10.0012C8.36451 10.5517 9.15236 11.3396 9.70297 12.2862C10.2536 11.3395 11.0417 10.5517 11.9881 10.0012C11.0417 9.45054 10.2536 8.66269 9.70297 7.71626C9.15236 8.66261 8.36444 9.45054 7.41808 10.0012Z" fill="#EBEEEF"/>
<path fill-rule="evenodd" clip-rule="evenodd" d="M14.1907 5.51259C11.7124 3.03426 7.6942 3.03426 5.21584 5.51259C2.73751 7.99091 2.73751 12.0091 5.21584 14.4874C7.6942 16.9658 11.7124 16.9658 14.1907 14.4874C16.669 12.0091 16.669 7.99091 14.1907 5.51259ZM4.39995 4.6967C7.32888 1.76777 12.0776 1.76777 15.0065 4.6967C17.9355 7.62563 17.9355 12.3744 15.0065 15.3033C12.0776 18.2322 7.32888 18.2322 4.39995 15.3033C1.47101 12.3744 1.47101 7.62563 4.39995 4.6967Z" fill="#EBEEEF"/>
</svg>
