<svg width="20" height="20" viewBox="0 0 20 20" fill="none" xmlns="http://www.w3.org/2000/svg">
<path fill-rule="evenodd" clip-rule="evenodd" d="M3.34955 3.76721C4.10685 2.95475 5.18532 2.5 6.45875 2.5H12.947C14.2234 2.5 15.3024 2.95449 16.0593 3.76742C16.8119 4.5757 17.2033 5.69145 17.2033 6.94337V13.0566C17.2033 14.3085 16.8119 15.4243 16.0592 16.2326C15.3021 17.0455 14.223 17.5 12.9462 17.5H6.45875C5.18232 17.5 4.10354 17.0455 3.34676 16.2325C2.59434 15.4242 2.20325 14.3085 2.20325 13.0566V6.94337C2.20325 5.69081 2.59645 4.57516 3.34955 3.76721ZM4.19359 4.55394C3.67266 5.11282 3.35709 5.93039 3.35709 6.94337V13.0566C3.35709 14.0703 3.67141 14.8878 4.19132 15.4463C4.7069 16.0002 5.46741 16.3462 6.45875 16.3462H12.9462C13.938 16.3462 14.699 16.0002 15.2148 15.4462C15.735 14.8877 16.0494 14.0702 16.0494 13.0566V6.94337C16.0494 5.92975 15.735 5.11228 15.2148 4.55372C14.699 3.99981 13.9384 3.65385 12.947 3.65385H6.45875C5.47115 3.65385 4.71033 3.99956 4.19359 4.55394Z" fill="#EBEEEF"/>
<path fill-rule="evenodd" clip-rule="evenodd" d="M9.70328 5.73318C9.95336 5.73322 10.1749 5.89436 10.252 6.13224C10.7622 7.70672 11.9976 8.94162 13.5725 9.45262C13.8104 9.52985 13.9714 9.75146 13.9714 10.0015C13.9714 10.2516 13.8102 10.4732 13.5724 10.5502C11.9976 11.0605 10.7623 12.2953 10.252 13.8705C10.1749 14.1084 9.95336 14.2696 9.70328 14.2696C9.4532 14.2697 9.23151 14.1086 9.15436 13.8707C8.64336 12.2952 7.40855 11.0605 5.83399 10.5502C5.5961 10.4732 5.43496 10.2516 5.43492 10.0015C5.43487 9.75146 5.59592 9.52985 5.83377 9.45262C7.40856 8.94162 8.64336 7.70682 9.15443 6.13202C9.23159 5.89418 9.4532 5.73312 9.70328 5.73318ZM7.41808 10.0012C8.36451 10.5517 9.15236 11.3396 9.70297 12.2862C10.2536 11.3395 11.0417 10.5517 11.9881 10.0012C11.0417 9.45054 10.2536 8.66269 9.70297 7.71626C9.15236 8.66262 8.36443 9.45054 7.41808 10.0012Z" fill="#EBEEEF"/>
</svg>
