<svg width="20" height="20" viewBox="0 0 20 20" fill="none" xmlns="http://www.w3.org/2000/svg">
<path fill-rule="evenodd" clip-rule="evenodd" d="M3.34995 3.76726C4.10743 2.95474 5.18608 2.5 6.4595 2.5H12.9477C14.2242 2.5 15.303 2.95451 16.0597 3.76761C16.8122 4.57602 17.2033 5.69195 17.2033 6.94412V13.0566C17.2033 14.3088 16.8122 15.4246 16.0596 16.2328C15.3027 17.0458 14.2237 17.5 12.947 17.5H6.4595C5.18317 17.5 4.10422 17.0458 3.34722 16.2329C2.59455 15.4247 2.20325 14.3088 2.20325 13.0566V6.94412C2.20325 5.69115 2.59665 4.57531 3.34995 3.76726ZM4.19394 4.55407C3.67282 5.11305 3.35709 5.9308 3.35709 6.94412V13.0566C3.35709 14.0707 3.67156 14.8881 4.19162 15.4465C4.70735 16.0003 5.46806 16.3462 6.4595 16.3462H12.947C13.9388 16.3462 14.6995 16.0003 15.2151 15.4465C15.735 14.8882 16.0494 14.0708 16.0494 13.0566V6.94412C16.0494 5.93 15.735 5.11233 15.2151 4.55372C14.6996 3.99979 13.939 3.65385 12.9477 3.65385H6.4595C5.47189 3.65385 4.71087 3.99957 4.19394 4.55407Z" fill="#EBEEEF"/>
<path fill-rule="evenodd" clip-rule="evenodd" d="M10.4891 6.16872C10.2426 5.4077 9.16574 5.4077 8.9192 6.16872L8.17312 8.46992L5.87126 9.21592L5.86993 9.21638C5.11339 9.46362 5.10742 10.5385 5.87126 10.7858L8.17312 11.5319L8.9192 13.8338C9.16589 14.5938 10.2424 14.5941 10.489 13.834L11.2352 11.5319L13.537 10.7858C14.2997 10.5383 14.2941 9.46415 13.5389 9.21654L11.2351 8.46992L10.4891 6.16872ZM9.70412 7.48898L9.21897 8.98546L9.21859 8.98669C9.13674 9.23723 8.94043 9.43346 8.68997 9.51531L8.68866 9.51577L7.19176 10.0009L8.68997 10.4865C8.94043 10.5683 9.13674 10.7646 9.21859 11.0152L9.21897 11.0164L9.70412 12.5133L10.1893 11.0164L10.1897 11.0152C10.2716 10.7646 10.4679 10.5683 10.7184 10.4865L10.7197 10.4861L12.2165 10.0009L10.7197 9.51577L10.7184 9.51531C10.4679 9.43346 10.2716 9.23723 10.1897 8.98669L10.1894 8.98546L9.70412 7.48898Z" fill="#EBEEEF"/>
</svg>
