<svg width="20" height="20" viewBox="0 0 20 20" fill="none" xmlns="http://www.w3.org/2000/svg">
<path fill-rule="evenodd" clip-rule="evenodd" d="M8.02587 3.98373C7.8421 3.89422 7.62036 3.9664 7.52448 4.14687L7.0007 5.13383C6.77917 5.55054 6.3775 5.84383 5.9112 5.92558M5.9112 5.92558L4.81034 6.11866C4.60968 6.15392 4.47209 6.34261 4.50052 6.5453L4.65692 7.6521C4.7229 8.11999 4.56944 8.59292 4.24046 8.93269L3.46377 9.73553C3.32197 9.88207 3.3213 10.1156 3.46397 10.2635L4.24046 11.0661C4.56944 11.4059 4.72293 11.8787 4.65694 12.3465L4.50056 13.4525C4.47197 13.6564 4.60993 13.845 4.81034 13.8801L5.91113 14.0732C6.37658 14.1548 6.77855 14.4464 7.00051 14.8639L7.5246 15.8514C7.62064 16.0325 7.84218 16.1043 8.02541 16.0146L9.03018 15.5242C9.45487 15.3166 9.95164 15.3166 10.3764 15.5241L11.38 16.0144C11.5645 16.1045 11.7861 16.0324 11.882 15.8515L12.406 14.8642C12.6279 14.4467 13.03 14.1548 13.4955 14.0732L14.5956 13.8801C14.7969 13.8448 14.9347 13.6561 14.9061 13.4525L14.7499 12.348C14.6828 11.8793 14.8366 11.4058 15.1654 11.0661L15.9426 10.2636C16.0853 10.1158 16.0848 9.88238 15.9431 9.73576L15.1655 8.93269C14.8366 8.59307 14.6826 8.12 14.7498 7.65128L14.9061 6.54549C14.9345 6.34303 14.7973 6.15402 14.5957 6.11869L13.4955 5.9256C13.0293 5.84383 12.6276 5.55088 12.4061 5.13419L11.8822 4.14687C11.7864 3.96689 11.5646 3.894 11.3798 3.98382L10.3767 4.47453C9.95195 4.68212 9.45495 4.68222 9.03018 4.47463L8.02587 3.98373M6.5055 3.60554C6.89307 2.87601 7.78926 2.58445 8.53203 2.94682L9.5368 3.43795C9.64187 3.48932 9.7648 3.48932 9.86987 3.43795L10.8742 2.94666C11.6172 2.58473 12.5134 2.87572 12.9011 3.60554L13.425 4.59256C13.4803 4.69673 13.5803 4.76902 13.6947 4.78907L14.7949 4.98216C15.6095 5.12501 16.1639 5.88806 16.0486 6.70633L15.8922 7.81354L15.892 7.81482C15.8756 7.9297 15.9132 8.04622 15.9944 8.13006L16.7719 8.93315C17.3471 9.52746 17.3467 10.4706 16.7725 11.0651L15.9944 11.8688C15.9133 11.9526 15.8756 12.0691 15.892 12.184L15.8922 12.1852L16.0486 13.2914C16.1637 14.11 15.61 14.8738 14.795 15.0166L13.6949 15.2098C13.5795 15.2299 13.4799 15.3021 13.425 15.4055L12.9013 16.3921C12.5137 17.1228 11.617 17.4145 10.8735 17.0511L9.86995 16.5609C9.76487 16.5095 9.64187 16.5095 9.5368 16.5608L8.53272 17.0509C7.78957 17.4145 6.89281 17.1226 6.50539 16.3923L5.98168 15.4055C5.92674 15.3021 5.82726 15.23 5.71194 15.2098L4.61094 15.0166C3.79654 14.8737 3.24291 14.1103 3.35795 13.2918L3.5144 12.1855C3.53067 12.0696 3.49259 11.9525 3.41149 11.8688L2.63446 11.0655C2.0603 10.471 2.05937 9.52769 2.63446 8.9333L3.41132 8.13026C3.49244 8.04648 3.53071 7.92936 3.51443 7.81354L3.358 6.70663C3.24286 5.88857 3.79677 5.12508 4.61087 4.98219L5.71187 4.78909C5.8263 4.76903 5.9263 4.69674 5.98167 4.59258L6.5055 3.60554Z" fill="#EBEEEF"/>
<path fill-rule="evenodd" clip-rule="evenodd" d="M9.70318 6.53846C9.95711 6.53846 10.1812 6.70448 10.2551 6.9474C10.6198 8.14563 11.5575 9.08338 12.7556 9.44807C12.9986 9.522 13.1646 9.74607 13.1646 10C13.1646 10.2539 12.9986 10.478 12.7556 10.5519C11.5575 10.9166 10.6198 11.8544 10.2551 13.0526C10.1812 13.2955 9.95711 13.4615 9.70318 13.4615C9.44926 13.4615 9.22518 13.2955 9.15126 13.0526C8.78657 11.8544 7.84887 10.9166 6.65069 10.5519C6.40778 10.478 6.24177 10.2539 6.24177 10C6.24177 9.74607 6.40778 9.522 6.65069 9.44807C7.84887 9.08338 8.78657 8.14563 9.15126 6.9474C9.22518 6.70448 9.44926 6.53846 9.70318 6.53846ZM8.18857 10C8.79849 10.3872 9.31595 10.9047 9.70318 11.5146C10.0903 10.9047 10.6078 10.3872 11.2177 10C10.6078 9.61276 10.0903 9.0953 9.70318 8.48538C9.31595 9.0953 8.79849 9.61276 8.18857 10Z" fill="#EBEEEF"/>
</svg>
