<svg width="20" height="20" viewBox="0 0 20 20" fill="none" xmlns="http://www.w3.org/2000/svg">
<path fill-rule="evenodd" clip-rule="evenodd" d="M8.15708 2.98505C8.15708 2.63987 8.43692 2.36005 8.78208 2.36005H13.9048C15.2315 2.36005 16.3548 2.83252 17.1433 3.6794C17.927 4.52122 18.3333 5.68211 18.3333 6.9823V11.6679C18.3333 12.3263 18.0787 12.9589 17.6233 13.4336L14.0647 17.1398C13.5846 17.6401 12.9206 17.9239 12.2263 17.9239H7.19777C5.87454 17.9239 4.75183 17.4512 3.96298 16.6049C3.17866 15.7635 2.7701 14.6027 2.7701 13.3017V8.5666C2.7701 8.22144 3.04993 7.94162 3.3951 7.94162C3.74028 7.94162 4.0201 8.22144 4.0201 8.5666V13.3017C4.0201 14.3431 4.34451 15.1809 4.87733 15.7526C5.40563 16.3194 6.18425 16.6739 7.19777 16.6739H12.2263C12.5796 16.6739 12.9179 16.5296 13.1626 16.2744L16.7212 12.5683C16.9532 12.3263 17.0833 12.0035 17.0833 11.6679V6.9823C17.0833 5.9401 16.7602 5.10235 16.2283 4.53115C15.7013 3.965 14.9228 3.61005 13.9048 3.61005H8.78208C8.43692 3.61005 8.15708 3.33022 8.15708 2.98505Z" fill="#EBEEEF"/>
<path fill-rule="evenodd" clip-rule="evenodd" d="M15.0745 11.4974H17.6467C17.9919 11.4974 18.2717 11.7773 18.2717 12.1224C18.2717 12.4676 17.9919 12.7474 17.6467 12.7474H15.0763C14.0967 12.7495 13.3033 13.5453 13.3039 14.5253V17.2402C13.3039 17.5854 13.0242 17.8652 12.6789 17.8652C12.3337 17.8652 12.0539 17.5854 12.0539 17.2402V14.5258C12.0532 12.8564 13.4047 11.5005 15.0745 11.4974Z" fill="#EBEEEF"/>
<path fill-rule="evenodd" clip-rule="evenodd" d="M6.68405 7.89715C6.68405 7.55198 6.96387 7.27215 7.30905 7.27215H12.4244C12.7696 7.27215 13.0494 7.55198 13.0494 7.89715C13.0494 8.24234 12.7696 8.52219 12.4244 8.52219H7.30905C6.96387 8.52219 6.68405 8.24234 6.68405 7.89715ZM6.68286 11.6923C6.68286 11.3471 6.96269 11.0673 7.30786 11.0673H10.487C10.8322 11.0673 11.112 11.3471 11.112 11.6923C11.112 12.0374 10.8322 12.3173 10.487 12.3173H7.30786C6.96269 12.3173 6.68286 12.0374 6.68286 11.6923Z" fill="#EBEEEF"/>
<path fill-rule="evenodd" clip-rule="evenodd" d="M2.2667 2.25991C2.51078 2.01582 2.90651 2.01582 3.15059 2.25991L4.05154 3.16086L4.9525 2.25991C5.19657 2.01582 5.59231 2.01582 5.83638 2.25991C6.08046 2.50398 6.08046 2.89971 5.83638 3.14379L4.93542 4.04474L5.83678 4.9461C6.08086 5.19017 6.08086 5.5859 5.83678 5.82998C5.5927 6.07406 5.19697 6.07406 4.9529 5.82998L4.05154 4.92863L3.15019 5.82998C2.90612 6.07406 2.51038 6.07406 2.26631 5.82998C2.02223 5.5859 2.02223 5.19017 2.26631 4.9461L3.16766 4.04474L2.2667 3.14379C2.02262 2.89971 2.02262 2.50398 2.2667 2.25991Z" fill="#EBEEEF"/>
</svg>
