<svg width="20" height="20" viewBox="0 0 20 20" fill="none" xmlns="http://www.w3.org/2000/svg">
<path fill-rule="evenodd" clip-rule="evenodd" d="M10.4624 1.875C10.8075 1.875 11.0874 2.15483 11.0874 2.5V3.64325C11.0874 3.98843 10.8075 4.26825 10.4624 4.26825C10.1172 4.26825 9.83737 3.98843 9.83737 3.64325V2.5C9.83737 2.15483 10.1172 1.875 10.4624 1.875ZM16.2075 4.25458C16.4515 4.49866 16.4515 4.89438 16.2075 5.13847L15.399 5.94685C15.155 6.19093 14.7592 6.19093 14.5151 5.94685C14.2711 5.70277 14.2711 5.30704 14.5151 5.06297L15.3235 4.25458C15.5676 4.0105 15.9634 4.0105 16.2075 4.25458ZM4.71726 4.25497C4.96133 4.0109 5.35706 4.0109 5.60114 4.25497L6.40952 5.06336C6.6536 5.30744 6.6536 5.70317 6.40952 5.94724C6.16545 6.19133 5.76971 6.19133 5.52564 5.94724L4.71726 5.13886C4.47317 4.89478 4.47317 4.49905 4.71726 4.25497ZM2.33728 10.0001C2.33728 9.65492 2.6171 9.37508 2.96228 9.37508H4.10553C4.45071 9.37508 4.73053 9.65492 4.73053 10.0001C4.73053 10.3453 4.45071 10.6251 4.10553 10.6251H2.96228C2.6171 10.6251 2.33728 10.3453 2.33728 10.0001ZM16.194 10.0001C16.194 9.65492 16.4739 9.37508 16.819 9.37508H17.9623C18.3075 9.37508 18.5873 9.65492 18.5873 10.0001C18.5873 10.3453 18.3075 10.6251 17.9623 10.6251H16.819C16.4739 10.6251 16.194 10.3453 16.194 10.0001ZM6.40952 14.0529C6.6536 14.297 6.6536 14.6927 6.40952 14.9368L5.60114 15.7452C5.35706 15.9892 4.96133 15.9892 4.71726 15.7452C4.47317 15.5011 4.47317 15.1053 4.71726 14.8612L5.52564 14.0529C5.76971 13.8088 6.16545 13.8088 6.40952 14.0529ZM14.5151 14.0529C14.7592 13.8088 15.155 13.8088 15.399 14.0529L16.2075 14.8612C16.4515 15.1053 16.4515 15.5011 16.2075 15.7452C15.9634 15.9892 15.5676 15.9892 15.3235 15.7452L14.5151 14.9368C14.2711 14.6927 14.2711 14.297 14.5151 14.0529ZM10.4624 15.7317C10.8075 15.7317 11.0874 16.0116 11.0874 16.3567V17.5C11.0874 17.8452 10.8075 18.125 10.4624 18.125C10.1172 18.125 9.83737 17.8452 9.83737 17.5V16.3567C9.83737 16.0116 10.1172 15.7317 10.4624 15.7317Z" fill="#EBEEEF"/>
<path fill-rule="evenodd" clip-rule="evenodd" d="M10.4625 7.12891C8.87637 7.12891 7.59119 8.41467 7.59119 10.0002C7.59119 11.5865 8.87645 12.8722 10.4625 12.8722C12.0485 12.8722 13.3337 11.5865 13.3337 10.0002C13.3337 8.41467 12.0485 7.12891 10.4625 7.12891ZM6.34119 10.0002C6.34119 7.72451 8.18579 5.87891 10.4625 5.87891C12.739 5.87891 14.5837 7.72451 14.5837 10.0002C14.5837 12.2765 12.7392 14.1222 10.4625 14.1222C8.1857 14.1222 6.34119 12.2765 6.34119 10.0002Z" fill="#EBEEEF"/>
</svg>
