<svg width="20" height="20" viewBox="0 0 20 20" fill="none" xmlns="http://www.w3.org/2000/svg">
<path fill-rule="evenodd" clip-rule="evenodd" d="M4.16072 14.0168C4.49209 14.0168 4.76072 14.2854 4.76072 14.6168V16.8949C4.76072 17.2262 4.49209 17.4949 4.16072 17.4949C3.82934 17.4949 3.56072 17.2262 3.56072 16.8949V14.6168C3.56072 14.2854 3.82934 14.0168 4.16072 14.0168Z" fill="#EBEEEF"/>
<path fill-rule="evenodd" clip-rule="evenodd" d="M8.26582 12.932C8.59718 12.932 8.86582 13.2006 8.86582 13.532V16.8949C8.86582 17.2262 8.59718 17.4949 8.26582 17.4949C7.93442 17.4949 7.6658 17.2262 7.6658 16.8949V13.532C7.6658 13.2006 7.93442 12.932 8.26582 12.932Z" fill="#EBEEEF"/>
<path fill-rule="evenodd" clip-rule="evenodd" d="M12.3711 10.7625C12.7025 10.7625 12.9711 11.0311 12.9711 11.3625V16.895C12.9711 17.2263 12.7025 17.495 12.3711 17.495C12.0397 17.495 11.7711 17.2263 11.7711 16.895V11.3625C11.7711 11.0311 12.0397 10.7625 12.3711 10.7625Z" fill="#EBEEEF"/>
<path fill-rule="evenodd" clip-rule="evenodd" d="M16.4764 7.61681C16.8077 7.61681 17.0764 7.88543 17.0764 8.21681V16.8952C17.0764 17.2266 16.8077 17.4952 16.4764 17.4952C16.1449 17.4952 15.8764 17.2266 15.8764 16.8952V8.21681C15.8764 7.88543 16.1449 7.61681 16.4764 7.61681Z" fill="#EBEEEF"/>
<path fill-rule="evenodd" clip-rule="evenodd" d="M16.8271 2.00807C16.9576 2.10209 17.0449 2.24458 17.0694 2.40357L17.4142 4.64157C17.4647 4.96908 17.2401 5.27548 16.9126 5.32593C16.5851 5.3764 16.2787 5.15181 16.2282 4.82429L15.9763 3.18927L14.0829 3.51339C13.7563 3.5693 13.4462 3.34985 13.3903 3.02323C13.3344 2.69661 13.5538 2.38651 13.8805 2.3306L16.3752 1.90353C16.5337 1.87639 16.6965 1.91405 16.8271 2.00807Z" fill="#EBEEEF"/>
<path fill-rule="evenodd" clip-rule="evenodd" d="M16.786 1.98113C17.0698 2.15219 17.1612 2.52093 16.9901 2.80473C14.3593 7.16991 10.9167 9.30337 8.12374 10.3396C6.73036 10.8566 5.50083 11.0999 4.6159 11.214C4.17315 11.2711 3.81574 11.2961 3.56602 11.3066C3.44112 11.3118 3.34306 11.3135 3.27461 11.3138C3.24038 11.314 3.21354 11.3138 3.19445 11.3136L3.17165 11.3132L3.16469 11.313L3.16232 11.313H3.16142C3.16142 11.313 3.16072 11.313 3.17832 10.7191L3.16142 11.313C2.8302 11.3031 2.56894 11.0266 2.57876 10.6954C2.58858 10.3644 2.86476 10.1039 3.19576 10.1134L3.20989 10.1137C3.22213 10.1138 3.24195 10.114 3.26902 10.1138C3.32314 10.1136 3.40619 10.1122 3.51542 10.1077C3.73395 10.0984 4.05686 10.0762 4.46238 10.0239C5.27395 9.91921 6.41269 9.69449 7.70631 9.21457C10.2873 8.25697 13.4937 6.28136 15.9624 2.18529C16.1334 1.90149 16.5022 1.81009 16.786 1.98113Z" fill="#EBEEEF"/>
</svg>
