<svg width="20" height="20" viewBox="0 0 20 20" fill="none" xmlns="http://www.w3.org/2000/svg">
<path fill-rule="evenodd" clip-rule="evenodd" d="M3.53401 4.13001C4.35465 3.28517 5.52318 2.8125 6.90263 2.8125H13.9315C15.3143 2.8125 16.4829 3.28494 17.3029 4.13036C18.118 4.97094 18.5417 6.13135 18.5417 7.4336V13.7914C18.5417 15.0933 18.118 16.2537 17.3028 17.0943C16.4828 17.9398 15.3139 18.4125 13.9308 18.4125H6.90263C5.51985 18.4125 4.351 17.9398 3.53097 17.0944C2.71562 16.2538 2.29169 15.0934 2.29169 13.7914V7.4336C2.29169 6.13052 2.7179 4.9702 3.53401 4.13001ZM4.44821 4.9484C3.88373 5.52953 3.54169 6.37977 3.54169 7.4336V13.7914C3.54169 14.8455 3.88235 15.6958 4.44579 16.2766C5.00454 16.8527 5.82866 17.2125 6.90263 17.2125H13.9308C15.0052 17.2125 15.8293 16.8526 16.3879 16.2766C16.9512 15.6958 17.2917 14.8456 17.2917 13.7914V7.4336C17.2917 6.37893 16.9512 5.52879 16.3879 4.94805C15.8294 4.37216 15.0056 4.0125 13.9315 4.0125H6.90263C5.83263 4.0125 5.00818 4.37192 4.44821 4.9484Z" fill="#EBEEEF"/>
<path fill-rule="evenodd" clip-rule="evenodd" d="M6.70249 7.62813C6.70249 7.29676 6.98232 7.02813 7.32749 7.02813H13.505C13.8503 7.02813 14.13 7.29676 14.13 7.62813V8.68048C14.13 9.01184 13.8503 9.28048 13.505 9.28048C13.1599 9.28048 12.88 9.01184 12.88 8.68048V8.22813H7.95249V8.68048C7.95249 9.01184 7.67267 9.28048 7.32749 9.28048C6.98232 9.28048 6.70249 9.01184 6.70249 8.68048V7.62813Z" fill="#EBEEEF"/>
<path fill-rule="evenodd" clip-rule="evenodd" d="M10.3874 7.02813C10.7325 7.02813 11.0124 7.29676 11.0124 7.62813V12.9974H11.7949C12.14 12.9974 12.4199 13.2661 12.4199 13.5974C12.4199 13.9288 12.14 14.1974 11.7949 14.1974H10.3949C10.3924 14.1975 10.3899 14.1975 10.3874 14.1975C10.3849 14.1975 10.3824 14.1975 10.3799 14.1974H9.03894C8.69377 14.1974 8.41394 13.9288 8.41394 13.5974C8.41394 13.2661 8.69377 12.9974 9.03894 12.9974H9.76235V7.62813C9.76235 7.29676 10.0422 7.02813 10.3874 7.02813Z" fill="#EBEEEF"/>
</svg>
