<svg width="20" height="20" viewBox="0 0 20 20" fill="none" xmlns="http://www.w3.org/2000/svg">
<path fill-rule="evenodd" clip-rule="evenodd" d="M10.3123 1.66692C12.1923 1.66692 13.8706 2.86108 14.4865 4.63942C14.5998 4.96525 14.4265 5.32108 14.0998 5.43442C13.774 5.54858 13.4181 5.37442 13.3048 5.04775C12.864 3.77358 11.6598 2.91692 10.3098 2.91692H10.2981C8.55479 2.91692 7.13479 4.32858 7.12729 6.07025L7.12671 7.18858L13.4867 7.18917C15.5734 7.18917 17.2717 8.8875 17.2717 10.975V14.5483C17.2717 16.6358 15.5734 18.3342 13.4867 18.3342H7.11837C5.03087 18.3342 3.33337 16.6358 3.33337 14.5483V10.975C3.33337 9.32217 4.39754 7.91332 5.87688 7.39826L5.87729 6.08442C5.88812 3.63608 7.86812 1.66692 10.2956 1.66692H10.3123ZM13.4867 8.43917H7.11837C5.72004 8.43917 4.58337 9.57666 4.58337 10.975V14.5483C4.58337 15.9467 5.72004 17.0842 7.11837 17.0842H13.4867C14.8842 17.0842 16.0217 15.9467 16.0217 14.5483V10.975C16.0217 9.57666 14.8842 8.43917 13.4867 8.43917ZM10.3028 11.2107C10.6478 11.2107 10.9278 11.4907 10.9278 11.8357V13.6873C10.9278 14.0323 10.6478 14.3123 10.3028 14.3123C9.95779 14.3123 9.67779 14.0323 9.67779 13.6873V11.8357C9.67779 11.4907 9.95779 11.2107 10.3028 11.2107Z" fill="#EBEEEF"/>
</svg>
