<svg width="20" height="20" viewBox="0 0 20 20" fill="none" xmlns="http://www.w3.org/2000/svg">
<path fill-rule="evenodd" clip-rule="evenodd" d="M10.3336 3.125C6.53637 3.125 3.45862 6.20274 3.45862 10C3.45862 13.7965 6.53641 16.875 10.3336 16.875C14.1308 16.875 17.2086 13.7965 17.2086 10C17.2086 6.20274 14.1309 3.125 10.3336 3.125ZM2.20862 10C2.20862 5.51239 5.84601 1.875 10.3336 1.875C14.8212 1.875 18.4586 5.51239 18.4586 10C18.4586 14.4867 14.8213 18.125 10.3336 18.125C5.84597 18.125 2.20862 14.4867 2.20862 10Z" fill="#EBEEEF"/>
<path fill-rule="evenodd" clip-rule="evenodd" d="M7.53023 14.7473C6.98673 15.1726 6.72861 15.7181 6.66328 16.2252C6.61918 16.5675 6.30589 16.8093 5.96354 16.7652C5.62119 16.7211 5.37943 16.4078 5.42353 16.0654C5.52847 15.2509 5.94333 14.4018 6.75996 13.7628C7.57512 13.1251 8.74488 12.7311 10.3083 12.7311C11.8869 12.7311 13.064 13.1267 13.8814 13.7701C14.7009 14.4152 15.1102 15.2725 15.2098 16.0944C15.2514 16.4371 15.0072 16.7486 14.6645 16.7901C14.3219 16.8317 14.0105 16.5875 13.9689 16.2448C13.9064 15.7289 13.6509 15.1795 13.1081 14.7522C12.5634 14.3234 11.681 13.9811 10.3083 13.9811C8.95271 13.9811 8.07521 14.3209 7.53023 14.7473Z" fill="#EBEEEF"/>
<path fill-rule="evenodd" clip-rule="evenodd" d="M10.3105 6.48438C9.13842 6.48438 8.18848 7.43398 8.18848 8.60558C8.18848 9.77717 9.13842 10.7268 10.3105 10.7268C11.4823 10.7268 12.4318 9.77742 12.4318 8.60558C12.4318 7.43374 11.4823 6.48438 10.3105 6.48438ZM6.93848 8.60558C6.93848 6.74315 8.4485 5.23438 10.3105 5.23438C12.1728 5.23438 13.6818 6.74338 13.6818 8.60558C13.6818 10.4678 12.1728 11.9768 10.3105 11.9768C8.4485 11.9768 6.93848 10.468 6.93848 8.60558Z" fill="#EBEEEF"/>
</svg>
