<svg width="20" height="20" viewBox="0 0 20 20" fill="none" xmlns="http://www.w3.org/2000/svg">
<path fill-rule="evenodd" clip-rule="evenodd" d="M1.94501 6.60302C1.94501 4.40362 3.72797 2.62045 5.92677 2.62045H14.2124C16.4119 2.62045 18.195 4.40352 18.195 6.60302V13.4C18.195 15.5995 16.4119 17.3826 14.2124 17.3826H5.92677C3.72797 17.3826 1.94501 15.5994 1.94501 13.4V6.60302ZM5.92677 3.87045C4.41853 3.87045 3.19501 5.09378 3.19501 6.60302V13.4C3.19501 14.9093 4.41853 16.1326 5.92677 16.1326H14.2124C15.7216 16.1326 16.945 14.9092 16.945 13.4V6.60302C16.945 5.09388 15.7216 3.87045 14.2124 3.87045H5.92677Z" fill="#EBEEEF"/>
<path fill-rule="evenodd" clip-rule="evenodd" d="M8.59544 12.3243C8.94061 12.3243 9.22044 12.604 9.22044 12.9493V13.1085H14.4429C14.7881 13.1085 15.0679 13.3883 15.0679 13.7335C15.0679 14.0787 14.7881 14.3585 14.4429 14.3585H9.21952C9.20177 14.6878 8.92911 14.9493 8.59544 14.9493C8.25022 14.9493 7.9704 14.6695 7.9704 14.3243V12.9493C7.9704 12.604 8.25022 12.3243 8.59544 12.3243Z" fill="#EBEEEF"/>
<path fill-rule="evenodd" clip-rule="evenodd" d="M5.07164 13.7338C5.07164 13.3886 5.35146 13.1088 5.69664 13.1088H6.68097C7.02614 13.1088 7.30597 13.3886 7.30597 13.7338C7.30597 14.0789 7.02614 14.3588 6.68097 14.3588H5.69664C5.35146 14.3588 5.07164 14.0789 5.07164 13.7338Z" fill="#EBEEEF"/>
<path fill-rule="evenodd" clip-rule="evenodd" d="M9.27927 7.08453C9.20211 7.77539 9.19927 8.52151 9.27986 9.30651C9.29486 9.41693 9.33552 9.43868 9.33836 9.44018C9.34294 9.44276 9.40344 9.47534 9.54994 9.41818C10.1485 9.17618 10.696 8.81926 11.1329 8.42409C11.2484 8.31736 11.2644 8.23309 11.2641 8.19161C11.2639 8.14891 11.2459 8.06636 11.1347 7.96551L11.132 7.96309C10.6738 7.54303 10.1435 7.21334 9.54461 6.96849L9.53827 6.9659C9.42794 6.91936 9.36461 6.94028 9.34561 6.95026C9.33486 6.95589 9.32427 6.96429 9.31386 6.97991C9.30352 6.99542 9.28736 7.02721 9.27927 7.08453ZM10.0205 5.81261C9.61444 5.64246 9.15669 5.63753 8.76427 5.84365C8.36169 6.05515 8.10169 6.45072 8.03927 6.92649L8.03787 6.93796C7.949 7.72827 7.94704 8.56951 8.03726 9.44284L8.03878 9.45609C8.09465 9.90309 8.32625 10.3048 8.72519 10.5295C9.12094 10.7523 9.58577 10.7475 10.0101 10.5804L10.015 10.5784C10.7604 10.2776 11.4339 9.83793 11.9739 9.34893L11.9774 9.34576C12.3121 9.03801 12.5165 8.63109 12.5141 8.18486C12.5117 7.74031 12.3044 7.33934 11.9755 7.04059C11.4018 6.51487 10.7448 6.10907 10.0205 5.81261Z" fill="#EBEEEF"/>
</svg>
