<svg width="20" height="20" viewBox="0 0 20 20" fill="none" xmlns="http://www.w3.org/2000/svg">
<path fill-rule="evenodd" clip-rule="evenodd" d="M6.74106 4.16783L7.13301 4.16833C7.20001 4.16843 7.26776 4.16853 7.33613 4.16863L7.75268 4.16931C8.66668 4.17087 9.64021 4.17301 10.3822 4.17455L10.7071 4.17521C10.7582 4.17532 10.8076 4.17541 10.8553 4.17551C12.7303 4.04384 14.4228 5.43551 14.5736 7.30301C14.575 7.32216 14.5763 7.43086 14.5773 7.62859L16.3071 6.21192C16.8105 5.79942 17.488 5.71859 18.0755 5.99609C18.663 6.27526 19.028 6.85192 19.0271 7.50192L19.0171 13.6261C19.0163 14.2761 18.6505 14.8528 18.0638 15.1294C17.8338 15.2386 17.5905 15.2911 17.3488 15.2911C16.973 15.2911 16.6021 15.1619 16.2963 14.9111L14.5812 13.4879C14.5811 13.5121 14.5811 13.5362 14.5811 13.5605C14.6161 14.4405 14.3028 15.288 13.6978 15.9463C13.062 16.6388 12.1853 17.0413 11.2303 17.0805C11.2141 17.0817 11.1228 17.0825 10.973 17.0829L10.6438 17.0835C10.5154 17.0836 10.3695 17.0836 10.2097 17.0835L9.50472 17.0829C9.44121 17.0828 9.37668 17.0827 9.31126 17.0826L8.90925 17.082C7.95145 17.0803 6.87254 17.0778 6.03607 17.076L5.69349 17.0753C5.58495 17.0751 5.48242 17.0749 5.38696 17.0747C5.29863 17.0813 5.21029 17.0847 5.12196 17.0847C3.36029 17.0855 1.82363 15.7355 1.67863 13.9647L1.6785 13.9629L1.67772 13.9464C1.67766 13.9446 1.6776 13.9426 1.67754 13.9404L1.67697 13.9141C1.6769 13.9104 1.67683 13.9064 1.67677 13.9021L1.67613 13.8535C1.67606 13.847 1.67599 13.8401 1.67592 13.8327L1.67525 13.7539C1.67518 13.7437 1.6751 13.733 1.67503 13.7217L1.67457 13.6473C1.6745 13.6337 1.67442 13.6195 1.67434 13.6047L1.67367 13.4539C1.67359 13.4351 1.67352 13.4156 1.67345 13.3953L1.67279 13.1924C1.67272 13.1674 1.67265 13.1417 1.67258 13.1151L1.67198 12.8521C1.67192 12.8201 1.67185 12.7873 1.67179 12.7534L1.67109 12.2998C1.67104 12.2578 1.67098 12.2148 1.67093 12.1707L1.67029 11.4235C1.67025 11.3677 1.67022 11.3107 1.67019 11.2525L1.67018 7.98755C1.67021 7.88852 1.67025 7.78785 1.67029 7.68551C1.63029 6.82634 1.94196 5.97301 2.55029 5.30884C3.18529 4.61551 4.06113 4.21134 5.01696 4.17051C5.02983 4.16958 5.09073 4.16888 5.1912 4.16837L5.37049 4.16775C5.40497 4.16767 5.44165 4.1676 5.4804 4.16754L6.55382 4.16763C6.61513 4.16769 6.67759 4.16776 6.74106 4.16783ZM10.9003 5.42384C9.84816 5.42231 8.56169 5.42047 7.46385 5.41927L6.88627 5.41869C6.79397 5.4186 6.70387 5.41853 6.61628 5.41846L5.16705 5.4185C5.11251 5.41875 5.07724 5.41912 5.06363 5.41967C4.44863 5.44551 3.88113 5.70634 3.47196 6.15301C3.09029 6.57051 2.89363 7.10384 2.91946 7.65717L2.92015 10.8763C2.92018 10.9474 2.92022 11.0179 2.92026 11.0879L2.92103 12.083C2.92109 12.1449 2.92115 12.2058 2.92122 12.2655L2.92165 12.6098C2.92173 12.6646 2.9218 12.7182 2.92189 12.7704L2.9227 13.1995C2.92358 13.5858 2.92471 13.8364 2.92613 13.8847C3.02113 15.0388 4.10279 15.9213 5.34113 15.8263C5.47208 15.8265 5.60663 15.8267 5.74398 15.8269L6.1636 15.8276C6.51891 15.8282 6.88662 15.8288 7.25407 15.8294L7.69408 15.8302C7.91322 15.8305 8.13044 15.8309 8.34302 15.8312L8.76117 15.8319C8.82956 15.832 8.89723 15.832 8.96408 15.8321L9.35454 15.8327C9.41771 15.8327 9.47985 15.8328 9.54087 15.8329L11.0121 15.8328C11.1083 15.8325 11.1688 15.832 11.187 15.8313C11.7995 15.8063 12.3678 15.5463 12.777 15.1005C13.1595 14.6847 13.3561 14.1513 13.332 13.6005L13.3312 13.5868L13.3311 9.5566C13.331 9.49114 13.331 9.42653 13.331 9.36286L13.3303 8.64966C13.3303 8.59496 13.3302 8.54156 13.3301 8.48956L13.3294 8.06173C13.3292 7.93335 13.3289 7.82002 13.3285 7.72422L13.3278 7.55674C13.3273 7.46165 13.3268 7.40066 13.3261 7.37967C13.232 6.21967 12.1453 5.32634 10.9003 5.42384ZM17.0988 7.17942L14.5808 9.23383C14.5809 9.33622 14.581 9.44266 14.5811 9.55313L14.5816 11.6428L17.0888 13.9453C17.273 14.0953 17.458 14.0336 17.5296 13.9986C17.6013 13.9653 17.7671 13.8611 17.7671 13.6244L17.7771 7.50026C17.778 7.26359 17.6113 7.15942 17.5396 7.12526C17.4688 7.09192 17.2813 7.02942 17.0988 7.17942Z" fill="#EBEEEF"/>
</svg>
