<svg width="20" height="20" viewBox="0 0 20 20" fill="none" xmlns="http://www.w3.org/2000/svg">
<path d="M7.13301 4.16833L6.74106 4.16783L6.55382 4.16763L5.4804 4.16754L5.37049 4.16775L5.1912 4.16837C5.09073 4.16888 5.02983 4.16958 5.01696 4.17051C4.06113 4.21134 3.18529 4.61551 2.55029 5.30884C1.94196 5.97301 1.63029 6.82634 1.67029 7.68551L1.67018 7.98755L1.67019 11.2525L1.67029 11.4235L1.67093 12.1707L1.67109 12.2998L1.67179 12.7534L1.67198 12.8521L1.67258 13.1151L1.67279 13.1924L1.67345 13.3953L1.67367 13.4539L1.67434 13.6047L1.67457 13.6473L1.67503 13.7217L1.67525 13.7539L1.67592 13.8327L1.67613 13.8535L1.67677 13.9021L1.67697 13.9141L1.67754 13.9404L1.67772 13.9464L1.6785 13.9629L1.67863 13.9647C1.82363 15.7355 3.36029 17.0855 5.12196 17.0847C5.21029 17.0847 5.29863 17.0813 5.38696 17.0747L5.69349 17.0753L6.03607 17.076C6.87254 17.0778 7.95145 17.0803 8.90925 17.082L9.31126 17.0826L9.50472 17.0829L10.2097 17.0835L10.6438 17.0835C10.8472 17.0835 11.0121 16.9187 11.0121 16.7153V16.4582C11.0121 16.1128 10.7321 15.8328 10.3867 15.8329L9.54087 15.8329L9.35454 15.8327L8.96408 15.8321L8.76117 15.8319L8.34302 15.8312L7.69408 15.8302L7.25407 15.8294L6.1636 15.8276L5.74398 15.8269L5.34113 15.8263C4.10279 15.9213 3.02113 15.0388 2.92613 13.8847C2.92471 13.8364 2.92358 13.5858 2.9227 13.1995L2.92189 12.7704L2.92165 12.6098L2.92122 12.2655L2.92103 12.083L2.92026 11.0879L2.92015 10.8763L2.91946 7.65717C2.89363 7.10384 3.09029 6.57051 3.47196 6.15301C3.88113 5.70634 4.44863 5.44551 5.06363 5.41967C5.07724 5.41912 5.11251 5.41875 5.16705 5.4185L6.61628 5.41846L6.88627 5.41869L7.46385 5.41927C8.56169 5.42047 9.84816 5.42231 10.9003 5.42384C12.1453 5.32634 13.232 6.21967 13.3261 7.37967C13.3263 7.38647 13.3269 7.65344 13.3275 8.01468C13.329 8.83589 14.2625 9.30271 14.9199 8.81056L17.0988 7.17942C17.2813 7.02942 17.4688 7.09192 17.5396 7.12526C17.6113 7.15942 17.778 7.26359 17.7771 7.50026L17.7684 11.8738C17.7677 12.2194 18.0477 12.5 18.3934 12.5C18.7381 12.5 19.0177 12.2209 19.0184 11.8763L19.0271 7.50192C19.028 6.85192 18.663 6.27526 18.0755 5.99609C17.488 5.71859 16.8105 5.79942 16.3071 6.21192L14.5773 7.62859C14.5763 7.43086 14.575 7.32216 14.5736 7.30301C14.4228 5.43551 12.7303 4.04384 10.8553 4.17551L10.7071 4.17521L10.3822 4.17455C9.64021 4.17301 8.66668 4.17087 7.75268 4.16931L7.33613 4.16863L7.13301 4.16833Z" fill="#EBEEEF"/>
<path fill-rule="evenodd" clip-rule="evenodd" d="M14.9365 17.3974C16.5168 17.3974 17.7979 16.1163 17.7979 14.536C17.7979 12.9558 16.5168 11.6747 14.9365 11.6747C13.3563 11.6747 12.0752 12.9558 12.0752 14.536C12.0752 16.1163 13.3563 17.3974 14.9365 17.3974ZM16.6548 14.1448C16.8338 13.986 16.8502 13.7121 16.6914 13.5331C16.5325 13.3541 16.2586 13.3378 16.0796 13.4966L14.4991 14.899L13.793 14.2743C13.6138 14.1157 13.3399 14.1324 13.1813 14.3117C13.0228 14.4909 13.0395 14.7648 13.2187 14.9234L14.2124 15.8025C14.3765 15.9477 14.6232 15.9476 14.7872 15.8021L16.6548 14.1448Z" fill="#6EE7B7"/>
</svg>
