<svg width="20" height="20" viewBox="0 0 20 20" fill="none" xmlns="http://www.w3.org/2000/svg">
<path d="M10.0037 18.1126C8.737 18.1126 7.47035 17.8126 6.34535 17.2459C6.26201 17.2043 6.20368 17.2126 6.18701 17.2209C5.51201 17.3793 4.42868 17.6459 3.63701 17.8459C3.21201 17.9543 2.77035 17.8376 2.46201 17.5293C2.15368 17.2209 2.02034 16.7876 2.12034 16.3626C2.32034 15.5126 2.587 14.3209 2.72034 13.7293C2.72867 13.6793 2.72035 13.6293 2.70369 13.5876C2.15369 12.4126 1.87866 11.2043 1.87866 9.99593C1.87866 7.57929 2.95367 5.29596 4.82867 3.74596C6.69534 2.19596 9.14534 1.57095 11.5453 2.02095C14.787 2.62928 17.3703 5.21259 17.9787 8.45426C18.4287 10.8543 17.8037 13.3043 16.2537 15.1709C14.6953 17.0459 12.4203 18.1209 10.0037 18.1209V18.1126ZM6.22867 15.9626C6.462 15.9626 6.687 16.0209 6.90366 16.1293C7.85366 16.6126 8.92867 16.8626 9.99534 16.8626C12.037 16.8626 13.9703 15.9543 15.287 14.3626C16.5953 12.7793 17.1287 10.7126 16.7453 8.67093C16.2287 5.92927 14.0453 3.74597 11.3037 3.23763C9.27034 2.8543 7.19534 3.38763 5.61201 4.69597C4.02868 6.01263 3.11201 7.94595 3.11201 9.98759C3.11201 11.0126 3.34535 12.0459 3.82035 13.0543C3.96201 13.3543 3.99535 13.6793 3.92869 13.9959C3.79535 14.5876 3.52869 15.7876 3.32869 16.6376C4.12035 16.4293 5.212 16.1543 5.89534 15.9959C6.00367 15.9709 6.11202 15.9543 6.22035 15.9543L6.22867 15.9626Z" fill="#EBEEEF"/>
<path d="M11.6621 13.9691C10.5621 13.9691 9.27041 13.3024 7.98708 12.0274C5.92875 9.96909 5.44541 7.88575 6.72874 6.60242L6.83707 6.49408C7.19541 6.14408 7.67873 5.96073 8.17873 6.01073C8.67875 6.0524 9.12041 6.31077 9.40375 6.72743L9.78708 7.27742C10.2121 7.87742 10.1954 8.66909 9.77041 9.24409C10.0704 9.65242 10.3454 9.95243 10.7454 10.2441C11.3204 9.81076 12.1204 9.79409 12.7204 10.2191L13.2704 10.6024C13.6787 10.8858 13.9371 11.3358 13.9871 11.8358C14.0287 12.3358 13.8537 12.8191 13.4954 13.1691L13.3871 13.2774C12.9037 13.7524 12.3204 13.9941 11.6621 13.9941V13.9691ZM8.02039 7.2441C7.93706 7.2441 7.8204 7.26907 7.71206 7.36907L7.60372 7.47741C6.72039 8.36909 7.6704 9.95243 8.86208 11.1441C10.0371 12.3191 11.6037 13.2608 12.4954 12.3774L12.6037 12.2691C12.7287 12.1441 12.7371 12.0024 12.7287 11.9274C12.7287 11.8524 12.6871 11.7108 12.5454 11.6108L11.9954 11.2274C11.8204 11.1024 11.5871 11.1274 11.4371 11.2691L11.2371 11.4608C11.0371 11.6608 10.7204 11.7024 10.4787 11.5524C9.51208 10.9774 9.03708 10.4191 8.43708 9.51909C8.27039 9.26909 8.30375 8.94409 8.51208 8.73576L8.70375 8.53576C8.85375 8.38576 8.87041 8.15243 8.74541 7.97743L8.36208 7.42741C8.26206 7.28574 8.12039 7.25243 8.04539 7.2441C8.03706 7.2441 8.02041 7.2441 8.00374 7.2441H8.02039Z" fill="#EBEEEF"/>
</svg>
