<svg width="20" height="20" viewBox="0 0 20 20" fill="none" xmlns="http://www.w3.org/2000/svg">
<path fill-rule="evenodd" clip-rule="evenodd" d="M10.2084 3.125C6.41112 3.125 3.33337 6.20274 3.33337 10C3.33337 13.7972 6.41112 16.875 10.2084 16.875C14.0056 16.875 17.0834 13.7972 17.0834 10C17.0834 6.20274 14.0056 3.125 10.2084 3.125ZM2.08337 10C2.08337 5.51239 5.72077 1.875 10.2084 1.875C14.696 1.875 18.3334 5.51239 18.3334 10C18.3334 14.4876 14.696 18.125 10.2084 18.125C5.72077 18.125 2.08337 14.4876 2.08337 10Z" fill="#EBEEEF"/>
<path fill-rule="evenodd" clip-rule="evenodd" d="M8.81946 4.9146C8.34638 6.18563 8.04122 7.98341 8.04122 10C8.04122 12.0166 8.34638 13.8144 8.81946 15.0854C9.05688 15.7233 9.32463 16.1959 9.59021 16.4978C9.85671 16.8006 10.0675 16.875 10.2084 16.875C10.3491 16.875 10.559 16.8006 10.8255 16.4978C11.0911 16.1959 11.3588 15.7233 11.5962 15.0854C12.0693 13.8144 12.3745 12.0166 12.3745 10C12.3745 7.98341 12.0693 6.18563 11.5962 4.9146C11.3588 4.27672 11.0911 3.80408 10.8255 3.50227C10.559 3.19946 10.3491 3.125 10.2084 3.125C10.0675 3.125 9.85671 3.19946 9.59021 3.50227C9.32463 3.80408 9.05688 4.27672 8.81946 4.9146ZM8.65188 2.67642C9.05338 2.22024 9.57804 1.875 10.2084 1.875C10.8386 1.875 11.3623 2.22024 11.7638 2.67642C12.1662 3.1336 12.5 3.75927 12.7677 4.47857C13.3049 5.92194 13.6245 7.87416 13.6245 10C13.6245 12.1258 13.3049 14.0781 12.7677 15.5214C12.5 16.2407 12.1662 16.8664 11.7638 17.3236C11.3623 17.7797 10.8386 18.125 10.2084 18.125C9.57804 18.125 9.05338 17.7797 8.65188 17.3236C8.24951 16.8664 7.9157 16.2407 7.64798 15.5214C7.11077 14.0781 6.79122 12.1258 6.79122 10C6.79122 7.87416 7.11077 5.92194 7.64798 4.47857C7.9157 3.75927 8.24951 3.1336 8.65188 2.67642Z" fill="#EBEEEF"/>
<path fill-rule="evenodd" clip-rule="evenodd" d="M2.08337 10C2.08337 9.65483 2.3632 9.375 2.70837 9.375H17.7084C18.0535 9.375 18.3334 9.65483 18.3334 10C18.3334 10.3452 18.0535 10.625 17.7084 10.625H2.70837C2.3632 10.625 2.08337 10.3452 2.08337 10Z" fill="#EBEEEF"/>
</svg>
